<svg width="913" height="298" viewBox="0 0 913 298" fill="none" xmlns="http://www.w3.org/2000/svg">
<g clip-path="url(#clip0)">
<path d="M1.0651 211.223V82.7767L114.906 147L1.0651 211.223Z" stroke="#0A2133" stroke-width="2.1302"/>
<path d="M300.065 132.203V1.79743L412.943 67L300.065 132.203Z" stroke="#0A2133" stroke-width="2.1302"/>
<path d="M300.065 291.203V160.797L412.943 226L300.065 291.203Z" stroke="#0A2133" stroke-width="2.1302"/>
<path d="M167 147L110 147" stroke="#0A2133" stroke-width="1.0651" stroke-dasharray="5.33 5.33"/>
<path d="M602 147L544 147" stroke="#0A2133" stroke-width="1.0651" stroke-dasharray="5.33 5.33"/>
<path d="M414.359 68.246L547.688 146.675" stroke="#0A2133" stroke-width="1.0651" stroke-dasharray="5.33 5.33"/>
<path d="M547.689 146.675L414.359 225.105" stroke="#0A2133" stroke-width="1.0651" stroke-dasharray="5.33 5.33"/>
<path d="M299.971 68.5712L166.642 147" stroke="#0A2133" stroke-width="1.0651" stroke-dasharray="5.33 5.33"/>
<path d="M166.641 147.001L299.971 225.43" stroke="#0A2133" stroke-width="1.0651" stroke-dasharray="5.33 5.33"/>
<path d="M599.984 104.117L669.5 64.228L739.016 104.117V183.883L669.5 223.772L599.984 183.883V104.117Z" stroke="#0A2133" stroke-width="2.1302"/>
<path d="M638.842 171.099H673.66C674.327 171.099 674.981 170.914 675.548 170.563C676.116 170.212 676.574 169.71 676.873 169.114C677.171 168.517 677.297 167.849 677.238 167.184C677.178 166.52 676.934 165.885 676.534 165.352L673.936 161.889V144.572C673.93 140.716 672.665 136.968 670.333 133.897C668.002 130.827 664.731 128.601 661.019 127.559L664.983 119.644C665.103 119.403 665.132 119.126 665.062 118.866C664.993 118.605 664.831 118.379 664.607 118.23L663.502 117.491C662.668 116.937 661.702 116.613 660.703 116.551C659.703 116.489 658.705 116.691 657.808 117.138C657.327 117.378 656.796 117.503 656.257 117.503C655.719 117.503 655.188 117.378 654.706 117.138C653.81 116.691 652.812 116.489 651.812 116.551C650.813 116.613 649.847 116.937 649.013 117.491L647.908 118.23C647.684 118.379 647.522 118.605 647.453 118.866C647.384 119.126 647.412 119.403 647.532 119.644L651.49 127.559C647.777 128.599 644.505 130.825 642.172 133.895C639.839 136.966 638.573 140.715 638.566 144.572V161.889L635.968 165.352C635.568 165.885 635.324 166.52 635.265 167.184C635.205 167.849 635.331 168.517 635.629 169.114C635.928 169.71 636.386 170.212 636.954 170.563C637.521 170.914 638.175 171.099 638.842 171.099V171.099ZM649.939 119.527L650.234 119.332C650.743 118.993 651.332 118.794 651.942 118.755C652.552 118.717 653.162 118.839 653.71 119.111C654.5 119.504 655.37 119.708 656.252 119.708C657.134 119.708 658.005 119.504 658.794 119.111C659.342 118.838 659.952 118.715 660.563 118.754C661.173 118.792 661.763 118.992 662.272 119.332L662.567 119.527L658.782 127.089C657.944 126.961 657.099 126.893 656.251 126.887C655.404 126.893 654.558 126.961 653.72 127.089L649.939 119.527ZM637.737 166.678L640.556 162.92C640.699 162.729 640.777 162.496 640.777 162.257V144.572C640.777 140.468 642.407 136.532 645.309 133.63C648.211 130.728 652.147 129.097 656.251 129.097C660.355 129.097 664.291 130.728 667.193 133.63C670.095 136.532 671.725 140.468 671.725 144.572V162.257C671.725 162.496 671.803 162.729 671.947 162.92L674.765 166.678C674.919 166.883 675.013 167.127 675.036 167.383C675.059 167.639 675.01 167.895 674.896 168.125C674.781 168.354 674.604 168.548 674.386 168.682C674.168 168.817 673.916 168.889 673.66 168.889H638.842C638.586 168.889 638.334 168.817 638.116 168.682C637.898 168.548 637.721 168.354 637.607 168.125C637.492 167.895 637.443 167.639 637.466 167.383C637.489 167.127 637.583 166.883 637.737 166.678V166.678Z" fill="#0A2133"/>
<path d="M700.464 142.361H697.148V136.834C697.148 136.541 697.031 136.26 696.824 136.053C696.617 135.846 696.336 135.729 696.042 135.729H693.438C695.042 134.438 696.205 132.681 696.768 130.701C697.331 128.721 697.266 126.615 696.582 124.673C695.897 122.731 694.627 121.05 692.947 119.861C691.267 118.671 689.259 118.033 687.2 118.033C685.141 118.033 683.133 118.671 681.453 119.861C679.772 121.05 678.502 122.731 677.818 124.673C677.133 126.615 677.068 128.721 677.631 130.701C678.194 132.681 679.358 134.438 680.961 135.729H678.357C678.064 135.729 677.783 135.846 677.576 136.053C677.368 136.26 677.252 136.541 677.252 136.834V143.466C677.252 143.76 677.368 144.041 677.576 144.248C677.783 144.455 678.064 144.572 678.357 144.572H681.673V148.993H678.357C678.064 148.993 677.783 149.109 677.576 149.317C677.368 149.524 677.252 149.805 677.252 150.098V156.73C677.252 157.023 677.368 157.304 677.576 157.512C677.783 157.719 678.064 157.835 678.357 157.835H681.673V169.994C681.673 170.287 681.79 170.568 681.997 170.776C682.204 170.983 682.485 171.099 682.779 171.099H700.464C700.757 171.099 701.038 170.983 701.245 170.776C701.453 170.568 701.569 170.287 701.569 169.994V156.73C701.569 156.437 701.453 156.156 701.245 155.949C701.038 155.741 700.757 155.625 700.464 155.625H697.148V151.204H700.464C700.757 151.204 701.038 151.087 701.245 150.88C701.453 150.673 701.569 150.391 701.569 150.098V143.466C701.569 143.173 701.453 142.892 701.245 142.685C701.038 142.477 700.757 142.361 700.464 142.361ZM679.463 127.992C679.463 126.462 679.916 124.966 680.767 123.693C681.617 122.421 682.825 121.429 684.239 120.844C685.653 120.258 687.208 120.105 688.709 120.403C690.21 120.702 691.589 121.439 692.671 122.521C693.753 123.603 694.49 124.982 694.788 126.482C695.087 127.983 694.934 129.539 694.348 130.953C693.762 132.367 692.771 133.575 691.498 134.425C690.226 135.275 688.73 135.729 687.2 135.729C685.148 135.727 683.182 134.911 681.731 133.46C680.281 132.01 679.465 130.043 679.463 127.992ZM679.463 137.94H694.937V142.361H692.726V140.15H690.516V142.361H688.305V140.15H686.094V142.361H683.884V140.15H681.673V142.361H679.463V137.94ZM699.358 168.889H697.148V166.678H694.937V168.889H692.726V166.678H690.516V168.889H688.305V166.678H686.094V168.889H683.884V164.467H699.358V168.889ZM699.358 162.257H697.148V160.046H694.937V162.257H692.726V160.046H690.516V162.257H688.305V160.046H686.094V162.257H683.884V157.835H699.358V162.257ZM694.937 155.625H692.726V153.414H690.516V155.625H688.305V153.414H686.094V155.625H683.884V153.414H681.673V155.625H679.463V151.204H694.937V155.625ZM699.358 148.993H697.148V146.782H694.937V148.993H692.726V146.782H690.516V148.993H688.305V146.782H686.094V148.993H683.884V144.572H699.358V148.993Z" fill="#0A2133"/>
<path d="M687.199 122.465C685.734 122.467 684.33 123.05 683.293 124.086C682.257 125.122 681.675 126.527 681.673 127.992H683.883C683.883 127.112 684.233 126.269 684.855 125.647C685.477 125.025 686.32 124.676 687.199 124.676V122.465Z" fill="#0A2133"/>
<path d="M690.515 127.992C690.515 128.871 690.166 129.715 689.544 130.337C688.922 130.958 688.079 131.308 687.199 131.308V133.518C688.664 133.517 690.069 132.934 691.105 131.898C692.141 130.862 692.724 129.457 692.726 127.992H690.515Z" fill="#0A2133"/>
<path d="M654.934 156.73H655.146V158.941H657.357V156.73H657.569C658.594 156.728 659.584 156.351 660.351 155.671C661.119 154.991 661.611 154.054 661.737 153.036C661.862 152.018 661.611 150.989 661.032 150.143C660.453 149.297 659.584 148.692 658.59 148.44L654.45 147.406C653.974 147.289 653.558 147.003 653.281 146.6C653.003 146.197 652.882 145.707 652.942 145.221C653.001 144.735 653.237 144.289 653.604 143.965C653.971 143.642 654.444 143.464 654.934 143.466H657.569C658.099 143.467 658.607 143.678 658.981 144.052C659.356 144.427 659.567 144.935 659.567 145.465V145.677H661.778V145.465C661.777 144.349 661.333 143.279 660.544 142.49C659.755 141.701 658.685 141.257 657.569 141.256H657.357V139.045H655.146V141.256H654.934C653.908 141.258 652.919 141.635 652.151 142.315C651.384 142.995 650.891 143.932 650.766 144.95C650.64 145.968 650.891 146.997 651.47 147.843C652.05 148.689 652.918 149.295 653.912 149.546L658.053 150.58C658.528 150.697 658.944 150.983 659.222 151.386C659.5 151.789 659.62 152.279 659.561 152.765C659.501 153.251 659.265 153.697 658.898 154.021C658.531 154.344 658.058 154.522 657.569 154.52H654.934C654.404 154.519 653.896 154.308 653.521 153.934C653.147 153.559 652.936 153.051 652.935 152.521V152.309H650.725V152.521C650.726 153.637 651.17 154.707 651.959 155.496C652.748 156.285 653.818 156.729 654.934 156.73V156.73Z" fill="#0A2133"/>
<path d="M672.815 110.125C672.771 109.867 672.638 109.633 672.438 109.465C672.239 109.296 671.986 109.203 671.725 109.203C671.464 109.203 671.211 109.296 671.011 109.465C670.812 109.633 670.679 109.867 670.635 110.125C670.488 111.003 670.071 111.814 669.441 112.444C668.811 113.074 668 113.492 667.121 113.638C666.864 113.682 666.63 113.815 666.461 114.015C666.293 114.214 666.2 114.467 666.2 114.728C666.2 114.989 666.293 115.242 666.461 115.442C666.63 115.641 666.864 115.774 667.121 115.818C668 115.965 668.811 116.382 669.441 117.012C670.071 117.642 670.488 118.453 670.635 119.332C670.679 119.589 670.812 119.823 671.011 119.992C671.211 120.16 671.464 120.253 671.725 120.253C671.986 120.253 672.239 120.16 672.438 119.992C672.638 119.823 672.771 119.589 672.815 119.332C672.961 118.453 673.379 117.642 674.009 117.012C674.639 116.382 675.45 115.965 676.329 115.818C676.586 115.774 676.82 115.641 676.988 115.442C677.157 115.242 677.25 114.989 677.25 114.728C677.25 114.467 677.157 114.214 676.988 114.015C676.82 113.815 676.586 113.682 676.329 113.638C675.45 113.492 674.639 113.074 674.009 112.444C673.379 111.814 672.961 111.003 672.815 110.125V110.125ZM671.725 116.307C671.294 115.693 670.76 115.159 670.146 114.728C670.76 114.297 671.294 113.763 671.725 113.15C672.156 113.763 672.69 114.297 673.303 114.728C672.69 115.159 672.156 115.693 671.725 116.307V116.307Z" fill="#0A2133"/>
<path d="M343.623 60.9073L339.476 58.225L317.312 94.2344L321.46 96.9167L343.623 60.9073Z" stroke="#0A2133" stroke-width="2.13019" stroke-miterlimit="10" stroke-linecap="round" stroke-linejoin="round"/>
<path d="M349.728 50.8882L345.479 48.2189L343.615 51.1252L347.865 53.7946L349.728 50.8882Z" stroke="#0A2133" stroke-width="2.13019" stroke-miterlimit="10" stroke-linecap="round" stroke-linejoin="round"/>
<path d="M351.002 55.7516L340.713 49.2894L336.237 56.2704L346.526 62.7326L351.002 55.7516Z" stroke="#0A2133" stroke-width="2.13019" stroke-miterlimit="10" stroke-linecap="round" stroke-linejoin="round"/>
<path d="M336.982 55.2472C330.362 51.5387 323.765 48.8986 317.749 47.3892C324.124 45.9924 332.073 47.1467 339.867 50.8341" stroke="#0A2133" stroke-width="2.1302" stroke-miterlimit="10" stroke-linecap="round" stroke-linejoin="round"/>
<path d="M350.516 56.6826C357.684 62.4086 362.367 69.4464 363.731 76.0338C359.648 70.9502 354.126 65.8003 347.508 61.0785" stroke="#0A2133" stroke-width="2.1302" stroke-miterlimit="10" stroke-linecap="round" stroke-linejoin="round"/>
<path d="M311.27 211.256C311.27 209.163 314.113 207.3 316.359 207.3H351.654C350.741 208.415 350.243 209.813 350.244 211.256V249.85H352.537V211.256C352.537 210.207 352.952 209.201 353.692 208.459C354.431 207.717 355.434 207.3 356.48 207.3H357.764C358.81 207.3 359.813 207.717 360.552 208.459C361.292 209.201 361.707 210.207 361.707 211.256V229.15H364V222.089V213.211V211.256C363.997 209.598 363.339 208.008 362.17 206.836C361.001 205.663 359.417 205.003 357.764 205H330.963H322.114H316.382C312.943 205 309 207.737 309 211.256V251H311.293L311.27 211.256Z" fill="#0A2133"/>
<path d="M364 232H362V236H364V232Z" fill="#0A2133"/>
<path d="M364 240H362V243H364V240Z" fill="#0A2133"/>
<path d="M311 265H309V269H311V265Z" fill="#0A2133"/>
<path d="M311 253H309V259H311V253Z" fill="#0A2133"/>
<path d="M346 224H332" stroke="#0A2133" stroke-width="2.11215"/>
<path d="M346 241H332" stroke="#0A2133" stroke-width="2.11215"/>
<path d="M346 258H332" stroke="#0A2133" stroke-width="2.11215"/>
<path d="M342 219L332 219" stroke="#0A2133" stroke-width="2.11215"/>
<path d="M342 236L332 236" stroke="#0A2133" stroke-width="2.11215"/>
<path d="M342 253L332 253" stroke="#0A2133" stroke-width="2.11215"/>
<path d="M326 223.3V226H317V217H324.2" stroke="#0A2133" stroke-width="2.11215"/>
<path d="M326 240.3V243H317V234H324.2" stroke="#0A2133" stroke-width="2.11215"/>
<path d="M326 250V260H317V250H326Z" stroke="#0A2133" stroke-width="2.11215"/>
<path d="M319 220L321 224L332 214" stroke="#0A2133" stroke-width="2.11215"/>
<path d="M319 236.4L321 240L332 231" stroke="#0A2133" stroke-width="2.11215"/>
<path d="M413.32 5.18L419.3 11.42H419.56L425.7 5.16V16H428.1V1.78H425.88L419.5 8.38L413.28 1.78H410.92V16H413.32V5.18ZM432.841 2.66C433.941 2.66 434.481 2.14 434.481 1.06C434.481 -0.0800004 433.901 -0.520001 432.821 -0.520001C431.761 -0.520001 431.181 -0.0800004 431.181 1.06C431.181 2.22 431.661 2.66 432.841 2.66ZM431.501 16H434.061V4.58H431.501V16ZM439.958 16V10.96C439.958 7.86 441.618 6.16 444.658 6.16C447.718 6.16 448.858 7.86 448.858 10.44V16H451.358V9.9C451.358 6.46 449.298 4.14 445.418 4.14C442.678 4.14 440.718 5.44 439.838 7.46L439.618 4.58H437.438V16H439.958ZM468.805 12.76H466.045C465.345 13.88 464.005 14.42 461.585 14.42C458.325 14.42 456.665 13.34 456.345 11.2H469.005V10.2C469.005 6.46 466.245 4.14 461.585 4.14C456.805 4.14 453.985 6.78 453.985 10.44C453.985 14.08 456.205 16.38 461.385 16.38C465.005 16.38 467.585 15.42 468.805 12.76ZM461.645 6.08C464.585 6.08 466.245 7.14 466.565 9.38H456.385C456.805 7.22 458.685 6.08 461.645 6.08ZM427 30.36H424.34C423.92 32.6 422.24 34.14 418.66 34.14C414.82 34.14 412.68 32.42 412.68 29.04V29.02C412.68 25.44 415.04 23.7 418.8 23.7C421.94 23.7 423.78 24.94 424.28 27.1H426.92C426.14 23.32 422.98 21.46 418.78 21.46C413.72 21.46 410.12 24.3 410.12 29V29.06C410.12 34.04 413.34 36.38 418.52 36.38C423.66 36.38 426.36 33.98 427 30.36ZM429.528 36H432.048V32.16C432.048 28.54 433.268 26.94 437.128 26.94H438.448V24.5H437.208C434.268 24.5 432.628 25.92 431.988 28.14L431.688 24.58H429.528V36ZM440.64 41.1H441.74C445.32 41.1 446.14 40.56 448.46 36.64L455.54 24.58H452.84L447.9 33.16L447.84 33.28L447.8 33.16L442.8 24.58H440.06L446.54 35.52L446.16 36.16C444.8 38.42 444.2 38.92 441.86 38.92H440.62L440.64 41.1ZM465.4 36.34C469.18 36.34 472.3 34.34 472.3 30.34C472.3 26.36 469.62 24.16 465.52 24.16C462.84 24.16 460.74 25.18 459.68 26.98L459.48 24.58H457.34V40.08H459.78V33.9C460.74 35.48 462.62 36.34 465.4 36.34ZM464.68 34.32C461.46 34.32 459.68 32.96 459.68 30.34C459.68 27.78 461.64 26.16 464.76 26.16C467.92 26.16 469.78 27.64 469.78 30.34C469.78 32.94 468.12 34.32 464.68 34.32ZM483.879 36V33.82H482.299C479.539 33.82 478.859 33.32 478.859 30.2V26.7H483.879V24.58H478.859V21.4H476.799C476.799 22.1 476.779 22.96 476.639 23.58C476.479 24.34 476.299 24.54 475.399 24.64C474.999 24.68 473.879 24.7 473.399 24.7V26.7H476.499V30.58C476.499 34.64 477.759 36 481.699 36H483.879ZM492.931 36.38C498.071 36.38 500.631 34.04 500.631 30.34C500.631 26.38 497.551 24.14 493.011 24.14C488.571 24.14 485.431 26.42 485.431 30.34C485.431 34.14 487.731 36.38 492.931 36.38ZM492.991 34.3C489.671 34.3 487.971 33 487.971 30.34C487.971 27.54 489.951 26.16 493.051 26.16C496.231 26.16 498.091 27.62 498.091 30.34C498.091 32.96 496.411 34.3 492.991 34.3Z" fill="#0A2133"/>
<path d="M66.98 64.6035C71.9 64.6035 74.16 62.9035 74.16 60.0235C74.16 57.1235 71.88 56.2435 66.84 55.9635C62.72 55.7435 61.68 55.3435 61.68 53.9635C61.68 52.5435 62.94 51.7635 66.04 51.7635C69.18 51.7635 71.12 52.4835 71.48 54.5035H74.1C73.52 51.2235 70.88 49.6635 66.08 49.6635C61.5 49.6635 59.2 51.3835 59.2 54.0235C59.2 56.9035 61.34 57.7635 65.74 58.0435C70.16 58.3035 71.68 58.4435 71.68 60.2035C71.68 61.6835 70.28 62.4435 67.04 62.4435C63.5 62.4435 61.6 61.6435 61.16 59.1835H58.5C59.08 62.9235 61.4 64.6035 66.98 64.6035ZM78.2866 50.8635C79.3866 50.8635 79.9266 50.3435 79.9266 49.2635C79.9266 48.1235 79.3466 47.6835 78.2666 47.6835C77.2066 47.6835 76.6266 48.1235 76.6266 49.2635C76.6266 50.4235 77.1066 50.8635 78.2866 50.8635ZM76.9466 64.2035H79.5066V52.7835H76.9466V64.2035ZM88.5627 69.4435H89.3227C94.8027 69.4435 96.8627 67.8835 96.8627 65.4835V65.4235C96.8627 63.0435 95.1027 62.1235 91.2827 62.1235H87.4827C84.9827 62.1435 84.2227 61.7835 84.2227 61.2035C84.2227 60.4635 85.0027 60.0035 88.1027 60.0035H89.5027C93.8427 60.0035 96.1227 58.9235 96.1227 56.3635C96.1227 54.1835 94.6027 53.0835 91.5627 52.8635C95.3627 52.8035 96.0627 52.5035 96.0627 50.0035V49.8835H93.3627V50.0235C93.3627 52.0035 92.6227 52.4435 89.8827 52.4835C89.2827 52.5035 88.5827 52.5035 88.1827 52.5835C84.3627 52.6835 82.3827 54.1235 82.3827 56.3435C82.3827 58.3035 83.6427 59.2035 86.0227 59.5235C83.2427 59.6435 82.0627 60.6435 82.0627 61.9435C82.0627 63.3635 83.2227 63.9035 85.5227 63.9835C83.0227 64.2435 81.7627 65.0235 81.7627 66.5835C81.7627 68.4235 83.5427 69.4435 88.5627 69.4435ZM89.2627 58.3235C86.4027 58.3235 84.8427 57.9035 84.8427 56.3635C84.8427 55.0635 85.8427 54.4035 88.2027 54.3035C88.6027 54.2235 89.1227 54.2235 89.4427 54.2235C92.4827 54.2235 93.7227 54.9035 93.7227 56.3435C93.7227 57.8035 92.2627 58.3235 89.2627 58.3235ZM89.5827 67.4635H88.9427C85.6427 67.4635 84.2827 66.9235 84.2827 65.7635C84.2827 64.4835 85.6627 64.0035 87.9027 63.9835H91.0027C93.8227 63.9835 94.5427 64.4835 94.5427 65.5235V65.5835C94.5427 66.6635 93.5227 67.4635 89.5827 67.4635ZM101.243 64.2035V59.1635C101.243 56.0635 102.903 54.3635 105.943 54.3635C109.003 54.3635 110.143 56.0635 110.143 58.6435V64.2035H112.643V58.1035C112.643 54.6635 110.583 52.3435 106.703 52.3435C103.963 52.3435 102.003 53.6435 101.123 55.6635L100.903 52.7835H98.723V64.2035H101.243ZM129.151 64.6035C133.951 64.6035 136.611 62.2635 136.611 56.5435V49.9835H134.031V56.4835C134.031 60.6435 132.511 62.2235 129.171 62.2235C125.771 62.2235 124.231 60.5835 124.231 56.5035V49.9835H121.651V56.5635C121.651 62.2235 124.111 64.6035 129.151 64.6035ZM147.779 64.5435C151.559 64.5435 154.679 62.5435 154.679 58.5435C154.679 54.5635 151.999 52.3635 147.899 52.3635C145.219 52.3635 143.119 53.3835 142.059 55.1835L141.859 52.7835H139.719V68.2835H142.159V62.1035C143.119 63.6835 144.999 64.5435 147.779 64.5435ZM147.059 62.5235C143.839 62.5235 142.059 61.1635 142.059 58.5435C142.059 55.9835 144.019 54.3635 147.139 54.3635C150.299 54.3635 152.159 55.8435 152.159 58.5435C152.159 61.1435 150.499 62.5235 147.059 62.5235Z" fill="#0A2133"/>
<path d="M419.52 146.583C424.36 146.583 428 144.203 428 139.263V139.163C428 134.303 424.34 131.663 419.52 131.663C414.68 131.663 411.1 134.383 411.1 139.183V139.243C411.1 144.283 414.6 146.583 419.52 146.583ZM419.5 144.343C416 144.343 413.64 142.703 413.64 139.243V139.223C413.64 135.583 415.92 133.903 419.52 133.903C423.1 133.903 425.46 135.523 425.46 139.243C425.46 142.903 423.02 144.343 419.5 144.343ZM433.482 141.163H438.542C441.622 141.163 442.582 141.923 442.582 144.403V145.283C442.582 145.663 442.622 146.063 442.902 146.203H445.522C445.262 146.043 445.182 145.683 445.182 145.303V144.403C445.182 141.783 444.282 140.603 442.102 140.143C444.342 139.663 445.442 138.543 445.442 136.343C445.442 133.323 443.422 131.983 438.542 131.983H431.022V146.203H433.482V141.163ZM438.422 139.043H433.482V134.103H438.522C441.542 134.103 442.902 134.603 442.902 136.483V136.643C442.902 138.703 441.082 139.063 438.422 139.043Z" fill="#0A2133"/>
<path d="M795.72 133.203V131.023H784.3V127.203H793.62V125.123H784.3V121.083H795.32V118.983H781.92V133.203H795.72ZM809.42 130.063L809.66 133.203H811.7V125.683C811.7 122.643 809.6 121.343 805.2 121.343C800.78 121.343 798.34 122.743 797.96 125.843H800.52C800.76 124.023 802.04 123.183 805.4 123.183C808.4 123.183 809.32 124.183 809.32 125.123V125.143C809.32 126.123 808.4 126.303 805.46 126.483C801.8 126.703 800.42 127.023 799.32 127.663C798.22 128.263 797.7 129.183 797.7 130.383V130.403C797.7 132.463 799.2 133.583 802.44 133.583C806.16 133.583 808.46 132.043 809.42 130.063ZM803.12 131.783C801.08 131.783 800.34 131.163 800.34 130.203V130.183C800.34 129.603 800.58 129.183 801.14 128.843C801.84 128.403 803.06 128.163 805.68 128.023C808 127.883 808.98 127.603 809.36 127.083V127.563C809.36 129.563 806.9 131.783 803.12 131.783ZM814.922 133.203H817.442V129.363C817.442 125.743 818.662 124.143 822.522 124.143H823.842V121.703H822.602C819.662 121.703 818.022 123.123 817.382 125.343L817.082 121.783H814.922V133.203ZM828.829 133.203V128.163C828.829 125.063 830.489 123.363 833.529 123.363C836.589 123.363 837.729 125.063 837.729 127.643V133.203H840.229V127.103C840.229 123.663 838.169 121.343 834.289 121.343C831.549 121.343 829.589 122.643 828.709 124.663L828.489 121.783H826.309V133.203H828.829ZM781.92 153.203H789.44C794.14 153.203 796.68 152.223 796.68 149.203V149.143C796.68 147.103 795.56 146.243 793.2 145.923C795.28 145.543 796.3 144.663 796.3 142.763V142.683C796.3 139.923 794.1 138.983 789.46 138.983H781.92V153.203ZM784.32 140.963H789.6C792.58 140.963 793.88 141.303 793.88 142.923V142.983C793.88 144.703 792.18 144.983 789.66 144.983H784.32V140.963ZM784.32 146.923H789.42C792.72 146.923 794.18 147.183 794.18 149.003V149.063C794.18 150.703 792.9 151.103 789.16 151.103H784.32V146.923ZM810.513 150.063L810.753 153.203H812.793V145.683C812.793 142.643 810.693 141.343 806.293 141.343C801.873 141.343 799.433 142.743 799.053 145.843H801.613C801.853 144.023 803.133 143.183 806.493 143.183C809.493 143.183 810.413 144.183 810.413 145.123V145.143C810.413 146.123 809.493 146.303 806.553 146.483C802.893 146.703 801.513 147.023 800.413 147.663C799.313 148.263 798.793 149.183 798.793 150.383V150.403C798.793 152.463 800.293 153.583 803.533 153.583C807.253 153.583 809.553 152.043 810.513 150.063ZM804.213 151.783C802.173 151.783 801.433 151.163 801.433 150.203V150.183C801.433 149.603 801.673 149.183 802.233 148.843C802.933 148.403 804.153 148.163 806.773 148.023C809.093 147.883 810.073 147.603 810.453 147.083V147.563C810.453 149.563 807.993 151.783 804.213 151.783ZM816.056 153.203H818.556V138.043H816.056V153.203ZM832.779 150.063L833.019 153.203H835.059V145.683C835.059 142.643 832.959 141.343 828.559 141.343C824.139 141.343 821.699 142.743 821.319 145.843H823.879C824.119 144.023 825.399 143.183 828.759 143.183C831.759 143.183 832.679 144.183 832.679 145.123V145.143C832.679 146.123 831.759 146.303 828.819 146.483C825.159 146.703 823.779 147.023 822.679 147.663C821.579 148.263 821.059 149.183 821.059 150.383V150.403C821.059 152.463 822.559 153.583 825.799 153.583C829.519 153.583 831.819 152.043 832.779 150.063ZM826.479 151.783C824.439 151.783 823.699 151.163 823.699 150.203V150.183C823.699 149.603 823.939 149.183 824.499 148.843C825.199 148.403 826.419 148.163 829.039 148.023C831.359 147.883 832.339 147.603 832.719 147.083V147.563C832.719 149.563 830.259 151.783 826.479 151.783ZM840.802 153.203V148.163C840.802 145.063 842.462 143.363 845.502 143.363C848.562 143.363 849.702 145.063 849.702 147.643V153.203H852.202V147.103C852.202 143.663 850.142 141.343 846.262 141.343C843.522 141.343 841.562 142.643 840.682 144.663L840.462 141.783H838.282V153.203H840.802ZM869.929 148.343H867.269C866.809 150.483 865.269 151.503 862.449 151.503C859.069 151.503 857.369 150.203 857.369 147.543C857.369 144.743 859.349 143.363 862.449 143.363C865.169 143.363 866.829 144.423 867.249 146.523H869.929C869.409 143.203 866.709 141.343 862.429 141.343C857.969 141.343 854.829 143.623 854.829 147.543C854.829 151.343 857.109 153.583 862.369 153.583C866.869 153.583 869.489 151.663 869.929 148.343ZM886.856 149.963H884.096C883.396 151.083 882.056 151.623 879.636 151.623C876.376 151.623 874.716 150.543 874.396 148.403H887.056V147.403C887.056 143.663 884.296 141.343 879.636 141.343C874.856 141.343 872.036 143.983 872.036 147.643C872.036 151.283 874.256 153.583 879.436 153.583C883.056 153.583 885.636 152.623 886.856 149.963ZM879.696 143.283C882.636 143.283 884.296 144.343 884.616 146.583H874.436C874.856 144.423 876.736 143.283 879.696 143.283Z" fill="#0A2133"/>
<path d="M426 267.36H423.34C422.92 269.6 421.24 271.14 417.66 271.14C413.82 271.14 411.68 269.42 411.68 266.04V266.02C411.68 262.44 414.04 260.7 417.8 260.7C420.94 260.7 422.78 261.94 423.28 264.1H425.92C425.14 260.32 421.98 258.46 417.78 258.46C412.72 258.46 409.12 261.3 409.12 266V266.06C409.12 271.04 412.34 273.38 417.52 273.38C422.66 273.38 425.36 270.98 426 267.36ZM435.524 273.38C440.664 273.38 443.224 271.04 443.224 267.34C443.224 263.38 440.144 261.14 435.604 261.14C431.164 261.14 428.024 263.42 428.024 267.34C428.024 271.14 430.324 273.38 435.524 273.38ZM435.584 271.3C432.264 271.3 430.564 270 430.564 267.34C430.564 264.54 432.544 263.16 435.644 263.16C438.824 263.16 440.684 264.62 440.684 267.34C440.684 269.96 439.004 271.3 435.584 271.3ZM448.45 273V267.72C448.45 264.88 449.89 263.16 452.47 263.16C455.33 263.16 456.11 264.98 456.11 267.18V273H458.61V267.48C458.61 264.9 459.93 263.16 462.39 263.16C465.21 263.16 466.17 264.78 466.17 267.3V273H468.67V266.92C468.67 263.42 466.89 261.14 463.21 261.14C460.69 261.14 458.91 262.48 458.15 264.48C457.53 262.46 456.01 261.14 453.25 261.14C450.75 261.14 449.07 262.44 448.31 264.32L448.09 261.58H445.95V273H448.45ZM479.81 273.34C483.59 273.34 486.71 271.34 486.71 267.34C486.71 263.36 484.03 261.16 479.93 261.16C477.25 261.16 475.15 262.18 474.09 263.98L473.89 261.58H471.75V277.08H474.19V270.9C475.15 272.48 477.03 273.34 479.81 273.34ZM479.09 271.32C475.87 271.32 474.09 269.96 474.09 267.34C474.09 264.78 476.05 263.16 479.17 263.16C482.33 263.16 484.19 264.64 484.19 267.34C484.19 269.94 482.53 271.32 479.09 271.32ZM489.447 273H491.947V257.84H489.447V273ZM509.368 269.76H506.608C505.908 270.88 504.568 271.42 502.148 271.42C498.888 271.42 497.228 270.34 496.908 268.2H509.568V267.2C509.568 263.46 506.808 261.14 502.148 261.14C497.368 261.14 494.548 263.78 494.548 267.44C494.548 271.08 496.768 273.38 501.948 273.38C505.568 273.38 508.148 272.42 509.368 269.76ZM502.208 263.08C505.148 263.08 506.808 264.14 507.128 266.38H496.948C497.368 264.22 499.248 263.08 502.208 263.08ZM521.16 273V270.82H519.58C516.82 270.82 516.14 270.32 516.14 267.2V263.7H521.16V261.58H516.14V258.4H514.08C514.08 259.1 514.06 259.96 513.92 260.58C513.76 261.34 513.58 261.54 512.68 261.64C512.28 261.68 511.16 261.7 510.68 261.7V263.7H513.78V267.58C513.78 271.64 515.04 273 518.98 273H521.16ZM537.532 269.76H534.772C534.072 270.88 532.732 271.42 530.312 271.42C527.052 271.42 525.392 270.34 525.072 268.2H537.732V267.2C537.732 263.46 534.972 261.14 530.312 261.14C525.532 261.14 522.712 263.78 522.712 267.44C522.712 271.08 524.932 273.38 530.112 273.38C533.732 273.38 536.312 272.42 537.532 269.76ZM530.372 263.08C533.312 263.08 534.972 264.14 535.292 266.38H525.112C525.532 264.22 527.412 263.08 530.372 263.08ZM417.52 293.38C422.36 293.38 426 291 426 286.06V285.96C426 281.1 422.34 278.46 417.52 278.46C412.68 278.46 409.1 281.18 409.1 285.98V286.04C409.1 291.08 412.6 293.38 417.52 293.38ZM417.5 291.14C414 291.14 411.64 289.5 411.64 286.04V286.02C411.64 282.38 413.92 280.7 417.52 280.7C421.1 280.7 423.46 282.32 423.46 286.04C423.46 289.7 421.02 291.14 417.5 291.14ZM433.017 283.68H437.357V281.58H433.017V281.1C433.017 278.82 433.557 278.44 435.577 278.44H437.357V276.46H435.357C431.797 276.46 430.637 277.42 430.637 281.12V281.58H427.497V283.68H430.637V293H432.997L433.017 283.68ZM444.716 283.68H449.056V281.58H444.716V281.1C444.716 278.82 445.256 278.44 447.276 278.44H449.056V276.46H447.056C443.496 276.46 442.336 277.42 442.336 281.12V281.58H439.196V283.68H442.336V293H444.696L444.716 283.68ZM465.051 289.76H462.291C461.591 290.88 460.251 291.42 457.831 291.42C454.571 291.42 452.911 290.34 452.591 288.2H465.251V287.2C465.251 283.46 462.491 281.14 457.831 281.14C453.051 281.14 450.231 283.78 450.231 287.44C450.231 291.08 452.451 293.38 457.631 293.38C461.251 293.38 463.831 292.42 465.051 289.76ZM457.891 283.08C460.831 283.08 462.491 284.14 462.811 286.38H452.631C453.051 284.22 454.931 283.08 457.891 283.08ZM467.864 293H470.384V289.16C470.384 285.54 471.604 283.94 475.464 283.94H476.784V281.5H475.544C472.604 281.5 470.964 282.92 470.324 285.14L470.024 281.58H467.864V293ZM485.768 293.38C490.288 293.38 492.388 291.72 492.388 289.56C492.388 287.22 490.768 286.42 485.848 286.22C481.908 286.06 481.108 285.76 481.108 284.72C481.108 283.78 482.028 282.98 484.828 282.98C487.348 282.98 489.048 283.54 489.548 285.12H492.228C491.368 282.34 488.948 281.14 484.828 281.14C480.708 281.14 478.688 282.74 478.688 284.9C478.688 287.12 480.488 287.98 485.028 288.12C489.008 288.26 489.928 288.54 489.928 289.6C489.928 290.64 488.968 291.42 485.888 291.42C483.188 291.42 481.488 290.92 481.008 289.14H478.168C478.788 292.16 481.508 293.38 485.768 293.38Z" fill="#0A2133"/>
<path d="M30.6958 131.074C31.2975 131.074 31.7853 130.587 31.7853 129.985C31.7853 129.383 31.2975 128.896 30.6958 128.896C30.0942 128.896 29.6064 129.383 29.6064 129.985C29.6064 130.587 30.0942 131.074 30.6958 131.074Z" fill="#0A2133"/>
<path d="M33.7828 131.074C34.3844 131.074 34.8722 130.587 34.8722 129.985C34.8722 129.383 34.3844 128.896 33.7828 128.896C33.1811 128.896 32.6934 129.383 32.6934 129.985C32.6934 130.587 33.1811 131.074 33.7828 131.074Z" fill="#0A2133"/>
<path d="M36.8072 131.074C37.4088 131.074 37.8966 130.587 37.8966 129.985C37.8966 129.383 37.4088 128.896 36.8072 128.896C36.2055 128.896 35.7178 129.383 35.7178 129.985C35.7178 130.587 36.2055 131.074 36.8072 131.074Z" fill="#0A2133"/>
<path d="M63.8016 125.203H27.4882C26.5198 125.203 25.733 125.99 25.733 126.959V139.85L24.7647 138.7C24.5226 138.397 24.0989 138.276 23.7358 138.397L8.72627 143.3C8.42366 143.421 8.18157 143.663 8.06052 143.965C8 144.268 8.06052 144.631 8.24209 144.873L13.326 150.804L8.24209 156.736C8 156.978 7.93948 157.341 8.06052 157.643C8.12104 157.946 8.36313 158.188 8.72627 158.309L13.6891 159.943V170.474C13.6891 170.898 13.9917 171.261 14.3548 171.382L29.3039 176.284C29.4249 176.345 29.4854 176.345 29.6065 176.345C29.7275 176.345 29.788 176.345 29.9091 176.284L44.9186 171.321C45.3423 171.2 45.5844 170.837 45.5844 170.414V159.883L50.4261 158.309H63.8016C64.7699 158.309 65.5567 157.522 65.5567 156.554V126.959C65.5567 125.99 64.7699 125.203 63.8016 125.203ZM63.62 127.14V132.829H27.6698V127.14H63.62ZM10.7235 144.692L23.6753 140.455L27.9118 145.418L14.9601 149.655L10.7235 144.692ZM10.7235 156.857L14.9601 151.894L27.9118 156.13L23.6753 161.093L10.7235 156.857ZM28.6381 173.924L15.6258 169.687V160.549L23.6148 163.151C23.7358 163.212 23.7963 163.212 23.9174 163.212C24.22 163.212 24.4621 163.09 24.6436 162.848L28.5776 158.309V173.924H28.6381ZM29.6065 154.617L17.8651 150.744L29.667 146.87L41.4083 150.744L29.6065 154.617ZM31.3616 145.418L35.5982 140.455L48.5499 144.692L44.3134 149.655L31.3616 145.418ZM43.5871 169.687L30.5748 173.924V158.309L34.5088 162.848C34.6903 163.09 34.993 163.212 35.235 163.212C35.3561 163.212 35.4166 163.212 35.5377 163.151L43.5266 160.549V169.687H43.5871ZM35.5982 161.093L31.3616 156.13L44.3134 151.894L48.5499 156.857L35.5982 161.093ZM50.6682 156.312L45.887 150.744L50.9708 144.813C51.2129 144.571 51.2735 144.207 51.1524 143.905C51.0919 143.602 50.8498 143.36 50.4867 143.239L35.5982 138.397C35.235 138.276 34.8114 138.397 34.5693 138.7L29.667 144.389L27.7303 142.15V134.887H63.62V156.372H50.6682V156.312Z" fill="#0A2133"/>
</g>
<defs>
<clipPath id="clip0">
<rect width="913" height="298" fill="white"/>
</clipPath>
</defs>
</svg>
