<svg width="14" height="568" viewBox="0 0 14 568" fill="none" xmlns="http://www.w3.org/2000/svg">
<g id="column-3">
<path id="L17" fill-rule="evenodd" clip-rule="evenodd" d="M0.0106683 296L0 296.005V311.995L0.00960146 312L14 304.005V303.995L0.0106683 296Z" fill="#58111A"/>
<path id="L18" fill-rule="evenodd" clip-rule="evenodd" d="M0.0106683 280L0 280.005V295.995L0.00960146 296L14 288.005V287.995L0.0106683 280Z" fill="#351117"/>
<path id="L19" fill-rule="evenodd" clip-rule="evenodd" d="M0.0106683 264L0 264.005V279.995L0.00960146 280L14 272.005V271.995L0.0106683 264Z" fill="#58111A"/>
<path id="L20" fill-rule="evenodd" clip-rule="evenodd" d="M0.0106683 248L0 248.005V263.995L0.00960146 264L14 256.005V255.995L0.0106683 248Z" fill="#58111A"/>
<path id="L24" fill-rule="evenodd" clip-rule="evenodd" d="M0.0106683 184L0 184.005V199.995L0.00960146 200L14 192.005V191.995L0.0106683 184Z" fill="#1F4F22"/>
<path id="L25" fill-rule="evenodd" clip-rule="evenodd" d="M0.0106683 168L0 168.005V183.995L0.00960146 184L14 176.005V175.995L0.0106683 168Z" fill="#1F4F22"/>
<path id="L26" fill-rule="evenodd" clip-rule="evenodd" d="M0.0106683 152L0 152.005V167.995L0.00960146 168L14 160.005V159.995L0.0106683 152Z" fill="#B2D530"/>
<path id="R17" fill-rule="evenodd" clip-rule="evenodd" d="M14 320V304L0 312.001L14 320Z" fill="#351117"/>
<path id="R18" fill-rule="evenodd" clip-rule="evenodd" d="M14 304V288L0 296.001L14 304Z" fill="#58111A"/>
<path id="R19" fill-rule="evenodd" clip-rule="evenodd" d="M14 288V272L0 280.001L14 288Z" fill="#58111A"/>
<path id="R20" fill-rule="evenodd" clip-rule="evenodd" d="M14 272V256L0 264.001L14 272Z" fill="#E26B89"/>
<path id="R21" fill-rule="evenodd" clip-rule="evenodd" d="M14 256V240L0 248.001L14 256Z" fill="#58111A"/>
<path id="R24" fill-rule="evenodd" clip-rule="evenodd" d="M14 208V192L0 200.001L14 208Z" fill="#1F4F22"/>
<path id="R25" fill-rule="evenodd" clip-rule="evenodd" d="M14 192V176L0 184.001L14 192Z" fill="#1F4F22"/>
<path id="R26" fill-rule="evenodd" clip-rule="evenodd" d="M14 176V160L0 168.001L14 176Z" fill="#1F4F22"/>
</g>
</svg>
