<svg width="14" height="568" viewBox="0 0 14 568" fill="none" xmlns="http://www.w3.org/2000/svg">
<g id="column-16">
<path id="L18" fill-rule="evenodd" clip-rule="evenodd" d="M13.9893 280L14 280.005V295.995L13.9904 296L0 288.005V287.995L13.9893 280Z" fill="#58111A"/>
<path id="L19" fill-rule="evenodd" clip-rule="evenodd" d="M13.9893 264L14 264.005V279.995L13.9904 280L0 272.005V271.995L13.9893 264Z" fill="#7D0328"/>
<path id="L20" fill-rule="evenodd" clip-rule="evenodd" d="M13.9893 248L14 248.005V263.995L13.9904 264L0 256.005V255.995L13.9893 248Z" fill="#58111A"/>
<path id="L21" fill-rule="evenodd" clip-rule="evenodd" d="M13.9893 232L14 232.005V247.995L13.9904 248L0 240.005V239.995L13.9893 232Z" fill="#7D0328"/>
<path id="L22" fill-rule="evenodd" clip-rule="evenodd" d="M13.9893 216L14 216.005V231.995L13.9904 232L0 224.005V223.995L13.9893 216Z" fill="#7D0328"/>
<path id="L26" fill-rule="evenodd" clip-rule="evenodd" d="M13.9893 152L14 152.005V167.995L13.9904 168L0 160.005V159.995L13.9893 152Z" fill="#7D0328"/>
<path id="L27" fill-rule="evenodd" clip-rule="evenodd" d="M13.9893 136L14 136.005V151.995L13.9904 152L0 144.005V143.995L13.9893 136Z" fill="#7D0328"/>
<path id="L28" fill-rule="evenodd" clip-rule="evenodd" d="M13.9893 120L14 120.005V135.995L13.9904 136L0 128.005V127.995L13.9893 120Z" fill="#7D0328"/>
<path id="R18" fill-rule="evenodd" clip-rule="evenodd" d="M0 304V288L14 296.001L0 304Z" fill="#58111A"/>
<path id="R19" fill-rule="evenodd" clip-rule="evenodd" d="M0 288V272L14 280.001L0 288Z" fill="#58111A"/>
<path id="R20" fill-rule="evenodd" clip-rule="evenodd" d="M0 272V256L14 264.001L0 272Z" fill="#58111A"/>
<path id="R21" fill-rule="evenodd" clip-rule="evenodd" d="M0 256V240L14 248.001L0 256Z" fill="#58111A"/>
<path id="R22" fill-rule="evenodd" clip-rule="evenodd" d="M0 240V224L14 232.001L0 240Z" fill="#58111A"/>
<path id="R23" fill-rule="evenodd" clip-rule="evenodd" d="M0 224V208L14 216.001L0 224Z" fill="#7D0328"/>
<path id="R26" fill-rule="evenodd" clip-rule="evenodd" d="M0 176V160L14 168.001L0 176Z" fill="#7D0328"/>
<path id="R27" fill-rule="evenodd" clip-rule="evenodd" d="M0 160V144L14 152.001L0 160Z" fill="#7D0328"/>
<path id="R28" fill-rule="evenodd" clip-rule="evenodd" d="M0 144V128L14 136.001L0 144Z" fill="#58111A"/>
<path id="R29" fill-rule="evenodd" clip-rule="evenodd" d="M0 128V112L14 120.001L0 128Z" fill="#58111A"/>
</g>
</svg>
