<svg width="14" height="568" viewBox="0 0 14 568" fill="none" xmlns="http://www.w3.org/2000/svg">
<g id="column-7">
<path id="L15" fill-rule="evenodd" clip-rule="evenodd" d="M0.0106683 328L0 328.005V343.995L0.00960146 344L14 336.005V335.995L0.0106683 328Z" fill="#58111A"/>
<path id="L16" fill-rule="evenodd" clip-rule="evenodd" d="M0.0106683 312L0 312.005V327.995L0.00960146 328L14 320.005V319.995L0.0106683 312Z" fill="#58111A"/>
<path id="L17" fill-rule="evenodd" clip-rule="evenodd" d="M0.0106683 296L0 296.005V311.995L0.00960146 312L14 304.005V303.995L0.0106683 296Z" fill="#7D0328"/>
<path id="L18" fill-rule="evenodd" clip-rule="evenodd" d="M0.0106683 280L0 280.005V295.995L0.00960146 296L14 288.005V287.995L0.0106683 280Z" fill="#7D0328"/>
<path id="L19" fill-rule="evenodd" clip-rule="evenodd" d="M0.0106683 264L0 264.005V279.995L0.00960146 280L14 272.005V271.995L0.0106683 264Z" fill="#7D0328"/>
<path id="L20" fill-rule="evenodd" clip-rule="evenodd" d="M0.0106683 248L0 248.005V263.995L0.00960146 264L14 256.005V255.995L0.0106683 248Z" fill="#7D0328"/>
<path id="L21" fill-rule="evenodd" clip-rule="evenodd" d="M0.0106683 232L0 232.005V247.995L0.00960146 248L14 240.005V239.995L0.0106683 232Z" fill="#7D0328"/>
<path id="L22" fill-rule="evenodd" clip-rule="evenodd" d="M0.0106683 216L0 216.005V231.995L0.00960146 232L14 224.005V223.995L0.0106683 216Z" fill="#7D0328"/>
<path id="L23" fill-rule="evenodd" clip-rule="evenodd" d="M0.0106683 200L0 200.005V215.995L0.00960146 216L14 208.005V207.995L0.0106683 200Z" fill="#7D0328"/>
<path id="L24" fill-rule="evenodd" clip-rule="evenodd" d="M0.0106683 184L0 184.005V199.995L0.00960146 200L14 192.005V191.995L0.0106683 184Z" fill="#7D0328"/>
<path id="L25" fill-rule="evenodd" clip-rule="evenodd" d="M0.0106683 168L0 168.005V183.995L0.00960146 184L14 176.005V175.995L0.0106683 168Z" fill="#7D0328"/>
<path id="L26" fill-rule="evenodd" clip-rule="evenodd" d="M0.0106683 152L0 152.005V167.995L0.00960146 168L14 160.005V159.995L0.0106683 152Z" fill="#7D0328"/>
<path id="R15" fill-rule="evenodd" clip-rule="evenodd" d="M14 352V336L0 344.001L14 352Z" fill="#58111A"/>
<path id="R16" fill-rule="evenodd" clip-rule="evenodd" d="M14 336V320L0 328.001L14 336Z" fill="#7D0328"/>
<path id="R17" fill-rule="evenodd" clip-rule="evenodd" d="M14 320V304L0 312.001L14 320Z" fill="#7D0328"/>
<path id="R18" fill-rule="evenodd" clip-rule="evenodd" d="M14 304V288L0 296.001L14 304Z" fill="#58111A"/>
<path id="R19" fill-rule="evenodd" clip-rule="evenodd" d="M14 288V272L0 280.001L14 288Z" fill="#7D0328"/>
<path id="R20" fill-rule="evenodd" clip-rule="evenodd" d="M14 272V256L0 264.001L14 272Z" fill="#58111A"/>
<path id="R21" fill-rule="evenodd" clip-rule="evenodd" d="M14 256V240L0 248.001L14 256Z" fill="#E26B89"/>
<path id="R22" fill-rule="evenodd" clip-rule="evenodd" d="M14 240V224L0 232.001L14 240Z" fill="#7D0328"/>
<path id="R23" fill-rule="evenodd" clip-rule="evenodd" d="M14 224V208L0 216.001L14 224Z" fill="#E26B89"/>
<path id="R24" fill-rule="evenodd" clip-rule="evenodd" d="M14 208V192L0 200.001L14 208Z" fill="#7D0328"/>
<path id="R25" fill-rule="evenodd" clip-rule="evenodd" d="M14 192V176L0 184.001L14 192Z" fill="#7D0328"/>
<path id="R26" fill-rule="evenodd" clip-rule="evenodd" d="M14 176V160L0 168.001L14 176Z" fill="#E26B89"/>
<path id="R27" fill-rule="evenodd" clip-rule="evenodd" d="M14 160V144L0 152.001L14 160Z" fill="#7D0328"/>
</g>
</svg>
