<svg width="21" height="21" viewBox="0 0 21 21" fill="none" xmlns="http://www.w3.org/2000/svg">
  <g filter="url(#filter0_i)">
    <path
      d="M20.5059 8.10892L18.8919 7.75804C18.7515 7.32834 18.5777 6.90921 18.3724 6.50546L19.266 5.11558C19.4255 4.86724 19.3905 4.5412 19.1819 4.3326L16.6674 1.81815C16.4588 1.60954 16.1328 1.57446 15.8844 1.73403L14.4945 2.62756C14.0908 2.42233 13.6717 2.24849 13.242 2.10814L12.8911 0.49411C12.8284 0.205719 12.5731 0 12.2779 0H8.72207C8.42695 0 8.17156 0.205719 8.10892 0.49411L7.75804 2.10814C7.32834 2.24849 6.90921 2.42233 6.50546 2.62756L5.11558 1.73403C4.86724 1.57446 4.5412 1.60954 4.3326 1.81815L1.81815 4.3326C1.60954 4.5412 1.57446 4.86724 1.73403 5.11558L2.62756 6.50546C2.42233 6.90921 2.24849 7.32834 2.10814 7.75804L0.49411 8.10892C0.205719 8.17172 0 8.42695 0 8.72207V12.2779C0 12.5731 0.205719 12.8283 0.49411 12.8911L2.10814 13.242C2.24849 13.6717 2.42233 14.0908 2.62756 14.4945L1.73403 15.8844C1.57446 16.1328 1.60954 16.4588 1.81815 16.6674L4.3326 19.1819C4.5412 19.3905 4.86724 19.4255 5.11558 19.266L6.50546 18.3724C6.90921 18.5777 7.32834 18.7515 7.75804 18.8919L8.10892 20.5059C8.17156 20.7943 8.42695 21 8.72207 21H12.2779C12.5731 21 12.8284 20.7943 12.8911 20.5059L13.242 18.8919C13.6717 18.7515 14.0908 18.5777 14.4945 18.3724L15.8844 19.266C16.1328 19.4255 16.4588 19.3906 16.6674 19.1819L19.1819 16.6674C19.3905 16.4588 19.4255 16.1328 19.266 15.8844L18.3724 14.4945C18.5777 14.0908 18.7515 13.6717 18.8919 13.242L20.5059 12.8911C20.7943 12.8283 21 12.5731 21 12.2779V8.72207C21 8.42695 20.7943 8.17172 20.5059 8.10892ZM14.2649 10.5C14.2649 12.5759 12.5759 14.2649 10.5 14.2649C8.42406 14.2649 6.73505 12.5759 6.73505 10.5C6.73505 8.42406 8.42406 6.73505 10.5 6.73505C12.5759 6.73505 14.2649 8.42406 14.2649 10.5Z"
      fill="#DBF1C1"
    />
  </g>
  <defs>
    <filter
      id="filter0_i"
      x="0"
      y="0"
      width="22"
      height="22"
      filterUnits="userSpaceOnUse"
      color-interpolation-filters="sRGB"
    >
      <feFlood flood-opacity="0" result="BackgroundImageFix" />
      <feBlend mode="normal" in="SourceGraphic" in2="BackgroundImageFix" result="shape" />
      <feColorMatrix
        in="SourceAlpha"
        type="matrix"
        values="0 0 0 0 0 0 0 0 0 0 0 0 0 0 0 0 0 0 127 0"
        result="hardAlpha"
      />
      <feOffset dx="1" dy="1" />
      <feGaussianBlur stdDeviation="0.5" />
      <feComposite in2="hardAlpha" operator="arithmetic" k2="-1" k3="1" />
      <feColorMatrix type="matrix" values="0 0 0 0 0.121569 0 0 0 0 0.309804 0 0 0 0 0.133333 0 0 0 0.3 0" />
      <feBlend mode="normal" in2="shape" result="effect1_innerShadow" />
    </filter>
  </defs>
</svg>
