<svg width="24" height="24" viewBox="0 0 24 24" fill="none" xmlns="http://www.w3.org/2000/svg">
<path d="M12 0.5C5.50658 0.5 0.25 5.75658 0.25 12.25C0.25 18.7434 5.50658 24 12 24C18.4934 24 23.75 18.7434 23.75 12.25C23.75 5.75658 18.4934 0.5 12 0.5ZM5.91886 20.4956V18.0219C5.91886 16.2697 7.25877 14.8268 8.90789 14.6206L10.9693 18.4342H13.1338L15.1952 14.6206C16.8443 14.8268 18.1842 16.2697 18.1842 18.0219V20.4956C16.432 21.7325 14.3706 22.557 12.1031 22.557C9.73246 22.4539 7.56798 21.7325 5.91886 20.4956ZM19.6272 19.0526V18.0219C19.6272 15.3421 17.3596 13.0746 14.6798 13.0746H14.2675L12.2061 16.9912H11.7939L9.73246 13.0746H9.32018C6.64035 13.0746 4.37281 15.3421 4.37281 18.0219V19.0526C2.72368 17.1974 1.79605 14.8268 1.79605 12.25C1.79605 6.58114 6.33114 2.04605 12 2.04605C17.6689 2.04605 22.2039 6.58114 22.2039 12.25C22.2039 14.9298 21.1732 17.3004 19.6272 19.0526Z" fill="#B2D530"/>
<path d="M12.0002 5.60864C10.0671 5.60864 8.42407 7.25171 8.42407 9.18473C8.42407 11.2144 10.0671 12.7608 12.0002 12.7608C13.9332 12.7608 15.5762 11.1178 15.5762 9.18473C15.5762 7.15506 13.9332 5.60864 12.0002 5.60864ZM12.0002 11.3111C10.8403 11.3111 9.87384 10.3445 9.87384 9.18473C9.87384 8.02492 10.8403 7.05841 12.0002 7.05841C13.16 7.05841 14.1265 8.02492 14.1265 9.18473C14.1265 10.3445 13.16 11.3111 12.0002 11.3111Z" fill="#B2D530"/>
</svg>
