<svg width="24" height="24" viewBox="0 0 24 24" fill="none" xmlns="http://www.w3.org/2000/svg">
<path d="M19.6248 17.6022H17.2256V13.6036C17.2256 13.3915 17.1413 13.1881 16.9914 13.0381C16.8414 12.8881 16.638 12.8039 16.4259 12.8039H14.5417C15.702 11.8698 16.5438 10.5987 16.9512 9.16596C17.3586 7.73321 17.3114 6.20937 16.8162 4.80457C16.3209 3.39977 15.4021 2.18322 14.1863 1.32268C12.9705 0.462135 11.5176 0 10.0281 0C8.53855 0 7.0857 0.462135 5.8699 1.32268C4.65409 2.18322 3.73522 3.39977 3.24 4.80457C2.74478 6.20937 2.6976 7.73321 3.10497 9.16596C3.51234 10.5987 4.3542 11.8698 5.51444 12.8039H3.63029C3.41819 12.8039 3.21478 12.8881 3.0648 13.0381C2.91482 13.1881 2.83057 13.3915 2.83057 13.6036V18.4019C2.83057 18.614 2.91482 18.8174 3.0648 18.9674C3.21478 19.1174 3.41819 19.2017 3.63029 19.2017H6.02946V22.4006C6.02946 22.4006 6.03224 22.6644 6.03224 23.2003C6.03224 23.4124 6.11678 23.6158 6.26676 23.7658C6.41674 23.9157 6.61546 24 6.82756 24C15.0085 24 15.2054 24 19.6248 24C19.8369 24 20.0403 23.9157 20.1903 23.7658C20.3402 23.6158 20.4245 23.4124 20.4245 23.2003V18.4019C20.4245 18.1898 20.3402 17.9864 20.1903 17.8364C20.0403 17.6865 19.8369 17.6022 19.6248 17.6022ZM4.43001 7.2058C4.43001 6.09861 4.75834 5.01628 5.37346 4.09569C5.98858 3.17509 6.86288 2.45757 7.88579 2.03387C8.90871 1.61016 10.0343 1.4993 11.1202 1.7153C12.2061 1.93131 13.2036 2.46447 13.9865 3.24737C14.7694 4.03028 15.3026 5.02776 15.5186 6.11367C15.7346 7.19959 15.6237 8.32518 15.2 9.34809C14.7763 10.371 14.0588 11.2453 13.1382 11.8604C12.2176 12.4755 11.1353 12.8039 10.0281 12.8039C8.5439 12.8022 7.12099 12.2118 6.07152 11.1624C5.02205 10.1129 4.43171 8.68998 4.43001 7.2058ZM4.43001 14.4033H15.6261V17.6022H14.0267V16.0028H12.4273V17.6022H10.8278V16.0028H9.22836V17.6022H7.62891V16.0028H6.02946V17.6022H4.43001V14.4033ZM18.825 22.4006H17.2256V20.8011H15.6261V22.4006H14.0267V20.8011H12.4273V22.4006H10.8278V20.8011H9.22836V22.4006H7.62891V19.2017H18.825V22.4006Z" fill="#B2D530"/>
<path d="M10.78 11.008V10.112C12.194 9.958 12.831 9.286 12.824 8.39C12.817 7.333 12.04 6.948 10.402 6.857C9.107 6.78 8.925 6.696 8.925 6.458C8.925 6.234 9.135 6.073 9.786 6.073C10.458 6.073 10.885 6.185 11.004 6.612H12.775C12.523 5.59 11.872 5.072 10.773 4.897V3.882H9.205V4.869C7.917 5.023 7.224 5.66 7.224 6.556C7.224 7.585 7.945 7.977 9.457 8.075C10.822 8.166 11.13 8.194 11.13 8.509C11.13 8.768 10.857 8.894 10.22 8.894C9.541 8.894 9.03 8.747 8.911 8.285H7.042C7.224 9.328 7.798 9.93 9.205 10.098V11.008H10.78Z" fill="#B2D530"/>
</svg>
