<svg width="24" height="24" viewBox="0 0 24 24" fill="none" xmlns="http://www.w3.org/2000/svg">
<g clip-path="url(#clip0)">
<path fill-rule="evenodd" clip-rule="evenodd" d="M12.6167 7.6498L23.2766 7.6498V9.33838L12.6167 9.33838V7.6498Z" fill="#B2D530"/>
<path fill-rule="evenodd" clip-rule="evenodd" d="M12.6167 20.547H23.2766V22.2356H12.6167V20.547Z" fill="#B2D530"/>
<path fill-rule="evenodd" clip-rule="evenodd" d="M12.6078 3.91249L20.054 3.91249L20.054 5.60107L12.6078 5.60107L12.6078 3.91249Z" fill="#B2D530"/>
<path fill-rule="evenodd" clip-rule="evenodd" d="M12.6078 16.81L20.054 16.81L20.054 18.4985L12.6078 18.4985L12.6078 16.81Z" fill="#B2D530"/>
<path fill-rule="evenodd" clip-rule="evenodd" d="M-0.0939941 2.85796C-0.0939941 2.39167 0.284007 2.01367 0.750296 2.01367H6.70723V3.70225H1.59459V9.45987H7.35217V8.07036H9.04075V10.3042C9.04075 10.7704 8.66275 11.1484 8.19646 11.1484H0.750296C0.284007 11.1484 -0.0939941 10.7704 -0.0939941 10.3042V2.85796Z" fill="#B2D530"/>
<path fill-rule="evenodd" clip-rule="evenodd" d="M-0.0939941 15.7095C-0.0939941 15.2432 0.284007 14.8652 0.750296 14.8652H8.19646C8.66275 14.8652 9.04075 15.2432 9.04075 15.7095V23.1557C9.04075 23.622 8.66275 24 8.19646 24H0.750296C0.284007 24 -0.0939941 23.622 -0.0939941 23.1557V15.7095ZM1.59459 16.5538V22.3114H7.35217V16.5538H1.59459Z" fill="#B2D530"/>
<path fill-rule="evenodd" clip-rule="evenodd" d="M13.2316 1.24945L5.04084 8.69564C4.84526 8.87344 4.5777 8.94939 4.31788 8.90085C4.05805 8.85232 3.83595 8.6849 3.71775 8.44849L2.22852 5.46998L3.73883 4.71483L4.72965 6.69649L12.0958 0L13.2316 1.24945Z" fill="#B2D530"/>
</g>
<defs>
<clipPath id="clip0">
<rect width="24" height="24" fill="white"/>
</clipPath>
</defs>
</svg>
