<svg width="24" height="24" viewBox="0 0 24 24" fill="none" xmlns="http://www.w3.org/2000/svg">
<g clip-path="url(#clip0)">
<path d="M10.0003 19.1429L16.6286 24.1143C16.7655 24.2169 16.9301 24.2761 17.101 24.2844C17.2719 24.2926 17.4414 24.2496 17.5876 24.1607C17.7338 24.0718 17.8501 23.9412 17.9215 23.7857C17.9928 23.6301 18.016 23.4568 17.988 23.288L17.298 19.1429H19.7143C20.8505 19.1415 21.9398 18.6895 22.7432 17.8861C23.5467 17.0827 23.9986 15.9934 24 14.8571V6.28571C23.9986 5.14949 23.5467 4.06019 22.7432 3.25676C21.9398 2.45333 20.8505 2.00136 19.7143 2H4.28571C3.14949 2.00136 2.06019 2.45333 1.25676 3.25676C0.453327 4.06019 0.00136102 5.14949 0 6.28571V14.8571C0.00136102 15.9934 0.453327 17.0827 1.25676 17.8861C2.06019 18.6895 3.14949 19.1415 4.28571 19.1429H10.0003ZM1.71429 14.8571V6.28571C1.71429 5.60373 1.9852 4.94968 2.46744 4.46744C2.94968 3.9852 3.60373 3.71429 4.28571 3.71429H19.7143C20.3963 3.71429 21.0503 3.9852 21.5326 4.46744C22.0148 4.94968 22.2857 5.60373 22.2857 6.28571V14.8571C22.2857 15.5391 22.0148 16.1932 21.5326 16.6754C21.0503 17.1577 20.3963 17.4286 19.7143 17.4286H16.2857C16.1613 17.4286 16.0384 17.4558 15.9255 17.5081C15.8126 17.5605 15.7125 17.6368 15.6321 17.7317C15.5517 17.8266 15.4929 17.9379 15.4598 18.0579C15.4267 18.1778 15.4202 18.3035 15.4406 18.4263L15.9429 21.4571L10.8 17.6C10.6516 17.4887 10.4712 17.4286 10.2857 17.4286H4.28571C3.60373 17.4286 2.94968 17.1577 2.46744 16.6754C1.9852 16.1932 1.71429 15.5391 1.71429 14.8571V14.8571Z" fill="#B2D530"/>
<path d="M12.599 11.921L12.617 11.795C12.68 11.345 13.076 11.228 13.787 11.048C14.642 10.823 15.272 10.463 15.272 9.428C15.272 8.15 14.282 7.403 11.897 7.403C9.566 7.403 8.378 8.186 8.288 9.941H10.475C10.493 9.365 10.898 9.131 11.924 9.131C12.905 9.131 13.112 9.284 13.112 9.554C13.112 9.806 12.77 9.905 12.059 10.049C11.195 10.211 10.574 10.499 10.574 11.354V11.408C10.574 11.606 10.601 11.786 10.637 11.912C10.799 11.822 11.114 11.768 11.618 11.768C12.122 11.768 12.419 11.822 12.599 11.921ZM11.618 14.135C12.608 14.135 12.986 13.883 12.986 13.136C12.986 12.389 12.581 12.146 11.618 12.146C10.646 12.146 10.259 12.389 10.259 13.136C10.259 13.901 10.556 14.135 11.618 14.135Z" fill="#B2D530"/>
</g>
<defs>
<clipPath id="clip0">
<rect width="24" height="24" fill="white"/>
</clipPath>
</defs>
</svg>
