<svg width="14" height="568" viewBox="0 0 14 568" fill="none" xmlns="http://www.w3.org/2000/svg">
<g id="11">
<rect width="14" height="568" fill="none"/>
<path id="L6" fill-rule="evenodd" clip-rule="evenodd" d="M0.0106683 472L0 472.005V487.995L0.00960146 488L14 480.005V479.995L0.0106683 472Z" fill="#210C1F"/>
<path id="L7" fill-rule="evenodd" clip-rule="evenodd" d="M0.0106683 456L0 456.005V471.995L0.00960146 472L14 464.005V463.995L0.0106683 456Z" fill="#210C1F"/>
<path id="L8" fill-rule="evenodd" clip-rule="evenodd" d="M0.0106683 440L0 440.005V455.995L0.00960146 456L14 448.005V447.995L0.0106683 440Z" fill="#210C1F"/>
<path id="L9" fill-rule="evenodd" clip-rule="evenodd" d="M0.0106683 424L0 424.005V439.995L0.00960146 440L14 432.005V431.995L0.0106683 424Z" fill="#210C1F"/>
<path id="L10" fill-rule="evenodd" clip-rule="evenodd" d="M0.0106683 408L0 408.005V423.995L0.00960146 424L14 416.005V415.995L0.0106683 408Z" fill="#210C1F"/>
<path id="L11" fill-rule="evenodd" clip-rule="evenodd" d="M0.0106683 392L0 392.005V407.995L0.00960146 408L14 400.005V399.995L0.0106683 392Z" fill="#3D2A3D"/>
<path id="L12" fill-rule="evenodd" clip-rule="evenodd" d="M0.0106683 376L0 376.005V391.995L0.00960146 392L14 384.005V383.995L0.0106683 376Z" fill="#210C1F"/>
<path id="L13" fill-rule="evenodd" clip-rule="evenodd" d="M0.0106683 360L0 360.005V375.995L0.00960146 376L14 368.005V367.995L0.0106683 360Z" fill="#3D2A3D"/>
<path id="L14" fill-rule="evenodd" clip-rule="evenodd" d="M0.0106683 344L0 344.005V359.995L0.00960146 360L14 352.005V351.995L0.0106683 344Z" fill="#3D2A3D"/>
<path id="L15" fill-rule="evenodd" clip-rule="evenodd" d="M0.0106683 328L0 328.005V343.995L0.00960146 344L14 336.005V335.995L0.0106683 328Z" fill="#615364"/>
<path id="L16" fill-rule="evenodd" clip-rule="evenodd" d="M0.0106683 312L0 312.005V327.995L0.00960146 328L14 320.005V319.995L0.0106683 312Z" fill="#615364"/>
<path id="L17" fill-rule="evenodd" clip-rule="evenodd" d="M0.0106683 296L0 296.005V311.995L0.00960146 312L14 304.005V303.995L0.0106683 296Z" fill="#3D2A3D"/>
<path id="L18" fill-rule="evenodd" clip-rule="evenodd" d="M0.0106683 280L0 280.005V295.995L0.00960146 296L14 288.005V287.995L0.0106683 280Z" fill="#3D2A3D"/>
<path id="L19" fill-rule="evenodd" clip-rule="evenodd" d="M0.0106683 264L0 264.005V279.995L0.00960146 280L14 272.005V271.995L0.0106683 264Z" fill="#3D2A3D"/>
<path id="L20" fill-rule="evenodd" clip-rule="evenodd" d="M0.0106683 248L0 248.005V263.995L0.00960146 264L14 256.005V255.995L0.0106683 248Z" fill="#3D2A3D"/>
<path id="L21" fill-rule="evenodd" clip-rule="evenodd" d="M0.0106683 232L0 232.005V247.995L0.00960146 248L14 240.005V239.995L0.0106683 232Z" fill="#3D2A3D"/>
<path id="R7" fill-rule="evenodd" clip-rule="evenodd" d="M14 480V464L0 472.001L14 480Z" fill="#210C1F"/>
<path id="R8" fill-rule="evenodd" clip-rule="evenodd" d="M14 464V448L0 456.001L14 464Z" fill="#210C1F"/>
<path id="R9" fill-rule="evenodd" clip-rule="evenodd" d="M14 448V432L0 440.001L14 448Z" fill="#210C1F"/>
<path id="R10" fill-rule="evenodd" clip-rule="evenodd" d="M14 432V416L0 424.001L14 432Z" fill="#210C1F"/>
<path id="R11" fill-rule="evenodd" clip-rule="evenodd" d="M14 416V400L0 408.001L14 416Z" fill="#210C1F"/>
<path id="R12" fill-rule="evenodd" clip-rule="evenodd" d="M14 400V384L0 392.001L14 400Z" fill="#210C1F"/>
<path id="R13" fill-rule="evenodd" clip-rule="evenodd" d="M14 384V368L0 376.001L14 384Z" fill="#3D2A3D"/>
<path id="R14" fill-rule="evenodd" clip-rule="evenodd" d="M14 368V352L0 360.001L14 368Z" fill="#3D2A3D"/>
<path id="R15" fill-rule="evenodd" clip-rule="evenodd" d="M14 352V336L0 344.001L14 352Z" fill="#615364"/>
<path id="R16" fill-rule="evenodd" clip-rule="evenodd" d="M14 336V320L0 328.001L14 336Z" fill="#615364"/>
<path id="R17" fill-rule="evenodd" clip-rule="evenodd" d="M14 320V304L0 312.001L14 320Z" fill="#3D2A3D"/>
<path id="R18" fill-rule="evenodd" clip-rule="evenodd" d="M14 304V288L0 296.001L14 304Z" fill="#3D2A3D"/>
<path id="R19" fill-rule="evenodd" clip-rule="evenodd" d="M14 288V272L0 280.001L14 288Z" fill="#3D2A3D"/>
<path id="R20" fill-rule="evenodd" clip-rule="evenodd" d="M14 272V256L0 264.001L14 272Z" fill="#3D2A3D"/>
<path id="R21" fill-rule="evenodd" clip-rule="evenodd" d="M14 256V240L0 248.001L14 256Z" fill="#3D2A3D"/>
</g>
</svg>
