<svg width="14" height="568" viewBox="0 0 14 568" fill="none" xmlns="http://www.w3.org/2000/svg">
<g id="12">
<rect width="14" height="568" fill="none"/>
<path id="L6" fill-rule="evenodd" clip-rule="evenodd" d="M13.9893 472L14 472.005V487.995L13.9904 488L0 480.005V479.995L13.9893 472Z" fill="#210C1F"/>
<path id="L7" fill-rule="evenodd" clip-rule="evenodd" d="M13.9893 456L14 456.005V471.995L13.9904 472L0 464.005V463.995L13.9893 456Z" fill="#210C1F"/>
<path id="L8" fill-rule="evenodd" clip-rule="evenodd" d="M13.9893 440L14 440.005V455.995L13.9904 456L0 448.005V447.995L13.9893 440Z" fill="#210C1F"/>
<path id="L9" fill-rule="evenodd" clip-rule="evenodd" d="M13.9893 424L14 424.005V439.995L13.9904 440L0 432.005V431.995L13.9893 424Z" fill="#210C1F"/>
<path id="L10" fill-rule="evenodd" clip-rule="evenodd" d="M13.9893 408L14 408.005V423.995L13.9904 424L0 416.005V415.995L13.9893 408Z" fill="#210C1F"/>
<path id="L11" fill-rule="evenodd" clip-rule="evenodd" d="M13.9893 392L14 392.005V407.995L13.9904 408L0 400.005V399.995L13.9893 392Z" fill="#210C1F"/>
<path id="L12" fill-rule="evenodd" clip-rule="evenodd" d="M13.9893 376L14 376.005V391.995L13.9904 392L0 384.005V383.995L13.9893 376Z" fill="#3D2A3D"/>
<path id="L13" fill-rule="evenodd" clip-rule="evenodd" d="M13.9893 360L14 360.005V375.995L13.9904 376L0 368.005V367.995L13.9893 360Z" fill="#615364"/>
<path id="L14" fill-rule="evenodd" clip-rule="evenodd" d="M13.9893 344L14 344.005V359.995L13.9904 360L0 352.005V351.995L13.9893 344Z" fill="#615364"/>
<path id="L15" fill-rule="evenodd" clip-rule="evenodd" d="M13.9893 328L14 328.005V343.995L13.9904 344L0 336.005V335.995L13.9893 328Z" fill="#3D2A3D"/>
<path id="L16" fill-rule="evenodd" clip-rule="evenodd" d="M13.9893 312L14 312.005V327.995L13.9904 328L0 320.005V319.995L13.9893 312Z" fill="#3D2A3D"/>
<path id="R7" fill-rule="evenodd" clip-rule="evenodd" d="M0 480V464L14 472.001L0 480Z" fill="#210C1F"/>
<path id="R8" fill-rule="evenodd" clip-rule="evenodd" d="M0 464V448L14 456.001L0 464Z" fill="#210C1F"/>
<path id="R9" fill-rule="evenodd" clip-rule="evenodd" d="M0 448V432L14 440.001L0 448Z" fill="#210C1F"/>
<path id="R10" fill-rule="evenodd" clip-rule="evenodd" d="M0 432V416L14 424.001L0 432Z" fill="#3D2A3D"/>
<path id="R11" fill-rule="evenodd" clip-rule="evenodd" d="M0 416V400L14 408.001L0 416Z" fill="#210C1F"/>
<path id="R12" fill-rule="evenodd" clip-rule="evenodd" d="M0 400V384L14 392.001L0 400Z" fill="#210C1F"/>
<path id="R13" fill-rule="evenodd" clip-rule="evenodd" d="M0 384V368L14 376.001L0 384Z" fill="#3D2A3D"/>
<path id="R14" fill-rule="evenodd" clip-rule="evenodd" d="M0 368V352L14 360.001L0 368Z" fill="#615364"/>
<path id="R15" fill-rule="evenodd" clip-rule="evenodd" d="M0 352V336L14 344.001L0 352Z" fill="#615364"/>
<path id="R16" fill-rule="evenodd" clip-rule="evenodd" d="M0 336V320L14 328.001L0 336Z" fill="#3D2A3D"/>
<path id="R17" fill-rule="evenodd" clip-rule="evenodd" d="M0 320V304L14 312.001L0 320Z" fill="#3D2A3D"/>
</g>
</svg>
