<svg width="14" height="568" viewBox="0 0 14 568" fill="none" xmlns="http://www.w3.org/2000/svg">
<g id="15">
<rect width="14" height="568" fill="none"/>
<path id="L7" fill-rule="evenodd" clip-rule="evenodd" d="M0.0106683 456L0 456.005V471.995L0.00960146 472L14 464.005V463.995L0.0106683 456Z" fill="#210C1F"/>
<path id="L8" fill-rule="evenodd" clip-rule="evenodd" d="M0.0106683 440L0 440.005V455.995L0.00960146 456L14 448.005V447.995L0.0106683 440Z" fill="#3D2A3D"/>
<path id="L9" fill-rule="evenodd" clip-rule="evenodd" d="M0.0106683 424L0 424.005V439.995L0.00960146 440L14 432.005V431.995L0.0106683 424Z" fill="#210C1F"/>
<path id="L10" fill-rule="evenodd" clip-rule="evenodd" d="M0.0106683 408L0 408.005V423.995L0.00960146 424L14 416.005V415.995L0.0106683 408Z" fill="#3D2A3D"/>
<path id="L11" fill-rule="evenodd" clip-rule="evenodd" d="M0.0106683 392L0 392.005V407.995L0.00960146 408L14 400.005V399.995L0.0106683 392Z" fill="#3D2A3D"/>
<path id="L12" fill-rule="evenodd" clip-rule="evenodd" d="M0.0106683 376L0 376.005V391.995L0.00960146 392L14 384.005V383.995L0.0106683 376Z" fill="#3D2A3D"/>
<path id="L13" fill-rule="evenodd" clip-rule="evenodd" d="M0.0106683 360L0 360.005V375.995L0.00960146 376L14 368.005V367.995L0.0106683 360Z" fill="#3D2A3D"/>
<path id="R8" fill-rule="evenodd" clip-rule="evenodd" d="M14 464V448L0 456.001L14 464Z" fill="#210C1F"/>
<path id="R9" fill-rule="evenodd" clip-rule="evenodd" d="M14 448V432L0 440.001L14 448Z" fill="#210C1F"/>
<path id="R10" fill-rule="evenodd" clip-rule="evenodd" d="M14 432V416L0 424.001L14 432Z" fill="#3D2A3D"/>
<path id="R11" fill-rule="evenodd" clip-rule="evenodd" d="M14 416V400L0 408.001L14 416Z" fill="#3D2A3D"/>
<path id="R12" fill-rule="evenodd" clip-rule="evenodd" d="M14 400V384L0 392.001L14 400Z" fill="#3D2A3D"/>
<path id="R13" fill-rule="evenodd" clip-rule="evenodd" d="M14 384V368L0 376.001L14 384Z" fill="#3D2A3D"/>
</g>
</svg>
