<svg width="14" height="568" viewBox="0 0 14 568" fill="none" xmlns="http://www.w3.org/2000/svg">
<g id="16">
<rect width="14" height="568" fill="none"/>
<path id="L9" fill-rule="evenodd" clip-rule="evenodd" d="M13.9893 424L14 424.005V439.995L13.9904 440L0 432.005V431.995L13.9893 424Z" fill="#3D2A3D"/>
<path id="L10" fill-rule="evenodd" clip-rule="evenodd" d="M13.9893 408L14 408.005V423.995L13.9904 424L0 416.005V415.995L13.9893 408Z" fill="#3D2A3D"/>
<path id="L11" fill-rule="evenodd" clip-rule="evenodd" d="M13.9893 392L14 392.005V407.995L13.9904 408L0 400.005V399.995L13.9893 392Z" fill="#3D2A3D"/>
<path id="R9" fill-rule="evenodd" clip-rule="evenodd" d="M0 448V432L14 440.001L0 448Z" fill="#3D2A3D"/>
<path id="R10" fill-rule="evenodd" clip-rule="evenodd" d="M0 432V416L14 424.001L0 432Z" fill="#3D2A3D"/>
<path id="R11" fill-rule="evenodd" clip-rule="evenodd" d="M0 416V400L14 408.001L0 416Z" fill="#3D2A3D"/>
<path id="R12" fill-rule="evenodd" clip-rule="evenodd" d="M0 400V384L14 392.001L0 400Z" fill="#3D2A3D"/>
</g>
</svg>
