<svg width="408" height="436" viewBox="0 0 408 436" fill="none" xmlns="http://www.w3.org/2000/svg">
<path d="M193.31 286.27H193.325V310.942H193.31L172.005 298.606V298.591L193.31 286.27Z" fill="#1F4F22"/>
<path d="M385.112 27.3139H385.127V51.9866H385.112L363.807 39.6503V39.635L385.112 27.3139Z" fill="#DBEABF"/>
<path d="M406.431 64.2923L406.447 64.3076V88.9649L406.431 88.9802L385.127 76.6439V76.6286L406.431 64.2923Z" fill="#1F4F22"/>
<path d="M321.183 187.625H321.198V212.298H321.183L299.878 199.976V199.961L321.183 187.625Z" fill="#B1D135"/>
<path d="M342.503 150.616H342.518V175.289H342.503L321.198 162.968V162.937L342.503 150.616Z" fill="#1F4F22"/>
<path d="M278.558 64.2923H278.574V88.9649H278.558L257.254 76.6286V76.6134L278.558 64.2923Z" fill="#B1D135"/>
<path d="M171.99 273.948H172.005V298.606L171.99 298.621L150.685 286.285V286.27L171.99 273.948Z" fill="#DBEABF"/>
<path d="M235.949 187.64L235.964 187.655V212.313L235.949 212.328L214.645 199.992V199.976L235.949 187.64Z" fill="#C6DE8C"/>
<path d="M193.325 138.28L193.34 138.295V162.952L193.325 162.968L172.02 150.631V150.616L193.325 138.28Z" fill="#DBEABF"/>
<path d="M342.533 125.943L342.518 125.959V150.616L342.533 150.631L363.838 138.295V138.28L342.533 125.943Z" fill="#DBEABF"/>
<path d="M363.822 187.625L363.807 187.64V212.298L363.822 212.313L385.127 199.976V199.961L363.822 187.625Z" fill="#DBEABF"/>
<path d="M363.853 113.622L363.838 113.638V138.295L363.853 138.31L385.157 125.974V125.959L363.853 113.622Z" fill="#B1D135"/>
<path d="M321.198 64.2771H321.183V88.9497H321.198L342.503 76.6134V76.5981L321.198 64.2771Z" fill="#1F4F22"/>
<path d="M342.518 76.6134H342.503V101.286H342.518L363.822 88.9649V88.9497L342.518 76.6134Z" fill="#B1D135"/>
<path d="M150.685 236.94L150.67 236.955V261.612L150.685 261.627L171.99 249.291V249.276L150.685 236.94Z" fill="#B1D135"/>
<path d="M193.325 212.267L193.31 212.282V236.94L193.325 236.955L214.629 224.619V224.603L193.325 212.267Z" fill="#B1D135"/>
<path d="M129.411 199.946L129.396 199.961V224.619L129.411 224.634L150.716 212.298V212.282L129.411 199.946Z" fill="#1F4F22"/>
<path d="M108.076 138.295L108.061 138.31V162.968L108.076 162.983L129.381 150.646V150.631L108.076 138.295Z" fill="#B1D135"/>
<path d="M1.52283 101.301V125.974L22.8274 138.295L44.132 125.959V101.301L22.8274 88.9802L1.52283 101.301Z" stroke="#DBEABF" stroke-width="3" stroke-miterlimit="10"/>
<path d="M150.716 14.9776V39.6503L172.02 51.9713L193.325 39.635V14.9776L172.02 2.6566L150.716 14.9776Z" stroke="#DBEABF" stroke-width="3" stroke-miterlimit="10"/>
<path d="M86.7716 372.608L22.8122 335.615L22.8274 187.625L86.7564 224.619L86.7716 372.608Z" stroke="#53A546" stroke-width="3" stroke-miterlimit="10"/>
<path d="M235.949 286.285L171.99 249.291L172.005 101.317L235.934 138.295L235.949 286.285Z" stroke="#53A546" stroke-width="3" stroke-miterlimit="10"/>
<path d="M406.477 187.61L342.518 150.616L342.533 2.6413L406.462 39.6197L406.477 187.61Z" stroke="#53A546" stroke-width="3" stroke-miterlimit="10" stroke-dasharray="3 3"/>
<path d="M129.396 199.946L86.7563 224.619L86.7716 372.608L129.381 347.951L129.396 199.946Z" stroke="#53A546" stroke-width="3" stroke-miterlimit="10"/>
<path d="M65.4365 162.968L22.8274 187.625L86.7563 224.619L129.396 199.946L65.4365 162.968Z" stroke="#53A546" stroke-width="3" stroke-miterlimit="10"/>
<path d="M299.878 101.301L235.934 138.295L235.949 286.285L299.878 249.291V101.301Z" stroke="#53A546" stroke-width="3" stroke-miterlimit="10"/>
<path d="M235.934 64.3076L172.005 101.317L235.934 138.295L299.878 101.301L235.934 64.3076Z" stroke="#53A546" stroke-width="3" stroke-miterlimit="10"/>
<path d="M129.381 347.951L235.949 286.285" stroke="#53A546" stroke-width="3" stroke-miterlimit="10" stroke-dasharray="3 3"/>
<path d="M129.396 273.948L171.99 249.291" stroke="#53A546" stroke-width="3" stroke-miterlimit="10" stroke-dasharray="3 3"/>
<path d="M129.381 199.946L235.949 138.295" stroke="#53A546" stroke-width="3" stroke-miterlimit="10" stroke-dasharray="3 3"/>
<path d="M172.005 101.317L65.4365 162.968" stroke="#53A546" stroke-width="3" stroke-miterlimit="10" stroke-dasharray="3 3"/>
<path d="M299.878 249.291L406.447 187.625" stroke="#53A546" stroke-width="3" stroke-miterlimit="10" stroke-dasharray="3 3"/>
<path d="M299.893 175.289L342.487 150.631" stroke="#53A546" stroke-width="3" stroke-miterlimit="10" stroke-dasharray="3 3"/>
<path d="M299.878 101.286L406.447 39.635" stroke="#53A546" stroke-width="3" stroke-miterlimit="10" stroke-dasharray="3 3"/>
<path d="M235.934 64.3076L342.503 2.6566" stroke="#53A546" stroke-width="3" stroke-miterlimit="10" stroke-dasharray="3 3"/>
<path d="M172.005 27.3139C172.005 23.3596 174.152 19.9091 177.335 18.0617C175.766 17.1457 173.939 16.6113 172.005 16.6113C166.112 16.6113 161.33 21.4053 161.33 27.3139C161.33 33.2225 166.112 38.0166 172.005 38.0166C173.954 38.0166 175.766 37.4822 177.335 36.5662C174.152 34.7188 172.005 31.2683 172.005 27.3139Z" stroke="#DBEABF" stroke-width="2" stroke-miterlimit="10"/>
<path d="M22.8274 101.194V126.081" stroke="#DBEABF" stroke-width="2" stroke-miterlimit="10"/>
<path d="M12.0762 107.408L33.5787 119.867" stroke="#DBEABF" stroke-width="2" stroke-miterlimit="10"/>
<path d="M12.0762 119.852L33.5787 107.408" stroke="#DBEABF" stroke-width="2" stroke-miterlimit="10"/>
<path d="M16.6142 102.859L29.0406 124.417" stroke="#DBEABF" stroke-width="2" stroke-miterlimit="10"/>
<path d="M10.4163 113.638H35.2386" stroke="#DBEABF" stroke-width="2" stroke-miterlimit="10"/>
<path d="M16.6142 124.417L29.0406 102.859" stroke="#DBEABF" stroke-width="2" stroke-miterlimit="10"/>
<path d="M22.8122 121.76C27.2949 121.76 30.9289 118.117 30.9289 113.622C30.9289 109.128 27.2949 105.485 22.8122 105.485C18.3294 105.485 14.6954 109.128 14.6954 113.622C14.6954 118.117 18.3294 121.76 22.8122 121.76Z" fill="#0D2132" stroke="#DBEABF" stroke-width="2" stroke-miterlimit="10"/>
<path d="M172.02 51.9713V101.286" stroke="#DBEABF" stroke-width="3" stroke-miterlimit="10"/>
<path d="M22.8274 138.295V187.61" stroke="#DBEABF" stroke-width="3" stroke-miterlimit="10"/>
<path d="M69.7614 256.635V259.719L72.4264 261.261L75.0914 259.719V256.635L72.4264 255.093L69.7614 256.635Z" fill="#53A546"/>
<path d="M69.7614 231.962V235.046L72.4264 236.588L75.0914 235.046V231.962L72.4264 230.42L69.7614 231.962Z" stroke="#53A546" stroke-miterlimit="10"/>
<path d="M69.7614 244.299V247.383L72.4264 248.925L75.0914 247.383V244.299L72.4264 242.757L69.7614 244.299Z" fill="#53A546"/>
<path d="M97.9492 228.451V259.734" stroke="#53A546" stroke-miterlimit="10"/>
<path d="M103.614 225.58V256.864" stroke="#53A546" stroke-miterlimit="10"/>
<path d="M114.929 219.641V250.925" stroke="#53A546" stroke-miterlimit="10"/>
<path d="M109.279 221.855V253.139" stroke="#53A546" stroke-miterlimit="10"/>
<path d="M120.594 214.695V245.993" stroke="#53A546" stroke-miterlimit="10"/>
<path d="M257.284 347.951V372.608L278.589 384.945L299.893 372.608V347.951L278.589 335.615L257.284 347.951Z" stroke="#DBEABF" stroke-width="3" stroke-miterlimit="10"/>
<path d="M203.391 407.443C203.801 407.689 204.088 408.059 204.252 408.469C204.416 408.92 204.416 409.371 204.252 409.781C204.088 410.232 203.801 410.561 203.391 410.807L188.953 419.338C188.543 419.584 188.092 419.666 187.641 419.584C187.148 419.502 186.779 419.297 186.451 418.928C186.123 418.6 186 418.148 186 417.656V400.594C186 400.061 186.164 399.609 186.492 399.281C186.82 398.953 187.189 398.748 187.682 398.666C188.133 398.584 188.543 398.666 188.953 398.912L203.391 407.443Z" fill="#D5E8C8"/>
<path d="M275.906 368.271C276.439 368.271 276.891 368.107 277.301 367.697C277.67 367.328 277.875 366.877 277.875 366.303V351.865C277.875 351.332 277.67 350.881 277.301 350.471C276.891 350.102 276.439 349.896 275.906 349.896H271.969C271.395 349.896 270.943 350.102 270.574 350.471C270.164 350.881 270 351.332 270 351.865V366.303C270 366.877 270.164 367.328 270.574 367.697C270.943 368.107 271.395 368.271 271.969 368.271H275.906ZM288.375 366.303C288.375 366.877 288.17 367.328 287.801 367.697C287.391 368.107 286.939 368.271 286.406 368.271H282.469C281.895 368.271 281.443 368.107 281.074 367.697C280.664 367.328 280.5 366.877 280.5 366.303V351.865C280.5 351.332 280.664 350.881 281.074 350.471C281.443 350.102 281.895 349.896 282.469 349.896H286.406C286.939 349.896 287.391 350.102 287.801 350.471C288.17 350.881 288.375 351.332 288.375 351.865V366.303Z" fill="#D5E8C8"/>
<path d="M278.589 261.627V335.615" stroke="#DBEABF" stroke-width="3" stroke-miterlimit="10"/>
<path d="M172.02 397.251V421.923L193.325 434.244L214.629 421.908V397.251L193.325 384.914L172.02 397.251Z" stroke="#DBEABF" stroke-width="3" stroke-miterlimit="10"/>
<path d="M193.325 310.942V384.914" stroke="#DBEABF" stroke-width="3" stroke-miterlimit="10"/>
</svg>
