<svg width="140" height="68" viewBox="0 0 140 68" fill="none" xmlns="http://www.w3.org/2000/svg">
<path fill-rule="evenodd" clip-rule="evenodd" d="M74.1402 49.7604C72.9967 49.2003 72.1597 48.3716 71.6268 47.2718L73.5494 45.9467C73.8837 46.8109 74.4655 47.4587 75.2934 47.8908C76.1213 48.3223 77.0971 48.5387 78.2213 48.5387C79.3836 48.5387 80.2706 48.3319 80.8825 47.9197C81.4932 47.508 81.7986 46.9882 81.7986 46.359C81.7986 45.7911 81.5131 45.3343 80.9417 44.9906C80.369 44.6462 79.3636 44.347 77.925 44.0922C76.5057 43.8379 75.3827 43.5279 74.5548 43.1637C73.7262 42.8013 73.1246 42.3398 72.7505 41.7803C72.3757 41.2214 72.1892 40.5291 72.1892 39.7051C72.1892 38.8998 72.4252 38.1637 72.8983 37.496C73.372 36.8289 74.0521 36.2941 74.9386 35.8914C75.8256 35.4888 76.8503 35.2869 78.0137 35.2869C79.5905 35.2869 80.8572 35.5765 81.8136 36.1553C82.7695 36.7352 83.455 37.624 83.8684 38.8211L81.8577 39.9984C81.5427 39.0567 81.0642 38.38 80.4239 37.9666C79.783 37.5543 78.9799 37.3494 78.0137 37.3494C77.0476 37.3494 76.2299 37.5651 75.5601 37.996C74.8891 38.4293 74.5548 38.9293 74.5548 39.4984C74.5548 40.1462 74.845 40.6462 75.4267 40.9996C76.0079 41.353 77.0476 41.6583 78.5466 41.9125C80.5959 42.2472 82.0454 42.7472 82.8932 43.4149C83.7399 44.0819 84.1641 45.0242 84.1641 46.2418C84.1641 47.0855 83.913 47.8367 83.4104 48.4942C82.9077 49.1523 82.1878 49.6679 81.2518 50.0399C80.3153 50.4131 79.2267 50.5994 77.9842 50.5994C76.5655 50.5994 75.2837 50.3205 74.1402 49.7604" fill="#D5E8C8"/>
<path fill-rule="evenodd" clip-rule="evenodd" d="M94.6463 47.6547C95.5424 47.0663 95.9913 46.3001 95.9913 45.3578V43.3259L92.6796 43.9443C91.3593 44.1805 90.3732 44.5182 89.7227 44.9611C89.0728 45.4023 88.7476 45.9666 88.7476 46.6535C88.7476 47.2628 88.9835 47.7286 89.4566 48.0525C89.9303 48.3764 90.5899 48.5387 91.4383 48.5387C92.6796 48.5387 93.7489 48.2436 94.6463 47.6547M100.664 48.4503L100.516 50.3049C99.9638 50.5008 99.3719 50.5994 98.7413 50.5994C97.9731 50.5994 97.3666 50.4329 96.9225 50.0994C96.4795 49.7652 96.1983 49.2063 96.0801 48.4209C95.6263 49.1078 94.9607 49.6432 94.0838 50.0255C93.207 50.4083 92.2856 50.5994 91.3195 50.5994C89.8603 50.5994 88.6582 50.2616 87.712 49.5843C86.7658 48.9071 86.2927 47.9305 86.2927 46.6535C86.2927 45.5351 86.7857 44.5675 87.7712 43.7532C88.7566 42.9383 90.1856 42.374 92.0587 42.0603L95.9913 41.4125V40.5873C95.9913 39.606 95.686 38.8211 95.0747 38.2316C94.4634 37.6426 93.6156 37.3494 92.5318 37.3494C91.5457 37.3494 90.6937 37.5837 89.9744 38.0555C89.2538 38.5266 88.6981 39.2238 88.3034 40.1462L86.5594 38.8794C86.9529 37.7809 87.6873 36.9065 88.762 36.2586C89.8362 35.6108 91.0926 35.2869 92.5318 35.2869C94.286 35.2869 95.6957 35.7093 96.7601 36.5531C97.8252 37.3974 98.3569 38.6438 98.3569 40.2929V47.5375C98.3569 47.8908 98.4456 48.1559 98.623 48.3319C98.8004 48.5092 99.0858 48.597 99.4811 48.597C99.8745 48.597 100.269 48.5489 100.664 48.4503" fill="#D5E8C8"/>
<path fill-rule="evenodd" clip-rule="evenodd" d="M105.158 46.3587C105.158 47.1051 105.27 47.6207 105.497 47.9056C105.724 48.1898 106.143 48.3317 106.754 48.3317C107.168 48.3317 107.528 48.3022 107.834 48.2439C108.139 48.185 108.499 48.0769 108.913 47.92L108.528 50.1874C107.878 50.4621 107.148 50.5997 106.34 50.5997C105.138 50.5997 104.245 50.2758 103.664 49.6273C103.083 48.9795 102.792 47.9891 102.792 46.6532V28.8088H105.158V46.3587Z" fill="#D5E8C8"/>
<path fill-rule="evenodd" clip-rule="evenodd" d="M118.065 47.6547C118.961 47.0663 119.41 46.3001 119.41 45.3578V43.3259L116.098 43.9443C114.778 44.1805 113.792 44.5182 113.141 44.9611C112.491 45.4023 112.166 45.9666 112.166 46.6535C112.166 47.2628 112.402 47.7286 112.875 48.0525C113.349 48.3764 114.008 48.5387 114.857 48.5387C116.098 48.5387 117.167 48.2436 118.065 47.6547M124.082 48.4503L123.934 50.3049C123.382 50.5008 122.79 50.5994 122.16 50.5994C121.391 50.5994 120.785 50.4329 120.341 50.0994C119.898 49.7652 119.617 49.2063 119.498 48.4209C119.045 49.1078 118.379 49.6432 117.502 50.0255C116.625 50.4083 115.704 50.5994 114.738 50.5994C113.279 50.5994 112.077 50.2616 111.13 49.5843C110.184 48.9071 109.711 47.9305 109.711 46.6535C109.711 45.5351 110.204 44.5675 111.19 43.7532C112.175 42.9383 113.604 42.374 115.477 42.0603L119.41 41.4125V40.5873C119.41 39.606 119.104 38.8211 118.493 38.2316C117.882 37.6426 117.034 37.3494 115.95 37.3494C114.964 37.3494 114.112 37.5837 113.393 38.0555C112.672 38.5266 112.116 39.2238 111.722 40.1462L109.978 38.8794C110.371 37.7809 111.106 36.9065 112.18 36.2586C113.255 35.6108 114.511 35.2869 115.95 35.2869C117.704 35.2869 119.114 35.7093 120.178 36.5531C121.244 37.3974 121.775 38.6438 121.775 40.2929V47.5375C121.775 47.8908 121.864 48.1559 122.041 48.3319C122.219 48.5092 122.504 48.597 122.899 48.597C123.293 48.597 123.687 48.5489 124.082 48.4503" fill="#D5E8C8"/>
<path fill-rule="evenodd" clip-rule="evenodd" d="M135.835 47.0666C136.673 46.0841 137.091 44.7698 137.091 43.1207V42.7674C137.091 41.1183 136.673 39.8022 135.835 38.8209C134.997 37.8395 133.868 37.3491 132.45 37.3491C131.011 37.3491 129.877 37.8539 129.049 38.8659C128.221 39.8761 127.807 41.2355 127.807 42.9435C127.807 44.6508 128.221 46.0114 129.049 47.0222C129.877 48.0336 131.011 48.5384 132.45 48.5384C133.868 48.5384 134.997 48.048 135.835 47.0666V47.0666ZM139.458 28.8088V50.3052H137.387L137.239 47.7439C136.805 48.6075 136.14 49.2992 135.244 49.8191C134.346 50.3389 133.327 50.5997 132.183 50.5997C130.114 50.5997 128.472 49.9176 127.26 48.554C126.048 47.1886 125.441 45.3191 125.441 42.9435C125.441 40.5685 126.048 38.6989 127.26 37.3341C128.472 35.9699 130.114 35.2866 132.183 35.2866C133.267 35.2866 134.238 35.5228 135.096 35.9933C135.953 36.4651 136.619 37.0931 137.091 37.8785V28.8088H139.458Z" fill="#D5E8C8"/>
<path fill-rule="evenodd" clip-rule="evenodd" d="M43.413 25.2409L57.8841 16.8274L43.413 8.41333V25.2409Z" fill="#DBEABF"/>
<path fill-rule="evenodd" clip-rule="evenodd" d="M14.4708 42.0669L28.942 50.481L14.4708 58.8938V42.0669Z" fill="#53A546"/>
<path fill-rule="evenodd" clip-rule="evenodd" d="M28.942 33.6541L14.4708 42.0675L28.942 50.481V33.6541Z" fill="#1F4F22"/>
<path fill-rule="evenodd" clip-rule="evenodd" d="M14.4708 58.8944L28.942 67.3073V50.481L14.4708 58.8944Z" fill="#1F4F22"/>
<path fill-rule="evenodd" clip-rule="evenodd" d="M0 50.4806V50.4812L14.4706 58.8941V42.0671L0 50.4806Z" fill="#1F4F22"/>
<path fill-rule="evenodd" clip-rule="evenodd" d="M43.413 42.0678L57.8841 50.4812V33.6543L43.413 42.0678Z" fill="#B1D135"/>
<path fill-rule="evenodd" clip-rule="evenodd" d="M28.942 16.8271L43.4132 25.2406L28.942 33.6541V16.8271Z" fill="#B1D135"/>
<path fill-rule="evenodd" clip-rule="evenodd" d="M0 33.6536V33.6542L14.4706 42.0676V25.2407L0 33.6536Z" fill="#B1D135"/>
<path fill-rule="evenodd" clip-rule="evenodd" d="M28.9421 67.3076L43.4127 58.8948L28.9421 50.4807V67.3076Z" fill="#53A546"/>
<path fill-rule="evenodd" clip-rule="evenodd" d="M43.413 58.8945L57.8841 50.4811L43.413 42.0676V58.8945Z" fill="#1F4F22"/>
<path fill-rule="evenodd" clip-rule="evenodd" d="M28.9421 0.000244141L14.4709 8.4131L28.9421 16.8272V0.000244141Z" fill="#DBEABF"/>
<path fill-rule="evenodd" clip-rule="evenodd" d="M43.4132 25.2405L28.942 33.6539L43.4132 42.0674V25.2405Z" fill="#DBEABF"/>
<path fill-rule="evenodd" clip-rule="evenodd" d="M43.4132 42.0669L28.942 50.481L43.4132 58.8938V42.0669Z" fill="#B1D135"/>
</svg>
