<?xml version="1.0" standalone="no"?>
<!DOCTYPE svg PUBLIC "-//W3C//DTD SVG 20010904//EN"
 "http://www.w3.org/TR/2001/REC-SVG-20010904/DTD/svg10.dtd">
<svg version="1.0" xmlns="http://www.w3.org/2000/svg"
 width="256.000000pt" height="256.000000pt" viewBox="0 0 256.000000 256.000000"
 preserveAspectRatio="xMidYMid meet">
<metadata>
Created by potrace 1.11, written by Peter Selinger 2001-2013
</metadata>
<g transform="translate(0.000000,256.000000) scale(0.100000,-0.100000)"
fill="#000000" stroke="none">
<path d="M1254 2266 c-10 -7 -39 -24 -64 -38 -25 -14 -101 -58 -170 -98 -69
-41 -136 -79 -149 -86 l-23 -12 23 -15 c13 -8 107 -63 209 -122 102 -59 188
-110 193 -114 4 -4 8 -119 10 -256 l2 -249 47 -27 c25 -15 66 -38 90 -52 277
-156 290 -165 266 -180 -69 -43 -179 -107 -183 -107 -2 0 -49 -27 -104 -60
-55 -33 -104 -60 -110 -60 -6 0 -10 92 -10 241 0 133 -1 242 -3 244 -2 2 -99
-52 -215 -120 l-213 -123 -2 249 -3 249 -58 -35 c-32 -20 -77 -45 -100 -58
-94 -50 -267 -152 -267 -158 0 -3 15 -13 33 -22 17 -9 46 -25 62 -34 17 -10
96 -56 177 -102 111 -64 145 -88 137 -97 -6 -7 -34 -25 -62 -39 -29 -15 -59
-33 -68 -41 -8 -8 -18 -14 -21 -14 -3 0 -62 -33 -132 -74 -137 -80 -136 -77
-61 -118 17 -9 188 -107 380 -218 193 -112 365 -211 384 -222 33 -19 33 -19
70 3 20 12 54 32 76 44 22 13 81 46 130 75 50 29 108 63 130 75 22 13 141 82
265 153 l225 131 3 245 c1 154 -2 246 -8 246 -11 0 -74 -35 -169 -92 -34 -21
-65 -38 -67 -38 -2 0 -42 -23 -89 -51 -48 -28 -90 -48 -93 -44 -4 4 -7 114 -7
246 l0 239 212 122 c117 67 213 124 213 127 0 10 -409 243 -417 238 -5 -3 -8
-111 -8 -241 0 -151 -4 -236 -10 -236 -5 0 -36 16 -68 35 -32 19 -59 35 -61
35 -2 0 -68 38 -147 84 l-144 84 -2 247 c-1 136 -3 249 -5 251 -3 2 -13 -2
-24 -10z"/>
</g>
</svg>
