<svg width="14" height="568" viewBox="0 0 14 568" fill="none" xmlns="http://www.w3.org/2000/svg">
<g id="14">
<rect width="14" height="568" fill="none"/>
<path id="L15" fill-rule="evenodd" clip-rule="evenodd" d="M13.9893 328L14 328.005V343.995L13.9904 344L0 336.005V335.995L13.9893 328Z" fill="#950914"/>
<path id="L16" fill-rule="evenodd" clip-rule="evenodd" d="M13.9893 312L14 312.005V327.995L13.9904 328L0 320.005V319.995L13.9893 312Z" fill="#FCFCFC"/>
<path id="L17" fill-rule="evenodd" clip-rule="evenodd" d="M13.9893 296L14 296.005V311.995L13.9904 312L0 304.005V303.995L13.9893 296Z" fill="#FCFCFC"/>
<path id="L18" fill-rule="evenodd" clip-rule="evenodd" d="M13.9893 280L14 280.005V295.995L13.9904 296L0 288.005V287.995L13.9893 280Z" fill="#D6C8AA"/>
<path id="L19" fill-rule="evenodd" clip-rule="evenodd" d="M13.9893 264L14 264.005V279.995L13.9904 280L0 272.005V271.995L13.9893 264Z" fill="#8E5E32"/>
<path id="L20" fill-rule="evenodd" clip-rule="evenodd" d="M13.9893 248L14 248.005V263.995L13.9904 264L0 256.005V255.995L13.9893 248Z" fill="#D6C8AA"/>
<path id="L21" fill-rule="evenodd" clip-rule="evenodd" d="M13.9893 232L14 232.005V247.995L13.9904 248L0 240.005V239.995L13.9893 232Z" fill="#FCFCFC"/>
<path id="L22" fill-rule="evenodd" clip-rule="evenodd" d="M13.9893 216L14 216.005V231.995L13.9904 232L0 224.005V223.995L13.9893 216Z" fill="#FCFCFC"/>
<path id="R15" fill-rule="evenodd" clip-rule="evenodd" d="M0 352V336L14 344.001L0 352Z" fill="#950914"/>
<path id="R16" fill-rule="evenodd" clip-rule="evenodd" d="M0 336V320L14 328.001L0 336Z" fill="#FCFCFC"/>
<path id="R17" fill-rule="evenodd" clip-rule="evenodd" d="M0 320V304L14 312.001L0 320Z" fill="#FCFCFC"/>
<path id="R18" fill-rule="evenodd" clip-rule="evenodd" d="M0 304V288L14 296.001L0 304Z" fill="#FCFCFC"/>
<path id="R19" fill-rule="evenodd" clip-rule="evenodd" d="M0 288V272L14 280.001L0 288Z" fill="#D6C8AA"/>
<path id="R20" fill-rule="evenodd" clip-rule="evenodd" d="M0 272V256L14 264.001L0 272Z" fill="#D6C8AA"/>
<path id="R21" fill-rule="evenodd" clip-rule="evenodd" d="M0 256V240L14 248.001L0 256Z" fill="#FCFCFC"/>
<path id="R22" fill-rule="evenodd" clip-rule="evenodd" d="M0 240V224L14 232.001L0 240Z" fill="#FCFCFC"/>
<path id="R23" fill-rule="evenodd" clip-rule="evenodd" d="M0 224V208L14 216.001L0 224Z" fill="#FCFCFC"/>
</g>
</svg>
