<svg width="14" height="568" viewBox="0 0 14 568" fill="none" xmlns="http://www.w3.org/2000/svg">
<g id="column-13">
<path id="L12" fill-rule="evenodd" clip-rule="evenodd" d="M0.0106683 376L0 376.005V391.995L0.00960146 392L14 384.005V383.995L0.0106683 376Z" fill="#FCFCFC"/>
<path id="L13" fill-rule="evenodd" clip-rule="evenodd" d="M0.0106683 360L0 360.005V375.995L0.00960146 376L14 368.005V367.995L0.0106683 360Z" fill="#FCFCFC"/>
<path id="L14" fill-rule="evenodd" clip-rule="evenodd" d="M0.0106683 344L0 344.005V359.995L0.00960146 360L14 352.005V351.995L0.0106683 344Z" fill="#FCFCFC"/>
<path id="L15" fill-rule="evenodd" clip-rule="evenodd" d="M0.0106683 328L0 328.005V343.995L0.00960146 344L14 336.005V335.995L0.0106683 328Z" fill="#FCFCFC"/>
<path id="L16" fill-rule="evenodd" clip-rule="evenodd" d="M0.0106683 312L0 312.005V327.995L0.00960146 328L14 320.005V319.995L0.0106683 312Z" fill="#FCFCFC"/>
<path id="L17" fill-rule="evenodd" clip-rule="evenodd" d="M0.0106683 296L0 296.005V311.995L0.00960146 312L14 304.005V303.995L0.0106683 296Z" fill="#FCFCFC"/>
<path id="L18" fill-rule="evenodd" clip-rule="evenodd" d="M0.0106683 280L0 280.005V295.995L0.00960146 296L14 288.005V287.995L0.0106683 280Z" fill="#124345"/>
<path id="L19" fill-rule="evenodd" clip-rule="evenodd" d="M0.0106683 264L0 264.005V279.995L0.00960146 280L14 272.005V271.995L0.0106683 264Z" fill="#FCFCFC"/>
<path id="L20" fill-rule="evenodd" clip-rule="evenodd" d="M0.0106683 248L0 248.005V263.995L0.00960146 264L14 256.005V255.995L0.0106683 248Z" fill="#FCFCFC"/>
<path id="L21" fill-rule="evenodd" clip-rule="evenodd" d="M0.0106683 232L0 232.005V247.995L0.00960146 248L14 240.005V239.995L0.0106683 232Z" fill="#FCFCFC"/>
<path id="L22" fill-rule="evenodd" clip-rule="evenodd" d="M0.0106683 216L0 216.005V231.995L0.00960146 232L14 224.005V223.995L0.0106683 216Z" fill="#FCFCFC"/>
<path id="L23" fill-rule="evenodd" clip-rule="evenodd" d="M0.0106683 200L0 200.005V215.995L0.00960146 216L14 208.005V207.995L0.0106683 200Z" fill="#FCFCFC"/>
<path id="R13" fill-rule="evenodd" clip-rule="evenodd" d="M14 384V368L0 376.001L14 384Z" fill="#FCFCFC"/>
<path id="R14" fill-rule="evenodd" clip-rule="evenodd" d="M14 368V352L0 360.001L14 368Z" fill="#FCFCFC"/>
<path id="R15" fill-rule="evenodd" clip-rule="evenodd" d="M14 352V336L0 344.001L14 352Z" fill="#FCFCFC"/>
<path id="R16" fill-rule="evenodd" clip-rule="evenodd" d="M14 336V320L0 328.001L14 336Z" fill="#FCFCFC"/>
<path id="R17" fill-rule="evenodd" clip-rule="evenodd" d="M14 320V304L0 312.001L14 320Z" fill="#FCFCFC"/>
<path id="R18" fill-rule="evenodd" clip-rule="evenodd" d="M14 304V288L0 296.001L14 304Z" fill="#FCFCFC"/>
<path id="R19" fill-rule="evenodd" clip-rule="evenodd" d="M14 288V272L0 280.001L14 288Z" fill="#FCFCFC"/>
<path id="R20" fill-rule="evenodd" clip-rule="evenodd" d="M14 272V256L0 264.001L14 272Z" fill="#0A2133"/>
<path id="R21" fill-rule="evenodd" clip-rule="evenodd" d="M14 256V240L0 248.001L14 256Z" fill="#FCFCFC"/>
<path id="R22" fill-rule="evenodd" clip-rule="evenodd" d="M14 240V224L0 232.001L14 240Z" fill="#FCFCFC"/>
<path id="R23" fill-rule="evenodd" clip-rule="evenodd" d="M14 224V208L0 216.001L14 224Z" fill="#FCFCFC"/>
</g>
</svg>
