<svg width="14" height="568" viewBox="0 0 14 568" fill="none" xmlns="http://www.w3.org/2000/svg">
<g id="column-3">
<path id="L10" fill-rule="evenodd" clip-rule="evenodd" d="M0.0106683 408L0 408.005V423.995L0.00960146 424L14 416.005V415.995L0.0106683 408Z" fill="#F4EFE4"/>
<path id="L11" fill-rule="evenodd" clip-rule="evenodd" d="M0.0106683 392L0 392.005V407.995L0.00960146 408L14 400.005V399.995L0.0106683 392Z" fill="#F4EFE4"/>
<path id="L14" fill-rule="evenodd" clip-rule="evenodd" d="M0.0106683 344L0 344.005V359.995L0.00960146 360L14 352.005V351.995L0.0106683 344Z" fill="#F4EFE4"/>
<path id="L15" fill-rule="evenodd" clip-rule="evenodd" d="M0.0106683 328L0 328.005V343.995L0.00960146 344L14 336.005V335.995L0.0106683 328Z" fill="#F4EFE4"/>
<path id="L16" fill-rule="evenodd" clip-rule="evenodd" d="M0.0106683 312L0 312.005V327.995L0.00960146 328L14 320.005V319.995L0.0106683 312Z" fill="#F4EFE4"/>
<path id="L17" fill-rule="evenodd" clip-rule="evenodd" d="M0.0106683 296L0 296.005V311.995L0.00960146 312L14 304.005V303.995L0.0106683 296Z" fill="#F4EFE4"/>
<path id="R11" fill-rule="evenodd" clip-rule="evenodd" d="M14 416V400L0 408.001L14 416Z" fill="#124345"/>
<path id="R12" fill-rule="evenodd" clip-rule="evenodd" d="M14 400V384L0 392.001L14 400Z" fill="#FCFCFC"/>
<path id="R14" fill-rule="evenodd" clip-rule="evenodd" d="M14 368V352L0 360.001L14 368Z" fill="#F4EFE4"/>
<path id="R15" fill-rule="evenodd" clip-rule="evenodd" d="M14 352V336L0 344.001L14 352Z" fill="#F4EFE4"/>
<path id="R16" fill-rule="evenodd" clip-rule="evenodd" d="M14 336V320L0 328.001L14 336Z" fill="#F4EFE4"/>
<path id="R17" fill-rule="evenodd" clip-rule="evenodd" d="M14 320V304L0 312.001L14 320Z" fill="#F4EFE4"/>
<path id="R18" fill-rule="evenodd" clip-rule="evenodd" d="M14 304V288L0 296.001L14 304Z" fill="#F4EFE4"/>
</g>
</svg>
