<svg width="14" height="568" viewBox="0 0 14 568" fill="none" xmlns="http://www.w3.org/2000/svg">
<g id="column-5">
<path id="L10" fill-rule="evenodd" clip-rule="evenodd" d="M0.0106683 408L0 408.005V423.995L0.00960146 424L14 416.005V415.995L0.0106683 408Z" fill="#F4EFE4"/>
<path id="L11" fill-rule="evenodd" clip-rule="evenodd" d="M0.0106683 392L0 392.005V407.995L0.00960146 408L14 400.005V399.995L0.0106683 392Z" fill="#FCFCFC"/>
<path id="L12" fill-rule="evenodd" clip-rule="evenodd" d="M0.0106683 376L0 376.005V391.995L0.00960146 392L14 384.005V383.995L0.0106683 376Z" fill="#124345"/>
<path id="L13" fill-rule="evenodd" clip-rule="evenodd" d="M0.0106683 360L0 360.005V375.995L0.00960146 376L14 368.005V367.995L0.0106683 360Z" fill="#F4EFE4"/>
<path id="L14" fill-rule="evenodd" clip-rule="evenodd" d="M0.0106683 344L0 344.005V359.995L0.00960146 360L14 352.005V351.995L0.0106683 344Z" fill="#F4EFE4"/>
<path id="L15" fill-rule="evenodd" clip-rule="evenodd" d="M0.0106683 328L0 328.005V343.995L0.00960146 344L14 336.005V335.995L0.0106683 328Z" fill="#F4EFE4"/>
<path id="L16" fill-rule="evenodd" clip-rule="evenodd" d="M0.0106683 312L0 312.005V327.995L0.00960146 328L14 320.005V319.995L0.0106683 312Z" fill="#F4EFE4"/>
<path id="L17" fill-rule="evenodd" clip-rule="evenodd" d="M0.0106683 296L0 296.005V311.995L0.00960146 312L14 304.005V303.995L0.0106683 296Z" fill="#F4EFE4"/>
<path id="L18" fill-rule="evenodd" clip-rule="evenodd" d="M0.0106683 280L0 280.005V295.995L0.00960146 296L14 288.005V287.995L0.0106683 280Z" fill="#F4EFE4"/>
<path id="L19" fill-rule="evenodd" clip-rule="evenodd" d="M0.0106683 264L0 264.005V279.995L0.00960146 280L14 272.005V271.995L0.0106683 264Z" fill="#F4EFE4"/>
<path id="L20" fill-rule="evenodd" clip-rule="evenodd" d="M0.0106683 248L0 248.005V263.995L0.00960146 264L14 256.005V255.995L0.0106683 248Z" fill="#F4EFE4"/>
<path id="R10" fill-rule="evenodd" clip-rule="evenodd" d="M14 432V416L0 424.001L14 432Z" fill="#F4EFE4"/>
<path id="R11" fill-rule="evenodd" clip-rule="evenodd" d="M14 416V400L0 408.001L14 416Z" fill="#0A2133"/>
<path id="R12" fill-rule="evenodd" clip-rule="evenodd" d="M14 400V384L0 392.001L14 400Z" fill="#0A2133"/>
<path id="R13" fill-rule="evenodd" clip-rule="evenodd" d="M14 384V368L0 376.001L14 384Z" fill="#FCFCFC"/>
<path id="R14" fill-rule="evenodd" clip-rule="evenodd" d="M14 368V352L0 360.001L14 368Z" fill="#F4EFE4"/>
<path id="R15" fill-rule="evenodd" clip-rule="evenodd" d="M14 352V336L0 344.001L14 352Z" fill="#F4EFE4"/>
<path id="R16" fill-rule="evenodd" clip-rule="evenodd" d="M14 336V320L0 328.001L14 336Z" fill="#F4EFE4"/>
<path id="R17" fill-rule="evenodd" clip-rule="evenodd" d="M14 320V304L0 312.001L14 320Z" fill="#F4EFE4"/>
<path id="R18" fill-rule="evenodd" clip-rule="evenodd" d="M14 304V288L0 296.001L14 304Z" fill="#F4EFE4"/>
<path id="R19" fill-rule="evenodd" clip-rule="evenodd" d="M14 288V272L0 280.001L14 288Z" fill="#0A2133"/>
<path id="R20" fill-rule="evenodd" clip-rule="evenodd" d="M14 272V256L0 264.001L14 272Z" fill="#F4EFE4"/>
<path id="R21" fill-rule="evenodd" clip-rule="evenodd" d="M14 256V240L0 248.001L14 256Z" fill="#124345"/>
</g>
</svg>
