<svg width="14" height="568" viewBox="0 0 14 568" fill="none" xmlns="http://www.w3.org/2000/svg">
<g id="15">
<rect width="14" height="568" fill="none"/>
<path id="L23" fill-rule="evenodd" clip-rule="evenodd" d="M0.0106683 200L0 200.005V215.995L0.00960146 216L14 208.005V207.995L0.0106683 200Z" fill="#1F4F22"/>
<path id="L24" fill-rule="evenodd" clip-rule="evenodd" d="M0.0106683 184L0 184.005V199.995L0.00960146 200L14 192.005V191.995L0.0106683 184Z" fill="#1F4F22"/>
<path id="L26" fill-rule="evenodd" clip-rule="evenodd" d="M0.0106683 152L0 152.005V167.995L0.00960146 168L14 160.005V159.995L0.0106683 152Z" fill="#53A626"/>
<path id="L27" fill-rule="evenodd" clip-rule="evenodd" d="M0.0106683 136L0 136.005V151.995L0.00960146 152L14 144.005V143.995L0.0106683 136Z" fill="#0C420F"/>
<path id="L28" fill-rule="evenodd" clip-rule="evenodd" d="M0.0106683 120L0 120.005V135.995L0.00960146 136L14 128.005V127.995L0.0106683 120Z" fill="#53A626"/>
<path id="L29" fill-rule="evenodd" clip-rule="evenodd" d="M0.0106683 104L0 104.005V119.995L0.00960146 120L14 112.005V111.995L0.0106683 104Z" fill="#53A626"/>
<path id="R18" fill-rule="evenodd" clip-rule="evenodd" d="M14 304V288L0 296.001L14 304Z" fill="#1F4F22"/>
<path id="R25" fill-rule="evenodd" clip-rule="evenodd" d="M14 192V176L0 184.001L14 192Z" fill="#1F4F22"/>
<path id="R26" fill-rule="evenodd" clip-rule="evenodd" d="M14 176V160L0 168.001L14 176Z" fill="#0C420F"/>
<path id="R27" fill-rule="evenodd" clip-rule="evenodd" d="M14 160V144L0 152.001L14 160Z" fill="#1F4F22"/>
<path id="R28" fill-rule="evenodd" clip-rule="evenodd" d="M14 144V128L0 136.001L14 144Z" fill="#53A626"/>
<path id="R29" fill-rule="evenodd" clip-rule="evenodd" d="M14 128V112L0 120.001L14 128Z" fill="#1F4F22"/>
</g>
</svg>
