<svg width="14" height="568" viewBox="0 0 14 568" fill="none" xmlns="http://www.w3.org/2000/svg">
<g id="6">
<rect width="14" height="568" fill="none"/>
<path id="L12" fill-rule="evenodd" clip-rule="evenodd" d="M13.9893 376L14 376.005V391.995L13.9904 392L0 384.005V383.995L13.9893 376Z" fill="#B2D530"/>
<path id="L13" fill-rule="evenodd" clip-rule="evenodd" d="M13.9893 360L14 360.005V375.995L13.9904 376L0 368.005V367.995L13.9893 360Z" fill="#B2D530"/>
<path id="L15" fill-rule="evenodd" clip-rule="evenodd" d="M13.9893 328L14 328.005V343.995L13.9904 344L0 336.005V335.995L13.9893 328Z" fill="#1F4F22"/>
<path id="L22" fill-rule="evenodd" clip-rule="evenodd" d="M13.9893 216L14 216.005V231.995L13.9904 232L0 224.005V223.995L13.9893 216Z" fill="#1F4F22"/>
<path id="L23" fill-rule="evenodd" clip-rule="evenodd" d="M13.9893 200L14 200.005V215.995L13.9904 216L0 208.005V207.995L13.9893 200Z" fill="#1F4F22"/>
<path id="L24" fill-rule="evenodd" clip-rule="evenodd" d="M13.9893 184L14 184.005V199.995L13.9904 200L0 192.005V191.995L13.9893 184Z" fill="#1F4F22"/>
<path id="L25" fill-rule="evenodd" clip-rule="evenodd" d="M13.9893 168L14 168.005V183.995L13.9904 184L0 176.005V175.995L13.9893 168Z" fill="#53A626"/>
<path id="L28" fill-rule="evenodd" clip-rule="evenodd" d="M13.9893 120L14 120.005V135.995L13.9904 136L0 128.005V127.995L13.9893 120Z" fill="#53A626"/>
<path id="L29" fill-rule="evenodd" clip-rule="evenodd" d="M13.9893 104L14 104.005V119.995L13.9904 120L0 112.005V111.995L13.9893 104Z" fill="#0C420F"/>
<path id="L30" fill-rule="evenodd" clip-rule="evenodd" d="M13.9893 88L14 88.0053V103.995L13.9904 104L0 96.0053V95.9947L13.9893 88Z" fill="#53A626"/>
<path id="L31" fill-rule="evenodd" clip-rule="evenodd" d="M13.9893 72L14 72.0053V87.9947L13.9904 88L0 80.0053V79.9947L13.9893 72Z" fill="#0C420F"/>
<path id="L32" fill-rule="evenodd" clip-rule="evenodd" d="M13.9893 56L14 56.0053V71.9947L13.9904 72L0 64.0053V63.9947L13.9893 56Z" fill="#1F4F22"/>
<path id="R12" fill-rule="evenodd" clip-rule="evenodd" d="M0 400V384L14 392.001L0 400Z" fill="#B2D530"/>
<path id="R13" fill-rule="evenodd" clip-rule="evenodd" d="M0 384V368L14 376.001L0 384Z" fill="#B2D530"/>
<path id="R16" fill-rule="evenodd" clip-rule="evenodd" d="M0 336V320L14 328.001L0 336Z" fill="#53A626"/>
<path id="R23" fill-rule="evenodd" clip-rule="evenodd" d="M0 224V208L14 216.001L0 224Z" fill="#53A626"/>
<path id="R24" fill-rule="evenodd" clip-rule="evenodd" d="M0 208V192L14 200.001L0 208Z" fill="#B2D530"/>
<path id="R25" fill-rule="evenodd" clip-rule="evenodd" d="M0 192V176L14 184.001L0 192Z" fill="#1F4F22"/>
<path id="R30" fill-rule="evenodd" clip-rule="evenodd" d="M0 112V96L14 104.001L0 112Z" fill="#1F4F22"/>
<path id="R31" fill-rule="evenodd" clip-rule="evenodd" d="M0 96V80L14 88.0005L0 96Z" fill="#0C420F"/>
<path id="R32" fill-rule="evenodd" clip-rule="evenodd" d="M0 80V64L14 72.0005L0 80Z" fill="#1F4F22"/>
</g>
</svg>
