<svg width="14" height="568" viewBox="0 0 14 568" fill="none" xmlns="http://www.w3.org/2000/svg">
<g id="7">
<rect width="14" height="568" fill="none"/>
<path id="L13" fill-rule="evenodd" clip-rule="evenodd" d="M0.0106683 360L0 360.005V375.995L0.00960146 376L14 368.005V367.995L0.0106683 360Z" fill="#53A626"/>
<path id="L14" fill-rule="evenodd" clip-rule="evenodd" d="M0.0106683 344L0 344.005V359.995L0.00960146 360L14 352.005V351.995L0.0106683 344Z" fill="#B2D530"/>
<path id="L18" fill-rule="evenodd" clip-rule="evenodd" d="M0.0106683 280L0 280.005V295.995L0.00960146 296L14 288.005V287.995L0.0106683 280Z" fill="#53A626"/>
<path id="L19" fill-rule="evenodd" clip-rule="evenodd" d="M0.0106683 264L0 264.005V279.995L0.00960146 280L14 272.005V271.995L0.0106683 264Z" fill="#53A626"/>
<path id="L22" fill-rule="evenodd" clip-rule="evenodd" d="M0.0106683 216L0 216.005V231.995L0.00960146 232L14 224.005V223.995L0.0106683 216Z" fill="#53A626"/>
<path id="L23" fill-rule="evenodd" clip-rule="evenodd" d="M0.0106683 200L0 200.005V215.995L0.00960146 216L14 208.005V207.995L0.0106683 200Z" fill="#B2D530"/>
<path id="L24" fill-rule="evenodd" clip-rule="evenodd" d="M0.0106683 184L0 184.005V199.995L0.00960146 200L14 192.005V191.995L0.0106683 184Z" fill="#53A626"/>
<path id="L25" fill-rule="evenodd" clip-rule="evenodd" d="M0.0106683 168L0 168.005V183.995L0.00960146 184L14 176.005V175.995L0.0106683 168Z" fill="#53A626"/>
<path id="L26" fill-rule="evenodd" clip-rule="evenodd" d="M0.0106683 152L0 152.005V167.995L0.00960146 168L14 160.005V159.995L0.0106683 152Z" fill="#1F4F22"/>
<path id="L28" fill-rule="evenodd" clip-rule="evenodd" d="M0.0106683 120L0 120.005V135.995L0.00960146 136L14 128.005V127.995L0.0106683 120Z" fill="#1F4F22"/>
<path id="L29" fill-rule="evenodd" clip-rule="evenodd" d="M0.0106683 104L0 104.005V119.995L0.00960146 120L14 112.005V111.995L0.0106683 104Z" fill="#0C420F"/>
<path id="L30" fill-rule="evenodd" clip-rule="evenodd" d="M0.0106683 88L0 88.0053V103.995L0.00960146 104L14 96.0053V95.9947L0.0106683 88Z" fill="#1F4F22"/>
<path id="R14" fill-rule="evenodd" clip-rule="evenodd" d="M14 368V352L0 360.001L14 368Z" fill="#B2D530"/>
<path id="R15" fill-rule="evenodd" clip-rule="evenodd" d="M14 352V336L0 344.001L14 352Z" fill="#B2D530"/>
<path id="R18" fill-rule="evenodd" clip-rule="evenodd" d="M14 304V288L0 296.001L14 304Z" fill="#53A626"/>
<path id="R19" fill-rule="evenodd" clip-rule="evenodd" d="M14 288V272L0 280.001L14 288Z" fill="#1F4F22"/>
<path id="R20" fill-rule="evenodd" clip-rule="evenodd" d="M14 272V256L0 264.001L14 272Z" fill="#53A626"/>
<path id="R22" fill-rule="evenodd" clip-rule="evenodd" d="M14 240V224L0 232.001L14 240Z" fill="#53A626"/>
<path id="R23" fill-rule="evenodd" clip-rule="evenodd" d="M14 224V208L0 216.001L14 224Z" fill="#53A626"/>
<path id="R24" fill-rule="evenodd" clip-rule="evenodd" d="M14 208V192L0 200.001L14 208Z" fill="#53A626"/>
<path id="R25" fill-rule="evenodd" clip-rule="evenodd" d="M14 192V176L0 184.001L14 192Z" fill="#1F4F22"/>
<path id="R26" fill-rule="evenodd" clip-rule="evenodd" d="M14 176V160L0 168.001L14 176Z" fill="#1F4F22"/>
<path id="R27" fill-rule="evenodd" clip-rule="evenodd" d="M14 160V144L0 152.001L14 160Z" fill="#53A626"/>
<path id="R29" fill-rule="evenodd" clip-rule="evenodd" d="M14 128V112L0 120.001L14 128Z" fill="#1F4F22"/>
<path id="R30" fill-rule="evenodd" clip-rule="evenodd" d="M14 112V96L0 104.001L14 112Z" fill="#1F4F22"/>
<path id="R31" fill-rule="evenodd" clip-rule="evenodd" d="M14 96V80L0 88.0005L14 96Z" fill="#1F4F22"/>
</g>
</svg>
