<svg width="14" height="568" viewBox="0 0 14 568" fill="none" xmlns="http://www.w3.org/2000/svg">
<g id="16">
<rect width="14" height="568" fill="none"/>
<path id="L22" fill-rule="evenodd" clip-rule="evenodd" d="M13.9893 216L14 216.005V231.995L13.9904 232L0 224.005V223.995L13.9893 216Z" fill="#D6C8AA"/>
<path id="L23" fill-rule="evenodd" clip-rule="evenodd" d="M13.9893 200L14 200.005V215.995L13.9904 216L0 208.005V207.995L13.9893 200Z" fill="#D6C8AA"/>
<path id="L24" fill-rule="evenodd" clip-rule="evenodd" d="M13.9893 184L14 184.005V199.995L13.9904 200L0 192.005V191.995L13.9893 184Z" fill="#D6C8AA"/>
<path id="L25" fill-rule="evenodd" clip-rule="evenodd" d="M13.9893 168L14 168.005V183.995L13.9904 184L0 176.005V175.995L13.9893 168Z" fill="#D6C8AA"/>
<path id="L26" fill-rule="evenodd" clip-rule="evenodd" d="M13.9893 152L14 152.005V167.995L13.9904 168L0 160.005V159.995L13.9893 152Z" fill="#D6C8AA"/>
<path id="R22" fill-rule="evenodd" clip-rule="evenodd" d="M0 240V224L14 232.001L0 240Z" fill="#D6C8AA"/>
<path id="R23" fill-rule="evenodd" clip-rule="evenodd" d="M0 224V208L14 216.001L0 224Z" fill="#D6C8AA"/>
<path id="R24" fill-rule="evenodd" clip-rule="evenodd" d="M0 208V192L14 200.001L0 208Z" fill="#D6C8AA"/>
<path id="R25" fill-rule="evenodd" clip-rule="evenodd" d="M0 192V176L14 184.001L0 192Z" fill="#D6C8AA"/>
<path id="R26" fill-rule="evenodd" clip-rule="evenodd" d="M0 176V160L14 168.001L0 176Z" fill="#D6C8AA"/>
<path id="R27" fill-rule="evenodd" clip-rule="evenodd" d="M0 160V144L14 152.001L0 160Z" fill="#D6C8AA"/>
</g>
</svg>
