<svg width="14" height="568" viewBox="0 0 14 568" fill="none" xmlns="http://www.w3.org/2000/svg">
<g id="2">
<rect width="14" height="568" fill="none"/>
<path id="L12" fill-rule="evenodd" clip-rule="evenodd" d="M13.9893 376L14 376.005V391.995L13.9904 392L0 384.005V383.995L13.9893 376Z" fill="#FCFCFC"/>
<path id="L13" fill-rule="evenodd" clip-rule="evenodd" d="M13.9893 360L14 360.005V375.995L13.9904 376L0 368.005V367.995L13.9893 360Z" fill="#FCFCFC"/>
<path id="L14" fill-rule="evenodd" clip-rule="evenodd" d="M13.9893 344L14 344.005V359.995L13.9904 360L0 352.005V351.995L13.9893 344Z" fill="#FCFCFC"/>
<path id="L15" fill-rule="evenodd" clip-rule="evenodd" d="M13.9893 328L14 328.005V343.995L13.9904 344L0 336.005V335.995L13.9893 328Z" fill="#FCFCFC"/>
<path id="L16" fill-rule="evenodd" clip-rule="evenodd" d="M13.9893 312L14 312.005V327.995L13.9904 328L0 320.005V319.995L13.9893 312Z" fill="#FCFCFC"/>
<path id="L17" fill-rule="evenodd" clip-rule="evenodd" d="M13.9893 296L14 296.005V311.995L13.9904 312L0 304.005V303.995L13.9893 296Z" fill="#FCFCFC"/>
<path id="L18" fill-rule="evenodd" clip-rule="evenodd" d="M13.9893 280L14 280.005V295.995L13.9904 296L0 288.005V287.995L13.9893 280Z" fill="#FCFCFC"/>
<path id="L19" fill-rule="evenodd" clip-rule="evenodd" d="M13.9893 264L14 264.005V279.995L13.9904 280L0 272.005V271.995L13.9893 264Z" fill="#FCFCFC"/>
<path id="L20" fill-rule="evenodd" clip-rule="evenodd" d="M13.9893 248L14 248.005V263.995L13.9904 264L0 256.005V255.995L13.9893 248Z" fill="#FCFCFC"/>
<path id="R13" fill-rule="evenodd" clip-rule="evenodd" d="M0 384V368L14 376.001L0 384Z" fill="#FCFCFC"/>
<path id="R14" fill-rule="evenodd" clip-rule="evenodd" d="M0 368V352L14 360.001L0 368Z" fill="#FCFCFC"/>
<path id="R15" fill-rule="evenodd" clip-rule="evenodd" d="M0 352V336L14 344.001L0 352Z" fill="#FCFCFC"/>
<path id="R16" fill-rule="evenodd" clip-rule="evenodd" d="M0 336V320L14 328.001L0 336Z" fill="#FCFCFC"/>
<path id="R17" fill-rule="evenodd" clip-rule="evenodd" d="M0 320V304L14 312.001L0 320Z" fill="#FCFCFC"/>
<path id="R18" fill-rule="evenodd" clip-rule="evenodd" d="M0 304V288L14 296.001L0 304Z" fill="#FCFCFC"/>
<path id="R19" fill-rule="evenodd" clip-rule="evenodd" d="M0 288V272L14 280.001L0 288Z" fill="#FCFCFC"/>
<path id="R20" fill-rule="evenodd" clip-rule="evenodd" d="M0 272V256L14 264.001L0 272Z" fill="#FCFCFC"/>
</g>
</svg>
