<svg width="14" height="568" viewBox="0 0 14 568" fill="none" xmlns="http://www.w3.org/2000/svg">
<g id="16">
<rect width="14" height="568" fill="none"/>
<path id="L21" fill-rule="evenodd" clip-rule="evenodd" d="M13.9893 232L14 232.005V247.995L13.9904 248L0 240.005V239.995L13.9893 232Z" fill="#089800"/>
<path id="L22" fill-rule="evenodd" clip-rule="evenodd" d="M13.9893 216L14 216.005V231.995L13.9904 232L0 224.005V223.995L13.9893 216Z" fill="#18C10E"/>
<path id="L23" fill-rule="evenodd" clip-rule="evenodd" d="M13.9893 200L14 200.005V215.995L13.9904 216L0 208.005V207.995L13.9893 200Z" fill="#18C10E"/>
<path id="R21" fill-rule="evenodd" clip-rule="evenodd" d="M0 256V240L14 248.001L0 256Z" fill="#089800"/>
<path id="R22" fill-rule="evenodd" clip-rule="evenodd" d="M0 240V224L14 232.001L0 240Z" fill="#18C10E"/>
<path id="R23" fill-rule="evenodd" clip-rule="evenodd" d="M0 224V208L14 216.001L0 224Z" fill="#18C10E"/>
<path id="R24" fill-rule="evenodd" clip-rule="evenodd" d="M0 208V192L14 200.001L0 208Z" fill="#089800"/>
</g>
</svg>
