<svg width="14" height="568" viewBox="0 0 14 568" fill="none" xmlns="http://www.w3.org/2000/svg">
<g id="column-10">
<path id="L14" fill-rule="evenodd" clip-rule="evenodd" d="M13.9893 344L14 344.005V359.995L13.9904 360L0 352.005V351.995L13.9893 344Z" fill="#351117"/>
<path id="L15" fill-rule="evenodd" clip-rule="evenodd" d="M13.9893 328L14 328.005V343.995L13.9904 344L0 336.005V335.995L13.9893 328Z" fill="#351117"/>
<path id="L16" fill-rule="evenodd" clip-rule="evenodd" d="M13.9893 312L14 312.005V327.995L13.9904 328L0 320.005V319.995L13.9893 312Z" fill="#53A626"/>
<path id="L17" fill-rule="evenodd" clip-rule="evenodd" d="M13.9893 296L14 296.005V311.995L13.9904 312L0 304.005V303.995L13.9893 296Z" fill="#B2D530"/>
<path id="L18" fill-rule="evenodd" clip-rule="evenodd" d="M13.9893 280L14 280.005V295.995L13.9904 296L0 288.005V287.995L13.9893 280Z" fill="#DBF1C1"/>
<path id="L19" fill-rule="evenodd" clip-rule="evenodd" d="M13.9893 264L14 264.005V279.995L13.9904 280L0 272.005V271.995L13.9893 264Z" fill="#8E5E32"/>
<path id="L20" fill-rule="evenodd" clip-rule="evenodd" d="M13.9893 248L14 248.005V263.995L13.9904 264L0 256.005V255.995L13.9893 248Z" fill="#B77F46"/>
<path id="L21" fill-rule="evenodd" clip-rule="evenodd" d="M13.9893 232L14 232.005V247.995L13.9904 248L0 240.005V239.995L13.9893 232Z" fill="#B77F46"/>
<path id="L22" fill-rule="evenodd" clip-rule="evenodd" d="M13.9893 216L14 216.005V231.995L13.9904 232L0 224.005V223.995L13.9893 216Z" fill="#B77F46"/>
<path id="L23" fill-rule="evenodd" clip-rule="evenodd" d="M13.9893 200L14 200.005V215.995L13.9904 216L0 208.005V207.995L13.9893 200Z" fill="#C6A579"/>
<path id="L24" fill-rule="evenodd" clip-rule="evenodd" d="M13.9893 184L14 184.005V199.995L13.9904 200L0 192.005V191.995L13.9893 184Z" fill="#B77F46"/>
<path id="L25" fill-rule="evenodd" clip-rule="evenodd" d="M13.9893 168L14 168.005V183.995L13.9904 184L0 176.005V175.995L13.9893 168Z" fill="#DBF1C1"/>
<path id="L26" fill-rule="evenodd" clip-rule="evenodd" d="M13.9893 152L14 152.005V167.995L13.9904 168L0 160.005V159.995L13.9893 152Z" fill="#DBF1C1"/>
<path id="L27" fill-rule="evenodd" clip-rule="evenodd" d="M13.9893 136L14 136.005V151.995L13.9904 152L0 144.005V143.995L13.9893 136Z" fill="#B2D530"/>
<path id="L28" fill-rule="evenodd" clip-rule="evenodd" d="M13.9893 120L14 120.005V135.995L13.9904 136L0 128.005V127.995L13.9893 120Z" fill="#53A626"/>
<path id="R15" fill-rule="evenodd" clip-rule="evenodd" d="M0 352V336L14 344.001L0 352Z" fill="#351117"/>
<path id="R16" fill-rule="evenodd" clip-rule="evenodd" d="M0 336V320L14 328.001L0 336Z" fill="#53A626"/>
<path id="R17" fill-rule="evenodd" clip-rule="evenodd" d="M0 320V304L14 312.001L0 320Z" fill="#B2D530"/>
<path id="R18" fill-rule="evenodd" clip-rule="evenodd" d="M0 304V288L14 296.001L0 304Z" fill="#B2D530"/>
<path id="R19" fill-rule="evenodd" clip-rule="evenodd" d="M0 288V272L14 280.001L0 288Z" fill="#B77F46"/>
<path id="R20" fill-rule="evenodd" clip-rule="evenodd" d="M0 272V256L14 264.001L0 272Z" fill="#B77F46"/>
<path id="R21" fill-rule="evenodd" clip-rule="evenodd" d="M0 256V240L14 248.001L0 256Z" fill="#8E5E32"/>
<path id="R22" fill-rule="evenodd" clip-rule="evenodd" d="M0 240V224L14 232.001L0 240Z" fill="#B77F46"/>
<path id="R23" fill-rule="evenodd" clip-rule="evenodd" d="M0 224V208L14 216.001L0 224Z" fill="#B77F46"/>
<path id="R24" fill-rule="evenodd" clip-rule="evenodd" d="M0 208V192L14 200.001L0 208Z" fill="#B77F46"/>
<path id="R25" fill-rule="evenodd" clip-rule="evenodd" d="M0 192V176L14 184.001L0 192Z" fill="#B77F46"/>
<path id="R26" fill-rule="evenodd" clip-rule="evenodd" d="M0 176V160L14 168.001L0 176Z" fill="#B2D530"/>
<path id="R27" fill-rule="evenodd" clip-rule="evenodd" d="M0 160V144L14 152.001L0 160Z" fill="#B2D530"/>
<path id="R28" fill-rule="evenodd" clip-rule="evenodd" d="M0 144V128L14 136.001L0 144Z" fill="#53A626"/>
<path id="R29" fill-rule="evenodd" clip-rule="evenodd" d="M0 128V112L14 120.001L0 128Z" fill="#58111A"/>
</g>
</svg>
