<svg width="14" height="568" viewBox="0 0 14 568" fill="none" xmlns="http://www.w3.org/2000/svg">
<g id="column-14">
<rect width="14" height="568" fill="white"/>
<path id="L7" fill-rule="evenodd" clip-rule="evenodd" d="M13.9893 456L14 456.005V471.995L13.9904 472L0 464.005V463.995L13.9893 456Z" fill="#B8A042"/>
<path id="L8" fill-rule="evenodd" clip-rule="evenodd" d="M13.9893 440L14 440.005V455.995L13.9904 456L0 448.005V447.995L13.9893 440Z" fill="#B8A042"/>
<path id="L9" fill-rule="evenodd" clip-rule="evenodd" d="M13.9893 424L14 424.005V439.995L13.9904 440L0 432.005V431.995L13.9893 424Z" fill="#FFD637"/>
<path id="L10" fill-rule="evenodd" clip-rule="evenodd" d="M13.9893 408L14 408.005V423.995L13.9904 424L0 416.005V415.995L13.9893 408Z" fill="#B8A042"/>
<path id="L11" fill-rule="evenodd" clip-rule="evenodd" d="M13.9893 392L14 392.005V407.995L13.9904 408L0 400.005V399.995L13.9893 392Z" fill="#FFD637"/>
<path id="L12" fill-rule="evenodd" clip-rule="evenodd" d="M13.9893 376L14 376.005V391.995L13.9904 392L0 384.005V383.995L13.9893 376Z" fill="#FFD637"/>
<path id="L13" fill-rule="evenodd" clip-rule="evenodd" d="M13.9893 360L14 360.005V375.995L13.9904 376L0 368.005V367.995L13.9893 360Z" fill="#FFD637"/>
<path id="R7" fill-rule="evenodd" clip-rule="evenodd" d="M0 480V464L14 472.001L0 480Z" fill="#B8A042"/>
<path id="R8" fill-rule="evenodd" clip-rule="evenodd" d="M0 464V448L14 456.001L0 464Z" fill="#B8A042"/>
<path id="R9" fill-rule="evenodd" clip-rule="evenodd" d="M0 448V432L14 440.001L0 448Z" fill="#B8A042"/>
<path id="R10" fill-rule="evenodd" clip-rule="evenodd" d="M0 432V416L14 424.001L0 432Z" fill="#B8A042"/>
<path id="R11" fill-rule="evenodd" clip-rule="evenodd" d="M0 416V400L14 408.001L0 416Z" fill="#B8A042"/>
<path id="R12" fill-rule="evenodd" clip-rule="evenodd" d="M0 400V384L14 392.001L0 400Z" fill="#FFF6D0"/>
<path id="R13" fill-rule="evenodd" clip-rule="evenodd" d="M0 384V368L14 376.001L0 384Z" fill="#FFD637"/>
<path id="R14" fill-rule="evenodd" clip-rule="evenodd" d="M0 368V352L14 360.001L0 368Z" fill="#FFD637"/>
</g>
</svg>
