<svg width="38" height="38" viewBox="0 0 38 38" fill="none" xmlns="http://www.w3.org/2000/svg">
<g clip-path="url(#clip0_1701_91)">
<path d="M17.8418 24.5361L22.208 14.25L24.3942 15.178L20.4131 24.5568L17.8418 24.5361Z" fill="#B2D530"/>
<path d="M19 27.3125C20.3117 27.3125 21.375 26.2492 21.375 24.9375C21.375 23.6258 20.3117 22.5625 19 22.5625C17.6883 22.5625 16.625 23.6258 16.625 24.9375C16.625 26.2492 17.6883 27.3125 19 27.3125Z" fill="#B2D530"/>
<path fill-rule="evenodd" clip-rule="evenodd" d="M19.0003 8.70801C10.9117 8.70801 4.35449 15.2652 4.35449 23.3538H1.97949C1.97949 13.9535 9.59998 6.33301 19.0003 6.33301C28.4007 6.33301 36.0212 13.9535 36.0212 23.3538H33.6462C33.6462 15.2652 27.089 8.70801 19.0003 8.70801Z" fill="#B2D530"/>
</g>
<defs>
<clipPath id="clip0_1701_91">
<rect width="38" height="38" fill="white"/>
</clipPath>
</defs>
</svg>
