<svg width="64" height="64" viewBox="0 0 64 64" fill="none" xmlns="http://www.w3.org/2000/svg">
<mask id="path-1-inside-1_1701_35" fill="white">
<path d="M33.0123 27.9307H31.2871V29.2229H33.0123V27.9307Z"/>
</mask>
<path d="M33.0123 27.9307H31.2871V29.2229H33.0123V27.9307Z" fill="#B2D530"/>
<path d="M31.2871 27.9307V25.9307H29.2871V27.9307H31.2871ZM33.0123 27.9307H35.0123V25.9307H33.0123V27.9307ZM33.0123 29.2229V31.2229H35.0123V29.2229H33.0123ZM31.2871 29.2229H29.2871V31.2229H31.2871V29.2229ZM31.2871 29.9307H33.0123V25.9307H31.2871V29.9307ZM31.0123 27.9307V29.2229H35.0123V27.9307H31.0123ZM33.0123 27.2229H31.2871V31.2229H33.0123V27.2229ZM33.2871 29.2229V27.9307H29.2871V29.2229H33.2871Z" fill="#B2D530" mask="url(#path-1-inside-1_1701_35)"/>
<mask id="path-3-inside-2_1701_35" fill="white">
<path d="M27.623 29.8691H28.9153V29.2229H29.5615V27.9307H27.623V29.8691Z"/>
</mask>
<path d="M27.623 29.8691H28.9153V29.2229H29.5615V27.9307H27.623V29.8691Z" fill="#B2D530"/>
<path d="M27.623 29.8691H25.623V31.8691H27.623V29.8691ZM28.9153 29.8691V31.8691H30.9153V29.8691H28.9153ZM28.9153 29.2229V27.2229H26.9153V29.2229H28.9153ZM29.5615 29.2229V31.2229H31.5615V29.2229H29.5615ZM29.5615 27.9307H31.5615V25.9307H29.5615V27.9307ZM27.623 27.9307V25.9307H25.623V27.9307H27.623ZM27.623 31.8691H28.9153V27.8691H27.623V31.8691ZM30.9153 29.8691V29.2229H26.9153V29.8691H30.9153ZM28.9153 31.2229H29.5615V27.2229H28.9153V31.2229ZM31.5615 29.2229V27.9307H27.5615V29.2229H31.5615ZM29.5615 25.9307H27.623V29.9307H29.5615V25.9307ZM25.623 27.9307V29.8691H29.623V27.9307H25.623Z" fill="#B2D530" mask="url(#path-3-inside-2_1701_35)"/>
<mask id="path-5-inside-3_1701_35" fill="white">
<path d="M28.9153 31.8076H27.623V33.746H28.9153V31.8076Z"/>
</mask>
<path d="M28.9153 31.8076H27.623V33.746H28.9153V31.8076Z" fill="#B2D530"/>
<path d="M27.623 31.8076V29.8076H25.623V31.8076H27.623ZM28.9153 31.8076H30.9153V29.8076H28.9153V31.8076ZM28.9153 33.746V35.746H30.9153V33.746H28.9153ZM27.623 33.746H25.623V35.746H27.623V33.746ZM27.623 33.8076H28.9153V29.8076H27.623V33.8076ZM26.9153 31.8076V33.746H30.9153V31.8076H26.9153ZM28.9153 31.746H27.623V35.746H28.9153V31.746ZM29.623 33.746V31.8076H25.623V33.746H29.623Z" fill="#B2D530" mask="url(#path-5-inside-3_1701_35)"/>
<mask id="path-7-inside-4_1701_35" fill="white">
<path d="M36.6692 31.1621H35.377V33.7467H36.6692V31.1621Z"/>
</mask>
<path d="M36.6692 31.1621H35.377V33.7467H36.6692V31.1621Z" fill="#B2D530"/>
<path d="M35.377 31.1621V29.1621H33.377V31.1621H35.377ZM36.6692 31.1621H38.6692V29.1621H36.6692V31.1621ZM36.6692 33.7467V35.7467H38.6692V33.7467H36.6692ZM35.377 33.7467H33.377V35.7467H35.377V33.7467ZM35.377 33.1621H36.6692V29.1621H35.377V33.1621ZM34.6692 31.1621V33.7467H38.6692V31.1621H34.6692ZM36.6692 31.7467H35.377V35.7467H36.6692V31.7467ZM37.377 33.7467V31.1621H33.377V33.7467H37.377Z" fill="#B2D530" mask="url(#path-7-inside-4_1701_35)"/>
<mask id="path-9-inside-5_1701_35" fill="white">
<path d="M36.023 35.6846H33.4385V36.9768H36.023V35.6846Z"/>
</mask>
<path d="M36.023 35.6846H33.4385V36.9768H36.023V35.6846Z" fill="#B2D530"/>
<path d="M33.4385 35.6846V33.6846H31.4385V35.6846H33.4385ZM36.023 35.6846H38.023V33.6846H36.023V35.6846ZM36.023 36.9768V38.9768H38.023V36.9768H36.023ZM33.4385 36.9768H31.4385V38.9768H33.4385V36.9768ZM33.4385 37.6846H36.023V33.6846H33.4385V37.6846ZM34.023 35.6846V36.9768H38.023V35.6846H34.023ZM36.023 34.9768H33.4385V38.9768H36.023V34.9768ZM35.4385 36.9768V35.6846H31.4385V36.9768H35.4385Z" fill="#B2D530" mask="url(#path-9-inside-5_1701_35)"/>
<mask id="path-11-outside-6_1701_35" maskUnits="userSpaceOnUse" x="4" y="14" width="55" height="36" fill="black">
<rect fill="white" x="4" y="14" width="55" height="36"/>
<path d="M50.238 33.1002V24.7004H52.913C53.0702 25.3095 53.4442 25.8403 53.9649 26.1934C54.4855 26.5465 55.1171 26.6975 55.7411 26.6183C56.3652 26.539 56.9389 26.2348 57.3547 25.7628C57.7706 25.2908 58 24.6834 58 24.0543C58 23.4252 57.7706 22.8178 57.3547 22.3458C56.9389 21.8738 56.3652 21.5696 55.7411 21.4904C55.1171 21.4111 54.4855 21.5621 53.9649 21.9152C53.4442 22.2683 53.0702 22.7991 52.913 23.4082H48.9457V31.8079H44.4227V27.9311H36.6691V20.1775H19.8695V23.4082H14.0543V20.087C14.6634 19.9298 15.1942 19.5558 15.5473 19.0351C15.9003 18.5145 16.0514 17.8829 15.9721 17.2589C15.8929 16.6348 15.5887 16.0611 15.1167 15.6453C14.6447 15.2294 14.0372 15 13.4082 15C12.7791 15 12.1716 15.2294 11.6996 15.6453C11.2276 16.0611 10.9235 16.6348 10.8442 17.2589C10.765 17.8829 10.916 18.5145 11.2691 19.0351C11.6221 19.5558 12.1529 19.9298 12.762 20.087V24.7004H19.8695V27.9311H10.087C9.92976 27.322 9.55575 26.7912 9.03511 26.4382C8.51447 26.0851 7.88293 25.934 7.25888 26.0133C6.63484 26.0926 6.06112 26.3967 5.64527 26.8687C5.22943 27.3407 5 27.9482 5 28.5773C5 29.2063 5.22943 29.8138 5.64527 30.2858C6.06112 30.7578 6.63484 31.0619 7.25888 31.1412C7.88293 31.2205 8.51447 31.0694 9.03511 30.7164C9.55575 30.3633 9.92976 29.8325 10.087 29.2234H19.8695V32.4541H14.0543V37.6232H12.6716C12.5143 37.0141 12.1403 36.4833 11.6197 36.1302C11.099 35.7772 10.4675 35.6261 9.84343 35.7054C9.21938 35.7846 8.64567 36.0888 8.22982 36.5608C7.81397 37.0328 7.58455 37.6403 7.58455 38.2693C7.58455 38.8984 7.81397 39.5058 8.22982 39.9779C8.64567 40.4499 9.21938 40.754 9.84343 40.8333C10.4675 40.9125 11.099 40.7615 11.6197 40.4084C12.1403 40.0554 12.5143 39.5245 12.6716 38.9155H15.3466V33.7464H19.8695V36.977H27.6232V44.7307H44.4227V41.5H47.0073V47.3152H52.913C53.0702 47.9243 53.4442 48.4551 53.9649 48.8082C54.4855 49.1613 55.1171 49.3123 55.7411 49.233C56.3652 49.1538 56.9389 48.8496 57.3547 48.3776C57.7706 47.9056 58 47.2982 58 46.6691C58 46.04 57.7706 45.4326 57.3547 44.9606C56.9389 44.4886 56.3652 44.1844 55.7411 44.1051C55.1171 44.0259 54.4855 44.1769 53.9649 44.53C53.4442 44.8831 53.0702 45.4139 52.913 46.023H48.2996V40.2077H44.4227V37.6232H52.913C53.0702 38.2323 53.4442 38.7631 53.9649 39.1161C54.4855 39.4692 55.1171 39.6203 55.7411 39.541C56.3652 39.4617 56.9389 39.1576 57.3547 38.6856C57.7706 38.2136 58 37.6061 58 36.977C58 36.348 57.7706 35.7405 57.3547 35.2685C56.9389 34.7965 56.3652 34.4924 55.7411 34.4131C55.1171 34.3338 54.4855 34.4849 53.9649 34.8379C53.4442 35.191 53.0702 35.7218 52.913 36.3309H44.4227V33.1002H50.238ZM55.4071 22.762C55.6627 22.762 55.9125 22.8378 56.125 22.9798C56.3375 23.1218 56.5032 23.3236 56.601 23.5598C56.6988 23.7959 56.7244 24.0557 56.6745 24.3064C56.6246 24.5571 56.5016 24.7874 56.3208 24.9681C56.1401 25.1488 55.9098 25.2719 55.6592 25.3217C55.4085 25.3716 55.1487 25.346 54.9125 25.2482C54.6764 25.1504 54.4746 24.9848 54.3326 24.7723C54.1906 24.5597 54.1148 24.3099 54.1148 24.0543C54.1148 23.7116 54.2509 23.3829 54.4933 23.1405C54.7356 22.8982 55.0643 22.762 55.4071 22.762ZM12.1159 17.5929C12.1159 17.3373 12.1917 17.0875 12.3337 16.875C12.4757 16.6625 12.6775 16.4968 12.9136 16.399C13.1498 16.3012 13.4096 16.2756 13.6603 16.3255C13.911 16.3754 14.1412 16.4984 14.3219 16.6792C14.5027 16.8599 14.6257 17.0901 14.6756 17.3408C14.7255 17.5915 14.6999 17.8513 14.6021 18.0875C14.5043 18.3236 14.3386 18.5254 14.1261 18.6674C13.9136 18.8094 13.6638 18.8852 13.4082 18.8852C13.0654 18.8852 12.7367 18.7491 12.4944 18.5067C12.252 18.2644 12.1159 17.9357 12.1159 17.5929ZM7.59294 29.8695C7.33735 29.8695 7.0875 29.7937 6.87499 29.6517C6.66247 29.5098 6.49684 29.3079 6.39903 29.0718C6.30122 28.8357 6.27563 28.5758 6.32549 28.3252C6.37536 28.0745 6.49843 27.8442 6.67916 27.6635C6.85989 27.4828 7.09015 27.3597 7.34083 27.3098C7.5915 27.26 7.85134 27.2855 8.08747 27.3834C8.3236 27.4812 8.52543 27.6468 8.66742 27.8593C8.80942 28.0718 8.88521 28.3217 8.88521 28.5773C8.88521 28.92 8.74906 29.2487 8.50671 29.491C8.26436 29.7334 7.93567 29.8695 7.59294 29.8695ZM10.1775 39.5616C9.9219 39.5616 9.67205 39.4858 9.45954 39.3438C9.24702 39.2018 9.08139 39 8.98358 38.7638C8.88577 38.5277 8.86018 38.2679 8.91004 38.0172C8.9599 37.7665 9.08298 37.5363 9.26371 37.3555C9.44444 37.1748 9.6747 37.0517 9.92537 37.0019C10.1761 36.952 10.4359 36.9776 10.672 37.0754C10.9081 37.1732 11.11 37.3389 11.252 37.5514C11.394 37.7639 11.4698 38.0137 11.4698 38.2693C11.4698 38.612 11.3336 38.9407 11.0913 39.1831C10.8489 39.4254 10.5202 39.5616 10.1775 39.5616ZM55.4071 45.3768C55.6627 45.3768 55.9125 45.4526 56.125 45.5946C56.3375 45.7366 56.5032 45.9384 56.601 46.1746C56.6988 46.4107 56.7244 46.6705 56.6745 46.9212C56.6246 47.1719 56.5016 47.4021 56.3208 47.5829C56.1401 47.7636 55.9098 47.8867 55.6592 47.9365C55.4085 47.9864 55.1487 47.9608 54.9125 47.863C54.6764 47.7652 54.4746 47.5996 54.3326 47.387C54.1906 47.1745 54.1148 46.9247 54.1148 46.6691C54.1148 46.3264 54.2509 45.9977 54.4933 45.7553C54.7356 45.513 55.0643 45.3768 55.4071 45.3768ZM55.4071 35.6848C55.6627 35.6848 55.9125 35.7606 56.125 35.9026C56.3375 36.0446 56.5032 36.2464 56.601 36.4825C56.6988 36.7186 56.7244 36.9785 56.6745 37.2292C56.6246 37.4798 56.5016 37.7101 56.3208 37.8908C56.1401 38.0715 55.9098 38.1946 55.6592 38.2445C55.4085 38.2943 55.1487 38.2688 54.9125 38.1709C54.6764 38.0731 54.4746 37.9075 54.3326 37.695C54.1906 37.4825 54.1148 37.2326 54.1148 36.977C54.1148 36.6343 54.2509 36.3056 54.4933 36.0633C54.7356 35.8209 55.0643 35.6848 55.4071 35.6848ZM43.1305 37.6232V43.4384H28.9155V36.977H30.8539V35.6848H21.1618V21.4698H35.3768V27.9311H34.7307V29.2234H43.1305V37.6232Z"/>
</mask>
<path d="M50.238 33.1002V24.7004H52.913C53.0702 25.3095 53.4442 25.8403 53.9649 26.1934C54.4855 26.5465 55.1171 26.6975 55.7411 26.6183C56.3652 26.539 56.9389 26.2348 57.3547 25.7628C57.7706 25.2908 58 24.6834 58 24.0543C58 23.4252 57.7706 22.8178 57.3547 22.3458C56.9389 21.8738 56.3652 21.5696 55.7411 21.4904C55.1171 21.4111 54.4855 21.5621 53.9649 21.9152C53.4442 22.2683 53.0702 22.7991 52.913 23.4082H48.9457V31.8079H44.4227V27.9311H36.6691V20.1775H19.8695V23.4082H14.0543V20.087C14.6634 19.9298 15.1942 19.5558 15.5473 19.0351C15.9003 18.5145 16.0514 17.8829 15.9721 17.2589C15.8929 16.6348 15.5887 16.0611 15.1167 15.6453C14.6447 15.2294 14.0372 15 13.4082 15C12.7791 15 12.1716 15.2294 11.6996 15.6453C11.2276 16.0611 10.9235 16.6348 10.8442 17.2589C10.765 17.8829 10.916 18.5145 11.2691 19.0351C11.6221 19.5558 12.1529 19.9298 12.762 20.087V24.7004H19.8695V27.9311H10.087C9.92976 27.322 9.55575 26.7912 9.03511 26.4382C8.51447 26.0851 7.88293 25.934 7.25888 26.0133C6.63484 26.0926 6.06112 26.3967 5.64527 26.8687C5.22943 27.3407 5 27.9482 5 28.5773C5 29.2063 5.22943 29.8138 5.64527 30.2858C6.06112 30.7578 6.63484 31.0619 7.25888 31.1412C7.88293 31.2205 8.51447 31.0694 9.03511 30.7164C9.55575 30.3633 9.92976 29.8325 10.087 29.2234H19.8695V32.4541H14.0543V37.6232H12.6716C12.5143 37.0141 12.1403 36.4833 11.6197 36.1302C11.099 35.7772 10.4675 35.6261 9.84343 35.7054C9.21938 35.7846 8.64567 36.0888 8.22982 36.5608C7.81397 37.0328 7.58455 37.6403 7.58455 38.2693C7.58455 38.8984 7.81397 39.5058 8.22982 39.9779C8.64567 40.4499 9.21938 40.754 9.84343 40.8333C10.4675 40.9125 11.099 40.7615 11.6197 40.4084C12.1403 40.0554 12.5143 39.5245 12.6716 38.9155H15.3466V33.7464H19.8695V36.977H27.6232V44.7307H44.4227V41.5H47.0073V47.3152H52.913C53.0702 47.9243 53.4442 48.4551 53.9649 48.8082C54.4855 49.1613 55.1171 49.3123 55.7411 49.233C56.3652 49.1538 56.9389 48.8496 57.3547 48.3776C57.7706 47.9056 58 47.2982 58 46.6691C58 46.04 57.7706 45.4326 57.3547 44.9606C56.9389 44.4886 56.3652 44.1844 55.7411 44.1051C55.1171 44.0259 54.4855 44.1769 53.9649 44.53C53.4442 44.8831 53.0702 45.4139 52.913 46.023H48.2996V40.2077H44.4227V37.6232H52.913C53.0702 38.2323 53.4442 38.7631 53.9649 39.1161C54.4855 39.4692 55.1171 39.6203 55.7411 39.541C56.3652 39.4617 56.9389 39.1576 57.3547 38.6856C57.7706 38.2136 58 37.6061 58 36.977C58 36.348 57.7706 35.7405 57.3547 35.2685C56.9389 34.7965 56.3652 34.4924 55.7411 34.4131C55.1171 34.3338 54.4855 34.4849 53.9649 34.8379C53.4442 35.191 53.0702 35.7218 52.913 36.3309H44.4227V33.1002H50.238ZM55.4071 22.762C55.6627 22.762 55.9125 22.8378 56.125 22.9798C56.3375 23.1218 56.5032 23.3236 56.601 23.5598C56.6988 23.7959 56.7244 24.0557 56.6745 24.3064C56.6246 24.5571 56.5016 24.7874 56.3208 24.9681C56.1401 25.1488 55.9098 25.2719 55.6592 25.3217C55.4085 25.3716 55.1487 25.346 54.9125 25.2482C54.6764 25.1504 54.4746 24.9848 54.3326 24.7723C54.1906 24.5597 54.1148 24.3099 54.1148 24.0543C54.1148 23.7116 54.2509 23.3829 54.4933 23.1405C54.7356 22.8982 55.0643 22.762 55.4071 22.762ZM12.1159 17.5929C12.1159 17.3373 12.1917 17.0875 12.3337 16.875C12.4757 16.6625 12.6775 16.4968 12.9136 16.399C13.1498 16.3012 13.4096 16.2756 13.6603 16.3255C13.911 16.3754 14.1412 16.4984 14.3219 16.6792C14.5027 16.8599 14.6257 17.0901 14.6756 17.3408C14.7255 17.5915 14.6999 17.8513 14.6021 18.0875C14.5043 18.3236 14.3386 18.5254 14.1261 18.6674C13.9136 18.8094 13.6638 18.8852 13.4082 18.8852C13.0654 18.8852 12.7367 18.7491 12.4944 18.5067C12.252 18.2644 12.1159 17.9357 12.1159 17.5929ZM7.59294 29.8695C7.33735 29.8695 7.0875 29.7937 6.87499 29.6517C6.66247 29.5098 6.49684 29.3079 6.39903 29.0718C6.30122 28.8357 6.27563 28.5758 6.32549 28.3252C6.37536 28.0745 6.49843 27.8442 6.67916 27.6635C6.85989 27.4828 7.09015 27.3597 7.34083 27.3098C7.5915 27.26 7.85134 27.2855 8.08747 27.3834C8.3236 27.4812 8.52543 27.6468 8.66742 27.8593C8.80942 28.0718 8.88521 28.3217 8.88521 28.5773C8.88521 28.92 8.74906 29.2487 8.50671 29.491C8.26436 29.7334 7.93567 29.8695 7.59294 29.8695ZM10.1775 39.5616C9.9219 39.5616 9.67205 39.4858 9.45954 39.3438C9.24702 39.2018 9.08139 39 8.98358 38.7638C8.88577 38.5277 8.86018 38.2679 8.91004 38.0172C8.9599 37.7665 9.08298 37.5363 9.26371 37.3555C9.44444 37.1748 9.6747 37.0517 9.92537 37.0019C10.1761 36.952 10.4359 36.9776 10.672 37.0754C10.9081 37.1732 11.11 37.3389 11.252 37.5514C11.394 37.7639 11.4698 38.0137 11.4698 38.2693C11.4698 38.612 11.3336 38.9407 11.0913 39.1831C10.8489 39.4254 10.5202 39.5616 10.1775 39.5616ZM55.4071 45.3768C55.6627 45.3768 55.9125 45.4526 56.125 45.5946C56.3375 45.7366 56.5032 45.9384 56.601 46.1746C56.6988 46.4107 56.7244 46.6705 56.6745 46.9212C56.6246 47.1719 56.5016 47.4021 56.3208 47.5829C56.1401 47.7636 55.9098 47.8867 55.6592 47.9365C55.4085 47.9864 55.1487 47.9608 54.9125 47.863C54.6764 47.7652 54.4746 47.5996 54.3326 47.387C54.1906 47.1745 54.1148 46.9247 54.1148 46.6691C54.1148 46.3264 54.2509 45.9977 54.4933 45.7553C54.7356 45.513 55.0643 45.3768 55.4071 45.3768ZM55.4071 35.6848C55.6627 35.6848 55.9125 35.7606 56.125 35.9026C56.3375 36.0446 56.5032 36.2464 56.601 36.4825C56.6988 36.7186 56.7244 36.9785 56.6745 37.2292C56.6246 37.4798 56.5016 37.7101 56.3208 37.8908C56.1401 38.0715 55.9098 38.1946 55.6592 38.2445C55.4085 38.2943 55.1487 38.2688 54.9125 38.1709C54.6764 38.0731 54.4746 37.9075 54.3326 37.695C54.1906 37.4825 54.1148 37.2326 54.1148 36.977C54.1148 36.6343 54.2509 36.3056 54.4933 36.0633C54.7356 35.8209 55.0643 35.6848 55.4071 35.6848ZM43.1305 37.6232V43.4384H28.9155V36.977H30.8539V35.6848H21.1618V21.4698H35.3768V27.9311H34.7307V29.2234H43.1305V37.6232Z" fill="#B2D530"/>
<path d="M50.238 33.1002V24.7004H52.913C53.0702 25.3095 53.4442 25.8403 53.9649 26.1934C54.4855 26.5465 55.1171 26.6975 55.7411 26.6183C56.3652 26.539 56.9389 26.2348 57.3547 25.7628C57.7706 25.2908 58 24.6834 58 24.0543C58 23.4252 57.7706 22.8178 57.3547 22.3458C56.9389 21.8738 56.3652 21.5696 55.7411 21.4904C55.1171 21.4111 54.4855 21.5621 53.9649 21.9152C53.4442 22.2683 53.0702 22.7991 52.913 23.4082H48.9457V31.8079H44.4227V27.9311H36.6691V20.1775H19.8695V23.4082H14.0543V20.087C14.6634 19.9298 15.1942 19.5558 15.5473 19.0351C15.9003 18.5145 16.0514 17.8829 15.9721 17.2589C15.8929 16.6348 15.5887 16.0611 15.1167 15.6453C14.6447 15.2294 14.0372 15 13.4082 15C12.7791 15 12.1716 15.2294 11.6996 15.6453C11.2276 16.0611 10.9235 16.6348 10.8442 17.2589C10.765 17.8829 10.916 18.5145 11.2691 19.0351C11.6221 19.5558 12.1529 19.9298 12.762 20.087V24.7004H19.8695V27.9311H10.087C9.92976 27.322 9.55575 26.7912 9.03511 26.4382C8.51447 26.0851 7.88293 25.934 7.25888 26.0133C6.63484 26.0926 6.06112 26.3967 5.64527 26.8687C5.22943 27.3407 5 27.9482 5 28.5773C5 29.2063 5.22943 29.8138 5.64527 30.2858C6.06112 30.7578 6.63484 31.0619 7.25888 31.1412C7.88293 31.2205 8.51447 31.0694 9.03511 30.7164C9.55575 30.3633 9.92976 29.8325 10.087 29.2234H19.8695V32.4541H14.0543V37.6232H12.6716C12.5143 37.0141 12.1403 36.4833 11.6197 36.1302C11.099 35.7772 10.4675 35.6261 9.84343 35.7054C9.21938 35.7846 8.64567 36.0888 8.22982 36.5608C7.81397 37.0328 7.58455 37.6403 7.58455 38.2693C7.58455 38.8984 7.81397 39.5058 8.22982 39.9779C8.64567 40.4499 9.21938 40.754 9.84343 40.8333C10.4675 40.9125 11.099 40.7615 11.6197 40.4084C12.1403 40.0554 12.5143 39.5245 12.6716 38.9155H15.3466V33.7464H19.8695V36.977H27.6232V44.7307H44.4227V41.5H47.0073V47.3152H52.913C53.0702 47.9243 53.4442 48.4551 53.9649 48.8082C54.4855 49.1613 55.1171 49.3123 55.7411 49.233C56.3652 49.1538 56.9389 48.8496 57.3547 48.3776C57.7706 47.9056 58 47.2982 58 46.6691C58 46.04 57.7706 45.4326 57.3547 44.9606C56.9389 44.4886 56.3652 44.1844 55.7411 44.1051C55.1171 44.0259 54.4855 44.1769 53.9649 44.53C53.4442 44.8831 53.0702 45.4139 52.913 46.023H48.2996V40.2077H44.4227V37.6232H52.913C53.0702 38.2323 53.4442 38.7631 53.9649 39.1161C54.4855 39.4692 55.1171 39.6203 55.7411 39.541C56.3652 39.4617 56.9389 39.1576 57.3547 38.6856C57.7706 38.2136 58 37.6061 58 36.977C58 36.348 57.7706 35.7405 57.3547 35.2685C56.9389 34.7965 56.3652 34.4924 55.7411 34.4131C55.1171 34.3338 54.4855 34.4849 53.9649 34.8379C53.4442 35.191 53.0702 35.7218 52.913 36.3309H44.4227V33.1002H50.238ZM55.4071 22.762C55.6627 22.762 55.9125 22.8378 56.125 22.9798C56.3375 23.1218 56.5032 23.3236 56.601 23.5598C56.6988 23.7959 56.7244 24.0557 56.6745 24.3064C56.6246 24.5571 56.5016 24.7874 56.3208 24.9681C56.1401 25.1488 55.9098 25.2719 55.6592 25.3217C55.4085 25.3716 55.1487 25.346 54.9125 25.2482C54.6764 25.1504 54.4746 24.9848 54.3326 24.7723C54.1906 24.5597 54.1148 24.3099 54.1148 24.0543C54.1148 23.7116 54.2509 23.3829 54.4933 23.1405C54.7356 22.8982 55.0643 22.762 55.4071 22.762ZM12.1159 17.5929C12.1159 17.3373 12.1917 17.0875 12.3337 16.875C12.4757 16.6625 12.6775 16.4968 12.9136 16.399C13.1498 16.3012 13.4096 16.2756 13.6603 16.3255C13.911 16.3754 14.1412 16.4984 14.3219 16.6792C14.5027 16.8599 14.6257 17.0901 14.6756 17.3408C14.7255 17.5915 14.6999 17.8513 14.6021 18.0875C14.5043 18.3236 14.3386 18.5254 14.1261 18.6674C13.9136 18.8094 13.6638 18.8852 13.4082 18.8852C13.0654 18.8852 12.7367 18.7491 12.4944 18.5067C12.252 18.2644 12.1159 17.9357 12.1159 17.5929ZM7.59294 29.8695C7.33735 29.8695 7.0875 29.7937 6.87499 29.6517C6.66247 29.5098 6.49684 29.3079 6.39903 29.0718C6.30122 28.8357 6.27563 28.5758 6.32549 28.3252C6.37536 28.0745 6.49843 27.8442 6.67916 27.6635C6.85989 27.4828 7.09015 27.3597 7.34083 27.3098C7.5915 27.26 7.85134 27.2855 8.08747 27.3834C8.3236 27.4812 8.52543 27.6468 8.66742 27.8593C8.80942 28.0718 8.88521 28.3217 8.88521 28.5773C8.88521 28.92 8.74906 29.2487 8.50671 29.491C8.26436 29.7334 7.93567 29.8695 7.59294 29.8695ZM10.1775 39.5616C9.9219 39.5616 9.67205 39.4858 9.45954 39.3438C9.24702 39.2018 9.08139 39 8.98358 38.7638C8.88577 38.5277 8.86018 38.2679 8.91004 38.0172C8.9599 37.7665 9.08298 37.5363 9.26371 37.3555C9.44444 37.1748 9.6747 37.0517 9.92537 37.0019C10.1761 36.952 10.4359 36.9776 10.672 37.0754C10.9081 37.1732 11.11 37.3389 11.252 37.5514C11.394 37.7639 11.4698 38.0137 11.4698 38.2693C11.4698 38.612 11.3336 38.9407 11.0913 39.1831C10.8489 39.4254 10.5202 39.5616 10.1775 39.5616ZM55.4071 45.3768C55.6627 45.3768 55.9125 45.4526 56.125 45.5946C56.3375 45.7366 56.5032 45.9384 56.601 46.1746C56.6988 46.4107 56.7244 46.6705 56.6745 46.9212C56.6246 47.1719 56.5016 47.4021 56.3208 47.5829C56.1401 47.7636 55.9098 47.8867 55.6592 47.9365C55.4085 47.9864 55.1487 47.9608 54.9125 47.863C54.6764 47.7652 54.4746 47.5996 54.3326 47.387C54.1906 47.1745 54.1148 46.9247 54.1148 46.6691C54.1148 46.3264 54.2509 45.9977 54.4933 45.7553C54.7356 45.513 55.0643 45.3768 55.4071 45.3768ZM55.4071 35.6848C55.6627 35.6848 55.9125 35.7606 56.125 35.9026C56.3375 36.0446 56.5032 36.2464 56.601 36.4825C56.6988 36.7186 56.7244 36.9785 56.6745 37.2292C56.6246 37.4798 56.5016 37.7101 56.3208 37.8908C56.1401 38.0715 55.9098 38.1946 55.6592 38.2445C55.4085 38.2943 55.1487 38.2688 54.9125 38.1709C54.6764 38.0731 54.4746 37.9075 54.3326 37.695C54.1906 37.4825 54.1148 37.2326 54.1148 36.977C54.1148 36.6343 54.2509 36.3056 54.4933 36.0633C54.7356 35.8209 55.0643 35.6848 55.4071 35.6848ZM43.1305 37.6232V43.4384H28.9155V36.977H30.8539V35.6848H21.1618V21.4698H35.3768V27.9311H34.7307V29.2234H43.1305V37.6232Z" stroke="#B2D530" stroke-width="0.4" mask="url(#path-11-outside-6_1701_35)"/>
</svg>
