<svg width="64" height="64" viewBox="0 0 64 64" fill="none" xmlns="http://www.w3.org/2000/svg">
<path d="M49.3979 25.9212C49.8861 25.9212 50.2856 25.5297 50.2856 25.0511C50.2856 24.5726 49.8861 24.1811 49.3979 24.1811H46.7346V20.7008H49.3979C49.8861 20.7008 50.2856 20.3092 50.2856 19.8307C50.2856 19.3521 49.8861 18.9606 49.3979 18.9606H46.7346V16.3504C46.7346 15.8718 46.3351 15.4803 45.8469 15.4803H43.1836V12.8701C43.1836 12.3915 42.7841 12 42.2958 12C41.8076 12 41.4081 12.3915 41.4081 12.8701V15.4803H37.8571V12.8701C37.8571 12.3915 37.4576 12 36.9693 12C36.4811 12 36.0816 12.3915 36.0816 12.8701V15.4803H32.5306V12.8701C32.5306 12.3915 32.1311 12 31.6428 12C31.1545 12 30.7551 12.3915 30.7551 12.8701V15.4803H27.204V12.8701C27.204 12.3915 26.8046 12 26.3163 12C25.828 12 25.4285 12.3915 25.4285 12.8701V15.4803H21.8775V12.8701C21.8775 12.3915 21.478 12 20.9898 12C20.5015 12 20.102 12.3915 20.102 12.8701V15.4803H17.4388C16.9505 15.4803 16.551 15.8718 16.551 16.3504V18.9606H13.8878C13.3995 18.9606 13 19.3521 13 19.8307C13 20.3092 13.3995 20.7008 13.8878 20.7008H16.551V24.1811H13.8878C13.3995 24.1811 13 24.5726 13 25.0511C13 25.5297 13.3995 25.9212 13.8878 25.9212H16.551V29.4015H13.8878C13.3995 29.4015 13 29.7931 13 30.2716C13 30.7501 13.3995 31.1417 13.8878 31.1417H16.551V34.622H13.8878C13.3995 34.622 13 35.0135 13 35.4921C13 35.9706 13.3995 36.3621 13.8878 36.3621H16.551V39.8424H13.8878C13.3995 39.8424 13 40.234 13 40.7125C13 41.1911 13.3995 41.5826 13.8878 41.5826H16.551V44.1928C16.551 44.6714 16.9505 45.0629 17.4388 45.0629H20.102V47.6731C20.102 48.1517 20.5015 48.5432 20.9898 48.5432C21.478 48.5432 21.8775 48.1517 21.8775 47.6731V45.0629H25.4285V47.6731C25.4285 48.1517 25.828 48.5432 26.3163 48.5432C26.8046 48.5432 27.204 48.1517 27.204 47.6731V45.0629H29.4234C29.9117 45.0629 30.3112 44.6714 30.3112 44.1928C30.3112 43.4533 30.8882 42.8877 31.6428 42.8877C32.3974 42.8877 32.9744 43.4533 32.9744 44.1928C32.9744 44.6714 33.3739 45.0629 33.8622 45.0629H36.0816V47.6731C36.0816 48.1517 36.4811 48.5432 36.9693 48.5432C37.4576 48.5432 37.8571 48.1517 37.8571 47.6731V45.0629H41.4081V47.6731C41.4081 48.1517 41.8076 48.5432 42.2958 48.5432C42.7841 48.5432 43.1836 48.1517 43.1836 47.6731V45.0629H45.8469C46.3351 45.0629 46.7346 44.6714 46.7346 44.1928V41.5826H49.3979C49.8861 41.5826 50.2856 41.1911 50.2856 40.7125C50.2856 40.234 49.8861 39.8424 49.3979 39.8424H46.7346V36.3621H49.3979C49.8861 36.3621 50.2856 35.9706 50.2856 35.4921C50.2856 35.0135 49.8861 34.622 49.3979 34.622H46.7346V31.1417H49.3979C49.8861 31.1417 50.2856 30.7501 50.2856 30.2716C50.2856 29.7931 49.8861 29.4015 49.3979 29.4015H46.7346V25.9212H49.3979ZM44.9591 43.3228H34.6168C34.2173 42.0611 33.0632 41.1476 31.6428 41.1476C30.2224 41.1476 29.0683 42.0611 28.6688 43.3228H18.3265V17.2205H44.9591V43.3228ZM40.5203 29.4015H38.7448V24.1811C38.7448 23.7025 38.3453 23.311 37.8571 23.311H32.5306V21.5708C32.5306 21.0923 32.1311 20.7008 31.6428 20.7008C31.1545 20.7008 30.7551 21.0923 30.7551 21.5708V23.311H25.4285C24.9403 23.311 24.5408 23.7025 24.5408 24.1811V29.4015H22.7653C22.277 29.4015 21.8775 29.7931 21.8775 30.2716C21.8775 30.7501 22.277 31.1417 22.7653 31.1417H24.5408V36.3621C24.5408 36.8407 24.9403 37.2322 25.4285 37.2322H37.8571C38.3453 37.2322 38.7448 36.8407 38.7448 36.3621V31.1417H40.5203C41.0086 31.1417 41.4081 30.7501 41.4081 30.2716C41.4081 29.7931 41.0086 29.4015 40.5203 29.4015ZM36.9693 35.4921H26.3163V25.0511H36.9693V35.4921Z" fill="#B2D530"/>
<path fill-rule="evenodd" clip-rule="evenodd" d="M20.102 13.0985C20.102 12.4938 20.6058 12 21.2228 12C21.8398 12 22.3436 12.4938 22.3436 13.0985V15.4803H25.4285V13.0985C25.4285 12.4938 25.9324 12 26.5493 12C27.1663 12 27.6701 12.4938 27.6701 13.0985V15.4803H30.7551V13.0985C30.7551 12.4938 31.2589 12 31.8758 12C32.4928 12 32.9966 12.4938 32.9966 13.0985V15.4803H36.0816V13.0985C36.0816 12.4938 36.5854 12 37.2024 12C37.8193 12 38.3232 12.4938 38.3232 13.0985V15.4803H41.4081V13.0985C41.4081 12.4938 41.9119 12 42.5289 12C43.1458 12 43.6497 12.4938 43.6497 13.0985V15.4803H46.0799C46.6969 15.4803 47.2007 15.9741 47.2007 16.5788V18.9606H49.6309C50.2479 18.9606 50.7517 19.4544 50.7517 20.0591C50.7517 20.6638 50.2479 21.1576 49.6309 21.1576H47.2007V24.1811H49.6309C50.2479 24.1811 50.7517 24.6749 50.7517 25.2795C50.7517 25.8842 50.2479 26.378 49.6309 26.378H47.2007V29.4015H49.6309C50.2479 29.4015 50.7517 29.8953 50.7517 30.5C50.7517 31.1047 50.2479 31.5985 49.6309 31.5985H47.2007V34.622H49.6309C50.2479 34.622 50.7517 35.1158 50.7517 35.7205C50.7517 36.3251 50.2479 36.8189 49.6309 36.8189H47.2007V39.8424H49.6309C50.2479 39.8424 50.7517 40.3362 50.7517 40.9409C50.7517 41.5456 50.2479 42.0394 49.6309 42.0394H47.2007V44.4212C47.2007 45.0259 46.6969 45.5197 46.0799 45.5197H43.6497V47.9015C43.6497 48.5062 43.1458 49 42.5289 49C41.9119 49 41.4081 48.5062 41.4081 47.9015V45.5197H38.3232V47.9015C38.3232 48.5062 37.8193 49 37.2024 49C36.5854 49 36.0816 48.5062 36.0816 47.9015V45.5197H34.0952C33.4783 45.5197 32.9744 45.0259 32.9744 44.4212C32.9744 43.8078 32.5017 43.3445 31.8758 43.3445C31.25 43.3445 30.7773 43.8078 30.7773 44.4212C30.7773 45.0259 30.2734 45.5197 29.6565 45.5197H27.6701V47.9015C27.6701 48.5062 27.1663 49 26.5493 49C25.9324 49 25.4285 48.5062 25.4285 47.9015V45.5197H22.3436V47.9015C22.3436 48.5062 21.8398 49 21.2228 49C20.6058 49 20.102 48.5062 20.102 47.9015V45.5197H17.6718C17.0548 45.5197 16.551 45.0259 16.551 44.4212V42.0394H14.1208C13.5038 42.0394 13 41.5456 13 40.9409C13 40.3362 13.5038 39.8424 14.1208 39.8424H16.551V36.8189H14.1208C13.5038 36.8189 13 36.3251 13 35.7205C13 35.1158 13.5038 34.622 14.1208 34.622H16.551V31.5985H14.1208C13.5038 31.5985 13 31.1047 13 30.5C13 29.8953 13.5038 29.4015 14.1208 29.4015H16.551V26.378H14.1208C13.5038 26.378 13 25.8842 13 25.2795C13 24.6749 13.5038 24.1811 14.1208 24.1811H16.551V21.1576H14.1208C13.5038 21.1576 13 20.6638 13 20.0591C13 19.4544 13.5038 18.9606 14.1208 18.9606H16.551V16.5788C16.551 15.9741 17.0548 15.4803 17.6718 15.4803H20.102V13.0985ZM21.2228 12.4568C20.8632 12.4568 20.5681 12.7461 20.5681 13.0985V15.9371H17.6718C17.3122 15.9371 17.0171 16.2264 17.0171 16.5788V19.4174H14.1208C13.7612 19.4174 13.4661 19.7067 13.4661 20.0591C13.4661 20.4115 13.7612 20.7008 14.1208 20.7008H17.0171V24.6379H14.1208C13.7612 24.6379 13.4661 24.9271 13.4661 25.2795C13.4661 25.6319 13.7612 25.9212 14.1208 25.9212H17.0171V29.8583H14.1208C13.7612 29.8583 13.4661 30.1476 13.4661 30.5C13.4661 30.8524 13.7612 31.1417 14.1208 31.1417H17.0171V35.0788H14.1208C13.7612 35.0788 13.4661 35.3681 13.4661 35.7205C13.4661 36.0729 13.7612 36.3621 14.1208 36.3621H17.0171V40.2992H14.1208C13.7612 40.2992 13.4661 40.5885 13.4661 40.9409C13.4661 41.2933 13.7612 41.5826 14.1208 41.5826H17.0171V44.4212C17.0171 44.7736 17.3122 45.0629 17.6718 45.0629H20.5681V47.9015C20.5681 48.2539 20.8632 48.5432 21.2228 48.5432C21.5824 48.5432 21.8775 48.2539 21.8775 47.9015V45.0629H25.8946V47.9015C25.8946 48.2539 26.1898 48.5432 26.5493 48.5432C26.9089 48.5432 27.204 48.2539 27.204 47.9015V45.0629H29.6565C30.016 45.0629 30.3112 44.7736 30.3112 44.4212C30.3112 43.5555 30.9926 42.8877 31.8758 42.8877C32.7591 42.8877 33.4405 43.5555 33.4405 44.4212C33.4405 44.7736 33.7357 45.0629 34.0952 45.0629H36.5476V47.9015C36.5476 48.2539 36.8428 48.5432 37.2024 48.5432C37.5619 48.5432 37.8571 48.2539 37.8571 47.9015V45.0629H41.8742V47.9015C41.8742 48.2539 42.1693 48.5432 42.5289 48.5432C42.8884 48.5432 43.1836 48.2539 43.1836 47.9015V45.0629H46.0799C46.4395 45.0629 46.7346 44.7736 46.7346 44.4212V41.5826H49.6309C49.9905 41.5826 50.2856 41.2933 50.2856 40.9409C50.2856 40.5885 49.9905 40.2992 49.6309 40.2992H46.7346V36.3621H49.6309C49.9905 36.3621 50.2856 36.0729 50.2856 35.7205C50.2856 35.3681 49.9905 35.0788 49.6309 35.0788H46.7346V31.1417H49.6309C49.9905 31.1417 50.2856 30.8524 50.2856 30.5C50.2856 30.1476 49.9905 29.8583 49.6309 29.8583H46.7346V25.9212H49.6309C49.9905 25.9212 50.2856 25.6319 50.2856 25.2795C50.2856 24.9271 49.9905 24.6379 49.6309 24.6379H46.7346V20.7008H49.6309C49.9905 20.7008 50.2856 20.4115 50.2856 20.0591C50.2856 19.7067 49.9905 19.4174 49.6309 19.4174H46.7346V16.5788C46.7346 16.2264 46.4395 15.9371 46.0799 15.9371H43.1836V13.0985C43.1836 12.7461 42.8884 12.4568 42.5289 12.4568C42.1693 12.4568 41.8742 12.7461 41.8742 13.0985V15.9371H37.8571V13.0985C37.8571 12.7461 37.5619 12.4568 37.2024 12.4568C36.8428 12.4568 36.5476 12.7461 36.5476 13.0985V15.9371H32.5306V13.0985C32.5306 12.7461 32.2354 12.4568 31.8758 12.4568C31.5163 12.4568 31.2211 12.7461 31.2211 13.0985V15.9371H27.204V13.0985C27.204 12.7461 26.9089 12.4568 26.5493 12.4568C26.1898 12.4568 25.8946 12.7461 25.8946 13.0985V15.9371H21.8775V13.0985C21.8775 12.7461 21.5824 12.4568 21.2228 12.4568ZM18.3265 17.2205H45.4252V43.7795H34.6781L34.6273 43.6188C34.256 42.4465 33.1876 41.6044 31.8758 41.6044C30.5641 41.6044 29.4956 42.4465 29.1244 43.6188L29.0736 43.7795H18.3265V17.2205ZM18.7926 17.6772V43.3228H28.7347C29.207 42.0551 30.4081 41.1476 31.8758 41.1476C33.3436 41.1476 34.5447 42.0551 35.017 43.3228H44.9591V17.6772H18.7926ZM30.7551 21.7992C30.7551 21.1946 31.2589 20.7008 31.8758 20.7008C32.4928 20.7008 32.9966 21.1946 32.9966 21.7992V23.311H38.0901C38.7071 23.311 39.2109 23.8048 39.2109 24.4095V29.4015H40.7534C41.3703 29.4015 41.8742 29.8953 41.8742 30.5C41.8742 31.1047 41.3703 31.5985 40.7534 31.5985H39.2109V36.5905C39.2109 37.1952 38.7071 37.689 38.0901 37.689H25.6616C25.0446 37.689 24.5408 37.1952 24.5408 36.5905V31.5985H22.9983C22.3814 31.5985 21.8775 31.1047 21.8775 30.5C21.8775 29.8953 22.3814 29.4015 22.9983 29.4015H24.5408V24.4095C24.5408 23.8048 25.0446 23.311 25.6616 23.311H30.7551V21.7992ZM31.8758 21.1576C31.5163 21.1576 31.2211 21.4468 31.2211 21.7992V23.7678H25.6616C25.302 23.7678 25.0069 24.0571 25.0069 24.4095V29.8583H22.9983C22.6388 29.8583 22.3436 30.1476 22.3436 30.5C22.3436 30.8524 22.6388 31.1417 22.9983 31.1417H25.0069V36.5905C25.0069 36.9429 25.302 37.2322 25.6616 37.2322H38.0901C38.4497 37.2322 38.7448 36.9429 38.7448 36.5905V31.1417H40.7534C41.1129 31.1417 41.4081 30.8524 41.4081 30.5C41.4081 30.1476 41.1129 29.8583 40.7534 29.8583H38.7448V24.4095C38.7448 24.0571 38.4497 23.7678 38.0901 23.7678H32.5306V21.7992C32.5306 21.4468 32.2354 21.1576 31.8758 21.1576ZM26.3163 25.0511H37.4354V35.9489H26.3163V25.0511ZM26.7824 25.5079V35.4921H36.9693V25.5079H26.7824Z" fill="#B2D530"/>
</svg>
