<svg width="180" height="241" viewBox="0 0 180 241" fill="none" xmlns="http://www.w3.org/2000/svg">
<rect width="180" height="241" fill="url(#paint0_linear_124_22562)"/>
<g filter="url(#filter0_i_124_22562)">
<path fill-rule="evenodd" clip-rule="evenodd" d="M104.25 110.875L119 102.25L104.25 93.6245V110.875Z" fill="#DBF1C1"/>
<path fill-rule="evenodd" clip-rule="evenodd" d="M74.75 128.125L89.5001 136.75L74.75 145.375V128.125Z" fill="#53A626"/>
<path fill-rule="evenodd" clip-rule="evenodd" d="M89.5001 119.5L74.75 128.125L89.5001 136.75V119.5Z" fill="#1F4F22"/>
<path fill-rule="evenodd" clip-rule="evenodd" d="M74.75 145.376L89.5001 154V136.75L74.75 145.376Z" fill="#1F4F22"/>
<path fill-rule="evenodd" clip-rule="evenodd" d="M60 136.75V136.75L74.7495 145.375V128.125L60 136.75Z" fill="#1F4F22"/>
<path fill-rule="evenodd" clip-rule="evenodd" d="M104.25 128.125L119 136.75V119.5L104.25 128.125Z" fill="#B2D530"/>
<path fill-rule="evenodd" clip-rule="evenodd" d="M89.5 102.25L104.25 110.875L89.5 119.5V102.25Z" fill="#B2D530"/>
<path fill-rule="evenodd" clip-rule="evenodd" d="M60 119.5V119.501L74.7495 128.126V110.875L60 119.5Z" fill="#B2D530"/>
<path fill-rule="evenodd" clip-rule="evenodd" d="M89.5 154L104.25 145.376L89.5 136.75V154Z" fill="#53A626"/>
<path fill-rule="evenodd" clip-rule="evenodd" d="M104.25 145.375L119 136.75L104.25 128.125V145.375Z" fill="#1F4F22"/>
<path fill-rule="evenodd" clip-rule="evenodd" d="M89.5001 85L74.75 93.6244L89.5001 102.25V85Z" fill="#DBF1C1"/>
<path fill-rule="evenodd" clip-rule="evenodd" d="M104.25 110.875L89.5 119.5L104.25 128.125V110.875Z" fill="#DBF1C1"/>
<path fill-rule="evenodd" clip-rule="evenodd" d="M104.25 128.125L89.5 136.75L104.25 145.375V128.125Z" fill="#B2D530"/>
</g>
<defs>
<filter id="filter0_i_124_22562" x="60" y="85" width="59.3" height="69.3" filterUnits="userSpaceOnUse" color-interpolation-filters="sRGB">
<feFlood flood-opacity="0" result="BackgroundImageFix"/>
<feBlend mode="normal" in="SourceGraphic" in2="BackgroundImageFix" result="shape"/>
<feColorMatrix in="SourceAlpha" type="matrix" values="0 0 0 0 0 0 0 0 0 0 0 0 0 0 0 0 0 0 127 0" result="hardAlpha"/>
<feOffset dx="0.3" dy="0.3"/>
<feGaussianBlur stdDeviation="0.36"/>
<feComposite in2="hardAlpha" operator="arithmetic" k2="-1" k3="1"/>
<feColorMatrix type="matrix" values="0 0 0 0 0.121569 0 0 0 0 0.309804 0 0 0 0 0.133333 0 0 0 1 0"/>
<feBlend mode="normal" in2="shape" result="effect1_innerShadow_124_22562"/>
</filter>
<linearGradient id="paint0_linear_124_22562" x1="90" y1="-1.05134e-05" x2="231.904" y2="72.4064" gradientUnits="userSpaceOnUse">
<stop stop-color="#0A2133"/>
<stop offset="1" stop-color="#546470"/>
</linearGradient>
</defs>
</svg>
