<svg width="1344" height="420" viewBox="0 0 1344 420" fill="none" xmlns="http://www.w3.org/2000/svg">
<path d="M1.0651 250.02V121.573L114.906 185.796L1.0651 250.02Z" stroke="#53A626" stroke-width="2.1302"/>
<path d="M300.065 170.999V40.5938L412.943 105.796L300.065 170.999Z" stroke="#53A626" stroke-width="2.1302"/>
<path d="M1090.07 170.005V40.5873L1202.93 105.296L1090.07 170.005Z" stroke="#53A626" stroke-width="2.1302"/>
<path d="M1073.93 198.797L1073.93 329.203L961.057 264L1073.93 198.797Z" stroke="#53A626" stroke-width="2.1302"/>
<path d="M1209.93 119.791L1209.93 249.209L1097.07 184.5L1209.93 119.791Z" stroke="#53A626" stroke-width="2.1302"/>
<path d="M954.065 249.209L954.065 119.791L1066.93 184.5L954.065 249.209Z" stroke="#53A626" stroke-width="2.1302"/>
<path d="M1090.07 329.203V198.797L1202.94 264L1090.07 329.203Z" stroke="#53A626" stroke-width="2.1302"/>
<path d="M1074.93 40.5873L1074.93 170.005L962.069 105.296L1074.93 40.5873Z" stroke="#53A626" stroke-width="2.1302"/>
<path d="M300.065 329.999V199.594L412.943 264.796L300.065 329.999Z" stroke="#53A626" stroke-width="2.1302"/>
<path d="M167 185.796L110 185.796" stroke="#53A626" stroke-width="1.0651" stroke-dasharray="5.33 5.33"/>
<path d="M602 185.796L544 185.796" stroke="#53A626" stroke-width="1.0651" stroke-dasharray="5.33 5.33"/>
<path d="M797 185.796L739 185.796" stroke="#53A626" stroke-width="1.0651" stroke-dasharray="5.33 5.33"/>
<path d="M414.359 107.042L547.688 185.472" stroke="#53A626" stroke-width="1.0651" stroke-dasharray="5.33 5.33"/>
<path d="M547.689 185.472L414.359 263.901" stroke="#53A626" stroke-width="1.0651" stroke-dasharray="5.33 5.33"/>
<path d="M299.971 107.368L166.642 185.797" stroke="#53A626" stroke-width="1.0651" stroke-dasharray="5.33 5.33"/>
<path d="M166.641 185.797L299.971 264.226" stroke="#53A626" stroke-width="1.0651" stroke-dasharray="5.33 5.33"/>
<path d="M1078.72 19.9999L796.869 185.797" stroke="#53A626" stroke-width="1.0651" stroke-dasharray="5.33 5.33"/>
<path d="M796.866 185.797L1078.72 351.594" stroke="#53A626" stroke-width="1.0651" stroke-dasharray="5.33 5.33"/>
<path d="M599.984 142.913L669.5 103.024L739.016 142.913V222.68L669.5 262.568L599.984 222.68V142.913Z" stroke="#53A626" stroke-width="2.1302"/>
<path d="M638.842 209.896H673.66C674.327 209.896 674.981 209.71 675.548 209.359C676.116 209.009 676.574 208.507 676.873 207.91C677.171 207.313 677.297 206.645 677.238 205.981C677.178 205.317 676.934 204.682 676.534 204.148L673.936 200.685V183.368C673.93 179.513 672.665 175.765 670.333 172.694C668.002 169.623 664.731 167.397 661.019 166.355L664.983 158.44C665.103 158.199 665.132 157.922 665.062 157.662C664.993 157.402 664.831 157.176 664.607 157.026L663.502 156.288C662.668 155.734 661.702 155.409 660.703 155.347C659.703 155.285 658.705 155.488 657.808 155.934C657.327 156.174 656.796 156.299 656.257 156.299C655.719 156.299 655.188 156.174 654.706 155.934C653.81 155.488 652.812 155.285 651.812 155.347C650.813 155.41 649.847 155.734 649.013 156.288L647.908 157.026C647.684 157.176 647.522 157.402 647.453 157.662C647.384 157.922 647.412 158.199 647.532 158.44L651.49 166.355C647.777 167.396 644.505 169.621 642.172 172.692C639.839 175.763 638.573 179.512 638.566 183.368V200.685L635.968 204.148C635.568 204.682 635.324 205.317 635.265 205.981C635.205 206.645 635.331 207.313 635.629 207.91C635.928 208.507 636.386 209.009 636.954 209.359C637.521 209.71 638.175 209.896 638.842 209.896V209.896ZM649.939 158.324L650.234 158.128C650.743 157.789 651.332 157.591 651.942 157.552C652.552 157.513 653.162 157.636 653.71 157.907C654.5 158.3 655.37 158.505 656.252 158.505C657.134 158.505 658.005 158.3 658.794 157.907C659.342 157.635 659.952 157.511 660.563 157.55C661.173 157.589 661.763 157.788 662.272 158.128L662.567 158.324L658.782 165.885C657.944 165.757 657.099 165.69 656.251 165.683C655.404 165.69 654.558 165.757 653.72 165.885L649.939 158.324ZM637.737 205.475L640.556 201.717C640.699 201.525 640.777 201.293 640.777 201.053V183.368C640.777 179.264 642.407 175.328 645.309 172.426C648.211 169.524 652.147 167.894 656.251 167.894C660.355 167.894 664.291 169.524 667.193 172.426C670.095 175.328 671.725 179.264 671.725 183.368V201.053C671.725 201.293 671.803 201.525 671.947 201.717L674.765 205.475C674.919 205.68 675.013 205.924 675.036 206.18C675.059 206.435 675.01 206.692 674.896 206.922C674.781 207.151 674.604 207.344 674.386 207.479C674.168 207.614 673.916 207.685 673.66 207.685H638.842C638.586 207.685 638.334 207.614 638.116 207.479C637.898 207.344 637.721 207.151 637.607 206.922C637.492 206.692 637.443 206.435 637.466 206.18C637.489 205.924 637.583 205.68 637.737 205.475V205.475Z" fill="#B2D530"/>
<path d="M700.464 181.158H697.148V175.631C697.148 175.338 697.031 175.057 696.824 174.849C696.617 174.642 696.336 174.526 696.042 174.526H693.438C695.042 173.235 696.205 171.478 696.768 169.498C697.331 167.517 697.266 165.411 696.582 163.47C695.897 161.528 694.627 159.847 692.947 158.657C691.267 157.468 689.259 156.829 687.2 156.829C685.141 156.829 683.133 157.468 681.453 158.657C679.772 159.847 678.502 161.528 677.818 163.47C677.133 165.411 677.068 167.517 677.631 169.498C678.194 171.478 679.358 173.235 680.961 174.526H678.357C678.064 174.526 677.783 174.642 677.576 174.849C677.368 175.057 677.252 175.338 677.252 175.631V182.263C677.252 182.556 677.368 182.837 677.576 183.044C677.783 183.252 678.064 183.368 678.357 183.368H681.673V187.789H678.357C678.064 187.789 677.783 187.906 677.576 188.113C677.368 188.32 677.252 188.602 677.252 188.895V195.527C677.252 195.82 677.368 196.101 677.576 196.308C677.783 196.516 678.064 196.632 678.357 196.632H681.673V208.79C681.673 209.084 681.79 209.365 681.997 209.572C682.204 209.779 682.485 209.896 682.779 209.896H700.464C700.757 209.896 701.038 209.779 701.245 209.572C701.453 209.365 701.569 209.084 701.569 208.79V195.527C701.569 195.234 701.453 194.952 701.245 194.745C701.038 194.538 700.757 194.421 700.464 194.421H697.148V190H700.464C700.757 190 701.038 189.884 701.245 189.676C701.453 189.469 701.569 189.188 701.569 188.895V182.263C701.569 181.97 701.453 181.689 701.245 181.481C701.038 181.274 700.757 181.158 700.464 181.158ZM679.463 166.788C679.463 165.258 679.916 163.762 680.767 162.49C681.617 161.217 682.825 160.226 684.239 159.64C685.653 159.055 687.208 158.901 688.709 159.2C690.21 159.498 691.589 160.235 692.671 161.317C693.753 162.399 694.49 163.778 694.788 165.279C695.087 166.78 694.934 168.336 694.348 169.749C693.762 171.163 692.771 172.372 691.498 173.222C690.226 174.072 688.73 174.526 687.2 174.526C685.148 174.523 683.182 173.707 681.731 172.257C680.281 170.806 679.465 168.84 679.463 166.788ZM679.463 176.736H694.937V181.158H692.726V178.947H690.516V181.158H688.305V178.947H686.094V181.158H683.884V178.947H681.673V181.158H679.463V176.736ZM699.358 207.685H697.148V205.475H694.937V207.685H692.726V205.475H690.516V207.685H688.305V205.475H686.094V207.685H683.884V203.264H699.358V207.685ZM699.358 201.053H697.148V198.843H694.937V201.053H692.726V198.843H690.516V201.053H688.305V198.843H686.094V201.053H683.884V196.632H699.358V201.053ZM694.937 194.421H692.726V192.211H690.516V194.421H688.305V192.211H686.094V194.421H683.884V192.211H681.673V194.421H679.463V190H694.937V194.421ZM699.358 187.789H697.148V185.579H694.937V187.789H692.726V185.579H690.516V187.789H688.305V185.579H686.094V187.789H683.884V183.368H699.358V187.789Z" fill="#B2D530"/>
<path d="M687.199 161.262C685.734 161.264 684.33 161.847 683.293 162.883C682.257 163.919 681.675 165.323 681.673 166.789H683.883C683.883 165.909 684.233 165.066 684.855 164.444C685.477 163.822 686.32 163.473 687.199 163.473V161.262Z" fill="#B2D530"/>
<path d="M690.515 166.788C690.515 167.668 690.166 168.511 689.544 169.133C688.922 169.755 688.079 170.104 687.199 170.104V172.315C688.664 172.313 690.069 171.73 691.105 170.694C692.141 169.658 692.724 168.254 692.726 166.788H690.515Z" fill="#B2D530"/>
<path d="M654.934 195.527H655.146V197.737H657.357V195.527H657.569C658.594 195.524 659.584 195.148 660.351 194.467C661.119 193.787 661.611 192.85 661.737 191.832C661.862 190.814 661.611 189.786 661.032 188.94C660.453 188.093 659.584 187.488 658.59 187.237L654.45 186.202C653.974 186.086 653.558 185.799 653.281 185.396C653.003 184.994 652.882 184.503 652.942 184.017C653.001 183.532 653.237 183.085 653.604 182.762C653.971 182.438 654.444 182.261 654.934 182.263H657.569C658.099 182.263 658.607 182.474 658.981 182.849C659.356 183.223 659.567 183.731 659.567 184.261V184.473H661.778V184.261C661.777 183.145 661.333 182.075 660.544 181.286C659.755 180.497 658.685 180.053 657.569 180.052H657.357V177.842H655.146V180.052H654.934C653.908 180.055 652.919 180.431 652.151 181.111C651.384 181.792 650.891 182.729 650.766 183.747C650.64 184.764 650.891 185.793 651.47 186.639C652.05 187.485 652.918 188.091 653.912 188.342L658.053 189.377C658.528 189.493 658.944 189.78 659.222 190.183C659.5 190.585 659.62 191.076 659.561 191.561C659.501 192.047 659.265 192.494 658.898 192.817C658.531 193.141 658.058 193.318 657.569 193.316H654.934C654.404 193.315 653.896 193.105 653.521 192.73C653.147 192.355 652.936 191.847 652.935 191.318V191.105H650.725V191.318C650.726 192.434 651.17 193.503 651.959 194.293C652.748 195.082 653.818 195.525 654.934 195.527V195.527Z" fill="#B2D530"/>
<path d="M672.815 148.921C672.771 148.663 672.638 148.43 672.438 148.261C672.239 148.092 671.986 148 671.725 148C671.464 148 671.211 148.092 671.011 148.261C670.812 148.43 670.679 148.663 670.635 148.921C670.488 149.8 670.071 150.611 669.441 151.241C668.811 151.871 668 152.288 667.121 152.435C666.864 152.478 666.63 152.612 666.461 152.811C666.293 153.011 666.2 153.263 666.2 153.525C666.2 153.786 666.293 154.039 666.461 154.238C666.63 154.438 666.864 154.571 667.121 154.615C668 154.761 668.811 155.179 669.441 155.808C670.071 156.438 670.488 157.25 670.635 158.128C670.679 158.386 670.812 158.62 671.011 158.788C671.211 158.957 671.464 159.049 671.725 159.049C671.986 159.049 672.239 158.957 672.438 158.788C672.638 158.62 672.771 158.386 672.815 158.128C672.961 157.25 673.379 156.438 674.009 155.808C674.639 155.179 675.45 154.761 676.329 154.615C676.586 154.571 676.82 154.438 676.988 154.238C677.157 154.039 677.25 153.786 677.25 153.525C677.25 153.263 677.157 153.011 676.988 152.811C676.82 152.612 676.586 152.478 676.329 152.435C675.45 152.288 674.639 151.871 674.009 151.241C673.379 150.611 672.961 149.8 672.815 148.921V148.921ZM671.725 155.103C671.294 154.49 670.76 153.956 670.146 153.525C670.76 153.094 671.294 152.56 671.725 151.946C672.156 152.56 672.69 153.094 673.303 153.525C672.69 153.956 672.156 154.49 671.725 155.103V155.103Z" fill="#B2D530"/>
<path d="M343.623 99.7012L339.325 97.0215L317.312 133.033L321.61 135.713L343.623 99.7012Z" stroke="#B2D530" stroke-width="2.13019" stroke-miterlimit="10" stroke-linecap="round" stroke-linejoin="round"/>
<path d="M349.728 89.6787L345.422 87.0156L343.615 89.9283L347.922 92.5914L349.728 89.6787Z" stroke="#B2D530" stroke-width="2.13019" stroke-miterlimit="10" stroke-linecap="round" stroke-linejoin="round"/>
<path d="M351.003 94.5329L340.576 88.0859L336.237 95.0821L346.663 101.529L351.003 94.5329Z" stroke="#B2D530" stroke-width="2.13019" stroke-miterlimit="10" stroke-linecap="round" stroke-linejoin="round"/>
<path d="M337.051 93.9068C330.382 90.3141 323.762 87.7809 317.748 86.3619C324.043 84.8931 331.967 85.9346 339.802 89.4911" stroke="#B2D530" stroke-width="2.1302" stroke-miterlimit="10" stroke-linecap="round" stroke-linejoin="round"/>
<path d="M350.361 95.5501C357.491 101.171 362.239 108.139 363.745 114.705C359.633 109.682 354.121 104.613 347.553 99.9881" stroke="#B2D530" stroke-width="2.1302" stroke-miterlimit="10" stroke-linecap="round" stroke-linejoin="round"/>
<path d="M310.715 250.052L310.715 250.053L310.738 289.242H309.555V250.052C309.555 248.511 310.42 247.093 311.746 246.039C313.073 244.986 314.799 244.351 316.382 244.351H322.114H330.963H357.764C359.269 244.354 360.712 244.955 361.777 246.024C362.843 247.092 363.442 248.541 363.445 250.053V252.007V260.885V267.392H362.262V250.052C362.262 248.857 361.789 247.71 360.945 246.863C360.102 246.017 358.958 245.542 357.764 245.542H356.48C355.287 245.542 354.142 246.017 353.299 246.863C352.456 247.71 351.982 248.857 351.982 250.052V288.092H350.799V250.052V250.052C350.798 248.737 351.252 247.463 352.083 246.448L352.826 245.542H351.654H316.359C315.099 245.542 313.714 246.057 312.644 246.842C311.585 247.619 310.715 248.753 310.715 250.052Z" fill="#0A2133" stroke="#B2D530" stroke-width="1.10948"/>
<path d="M362.555 274.242V271.351H363.445V274.242H362.555Z" fill="#0A2133" stroke="#B2D530" stroke-width="1.10948"/>
<path d="M362.555 281.242V279.351H363.445V281.242H362.555Z" fill="#0A2133" stroke="#B2D530" stroke-width="1.10948"/>
<path d="M309.555 307.242V304.351H310.445V307.242H309.555Z" fill="#0A2133" stroke="#B2D530" stroke-width="1.10948"/>
<path d="M309.555 297.242V292.351H310.445V297.242H309.555Z" fill="#0A2133" stroke="#B2D530" stroke-width="1.10948"/>
<path d="M346 262.796H332" stroke="#B2D530" stroke-width="2.11215"/>
<path d="M346 279.796H332" stroke="#B2D530" stroke-width="2.11215"/>
<path d="M346 296.796H332" stroke="#B2D530" stroke-width="2.11215"/>
<path d="M342 257.796L332 257.796" stroke="#B2D530" stroke-width="2.11215"/>
<path d="M342 274.796L332 274.796" stroke="#B2D530" stroke-width="2.11215"/>
<path d="M342 291.796L332 291.796" stroke="#B2D530" stroke-width="2.11215"/>
<path d="M326 262.096V264.796H317V255.796H324.2" stroke="#B2D530" stroke-width="2.11215"/>
<path d="M326 279.096V281.796H317V272.796H324.2" stroke="#B2D530" stroke-width="2.11215"/>
<path d="M326 288.796V298.796H317V288.796H326Z" stroke="#B2D530" stroke-width="2.11215"/>
<path d="M319 258.796L321 262.796L332 252.796" stroke="#B2D530" stroke-width="2.11215"/>
<path d="M319 275.196L321 278.796L332 269.796" stroke="#B2D530" stroke-width="2.11215"/>
<path d="M413.32 43.9764L419.3 50.2164H419.56L425.7 43.9564V54.7964H428.1V40.5764H425.88L419.5 47.1764L413.28 40.5764H410.92V54.7964H413.32V43.9764ZM432.841 41.4564C433.941 41.4564 434.481 40.9364 434.481 39.8564C434.481 38.7164 433.901 38.2764 432.821 38.2764C431.761 38.2764 431.181 38.7164 431.181 39.8564C431.181 41.0164 431.661 41.4564 432.841 41.4564ZM431.501 54.7964H434.061V43.3764H431.501V54.7964ZM439.958 54.7964V49.7564C439.958 46.6564 441.618 44.9564 444.658 44.9564C447.718 44.9564 448.858 46.6564 448.858 49.2364V54.7964H451.358V48.6964C451.358 45.2564 449.298 42.9364 445.418 42.9364C442.678 42.9364 440.718 44.2364 439.838 46.2564L439.618 43.3764H437.438V54.7964H439.958ZM468.805 51.5564H466.045C465.345 52.6764 464.005 53.2164 461.585 53.2164C458.325 53.2164 456.665 52.1364 456.345 49.9964H469.005V48.9964C469.005 45.2564 466.245 42.9364 461.585 42.9364C456.805 42.9364 453.985 45.5764 453.985 49.2364C453.985 52.8764 456.205 55.1764 461.385 55.1764C465.005 55.1764 467.585 54.2164 468.805 51.5564ZM461.645 44.8764C464.585 44.8764 466.245 45.9364 466.565 48.1764H456.385C456.805 46.0164 458.685 44.8764 461.645 44.8764ZM427 69.1564H424.34C423.92 71.3964 422.24 72.9364 418.66 72.9364C414.82 72.9364 412.68 71.2164 412.68 67.8364V67.8164C412.68 64.2364 415.04 62.4964 418.8 62.4964C421.94 62.4964 423.78 63.7364 424.28 65.8964H426.92C426.14 62.1164 422.98 60.2564 418.78 60.2564C413.72 60.2564 410.12 63.0964 410.12 67.7964V67.8564C410.12 72.8364 413.34 75.1764 418.52 75.1764C423.66 75.1764 426.36 72.7764 427 69.1564ZM429.528 74.7964H432.048V70.9564C432.048 67.3364 433.268 65.7364 437.128 65.7364H438.448V63.2964H437.208C434.268 63.2964 432.628 64.7164 431.988 66.9364L431.688 63.3764H429.528V74.7964ZM440.64 79.8964H441.74C445.32 79.8964 446.14 79.3564 448.46 75.4364L455.54 63.3764H452.84L447.9 71.9564L447.84 72.0764L447.8 71.9564L442.8 63.3764H440.06L446.54 74.3164L446.16 74.9564C444.8 77.2164 444.2 77.7164 441.86 77.7164H440.62L440.64 79.8964ZM465.4 75.1364C469.18 75.1364 472.3 73.1364 472.3 69.1364C472.3 65.1564 469.62 62.9564 465.52 62.9564C462.84 62.9564 460.74 63.9764 459.68 65.7764L459.48 63.3764H457.34V78.8764H459.78V72.6964C460.74 74.2764 462.62 75.1364 465.4 75.1364ZM464.68 73.1164C461.46 73.1164 459.68 71.7564 459.68 69.1364C459.68 66.5764 461.64 64.9564 464.76 64.9564C467.92 64.9564 469.78 66.4364 469.78 69.1364C469.78 71.7364 468.12 73.1164 464.68 73.1164ZM483.879 74.7964V72.6164H482.299C479.539 72.6164 478.859 72.1164 478.859 68.9964V65.4964H483.879V63.3764H478.859V60.1964H476.799C476.799 60.8964 476.779 61.7564 476.639 62.3764C476.479 63.1364 476.299 63.3364 475.399 63.4364C474.999 63.4764 473.879 63.4964 473.399 63.4964V65.4964H476.499V69.3764C476.499 73.4364 477.759 74.7964 481.699 74.7964H483.879ZM492.931 75.1764C498.071 75.1764 500.631 72.8364 500.631 69.1364C500.631 65.1764 497.551 62.9364 493.011 62.9364C488.571 62.9364 485.431 65.2164 485.431 69.1364C485.431 72.9364 487.731 75.1764 492.931 75.1764ZM492.991 73.0964C489.671 73.0964 487.971 71.7964 487.971 69.1364C487.971 66.3364 489.951 64.9564 493.051 64.9564C496.231 64.9564 498.091 66.4164 498.091 69.1364C498.091 71.7564 496.411 73.0964 492.991 73.0964Z" fill="#DBF1C1"/>
<path d="M59.12 102.796H69.16V100.496H65.32V90.7964H69.16V88.5764H59.12V90.7964H62.96V100.496H59.12V102.796ZM74.1922 102.796V97.7564C74.1922 94.6564 75.8522 92.9564 78.8922 92.9564C81.9522 92.9564 83.0922 94.6564 83.0922 97.2364V102.796H85.5922V96.6964C85.5922 93.2564 83.5322 90.9364 79.6522 90.9364C76.9122 90.9364 74.9522 92.2364 74.0722 94.2564L73.8522 91.3764H71.6722V102.796H74.1922ZM95.2792 103.176C99.7992 103.176 101.899 101.516 101.899 99.3564C101.899 97.0164 100.279 96.2164 95.3592 96.0164C91.4192 95.8564 90.6192 95.5564 90.6192 94.5164C90.6192 93.5764 91.5392 92.7764 94.3392 92.7764C96.8592 92.7764 98.5592 93.3364 99.0592 94.9164H101.739C100.879 92.1364 98.4592 90.9364 94.3392 90.9364C90.2192 90.9364 88.1992 92.5364 88.1992 94.6964C88.1992 96.9164 89.9992 97.7764 94.5392 97.9164C98.5192 98.0564 99.4392 98.3364 99.4392 99.3964C99.4392 100.436 98.4792 101.216 95.3992 101.216C92.6992 101.216 90.9992 100.716 90.5192 98.9364H87.6792C88.2992 101.956 91.0192 103.176 95.2792 103.176ZM113.484 102.796V100.616H111.904C109.144 100.616 108.464 100.116 108.464 96.9964V93.4964H113.484V91.3764H108.464V88.1964H106.404C106.404 88.8964 106.384 89.7564 106.244 90.3764C106.084 91.1364 105.904 91.3364 105.004 91.4364C104.604 91.4764 103.484 91.4964 103.004 91.4964V93.4964H106.104V97.3764C106.104 101.436 107.364 102.796 111.304 102.796H113.484ZM127.244 99.6564L127.484 102.796H129.524V95.2764C129.524 92.2364 127.424 90.9364 123.024 90.9364C118.604 90.9364 116.164 92.3364 115.784 95.4364H118.344C118.584 93.6164 119.864 92.7764 123.224 92.7764C126.224 92.7764 127.144 93.7764 127.144 94.7164V94.7364C127.144 95.7164 126.224 95.8964 123.284 96.0764C119.624 96.2964 118.244 96.6164 117.144 97.2564C116.044 97.8564 115.524 98.7764 115.524 99.9764V99.9964C115.524 102.056 117.024 103.176 120.264 103.176C123.984 103.176 126.284 101.636 127.244 99.6564ZM120.944 101.376C118.904 101.376 118.164 100.756 118.164 99.7964V99.7764C118.164 99.1964 118.404 98.7764 118.964 98.4364C119.664 97.9964 120.884 97.7564 123.504 97.6164C125.824 97.4764 126.804 97.1964 127.184 96.6764V97.1564C127.184 99.1564 124.724 101.376 120.944 101.376ZM132.786 102.796H135.286V87.6364H132.786V102.796ZM138.704 102.796H141.204V87.6364H138.704V102.796ZM66.98 123.196C71.9 123.196 74.16 121.496 74.16 118.616C74.16 115.716 71.88 114.836 66.84 114.556C62.72 114.336 61.68 113.936 61.68 112.556C61.68 111.136 62.94 110.356 66.04 110.356C69.18 110.356 71.12 111.076 71.48 113.096H74.1C73.52 109.816 70.88 108.256 66.08 108.256C61.5 108.256 59.2 109.976 59.2 112.616C59.2 115.496 61.34 116.356 65.74 116.636C70.16 116.896 71.68 117.036 71.68 118.796C71.68 120.276 70.28 121.036 67.04 121.036C63.5 121.036 61.6 120.236 61.16 117.776H58.5C59.08 121.516 61.4 123.196 66.98 123.196ZM88.1619 119.656L88.4019 122.796H90.4419V115.276C90.4419 112.236 88.3419 110.936 83.9419 110.936C79.5219 110.936 77.0819 112.336 76.7019 115.436H79.2619C79.5019 113.616 80.7819 112.776 84.1419 112.776C87.1419 112.776 88.0619 113.776 88.0619 114.716V114.736C88.0619 115.716 87.1419 115.896 84.2019 116.076C80.5419 116.296 79.1619 116.616 78.0619 117.256C76.9619 117.856 76.4419 118.776 76.4419 119.976V119.996C76.4419 122.056 77.9419 123.176 81.1819 123.176C84.9019 123.176 87.2019 121.636 88.1619 119.656ZM81.8619 121.376C79.8219 121.376 79.0819 120.756 79.0819 119.796V119.776C79.0819 119.196 79.3219 118.776 79.8819 118.436C80.5819 117.996 81.8019 117.756 84.4219 117.616C86.7419 117.476 87.7219 117.196 88.1019 116.676V117.156C88.1019 119.156 85.6419 121.376 81.8619 121.376ZM93.7044 122.796H96.2044V107.636H93.7044V122.796ZM110.428 119.656L110.668 122.796H112.708V115.276C112.708 112.236 110.608 110.936 106.208 110.936C101.788 110.936 99.3475 112.336 98.9675 115.436H101.528C101.768 113.616 103.048 112.776 106.408 112.776C109.408 112.776 110.328 113.776 110.328 114.716V114.736C110.328 115.716 109.408 115.896 106.468 116.076C102.808 116.296 101.428 116.616 100.327 117.256C99.2275 117.856 98.7075 118.776 98.7075 119.976V119.996C98.7075 122.056 100.208 123.176 103.448 123.176C107.168 123.176 109.468 121.636 110.428 119.656ZM104.128 121.376C102.088 121.376 101.348 120.756 101.348 119.796V119.776C101.348 119.196 101.588 118.776 102.148 118.436C102.848 117.996 104.068 117.756 106.688 117.616C109.008 117.476 109.988 117.196 110.368 116.676V117.156C110.368 119.156 107.908 121.376 104.128 121.376ZM127.909 120.336L128.109 122.796H130.249V107.636H127.809V113.596C126.769 111.876 124.769 110.956 122.249 110.956C118.109 110.956 115.329 113.196 115.329 117.156C115.329 121.316 118.169 123.136 122.189 123.136C125.049 123.136 126.989 122.136 127.909 120.336ZM122.869 121.116C119.529 121.116 117.849 119.856 117.849 117.156C117.849 114.456 119.669 112.956 122.849 112.956C125.909 112.956 127.949 114.456 127.949 117.116C127.949 119.696 126.109 121.116 122.869 121.116Z" fill="#DBF1C1"/>
<path d="M31.6958 169.871C32.2975 169.871 32.7853 169.383 32.7853 168.782C32.7853 168.18 32.2975 167.692 31.6958 167.692C31.0942 167.692 30.6064 168.18 30.6064 168.782C30.6064 169.383 31.0942 169.871 31.6958 169.871Z" fill="#B2D530"/>
<path d="M34.7828 169.871C35.3844 169.871 35.8722 169.383 35.8722 168.782C35.8722 168.18 35.3844 167.692 34.7828 167.692C34.1811 167.692 33.6934 168.18 33.6934 168.782C33.6934 169.383 34.1811 169.871 34.7828 169.871Z" fill="#B2D530"/>
<path d="M37.8072 169.871C38.4088 169.871 38.8966 169.383 38.8966 168.782C38.8966 168.18 38.4088 167.692 37.8072 167.692C37.2055 167.692 36.7178 168.18 36.7178 168.782C36.7178 169.383 37.2055 169.871 37.8072 169.871Z" fill="#B2D530"/>
<path d="M64.8016 164H28.4882C27.5198 164 26.733 164.787 26.733 165.755V178.646L25.7647 177.496C25.5226 177.194 25.0989 177.073 24.7358 177.194L9.72627 182.096C9.42366 182.217 9.18157 182.459 9.06052 182.762C9 183.065 9.06052 183.428 9.24209 183.67L14.326 189.601L9.24209 195.532C9 195.774 8.93948 196.137 9.06052 196.44C9.12104 196.743 9.36313 196.985 9.72627 197.106L14.6891 198.74V209.271C14.6891 209.694 14.9917 210.057 15.3548 210.179L30.3039 215.081C30.4249 215.141 30.4854 215.141 30.6065 215.141C30.7275 215.141 30.788 215.141 30.9091 215.081L45.9186 210.118C46.3423 209.997 46.5844 209.634 46.5844 209.21V198.679L51.4261 197.106H64.8016C65.7699 197.106 66.5567 196.319 66.5567 195.351V165.755C66.5567 164.787 65.7699 164 64.8016 164ZM64.62 165.937V171.626H28.6698V165.937H64.62ZM11.7235 183.488L24.6753 179.252L28.9118 184.214L15.9601 188.451L11.7235 183.488ZM11.7235 195.653L15.9601 190.69L28.9118 194.927L24.6753 199.89L11.7235 195.653ZM29.6381 212.72L16.6258 208.484V199.345L24.6148 201.947C24.7358 202.008 24.7963 202.008 24.9174 202.008C25.22 202.008 25.4621 201.887 25.6436 201.645L29.5776 197.106V212.72H29.6381ZM30.6065 193.414L18.8651 189.54L30.667 185.667L42.4083 189.54L30.6065 193.414ZM32.3616 184.214L36.5982 179.252L49.5499 183.488L45.3134 188.451L32.3616 184.214ZM44.5871 208.484L31.5748 212.72V197.106L35.5088 201.645C35.6903 201.887 35.993 202.008 36.235 202.008C36.3561 202.008 36.4166 202.008 36.5377 201.947L44.5266 199.345V208.484H44.5871ZM36.5982 199.89L32.3616 194.927L45.3134 190.69L49.5499 195.653L36.5982 199.89ZM51.6682 195.108L46.887 189.54L51.9708 183.609C52.2129 183.367 52.2734 183.004 52.1524 182.701C52.0919 182.399 51.8498 182.157 51.4867 182.036L36.5982 177.194C36.235 177.073 35.8114 177.194 35.5693 177.496L30.667 183.186L28.7303 180.946V173.684H64.62V195.169H51.6682V195.108Z" fill="#B2D530"/>
<path d="M755.72 102.796V100.616H744.3V96.7964H753.62V94.7164H744.3V90.6764H755.32V88.5764H741.92V102.796H755.72ZM769.42 99.6564L769.66 102.796H771.7V95.2764C771.7 92.2364 769.6 90.9364 765.2 90.9364C760.78 90.9364 758.34 92.3364 757.96 95.4364H760.52C760.76 93.6164 762.04 92.7764 765.4 92.7764C768.4 92.7764 769.32 93.7764 769.32 94.7164V94.7364C769.32 95.7164 768.4 95.8964 765.46 96.0764C761.8 96.2964 760.42 96.6164 759.32 97.2564C758.22 97.8564 757.7 98.7764 757.7 99.9764V99.9964C757.7 102.056 759.2 103.176 762.44 103.176C766.16 103.176 768.46 101.636 769.42 99.6564ZM763.12 101.376C761.08 101.376 760.34 100.756 760.34 99.7964V99.7764C760.34 99.1964 760.58 98.7764 761.14 98.4364C761.84 97.9964 763.06 97.7564 765.68 97.6164C768 97.4764 768.98 97.1964 769.36 96.6764V97.1564C769.36 99.1564 766.9 101.376 763.12 101.376ZM774.922 102.796H777.442V98.9564C777.442 95.3364 778.662 93.7364 782.522 93.7364H783.842V91.2964H782.602C779.662 91.2964 778.022 92.7164 777.382 94.9364L777.082 91.3764H774.922V102.796ZM788.829 102.796V97.7564C788.829 94.6564 790.489 92.9564 793.529 92.9564C796.589 92.9564 797.729 94.6564 797.729 97.2364V102.796H800.229V96.6964C800.229 93.2564 798.169 90.9364 794.289 90.9364C791.549 90.9364 789.589 92.2364 788.709 94.2564L788.489 91.3764H786.309V102.796H788.829ZM741.92 122.796H749.44C754.14 122.796 756.68 121.816 756.68 118.796V118.736C756.68 116.696 755.56 115.836 753.2 115.516C755.28 115.136 756.3 114.256 756.3 112.356V112.276C756.3 109.516 754.1 108.576 749.46 108.576H741.92V122.796ZM744.32 110.556H749.6C752.58 110.556 753.88 110.896 753.88 112.516V112.576C753.88 114.296 752.18 114.576 749.66 114.576H744.32V110.556ZM744.32 116.516H749.42C752.72 116.516 754.18 116.776 754.18 118.596V118.656C754.18 120.296 752.9 120.696 749.16 120.696H744.32V116.516ZM770.513 119.656L770.753 122.796H772.793V115.276C772.793 112.236 770.693 110.936 766.293 110.936C761.873 110.936 759.433 112.336 759.053 115.436H761.613C761.853 113.616 763.133 112.776 766.493 112.776C769.493 112.776 770.413 113.776 770.413 114.716V114.736C770.413 115.716 769.493 115.896 766.553 116.076C762.893 116.296 761.513 116.616 760.413 117.256C759.313 117.856 758.793 118.776 758.793 119.976V119.996C758.793 122.056 760.293 123.176 763.533 123.176C767.253 123.176 769.553 121.636 770.513 119.656ZM764.213 121.376C762.173 121.376 761.433 120.756 761.433 119.796V119.776C761.433 119.196 761.673 118.776 762.233 118.436C762.933 117.996 764.153 117.756 766.773 117.616C769.093 117.476 770.073 117.196 770.453 116.676V117.156C770.453 119.156 767.993 121.376 764.213 121.376ZM776.056 122.796H778.556V107.636H776.056V122.796ZM792.779 119.656L793.019 122.796H795.059V115.276C795.059 112.236 792.959 110.936 788.559 110.936C784.139 110.936 781.699 112.336 781.319 115.436H783.879C784.119 113.616 785.399 112.776 788.759 112.776C791.759 112.776 792.679 113.776 792.679 114.716V114.736C792.679 115.716 791.759 115.896 788.819 116.076C785.159 116.296 783.779 116.616 782.679 117.256C781.579 117.856 781.059 118.776 781.059 119.976V119.996C781.059 122.056 782.559 123.176 785.799 123.176C789.519 123.176 791.819 121.636 792.779 119.656ZM786.479 121.376C784.439 121.376 783.699 120.756 783.699 119.796V119.776C783.699 119.196 783.939 118.776 784.499 118.436C785.199 117.996 786.419 117.756 789.039 117.616C791.359 117.476 792.339 117.196 792.719 116.676V117.156C792.719 119.156 790.259 121.376 786.479 121.376ZM800.802 122.796V117.756C800.802 114.656 802.462 112.956 805.502 112.956C808.562 112.956 809.702 114.656 809.702 117.236V122.796H812.202V116.696C812.202 113.256 810.142 110.936 806.262 110.936C803.522 110.936 801.562 112.236 800.682 114.256L800.462 111.376H798.282V122.796H800.802ZM829.929 117.936H827.269C826.809 120.076 825.269 121.096 822.449 121.096C819.069 121.096 817.369 119.796 817.369 117.136C817.369 114.336 819.349 112.956 822.449 112.956C825.169 112.956 826.829 114.016 827.249 116.116H829.929C829.409 112.796 826.709 110.936 822.429 110.936C817.969 110.936 814.829 113.216 814.829 117.136C814.829 120.936 817.109 123.176 822.369 123.176C826.869 123.176 829.489 121.256 829.929 117.936ZM846.856 119.556H844.096C843.396 120.676 842.056 121.216 839.636 121.216C836.376 121.216 834.716 120.136 834.396 117.996H847.056V116.996C847.056 113.256 844.296 110.936 839.636 110.936C834.856 110.936 832.036 113.576 832.036 117.236C832.036 120.876 834.256 123.176 839.436 123.176C843.056 123.176 845.636 122.216 846.856 119.556ZM839.696 112.876C842.636 112.876 844.296 113.936 844.616 116.176H834.436C834.856 114.016 836.736 112.876 839.696 112.876Z" fill="#DBF1C1"/>
<path d="M1226.38 180.756H1231.44C1234.52 180.756 1235.48 181.516 1235.48 183.996V184.876C1235.48 185.256 1235.52 185.656 1235.8 185.796H1238.42C1238.16 185.636 1238.08 185.276 1238.08 184.896V183.996C1238.08 181.376 1237.18 180.196 1235 179.736C1237.24 179.256 1238.34 178.136 1238.34 175.936C1238.34 172.916 1236.32 171.576 1231.44 171.576H1223.92V185.796H1226.38V180.756ZM1231.32 178.636H1226.38V173.696H1231.42C1234.44 173.696 1235.8 174.196 1235.8 176.076V176.236C1235.8 178.296 1233.98 178.656 1231.32 178.636ZM1255.13 182.556H1252.37C1251.67 183.676 1250.33 184.216 1247.91 184.216C1244.65 184.216 1242.99 183.136 1242.67 180.996H1255.33V179.996C1255.33 176.256 1252.57 173.936 1247.91 173.936C1243.13 173.936 1240.31 176.576 1240.31 180.236C1240.31 183.876 1242.53 186.176 1247.71 186.176C1251.33 186.176 1253.91 185.216 1255.13 182.556ZM1247.97 175.876C1250.91 175.876 1252.57 176.936 1252.89 179.176H1242.71C1243.13 177.016 1245.01 175.876 1247.97 175.876ZM1270.09 183.336L1270.29 185.796H1272.43V170.636H1269.99V176.596C1268.95 174.876 1266.95 173.956 1264.43 173.956C1260.29 173.956 1257.51 176.196 1257.51 180.156C1257.51 184.316 1260.35 186.136 1264.37 186.136C1267.23 186.136 1269.17 185.136 1270.09 183.336ZM1265.05 184.116C1261.71 184.116 1260.03 182.856 1260.03 180.156C1260.03 177.456 1261.85 175.956 1265.03 175.956C1268.09 175.956 1270.13 177.456 1270.13 180.116C1270.13 182.696 1268.29 184.116 1265.05 184.116ZM1289.91 182.556H1287.15C1286.45 183.676 1285.11 184.216 1282.69 184.216C1279.43 184.216 1277.77 183.136 1277.45 180.996H1290.11V179.996C1290.11 176.256 1287.35 173.936 1282.69 173.936C1277.91 173.936 1275.09 176.576 1275.09 180.236C1275.09 183.876 1277.31 186.176 1282.49 186.176C1286.11 186.176 1288.69 185.216 1289.91 182.556ZM1282.75 175.876C1285.69 175.876 1287.35 176.936 1287.67 179.176H1277.49C1277.91 177.016 1279.79 175.876 1282.75 175.876ZM1307.12 182.556H1304.36C1303.66 183.676 1302.32 184.216 1299.9 184.216C1296.64 184.216 1294.98 183.136 1294.66 180.996H1307.32V179.996C1307.32 176.256 1304.56 173.936 1299.9 173.936C1295.12 173.936 1292.3 176.576 1292.3 180.236C1292.3 183.876 1294.52 186.176 1299.7 186.176C1303.32 186.176 1305.9 185.216 1307.12 182.556ZM1299.96 175.876C1302.9 175.876 1304.56 176.936 1304.88 179.176H1294.7C1295.12 177.016 1297 175.876 1299.96 175.876ZM1312.43 185.796V180.516C1312.43 177.676 1313.87 175.956 1316.45 175.956C1319.31 175.956 1320.09 177.776 1320.09 179.976V185.796H1322.59V180.276C1322.59 177.696 1323.91 175.956 1326.37 175.956C1329.19 175.956 1330.15 177.576 1330.15 180.096V185.796H1332.65V179.716C1332.65 176.216 1330.87 173.936 1327.19 173.936C1324.67 173.936 1322.89 175.276 1322.13 177.276C1321.51 175.256 1319.99 173.936 1317.23 173.936C1314.73 173.936 1313.05 175.236 1312.29 177.116L1312.07 174.376H1309.93V185.796H1312.43ZM1226.38 200.756H1231.44C1234.52 200.756 1235.48 201.516 1235.48 203.996V204.876C1235.48 205.256 1235.52 205.656 1235.8 205.796H1238.42C1238.16 205.636 1238.08 205.276 1238.08 204.896V203.996C1238.08 201.376 1237.18 200.196 1235 199.736C1237.24 199.256 1238.34 198.136 1238.34 195.936C1238.34 192.916 1236.32 191.576 1231.44 191.576H1223.92V205.796H1226.38V200.756ZM1231.32 198.636H1226.38V193.696H1231.42C1234.44 193.696 1235.8 194.196 1235.8 196.076V196.236C1235.8 198.296 1233.98 198.656 1231.32 198.636ZM1255.13 202.556H1252.37C1251.67 203.676 1250.33 204.216 1247.91 204.216C1244.65 204.216 1242.99 203.136 1242.67 200.996H1255.33V199.996C1255.33 196.256 1252.57 193.936 1247.91 193.936C1243.13 193.936 1240.31 196.576 1240.31 200.236C1240.31 203.876 1242.53 206.176 1247.71 206.176C1251.33 206.176 1253.91 205.216 1255.13 202.556ZM1247.97 195.876C1250.91 195.876 1252.57 196.936 1252.89 199.176H1242.71C1243.13 197.016 1245.01 195.876 1247.97 195.876ZM1267.5 197.016L1271.64 205.796H1273.8L1278.62 194.376H1276.12L1272.62 203.016L1268.58 194.376H1266.56L1262.18 202.936L1259.2 194.376H1256.62L1260.78 205.796H1262.96L1267.5 197.016ZM1291.22 202.656L1291.46 205.796H1293.5V198.276C1293.5 195.236 1291.4 193.936 1287 193.936C1282.58 193.936 1280.14 195.336 1279.76 198.436H1282.32C1282.56 196.616 1283.84 195.776 1287.2 195.776C1290.2 195.776 1291.12 196.776 1291.12 197.716V197.736C1291.12 198.716 1290.2 198.896 1287.26 199.076C1283.6 199.296 1282.22 199.616 1281.12 200.256C1280.02 200.856 1279.5 201.776 1279.5 202.976V202.996C1279.5 205.056 1281 206.176 1284.24 206.176C1287.96 206.176 1290.26 204.636 1291.22 202.656ZM1284.92 204.376C1282.88 204.376 1282.14 203.756 1282.14 202.796V202.776C1282.14 202.196 1282.38 201.776 1282.94 201.436C1283.64 200.996 1284.86 200.756 1287.48 200.616C1289.8 200.476 1290.78 200.196 1291.16 199.676V200.156C1291.16 202.156 1288.7 204.376 1284.92 204.376ZM1296.73 205.796H1299.25V201.956C1299.25 198.336 1300.47 196.736 1304.33 196.736H1305.65V194.296H1304.41C1301.47 194.296 1299.83 195.716 1299.19 197.936L1298.89 194.376H1296.73V205.796ZM1319.49 203.336L1319.69 205.796H1321.83V190.636H1319.39V196.596C1318.35 194.876 1316.35 193.956 1313.83 193.956C1309.69 193.956 1306.91 196.196 1306.91 200.156C1306.91 204.316 1309.75 206.136 1313.77 206.136C1316.63 206.136 1318.57 205.136 1319.49 203.336ZM1314.45 204.116C1311.11 204.116 1309.43 202.856 1309.43 200.156C1309.43 197.456 1311.25 195.956 1314.43 195.956C1317.49 195.956 1319.53 197.456 1319.53 200.116C1319.53 202.696 1317.69 204.116 1314.45 204.116ZM1331.74 206.176C1336.26 206.176 1338.36 204.516 1338.36 202.356C1338.36 200.016 1336.74 199.216 1331.82 199.016C1327.88 198.856 1327.08 198.556 1327.08 197.516C1327.08 196.576 1328 195.776 1330.8 195.776C1333.32 195.776 1335.02 196.336 1335.52 197.916H1338.2C1337.34 195.136 1334.92 193.936 1330.8 193.936C1326.68 193.936 1324.66 195.536 1324.66 197.696C1324.66 199.916 1326.46 200.776 1331 200.916C1334.98 201.056 1335.9 201.336 1335.9 202.396C1335.9 203.436 1334.94 204.216 1331.86 204.216C1329.16 204.216 1327.46 203.716 1326.98 201.936H1324.14C1324.76 204.956 1327.48 206.176 1331.74 206.176Z" fill="#DBF1C1"/>
<path d="M426 306.156H423.34C422.92 308.396 421.24 309.936 417.66 309.936C413.82 309.936 411.68 308.216 411.68 304.836V304.816C411.68 301.236 414.04 299.496 417.8 299.496C420.94 299.496 422.78 300.736 423.28 302.896H425.92C425.14 299.116 421.98 297.256 417.78 297.256C412.72 297.256 409.12 300.096 409.12 304.796V304.856C409.12 309.836 412.34 312.176 417.52 312.176C422.66 312.176 425.36 309.776 426 306.156ZM435.524 312.176C440.664 312.176 443.224 309.836 443.224 306.136C443.224 302.176 440.144 299.936 435.604 299.936C431.164 299.936 428.024 302.216 428.024 306.136C428.024 309.936 430.324 312.176 435.524 312.176ZM435.584 310.096C432.264 310.096 430.564 308.796 430.564 306.136C430.564 303.336 432.544 301.956 435.644 301.956C438.824 301.956 440.684 303.416 440.684 306.136C440.684 308.756 439.004 310.096 435.584 310.096ZM448.45 311.796V306.516C448.45 303.676 449.89 301.956 452.47 301.956C455.33 301.956 456.11 303.776 456.11 305.976V311.796H458.61V306.276C458.61 303.696 459.93 301.956 462.39 301.956C465.21 301.956 466.17 303.576 466.17 306.096V311.796H468.67V305.716C468.67 302.216 466.89 299.936 463.21 299.936C460.69 299.936 458.91 301.276 458.15 303.276C457.53 301.256 456.01 299.936 453.25 299.936C450.75 299.936 449.07 301.236 448.31 303.116L448.09 300.376H445.95V311.796H448.45ZM479.81 312.136C483.59 312.136 486.71 310.136 486.71 306.136C486.71 302.156 484.03 299.956 479.93 299.956C477.25 299.956 475.15 300.976 474.09 302.776L473.89 300.376H471.75V315.876H474.19V309.696C475.15 311.276 477.03 312.136 479.81 312.136ZM479.09 310.116C475.87 310.116 474.09 308.756 474.09 306.136C474.09 303.576 476.05 301.956 479.17 301.956C482.33 301.956 484.19 303.436 484.19 306.136C484.19 308.736 482.53 310.116 479.09 310.116ZM489.447 311.796H491.947V296.636H489.447V311.796ZM509.368 308.556H506.608C505.908 309.676 504.568 310.216 502.148 310.216C498.888 310.216 497.228 309.136 496.908 306.996H509.568V305.996C509.568 302.256 506.808 299.936 502.148 299.936C497.368 299.936 494.548 302.576 494.548 306.236C494.548 309.876 496.768 312.176 501.948 312.176C505.568 312.176 508.148 311.216 509.368 308.556ZM502.208 301.876C505.148 301.876 506.808 302.936 507.128 305.176H496.948C497.368 303.016 499.248 301.876 502.208 301.876ZM521.16 311.796V309.616H519.58C516.82 309.616 516.14 309.116 516.14 305.996V302.496H521.16V300.376H516.14V297.196H514.08C514.08 297.896 514.06 298.756 513.92 299.376C513.76 300.136 513.58 300.336 512.68 300.436C512.28 300.476 511.16 300.496 510.68 300.496V302.496H513.78V306.376C513.78 310.436 515.04 311.796 518.98 311.796H521.16ZM537.532 308.556H534.772C534.072 309.676 532.732 310.216 530.312 310.216C527.052 310.216 525.392 309.136 525.072 306.996H537.732V305.996C537.732 302.256 534.972 299.936 530.312 299.936C525.532 299.936 522.712 302.576 522.712 306.236C522.712 309.876 524.932 312.176 530.112 312.176C533.732 312.176 536.312 311.216 537.532 308.556ZM530.372 301.876C533.312 301.876 534.972 302.936 535.292 305.176H525.112C525.532 303.016 527.412 301.876 530.372 301.876ZM417.52 332.176C422.36 332.176 426 329.796 426 324.856V324.756C426 319.896 422.34 317.256 417.52 317.256C412.68 317.256 409.1 319.976 409.1 324.776V324.836C409.1 329.876 412.6 332.176 417.52 332.176ZM417.5 329.936C414 329.936 411.64 328.296 411.64 324.836V324.816C411.64 321.176 413.92 319.496 417.52 319.496C421.1 319.496 423.46 321.116 423.46 324.836C423.46 328.496 421.02 329.936 417.5 329.936ZM433.017 322.476H437.357V320.376H433.017V319.896C433.017 317.616 433.557 317.236 435.577 317.236H437.357V315.256H435.357C431.797 315.256 430.637 316.216 430.637 319.916V320.376H427.497V322.476H430.637V331.796H432.997L433.017 322.476ZM444.716 322.476H449.056V320.376H444.716V319.896C444.716 317.616 445.256 317.236 447.276 317.236H449.056V315.256H447.056C443.496 315.256 442.336 316.216 442.336 319.916V320.376H439.196V322.476H442.336V331.796H444.696L444.716 322.476ZM465.051 328.556H462.291C461.591 329.676 460.251 330.216 457.831 330.216C454.571 330.216 452.911 329.136 452.591 326.996H465.251V325.996C465.251 322.256 462.491 319.936 457.831 319.936C453.051 319.936 450.231 322.576 450.231 326.236C450.231 329.876 452.451 332.176 457.631 332.176C461.251 332.176 463.831 331.216 465.051 328.556ZM457.891 321.876C460.831 321.876 462.491 322.936 462.811 325.176H452.631C453.051 323.016 454.931 321.876 457.891 321.876ZM467.864 331.796H470.384V327.956C470.384 324.336 471.604 322.736 475.464 322.736H476.784V320.296H475.544C472.604 320.296 470.964 321.716 470.324 323.936L470.024 320.376H467.864V331.796ZM485.768 332.176C490.288 332.176 492.388 330.516 492.388 328.356C492.388 326.016 490.768 325.216 485.848 325.016C481.908 324.856 481.108 324.556 481.108 323.516C481.108 322.576 482.028 321.776 484.828 321.776C487.348 321.776 489.048 322.336 489.548 323.916H492.228C491.368 321.136 488.948 319.936 484.828 319.936C480.708 319.936 478.688 321.536 478.688 323.696C478.688 325.916 480.488 326.776 485.028 326.916C489.008 327.056 489.928 327.336 489.928 328.396C489.928 329.436 488.968 330.216 485.888 330.216C483.188 330.216 481.488 329.716 481.008 327.936H478.168C478.788 330.956 481.508 332.176 485.768 332.176Z" fill="#DBF1C1"/>
<path d="M975.455 174.578C969.417 174.578 964.469 179.276 964 185.245L970.16 187.816C970.683 187.455 971.312 187.246 971.991 187.246C972.052 187.246 972.113 187.248 972.172 187.252L974.912 183.243V183.186C974.912 180.774 976.857 178.813 979.246 178.813C981.637 178.813 983.58 180.776 983.58 183.186C983.58 185.599 981.635 187.561 979.246 187.561C979.213 187.561 979.181 187.561 979.148 187.559L975.242 190.372C975.244 190.424 975.246 190.477 975.246 190.528C975.246 192.339 973.786 193.812 971.993 193.812C970.419 193.812 969.101 192.678 968.803 191.175L964.395 189.339C965.76 194.207 970.192 197.777 975.453 197.777C981.801 197.777 986.947 192.584 986.947 186.179C986.949 179.772 981.803 174.578 975.455 174.578ZM971.202 192.177L969.79 191.587C970.04 192.114 970.472 192.554 971.048 192.795C972.291 193.317 973.723 192.724 974.24 191.469C974.49 190.861 974.492 190.193 974.244 189.583C973.995 188.974 973.526 188.5 972.926 188.246C972.328 187.995 971.687 188.005 971.125 188.218L972.585 188.828C973.502 189.212 973.934 190.276 973.553 191.199C973.173 192.126 972.119 192.562 971.202 192.177ZM982.136 183.188C982.136 181.58 980.84 180.273 979.248 180.273C977.656 180.273 976.36 181.58 976.36 183.188C976.36 184.796 977.656 186.102 979.248 186.102C980.84 186.102 982.136 184.794 982.136 183.188ZM977.082 183.182C977.082 181.973 978.055 180.993 979.252 180.993C980.452 180.993 981.422 181.973 981.422 183.182C981.422 184.391 980.45 185.372 979.252 185.372C978.055 185.372 977.082 184.391 977.082 183.182Z" fill="#B2D530"/>
<path d="M1036 190.161H1034.04V185.084L1032.12 190.161H1030.94L1029.02 185.084V190.161H1026.95V181.434H1029.39L1031.53 187.366L1033.68 181.434H1036V190.161Z" fill="#B2D530"/>
<path d="M1021.8 181.551H1020.29L1017.12 190.485H1018.97L1019.5 189.027H1022.41L1022.94 190.485H1024.97L1021.8 181.551ZM1020.03 187.569L1021.09 184.395L1022.14 187.569H1020.03Z" fill="#B2D530"/>
<path d="M1015.38 190.161H1009.57V181.434H1015.38V182.941H1011.42V185.005H1014.86V186.512H1011.42V188.654H1015.38V190.161Z" fill="#B2D530"/>
<path d="M1007.15 182.941H1005.04V190.161H1003.19V182.941H1000.81V181.434H1007.15V182.941Z" fill="#B2D530"/>
<path d="M999.15 187.595C999.15 189.394 997.564 190.213 995.976 190.238C994.39 190.238 993.332 189.867 992.802 189.074L993.859 187.989C994.388 188.465 994.916 188.729 995.974 188.729C997.031 188.729 997.56 188.358 997.56 187.644C997.56 186.983 997.031 186.691 996.502 186.587L995.445 186.455C993.859 186.244 993.066 185.423 993.066 183.995C993.066 183.202 993.33 182.567 993.859 182.064C994.388 181.588 995.181 181.35 995.974 181.35C997.295 181.35 998.088 181.693 998.883 182.354L997.826 183.439C997.297 183.042 996.769 182.831 995.976 182.831C995.183 182.884 994.654 183.174 994.654 183.942C994.654 184.549 995.183 184.841 995.711 184.894L996.769 185.052C998.092 185.216 999.15 186.115 999.15 187.595Z" fill="#B2D530"/>
<path d="M1030.48 103.754C1030.45 106.262 1032.76 107.66 1034.51 108.493C1036.3 109.346 1036.91 109.893 1036.9 110.657C1036.89 111.825 1035.47 112.341 1034.14 112.361C1031.83 112.396 1030.48 111.75 1029.41 111.261L1028.58 115.076C1029.65 115.56 1031.64 115.982 1033.7 116C1038.54 116 1041.7 113.665 1041.72 110.044C1041.74 105.449 1035.22 105.196 1035.26 103.142C1035.28 102.519 1035.89 101.854 1037.22 101.685C1037.88 101.599 1039.7 101.534 1041.76 102.464L1042.57 98.7727C1041.46 98.3787 1040.03 98 1038.26 98C1033.71 98 1030.5 100.367 1030.48 103.754ZM1050.35 98.3176C1049.47 98.3176 1048.72 98.8216 1048.39 99.5943L1041.48 115.728H1046.31L1047.27 113.129H1053.18L1053.74 115.728H1058L1054.28 98.3176H1050.35ZM1051.03 103.021L1052.42 109.559H1048.6L1051.03 103.021ZM1024.62 98.3176L1020.81 115.728H1025.41L1029.22 98.3176H1024.62ZM1017.8 98.3176L1013.01 110.168L1011.07 100.092C1010.84 98.9667 1009.95 98.3176 1008.95 98.3176H1001.11L1001 98.8231C1002.61 99.1652 1004.44 99.7149 1005.54 100.304C1006.22 100.665 1006.42 100.979 1006.64 101.835L1010.31 115.728H1015.18L1022.64 98.3176H1017.8Z" fill="#B2D530"/>
<path d="M1142.94 115.641C1139.11 118.483 1133.55 120.002 1128.76 120.002C1122.05 120.002 1116.01 117.505 1111.44 113.354C1111.08 113.027 1111.4 112.583 1111.83 112.838C1116.77 115.723 1122.87 117.46 1129.17 117.46C1133.42 117.46 1138.09 116.576 1142.39 114.741C1143.04 114.463 1143.58 115.167 1142.94 115.641Z" fill="#B2D530"/>
<path d="M1144.54 113.807C1144.05 113.178 1141.3 113.509 1140.06 113.656C1139.69 113.701 1139.63 113.372 1139.97 113.136C1142.16 111.585 1145.76 112.032 1146.18 112.552C1146.6 113.076 1146.07 116.702 1144.01 118.431C1143.69 118.696 1143.39 118.554 1143.53 118.202C1143.99 117.042 1145.03 114.44 1144.54 113.807Z" fill="#B2D530"/>
<path d="M1140.15 102.184V100.676C1140.15 100.447 1140.32 100.294 1140.53 100.294H1147.24C1147.46 100.294 1147.63 100.451 1147.63 100.676V101.967C1147.63 102.184 1147.45 102.467 1147.12 102.915L1143.65 107.91C1144.94 107.879 1146.31 108.072 1147.48 108.735C1147.74 108.886 1147.81 109.104 1147.83 109.323V110.932C1147.83 111.152 1147.59 111.408 1147.34 111.275C1145.27 110.186 1142.53 110.068 1140.25 111.286C1140.01 111.414 1139.77 111.159 1139.77 110.939V109.412C1139.77 109.166 1139.77 108.748 1140.02 108.375L1144.05 102.562H1140.54C1140.32 102.562 1140.15 102.409 1140.15 102.184Z" fill="#B2D530"/>
<path d="M1115.66 111.594H1113.61C1113.42 111.579 1113.26 111.432 1113.25 111.245V100.702C1113.25 100.491 1113.42 100.324 1113.64 100.324H1115.55C1115.75 100.333 1115.9 100.485 1115.92 100.676V102.055H1115.96C1116.45 100.722 1117.39 100.102 1118.65 100.102C1119.92 100.102 1120.72 100.724 1121.3 102.055C1121.79 100.724 1122.91 100.102 1124.12 100.102C1124.97 100.102 1125.91 100.456 1126.48 101.255C1127.13 102.142 1127 103.429 1127 104.56L1126.99 111.214C1126.99 111.425 1126.82 111.596 1126.6 111.596H1124.56C1124.36 111.581 1124.19 111.416 1124.19 111.214V105.624C1124.19 105.179 1124.23 104.069 1124.13 103.648C1123.98 102.94 1123.53 102.74 1122.93 102.74C1122.44 102.74 1121.92 103.073 1121.71 103.604C1121.5 104.135 1121.52 105.026 1121.52 105.624V111.212C1121.52 111.423 1121.35 111.594 1121.13 111.594H1119.09C1118.89 111.579 1118.72 111.414 1118.72 111.212L1118.72 105.624C1118.72 104.448 1118.91 102.718 1117.46 102.718C1115.99 102.718 1116.05 104.406 1116.05 105.624V111.212C1116.05 111.423 1115.88 111.594 1115.66 111.594Z" fill="#B2D530"/>
<path d="M1153.41 100.102C1156.44 100.102 1158.08 102.718 1158.08 106.048C1158.08 109.263 1156.27 111.814 1153.41 111.814C1150.43 111.814 1148.81 109.197 1148.81 105.935C1148.81 102.653 1150.45 100.102 1153.41 100.102ZM1153.43 102.253C1151.92 102.253 1151.83 104.315 1151.83 105.6C1151.83 106.89 1151.81 109.639 1153.41 109.639C1154.99 109.639 1155.07 107.421 1155.07 106.068C1155.07 105.179 1155.03 104.115 1154.77 103.271C1154.53 102.54 1154.08 102.253 1153.43 102.253Z" fill="#B2D530"/>
<path d="M1162.01 111.594H1159.98C1159.77 111.579 1159.61 111.414 1159.61 111.212L1159.61 100.667C1159.63 100.475 1159.79 100.324 1160 100.324H1161.9C1162.07 100.333 1162.22 100.453 1162.26 100.618V102.231H1162.3C1162.87 100.789 1163.67 100.102 1165.08 100.102C1166 100.102 1166.89 100.435 1167.47 101.344C1168 102.187 1168 103.606 1168 104.626V111.263C1167.98 111.448 1167.81 111.596 1167.61 111.596H1165.56C1165.37 111.581 1165.22 111.443 1165.2 111.263V105.535C1165.2 104.382 1165.33 102.695 1163.92 102.695C1163.42 102.695 1162.96 103.029 1162.74 103.538C1162.45 104.182 1162.41 104.824 1162.41 105.535V111.212C1162.41 111.423 1162.23 111.594 1162.01 111.594Z" fill="#B2D530"/>
<path d="M1138.43 109.661C1138.06 109.141 1137.66 108.719 1137.66 107.757V104.557C1137.66 103.202 1137.76 101.957 1136.77 101.024C1135.98 100.265 1134.68 100 1133.69 100C1131.75 100 1129.58 100.727 1129.12 103.144C1129.07 103.4 1129.26 103.537 1129.43 103.575L1131.41 103.789C1131.59 103.78 1131.73 103.599 1131.76 103.413C1131.93 102.58 1132.62 102.18 1133.4 102.18C1133.83 102.18 1134.3 102.337 1134.55 102.715C1134.84 103.137 1134.8 103.715 1134.8 104.202V104.468C1133.61 104.604 1132.07 104.69 1130.96 105.18C1129.68 105.735 1128.78 106.87 1128.78 108.537C1128.78 110.672 1130.12 111.737 1131.84 111.737C1133.29 111.737 1134.08 111.394 1135.2 110.245C1135.57 110.785 1135.7 111.048 1136.37 111.614C1136.53 111.694 1136.72 111.687 1136.86 111.565L1136.86 111.57C1137.27 111.206 1138.01 110.556 1138.43 110.206C1138.59 110.068 1138.56 109.846 1138.43 109.661ZM1134.42 108.737C1134.09 109.315 1133.57 109.67 1133 109.67C1132.22 109.67 1131.76 109.07 1131.76 108.183C1131.76 106.431 1133.32 106.113 1134.8 106.113V106.559C1134.8 107.359 1134.82 108.026 1134.42 108.737Z" fill="#B2D530"/>
<path d="M1111.66 109.661C1111.28 109.141 1110.89 108.719 1110.89 107.757V104.557C1110.89 103.202 1110.98 101.957 1109.99 101.024C1109.2 100.265 1107.9 100 1106.91 100C1104.97 100 1102.8 100.727 1102.34 103.144C1102.3 103.4 1102.48 103.537 1102.65 103.575L1104.63 103.789C1104.81 103.78 1104.95 103.599 1104.98 103.413C1105.15 102.58 1105.84 102.18 1106.62 102.18C1107.04 102.18 1107.52 102.337 1107.77 102.715C1108.05 103.137 1108.02 103.715 1108.02 104.202V104.468C1106.83 104.604 1105.29 104.69 1104.18 105.18C1102.9 105.735 1102 106.87 1102 108.537C1102 110.672 1103.34 111.737 1105.06 111.737C1106.51 111.737 1107.3 111.394 1108.42 110.245C1108.8 110.785 1108.92 111.048 1109.6 111.614C1109.75 111.694 1109.94 111.687 1110.08 111.565L1110.08 111.57C1110.49 111.206 1111.23 110.556 1111.65 110.206C1111.82 110.068 1111.79 109.846 1111.66 109.661ZM1107.64 108.737C1107.31 109.315 1106.8 109.67 1106.22 109.67C1105.44 109.67 1104.98 109.07 1104.98 108.183C1104.98 106.431 1106.54 106.113 1108.02 106.113V106.559C1108.02 107.359 1108.04 108.026 1107.64 108.737Z" fill="#B2D530"/>
<path d="M1138.51 184.236C1137.94 184.236 1137.5 184.715 1137.5 185.311C1137.5 185.907 1137.95 186.386 1138.51 186.386C1139.07 186.386 1139.52 185.907 1139.52 185.311C1139.52 184.715 1139.06 184.236 1138.51 184.236ZM1134.89 184.236C1134.32 184.236 1133.88 184.715 1133.88 185.311C1133.88 185.907 1134.33 186.386 1134.89 186.386C1135.45 186.386 1135.9 185.907 1135.9 185.311C1135.91 184.715 1135.45 184.236 1134.89 184.236Z" fill="#B2D530"/>
<path d="M1143.33 176.103H1130.03C1128.91 176.103 1128 177.002 1128 178.107V191.206C1128 192.31 1128.91 193.21 1130.03 193.21H1141.29L1140.76 191.421L1142.03 192.574L1143.23 193.66L1145.37 195.488V178.107C1145.36 177.002 1144.45 176.103 1143.33 176.103ZM1139.5 188.762C1139.5 188.762 1139.14 188.342 1138.85 187.98C1140.15 187.618 1140.64 186.826 1140.64 186.826C1140.23 187.09 1139.85 187.276 1139.5 187.403C1139 187.608 1138.53 187.735 1138.06 187.823C1137.11 187.999 1136.24 187.951 1135.49 187.814C1134.93 187.706 1134.44 187.56 1134.03 187.393C1133.8 187.305 1133.56 187.198 1133.31 187.061C1133.28 187.041 1133.25 187.032 1133.22 187.012C1133.2 187.002 1133.19 186.993 1133.18 186.993C1133 186.895 1132.9 186.826 1132.9 186.826C1132.9 186.826 1133.38 187.599 1134.64 187.97C1134.34 188.342 1133.97 188.772 1133.97 188.772C1131.78 188.703 1130.95 187.296 1130.95 187.296C1130.95 184.177 1132.38 181.645 1132.38 181.645C1133.8 180.599 1135.15 180.629 1135.15 180.629L1135.25 180.746C1133.47 181.245 1132.65 182.017 1132.65 182.017C1132.65 182.017 1132.87 181.899 1133.24 181.743C1134.3 181.284 1135.14 181.166 1135.49 181.127C1135.55 181.117 1135.6 181.108 1135.66 181.108C1136.27 181.029 1136.95 181.01 1137.66 181.088C1138.61 181.196 1139.62 181.469 1140.65 182.017C1140.65 182.017 1139.87 181.284 1138.18 180.785L1138.32 180.629C1138.32 180.629 1139.68 180.599 1141.1 181.645C1141.1 181.645 1142.53 184.177 1142.53 187.296C1142.53 187.286 1141.69 188.694 1139.5 188.762ZM1154.48 180.286H1151.19V183.933L1153.38 185.878V182.339H1154.55C1155.3 182.339 1155.66 182.691 1155.66 183.258V185.966C1155.66 186.533 1155.32 186.914 1154.55 186.914H1151.18V188.977H1154.47C1156.24 188.987 1157.9 188.117 1157.9 186.123V183.209C1157.91 181.176 1156.25 180.286 1154.48 180.286ZM1171.75 186.123V183.131C1171.75 182.056 1173.71 181.811 1174.31 182.887L1176.13 182.163C1175.41 180.619 1174.11 180.169 1173.03 180.169C1171.26 180.169 1169.52 181.176 1169.52 183.131V186.123C1169.52 188.097 1171.26 189.085 1172.99 189.085C1174.1 189.085 1175.43 188.547 1176.17 187.139L1174.22 186.259C1173.74 187.462 1171.75 187.169 1171.75 186.123ZM1165.75 183.542C1165.06 183.395 1164.61 183.151 1164.58 182.73C1164.62 181.724 1166.19 181.684 1167.12 182.652L1168.57 181.548C1167.66 180.453 1166.63 180.159 1165.57 180.159C1163.95 180.159 1162.38 181.059 1162.38 182.76C1162.38 184.412 1163.67 185.301 1165.09 185.516C1165.82 185.614 1166.62 185.898 1166.6 186.386C1166.54 187.315 1164.6 187.266 1163.71 186.211L1162.3 187.511C1163.13 188.557 1164.25 189.085 1165.3 189.085C1166.92 189.085 1168.71 188.166 1168.78 186.484C1168.88 184.363 1167.31 183.825 1165.75 183.542ZM1159.1 188.967H1161.32V180.286H1159.1V188.967ZM1196.58 180.286H1193.28V183.933L1195.48 185.878V182.339H1196.65C1197.39 182.339 1197.76 182.691 1197.76 183.258V185.966C1197.76 186.533 1197.41 186.914 1196.65 186.914H1193.27V188.977H1196.58C1198.34 188.987 1200 188.117 1200 186.123V183.209C1200 181.176 1198.34 180.286 1196.58 180.286ZM1180.41 180.169C1178.59 180.169 1176.77 181.147 1176.77 183.151V186.113C1176.77 188.097 1178.6 189.094 1180.43 189.094C1182.26 189.094 1184.07 188.097 1184.07 186.113V183.151C1184.07 181.157 1182.24 180.169 1180.41 180.169ZM1181.84 186.113C1181.84 186.738 1181.13 187.061 1180.42 187.061C1179.71 187.061 1178.99 186.758 1178.99 186.113V183.151C1178.99 182.515 1179.69 182.173 1180.38 182.173C1181.11 182.173 1181.84 182.476 1181.84 183.151V186.113ZM1192.05 183.151C1192 181.117 1190.59 180.296 1188.78 180.296H1185.25V188.977H1187.51V186.22H1187.9L1189.95 188.977H1192.73L1190.33 185.995C1191.39 185.663 1192.05 184.754 1192.05 183.151ZM1188.82 184.324H1187.51V182.339H1188.82C1190.22 182.339 1190.22 184.324 1188.82 184.324Z" fill="#B2D530"/>
<path d="M1105.65 260.853C1105.65 259.954 1106.23 259.312 1107.26 259.312C1108.03 259.312 1108.5 259.669 1108.5 260.282C1108.5 261.081 1108.02 261.566 1105.78 261.837C1105.69 261.524 1105.65 261.195 1105.65 260.853ZM1104.24 266.431C1102.87 266.431 1102.17 266.017 1102.17 265.204C1102.2 264.419 1102.7 263.906 1104.55 263.621C1104.92 264.262 1105.39 264.862 1105.91 265.375C1106.13 265.603 1106.36 265.817 1106.58 266.017C1105.81 266.274 1105.02 266.431 1104.24 266.431ZM1112 268.228C1112.95 268.228 1113.71 267.986 1114.12 267.586V265.504C1113.64 266.003 1113.05 266.374 1111.9 266.374C1111.26 266.374 1110.67 266.274 1110.09 266.074C1111.85 264.805 1113.47 263.007 1114.49 260.639H1112.25C1111.54 262.394 1110.11 264.034 1108.4 265.118C1108.06 264.847 1107.72 264.548 1107.36 264.191C1107.06 263.892 1106.79 263.592 1106.58 263.307C1109.4 262.779 1110.41 261.88 1110.41 260.297C1110.41 258.813 1109.29 257.615 1107.36 257.615C1105.32 257.615 1103.74 258.87 1103.74 260.996C1103.74 261.352 1103.79 261.737 1103.89 262.108C1101.08 262.551 1100.01 263.663 1100.01 265.461C1100.01 267.272 1101.6 268.257 1104.11 268.257C1105.26 268.257 1106.69 267.914 1108.12 267.23C1109.36 268.029 1110.46 268.228 1112 268.228ZM1121.65 265.432H1121.82L1125.72 261.138V268H1128.03V257.829H1125.94L1121.81 262.451L1117.86 257.829H1115.62V268H1117.93V261.181L1121.65 265.432ZM1135.89 268.285C1139.46 268.285 1141.98 266.573 1141.98 263.036V262.936C1141.98 259.484 1139.39 257.572 1135.88 257.572C1132.37 257.572 1129.81 259.541 1129.81 262.95V263.021C1129.81 266.673 1132.24 268.285 1135.89 268.285ZM1135.88 266.117C1133.62 266.117 1132.28 265.133 1132.28 263.007V262.993C1132.28 260.682 1133.62 259.726 1135.89 259.726C1138.13 259.726 1139.51 260.611 1139.51 263.007V263.021C1139.51 265.318 1138.13 266.117 1135.88 266.117ZM1149.09 259.854C1150.89 259.854 1151.7 260.04 1151.7 261.181V261.367C1151.7 262.579 1150.59 262.679 1149.01 262.679H1146.15V259.854H1149.09ZM1149.02 264.719C1150.95 264.719 1151.56 265.161 1151.56 266.688V267.315C1151.56 267.586 1151.59 267.9 1151.84 268H1154.34C1154.13 267.872 1154.1 267.586 1154.1 267.344V266.673C1154.1 264.876 1153.43 264.063 1151.94 263.735C1153.46 263.364 1154.17 262.565 1154.17 261.038C1154.17 258.813 1152.7 257.829 1149.12 257.829H1143.77V268H1146.15V264.719H1149.02ZM1166.02 265.917H1158.3V263.906H1164.58V261.894H1158.3V259.84H1165.72V257.829H1156V268H1166.02V265.917Z" fill="#B2D530"/>
<path d="M1002.34 263.251L1005.82 268.166H1003.36L999.88 263.251H1002.34ZM999.88 258.938V268.166H997.838V258.938H999.88Z" fill="#B2D530"/>
<path d="M1003.3 261.329H1005.66V258.938H1003.3V261.329Z" fill="#B2D530"/>
<path d="M1008.92 268.166H1010.96V258.937H1008.92V268.166ZM1021.43 264.879V258.937H1023.47V268.166H1021.43L1017.08 262.389V268.166H1015.03V258.937H1016.94L1021.42 264.879H1021.43ZM993.527 263.601C994.003 264.038 994.241 264.66 994.241 265.49C994.241 266.309 993.938 266.987 993.322 267.5C992.706 268.013 991.906 268.275 990.901 268.275C989.464 268.275 988.156 267.729 987 266.648L988.21 265.119C989.194 265.993 990.112 266.43 990.945 266.43C991.323 266.43 991.615 266.353 991.831 266.189C992.047 266.036 992.155 265.807 992.155 265.534C992.155 265.261 992.047 265.043 991.82 264.879C991.593 264.715 991.139 264.551 990.469 264.387C989.399 264.136 988.632 263.798 988.135 263.393C987.648 262.989 987.4 262.345 987.4 261.471C987.4 260.587 987.702 259.92 988.329 259.44C988.945 258.97 989.723 258.73 990.653 258.73C991.269 258.73 991.874 258.839 992.479 259.047C993.084 259.254 993.614 259.56 994.068 259.942L993.041 261.449C992.252 260.849 991.431 260.543 990.588 260.543C990.253 260.543 989.983 260.619 989.788 260.783C989.594 260.947 989.496 261.155 989.496 261.428C989.496 261.701 989.615 261.908 989.853 262.072C990.102 262.225 990.653 262.411 991.517 262.629C992.382 262.847 993.052 263.175 993.527 263.601ZM1041.37 268.341C1038.76 268.352 1036.64 266.222 1036.64 263.568C1036.63 260.903 1038.74 258.763 1041.37 258.763C1044.01 258.763 1046.11 260.903 1046.11 263.568C1046.11 266.211 1044 268.352 1041.37 268.341ZM1041.38 260.772C1039.87 260.772 1038.64 262.017 1038.63 263.546C1038.61 265.086 1039.86 266.364 1041.37 266.364C1042.88 266.364 1044.14 265.086 1044.13 263.546C1044.13 262.006 1042.89 260.761 1041.38 260.772ZM1066 260.761H1063.43V268.166H1061.39V260.761H1058.6V258.948H1066V260.761ZM1030.78 258.948H1027.53V268.166H1029.57V265.763H1030.9C1033.25 265.763 1034.68 264.486 1034.68 262.258C1034.68 260.15 1033.21 258.948 1030.78 258.948ZM1032.72 262.356C1032.72 263.055 1032.33 263.961 1030.75 263.961H1029.58V260.761H1030.63C1032.4 260.761 1032.72 261.657 1032.72 262.356ZM1002.35 263.251L1005.83 268.166H1003.36L999.882 263.251H1002.35ZM999.882 258.937V268.166H997.84V258.937H999.882ZM1054.24 268.166H1056.62L1054.58 265.283C1055.63 264.726 1056.21 263.688 1056.21 262.258C1056.21 260.15 1054.74 258.948 1052.32 258.948L1049.05 258.937V268.166H1051.1V265.763H1052.53L1054.24 268.166ZM1051.11 263.961V260.772H1052.16C1053.93 260.772 1054.25 261.679 1054.25 262.367C1054.25 263.055 1053.86 263.961 1052.27 263.961H1051.11Z" fill="#B2D530"/>
</svg>
