<svg width="64" height="64" viewBox="0 0 64 64" fill="none" xmlns="http://www.w3.org/2000/svg">
<path d="M11.4214 42.8531C11.0601 42.8531 10.7665 42.5595 10.7665 42.1982V19.3098H8.65492C8.29359 19.3098 8 19.0163 8 18.6549C8 18.2936 8.29359 18 8.65492 18H11.4214C11.7827 18 12.0763 18.2936 12.0763 18.6549V42.2095C12.0763 42.5595 11.7827 42.8531 11.4214 42.8531Z" fill="#B2D530"/>
<path d="M11.4213 26.0058H9.40004C9.0387 26.0058 8.74512 25.7122 8.74512 25.3508V22.4489C8.74512 22.0875 9.0387 21.7939 9.40004 21.7939H11.4213C11.7826 21.7939 12.0762 22.0875 12.0762 22.4489V25.3395C12.0762 25.7122 11.7826 26.0058 11.4213 26.0058ZM10.055 24.6959H10.7663V23.1151H10.055V24.6959Z" fill="#B2D530"/>
<path d="M11.3646 35.22H9.3434C8.98206 35.22 8.68848 34.9264 8.68848 34.565V27.6432C8.68848 27.2819 8.98206 26.9883 9.3434 26.9883H11.3646C11.726 26.9883 12.0195 27.2819 12.0195 27.6432V34.565C12.0195 34.9264 11.726 35.22 11.3646 35.22ZM9.99832 33.9101H10.7097V28.2981H9.99832V33.9101Z" fill="#B2D530"/>
<path d="M43.9069 38.5064C42.9697 38.5064 42.0212 38.3483 41.0953 38.0322C36.5899 36.4739 34.196 31.5394 35.7543 27.0453C37.3126 22.5512 42.247 20.1461 46.7411 21.7043C48.9205 22.4609 50.682 24.0191 51.6869 26.0968C52.6919 28.1745 52.8387 30.5119 52.0821 32.7025C50.84 36.2594 47.4864 38.5064 43.9069 38.5064ZM43.331 37.174C44.3699 37.253 45.4087 37.1062 46.3572 36.7675C45.0135 36.2142 43.9521 35.0737 43.5117 33.6397C43.2294 33.6058 42.9471 33.5493 42.6648 33.4477C42.5293 33.4025 42.4051 33.3461 42.2809 33.2896C42.1567 33.6623 42.1002 34.0462 42.1002 34.4301C42.1002 35.4576 42.5293 36.4626 43.331 37.174ZM38.7692 35.085C39.4806 35.7964 40.35 36.361 41.355 36.7336C40.9824 36.0222 40.7904 35.2318 40.7904 34.4301C40.7904 33.7752 40.9146 33.1203 41.1856 32.4992C40.892 32.1943 40.6436 31.833 40.4629 31.4378C39.3902 32.104 38.724 33.2783 38.724 34.543C38.724 34.7237 38.7466 34.9043 38.7692 35.085ZM44.8667 33.5268C45.3974 34.8705 46.6847 35.7851 48.1639 35.8303C48.9882 35.2431 49.6996 34.4753 50.2416 33.5719C48.8527 34.0123 47.3057 33.8316 46.0411 33.0073C45.6797 33.2445 45.2845 33.4251 44.8667 33.5268ZM36.6125 30.557C36.7141 31.5846 37.0303 32.5783 37.5384 33.4703C37.8546 32.0475 38.7918 30.8054 40.1242 30.1167C40.0903 29.6876 40.1355 29.2585 40.2484 28.8407C38.8256 28.6487 37.3803 29.3036 36.6125 30.557ZM47.0009 32.0588C48.2768 32.7363 49.8464 32.6121 51.0094 31.6975C51.2691 30.6812 51.3143 29.6424 51.1449 28.6374C50.3658 29.8682 49.056 30.7264 47.5654 30.9071C47.5429 30.9748 47.5316 31.0426 47.509 31.099C47.3735 31.4378 47.2154 31.7652 47.0009 32.0588ZM42.3825 31.8217C42.5971 31.9911 42.8455 32.1266 43.0939 32.2056C43.3875 32.3073 43.6924 32.3524 43.9973 32.3411C44.5844 32.3185 45.1377 32.0927 45.5668 31.6975C45.8717 31.4152 46.1088 31.0652 46.2443 30.6699C46.3008 30.5232 46.3346 30.3651 46.3572 30.1957C46.4363 29.6198 46.3121 29.0326 45.9959 28.5358C45.691 28.0503 45.2506 27.7002 44.7199 27.5196C44.6973 27.5083 44.6748 27.5083 44.6635 27.497C44.1102 27.3163 43.5117 27.3389 42.9697 27.5647C42.4277 27.7906 41.9873 28.1858 41.7163 28.7052C41.6486 28.8294 41.6034 28.9423 41.5582 29.0552C41.4115 29.4843 41.3889 29.9473 41.4792 30.3877C41.6034 30.9522 41.9309 31.4604 42.3825 31.8217ZM47.3735 28.3213C47.5542 28.7165 47.6558 29.1343 47.6897 29.5634C49.1011 29.2698 50.2303 28.1632 50.5239 26.7178C50.5126 26.6953 50.5013 26.684 50.5013 26.6614C50.0496 25.7355 49.4286 24.9338 48.6607 24.2788C48.6946 24.4934 48.7059 24.7192 48.7059 24.945C48.7059 26.1645 48.2542 27.3841 47.3735 28.3213ZM36.364 27.2486L36.9851 27.4631C36.8609 27.8131 36.7706 28.1745 36.7028 28.5358C37.8546 27.6438 39.3789 27.2937 40.8469 27.6325C41.0953 27.2824 41.4115 26.9888 41.7615 26.7404C40.8017 25.6564 39.2773 25.2386 37.8771 25.7016C37.5158 26.2323 37.2109 26.8195 36.9851 27.4631L36.364 27.2486ZM45.5781 26.4468C45.962 26.6388 46.3121 26.8872 46.6169 27.1921C47.1364 26.5372 47.3961 25.7355 47.3961 24.9337C47.3961 24.3353 47.2493 23.7368 46.9557 23.1948C46.7411 23.1045 46.5266 23.0142 46.3121 22.9351C45.5329 22.6641 44.7425 22.5399 43.9747 22.5286C44.9909 23.4545 45.5894 24.7757 45.5894 26.1871C45.5781 26.2775 45.5781 26.3678 45.5781 26.4468ZM39.2434 24.2111C40.7001 24.2788 42.089 24.9789 42.9923 26.1871C43.4101 26.0855 43.8392 26.0516 44.2683 26.0968C44.2231 24.6515 43.331 23.3529 41.9535 22.8109C40.9598 23.0706 40.0339 23.5562 39.2434 24.2111Z" fill="#B2D530"/>
<path d="M24.3842 38.5057C23.2663 38.5057 22.1484 38.2912 21.087 37.8508C18.9529 36.9701 17.293 35.3102 16.4009 33.1873C15.5089 31.0532 15.5089 28.7045 16.3896 26.5704C17.2704 24.4363 18.9303 22.7764 21.0531 21.8843C23.1873 20.9923 25.5359 20.9923 27.6701 21.873C29.8042 22.7538 31.4641 24.4137 32.3561 26.5365C33.2482 28.6706 33.2482 31.0193 32.3674 33.1535C31.4867 35.2876 29.8381 36.9475 27.7039 37.8395C26.6312 38.2799 25.5133 38.5057 24.3842 38.5057ZM24.0228 37.1846C25.0391 37.2411 26.0666 37.0717 27.0377 36.6878C25.6714 36.1684 24.5761 35.0618 24.0906 33.639C23.6615 33.6051 23.2437 33.5035 22.8485 33.3228C22.7469 33.6616 22.6904 34.0229 22.6904 34.373C22.7017 35.4344 23.1647 36.4732 24.0228 37.1846ZM19.3932 35.2424C20.0256 35.8296 20.7595 36.3039 21.5838 36.6426C21.7306 36.6991 21.8774 36.7555 22.0242 36.812C21.6064 36.0667 21.3919 35.2311 21.3919 34.3843C21.3919 33.7745 21.5048 33.1648 21.7306 32.5776C21.4257 32.2727 21.166 31.934 20.9741 31.5387C19.9465 32.2163 19.3368 33.368 19.3368 34.5875C19.3368 34.8021 19.3594 35.0279 19.3932 35.2424ZM25.4456 33.5035C26.0215 34.8246 27.3313 35.7054 28.7992 35.7054H28.8105C29.6348 35.0844 30.3123 34.2939 30.8092 33.3906C29.4316 33.8761 27.8846 33.7293 26.5974 32.9502C26.3602 33.1196 26.1118 33.2664 25.8408 33.368C25.7166 33.4132 25.5811 33.4696 25.4456 33.5035ZM17.6204 32.6792C17.7672 33.0293 17.9366 33.3567 18.1173 33.6729C18.3883 32.2388 19.2916 30.9629 20.6127 30.2402C20.5676 29.8111 20.6014 29.382 20.7031 28.9642C19.269 28.7949 17.8463 29.4949 17.1123 30.7822C17.1913 31.4258 17.3607 32.0582 17.6204 32.6792ZM27.5346 31.9678C28.8218 32.6115 30.4027 32.4421 31.5318 31.4936C31.769 30.4886 31.7803 29.4385 31.577 28.4335C30.8317 29.6869 29.5558 30.579 28.0653 30.8048C27.9524 31.2113 27.783 31.6065 27.5346 31.9678ZM22.9162 31.8662C23.3905 32.2163 23.9664 32.3743 24.5423 32.3405C24.8133 32.3179 25.0843 32.2614 25.3327 32.1598C25.615 32.0469 25.8747 31.8775 26.1005 31.6517C26.5183 31.2452 26.7893 30.7032 26.8571 30.1273C26.9022 29.7095 26.8458 29.2917 26.6764 28.9078C26.6199 28.761 26.5409 28.6142 26.4506 28.4787C26.1231 27.9931 25.6376 27.6431 25.0843 27.4737C24.5423 27.3156 23.9777 27.3495 23.447 27.5641C23.4244 27.5754 23.4018 27.5866 23.3905 27.5866C22.8598 27.8238 22.4194 28.2416 22.171 28.761C21.9113 29.2804 21.8435 29.8789 21.9903 30.4435C22.0242 30.5902 22.0581 30.7032 22.1032 30.8048C22.2613 31.2339 22.5549 31.5952 22.9162 31.8662ZM27.8056 28.219C27.8394 28.2754 27.862 28.3432 27.8846 28.3996C28.0201 28.7384 28.1104 29.0884 28.1556 29.4498C29.5558 29.111 30.6511 27.9706 30.9108 26.5139C30.4365 25.588 29.7816 24.775 28.9686 24.1314C29.0138 24.4024 29.0364 24.6621 29.0364 24.9331C29.0364 26.1187 28.6186 27.2931 27.8056 28.219ZM18.2189 25.8816C17.9818 26.2542 17.7785 26.6494 17.5978 27.0672C17.372 27.6092 17.2139 28.1738 17.1236 28.7497C18.2528 27.8238 19.7659 27.4286 21.2451 27.7221C21.4822 27.3721 21.7871 27.0559 22.1371 26.8075C21.1547 25.7461 19.6078 25.3735 18.2189 25.8816ZM25.9537 26.401C26.3489 26.5817 26.7103 26.8188 27.0151 27.1124C27.4894 26.4688 27.7378 25.7122 27.7378 24.9331C27.7378 24.3008 27.5797 23.6684 27.241 23.0925C27.2184 23.0812 27.2071 23.0812 27.1845 23.07C26.236 22.6747 25.2311 22.4941 24.2261 22.5167C25.3101 23.4426 25.9537 24.8089 25.9537 26.2768C25.9537 26.322 25.9537 26.3671 25.9537 26.401ZM19.54 24.3459C20.9967 24.3685 22.4081 25.0234 23.3566 26.2091C23.7744 26.0961 24.2035 26.051 24.6326 26.0736C24.5423 24.6282 23.6163 23.3522 22.2275 22.8554C22.0016 22.9232 21.7871 23.0022 21.5725 23.0925C20.816 23.4087 20.1385 23.8265 19.54 24.3459Z" fill="#B2D530"/>
<path d="M23.9551 42.9999H21.1774C20.816 42.9999 20.5225 42.7063 20.5225 42.345V40.527C20.5225 40.1657 20.816 39.8721 21.1774 39.8721C21.5387 39.8721 21.8323 40.1657 21.8323 40.527V41.69H23.3002V40.527C23.3002 40.1657 23.5938 39.8721 23.9551 39.8721C24.3165 39.8721 24.6101 40.1657 24.6101 40.527V42.345C24.6101 42.7063 24.3165 42.9999 23.9551 42.9999Z" fill="#B2D530"/>
<path d="M40.3281 42.9999H26.236C25.8746 42.9999 25.5811 42.7063 25.5811 42.345V40.527C25.5811 40.1657 25.8746 39.8721 26.236 39.8721C26.5973 39.8721 26.8909 40.1657 26.8909 40.527V41.69H39.6731V40.527C39.6731 40.1657 39.9667 39.8721 40.3281 39.8721C40.6894 39.8721 40.983 40.1657 40.983 40.527V42.345C40.983 42.7063 40.6894 42.9999 40.3281 42.9999Z" fill="#B2D530"/>
<path d="M36.2521 22.8668H32.0516C31.8935 22.8668 31.7354 22.8103 31.6112 22.6974L28.6076 20.0326C28.3366 19.7954 28.314 19.3776 28.5512 19.1066C28.7883 18.8356 29.2061 18.8131 29.4771 19.0502L32.2887 21.5457H35.9811L38.7928 19.0502C39.0638 18.8131 39.4816 18.8356 39.7187 19.1066C39.9558 19.3776 39.9332 19.7954 39.6622 20.0326L36.6586 22.6974C36.557 22.8103 36.4102 22.8668 36.2521 22.8668Z" fill="#B2D530"/>
<path d="M29.0465 41.002C28.8658 41.002 28.6851 40.923 28.5609 40.7875C28.3238 40.5165 28.3464 40.0987 28.6174 39.8616L31.621 37.1967C31.7452 37.0951 31.892 37.0273 32.0614 37.0273H36.2619C36.42 37.0273 36.5781 37.0838 36.7023 37.1967L39.7059 39.8616C39.9769 40.0987 39.9995 40.5165 39.7623 40.7875C39.5252 41.0585 39.1074 41.0811 38.8364 40.8439L36.0248 38.3372H32.3324L29.5207 40.8439C29.3626 40.9456 29.2046 41.002 29.0465 41.002Z" fill="#B2D530"/>
<path d="M54.8834 24.5832C54.7817 24.5832 54.6688 24.5606 54.5672 24.5041L46.4936 20.123C46.1774 19.9536 46.0532 19.5471 46.2339 19.2309C46.4033 18.9147 46.8098 18.7905 47.1259 18.9712L55.1995 23.3524C55.5157 23.5218 55.6399 23.9283 55.4592 24.2444C55.3463 24.459 55.1205 24.5832 54.8834 24.5832Z" fill="#B2D530"/>
<path d="M46.8106 41.001C46.5735 41.001 46.3477 40.8768 46.2348 40.6623C46.0654 40.3461 46.1783 39.9509 46.4945 39.7702L54.568 35.389C54.8842 35.2197 55.2794 35.3326 55.4601 35.6488C55.6295 35.9649 55.5166 36.3601 55.2004 36.5408L47.1268 40.922C47.0252 40.9785 46.9123 41.001 46.8106 41.001Z" fill="#B2D530"/>
<path d="M52.9627 41.0018H15.2596C14.9999 41.0018 14.7628 40.8437 14.6612 40.6066L12.7303 36.2254C12.6964 36.1463 12.6738 36.056 12.6738 35.9657V23.9287C12.6738 23.8384 12.6964 23.748 12.7303 23.669L14.6612 19.2878C14.7628 19.0507 14.9999 18.8926 15.2596 18.8926H52.9514C53.2111 18.8926 53.4483 19.0507 53.5499 19.2878L55.4808 23.669C55.5146 23.748 55.5372 23.8384 55.5372 23.9287V35.9544C55.5372 36.0447 55.5146 36.135 55.4808 36.2141L53.5612 40.6066C53.4483 40.8437 53.2224 41.0018 52.9627 41.0018ZM15.6887 39.6919H52.5223L54.2161 35.8189V24.0755L52.5223 20.2024H15.6887L13.995 24.0755V35.8302L15.6887 39.6919Z" fill="#B2D530"/>
<path d="M13.3399 24.5831C13.1028 24.5831 12.877 24.4589 12.764 24.2443C12.5947 23.9281 12.7076 23.5329 13.0238 23.3523L21.0973 18.9711C21.4135 18.8017 21.8087 18.9146 21.9894 19.2308C22.1588 19.547 22.0458 19.9422 21.7297 20.1228L13.6561 24.504C13.5545 24.5605 13.4416 24.5831 13.3399 24.5831Z" fill="#B2D530"/>
<path d="M21.4146 41.0017C21.313 41.0017 21.2001 40.9791 21.0984 40.9227L13.0249 36.5302C12.7087 36.3608 12.5845 35.9656 12.7651 35.6381C12.9345 35.322 13.3297 35.1978 13.6572 35.3784L21.7308 39.7596C22.0469 39.929 22.1712 40.3242 21.9905 40.6517C21.8776 40.8775 21.6517 41.0017 21.4146 41.0017Z" fill="#B2D530"/>
<path d="M14.7196 21.5569H11.445C11.0836 21.5569 10.79 21.2633 10.79 20.902C10.79 20.5407 11.0836 20.2471 11.445 20.2471H14.7196C15.0809 20.2471 15.3745 20.5407 15.3745 20.902C15.3745 21.2633 15.0809 21.5569 14.7196 21.5569Z" fill="#B2D530"/>
<path d="M14.2679 38.8333H11.445C11.0836 38.8333 10.79 38.5397 10.79 38.1784C10.79 37.817 11.0836 37.5234 11.445 37.5234H14.2679C14.6292 37.5234 14.9228 37.817 14.9228 38.1784C14.9228 38.5397 14.6292 38.8333 14.2679 38.8333Z" fill="#B2D530"/>
</svg>
