<svg width="663" height="227" viewBox="0 0 663 227" fill="none" xmlns="http://www.w3.org/2000/svg">
<path d="M1.0651 164.223V35.7767L114.906 100L1.0651 164.223Z" stroke="#53A626" stroke-width="2.1302"/>
<path d="M172.065 165.203V34.7974L284.943 100L172.065 165.203Z" stroke="#53A626" stroke-width="2.1302"/>
<path d="M342.065 165.203V34.7974L454.943 100L342.065 165.203Z" stroke="#53A626" stroke-width="2.1302"/>
<path d="M170 100L113 100" stroke="#53A626" stroke-width="1.0651" stroke-dasharray="5.33 5.33"/>
<path d="M341 100L284 100" stroke="#53A626" stroke-width="1.0651" stroke-dasharray="5.33 5.33"/>
<path d="M513 100L455 100" stroke="#53A626" stroke-width="1.0651" stroke-dasharray="5.33 5.33"/>
<path d="M511.984 57.9132L581.5 18.0244L651.016 57.9132V137.68L581.5 177.568L511.984 137.68V57.9132Z" stroke="#53A626" stroke-width="2.1302"/>
<path d="M550.842 124.896H585.66C586.327 124.896 586.981 124.71 587.548 124.359C588.116 124.009 588.574 123.507 588.873 122.91C589.171 122.313 589.297 121.645 589.238 120.981C589.178 120.317 588.934 119.682 588.534 119.148L585.936 115.685V98.3683C585.93 94.5127 584.665 90.7647 582.333 87.6938C580.002 84.623 576.731 82.3974 573.019 81.3552L576.983 73.44C577.103 73.1991 577.132 72.9224 577.062 72.6621C576.993 72.4018 576.831 72.1757 576.607 72.0263L575.502 71.288C574.668 70.7338 573.702 70.4092 572.703 70.3471C571.703 70.285 570.705 70.4876 569.808 70.9343C569.327 71.1745 568.796 71.2995 568.257 71.2995C567.719 71.2995 567.188 71.1745 566.706 70.9343C565.81 70.4878 564.812 70.2854 563.812 70.3475C562.813 70.4096 561.847 70.734 561.013 71.288L559.908 72.0263C559.684 72.1757 559.522 72.4018 559.453 72.6621C559.384 72.9224 559.412 73.1991 559.532 73.44L563.49 81.3552C559.777 82.396 556.505 84.621 554.172 87.692C551.839 90.7629 550.573 94.5117 550.566 98.3683V115.685L547.968 119.148C547.568 119.682 547.324 120.317 547.265 120.981C547.205 121.645 547.331 122.313 547.629 122.91C547.928 123.507 548.386 124.009 548.954 124.359C549.521 124.71 550.175 124.896 550.842 124.896ZM561.939 73.324L562.234 73.1283C562.743 72.7895 563.332 72.5906 563.942 72.5518C564.552 72.513 565.162 72.6356 565.71 72.9073C566.5 73.3003 567.37 73.5049 568.252 73.5049C569.134 73.5049 570.005 73.3003 570.794 72.9073C571.342 72.6345 571.952 72.5113 572.563 72.5501C573.173 72.589 573.763 72.7884 574.272 73.1283L574.567 73.324L570.782 80.8854C569.944 80.7575 569.099 80.6899 568.251 80.6832C567.404 80.6899 566.558 80.7575 565.72 80.8854L561.939 73.324ZM549.737 120.475L552.556 116.717C552.699 116.525 552.777 116.293 552.777 116.053V98.3683C552.777 94.2642 554.407 90.3282 557.309 87.4262C560.211 84.5241 564.147 82.8938 568.251 82.8938C572.355 82.8938 576.291 84.5241 579.193 87.4262C582.095 90.3282 583.725 94.2642 583.725 98.3683V116.053C583.725 116.293 583.803 116.525 583.947 116.717L586.765 120.475C586.919 120.68 587.013 120.924 587.036 121.18C587.059 121.435 587.01 121.692 586.896 121.922C586.781 122.151 586.604 122.344 586.386 122.479C586.168 122.614 585.916 122.685 585.66 122.685H550.842C550.586 122.685 550.334 122.614 550.116 122.479C549.898 122.344 549.721 122.151 549.607 121.922C549.492 121.692 549.443 121.435 549.466 121.18C549.489 120.924 549.583 120.68 549.737 120.475Z" fill="#B2D530"/>
<path d="M612.464 96.1576H609.148V90.631C609.148 90.3378 609.031 90.0567 608.824 89.8494C608.617 89.6421 608.336 89.5256 608.042 89.5256H605.438C607.042 88.2346 608.205 86.4778 608.768 84.4976C609.331 82.5174 609.266 80.4112 608.582 78.4696C607.897 76.528 606.627 74.8466 604.947 73.6572C603.267 72.4678 601.259 71.8291 599.2 71.8291C597.141 71.8291 595.133 72.4678 593.453 73.6572C591.772 74.8466 590.502 76.528 589.818 78.4696C589.133 80.4112 589.068 82.5174 589.631 84.4976C590.194 86.4778 591.358 88.2346 592.961 89.5256H590.357C590.064 89.5256 589.783 89.6421 589.576 89.8494C589.368 90.0567 589.252 90.3378 589.252 90.631V97.2629C589.252 97.556 589.368 97.8372 589.576 98.0445C589.783 98.2517 590.064 98.3682 590.357 98.3682H593.673V102.789H590.357C590.064 102.789 589.783 102.906 589.576 103.113C589.368 103.32 589.252 103.602 589.252 103.895V110.527C589.252 110.82 589.368 111.101 589.576 111.308C589.783 111.516 590.064 111.632 590.357 111.632H593.673V123.791C593.673 124.084 593.79 124.365 593.997 124.572C594.204 124.779 594.485 124.896 594.779 124.896H612.464C612.757 124.896 613.038 124.779 613.245 124.572C613.453 124.365 613.569 124.084 613.569 123.791V110.527C613.569 110.234 613.453 109.952 613.245 109.745C613.038 109.538 612.757 109.421 612.464 109.421H609.148V105H612.464C612.757 105 613.038 104.884 613.245 104.676C613.453 104.469 613.569 104.188 613.569 103.895V97.2629C613.569 96.9697 613.453 96.6886 613.245 96.4813C613.038 96.274 612.757 96.1576 612.464 96.1576ZM591.463 81.7884C591.463 80.2581 591.916 78.7622 592.767 77.4899C593.617 76.2175 594.825 75.2258 596.239 74.6402C597.653 74.0545 599.208 73.9013 600.709 74.1999C602.21 74.4984 603.589 75.2353 604.671 76.3174C605.753 77.3994 606.49 78.7781 606.788 80.279C607.087 81.7798 606.934 83.3355 606.348 84.7493C605.762 86.1631 604.771 87.3715 603.498 88.2217C602.226 89.0719 600.73 89.5256 599.2 89.5256C597.148 89.5233 595.182 88.7074 593.731 87.2569C592.281 85.8064 591.465 83.8397 591.463 81.7884ZM591.463 91.7363H606.937V96.1576H604.726V93.9469H602.516V96.1576H600.305V93.9469H598.094V96.1576H595.884V93.9469H593.673V96.1576H591.463V91.7363ZM611.358 122.685H609.148V120.475H606.937V122.685H604.726V120.475H602.516V122.685H600.305V120.475H598.094V122.685H595.884V118.264H611.358V122.685ZM611.358 116.053H609.148V113.843H606.937V116.053H604.726V113.843H602.516V116.053H600.305V113.843H598.094V116.053H595.884V111.632H611.358V116.053ZM606.937 109.421H604.726V107.211H602.516V109.421H600.305V107.211H598.094V109.421H595.884V107.211H593.673V109.421H591.463V105H606.937V109.421ZM611.358 102.789H609.148V100.579H606.937V102.789H604.726V100.579H602.516V102.789H600.305V100.579H598.094V102.789H595.884V98.3682H611.358V102.789Z" fill="#B2D530"/>
<path d="M599.199 76.262C597.734 76.2637 596.33 76.8465 595.293 77.8826C594.257 78.9187 593.675 80.3233 593.673 81.7886H595.883C595.883 80.9091 596.233 80.0657 596.855 79.4438C597.477 78.822 598.32 78.4726 599.199 78.4726V76.262Z" fill="#B2D530"/>
<path d="M602.515 81.7883C602.515 82.6678 602.166 83.5112 601.544 84.1331C600.922 84.7549 600.079 85.1043 599.199 85.1043V87.3149C600.664 87.3132 602.069 86.7303 603.105 85.6943C604.141 84.6582 604.724 83.2535 604.726 81.7883H602.515Z" fill="#B2D530"/>
<path d="M566.934 110.527H567.146V112.737H569.357V110.527H569.569C570.594 110.524 571.584 110.148 572.351 109.467C573.119 108.787 573.611 107.85 573.737 106.832C573.862 105.814 573.611 104.786 573.032 103.94C572.453 103.093 571.584 102.488 570.59 102.237L566.45 101.202C565.974 101.086 565.558 100.799 565.281 100.396C565.003 99.9937 564.882 99.503 564.942 99.0175C565.001 98.5319 565.237 98.085 565.604 97.7617C565.971 97.4383 566.444 97.2608 566.934 97.2628H569.569C570.099 97.2634 570.607 97.4741 570.981 97.8488C571.356 98.2234 571.567 98.7314 571.567 99.2612V99.4735H573.778V99.2612C573.777 98.1453 573.333 97.0754 572.544 96.2863C571.755 95.4972 570.685 95.0534 569.569 95.0522H569.357V92.8416H567.146V95.0522H566.934C565.908 95.0545 564.919 95.4312 564.151 96.1115C563.384 96.7917 562.891 97.7287 562.766 98.7466C562.64 99.7644 562.891 100.793 563.47 101.639C564.05 102.485 564.918 103.091 565.912 103.342L570.053 104.377C570.528 104.493 570.944 104.78 571.222 105.183C571.5 105.585 571.62 106.076 571.561 106.561C571.501 107.047 571.265 107.494 570.898 107.817C570.531 108.141 570.058 108.318 569.569 108.316H566.934C566.404 108.315 565.896 108.105 565.521 107.73C565.147 107.355 564.936 106.847 564.935 106.318V106.105H562.725V106.318C562.726 107.434 563.17 108.503 563.959 109.293C564.748 110.082 565.818 110.525 566.934 110.527Z" fill="#B2D530"/>
<path d="M584.815 63.921C584.771 63.6635 584.638 63.4297 584.438 63.2611C584.239 63.0925 583.986 63 583.725 63C583.464 63 583.211 63.0925 583.011 63.2611C582.812 63.4297 582.679 63.6635 582.635 63.921C582.488 64.7998 582.071 65.6109 581.441 66.2408C580.811 66.8708 580 67.2883 579.121 67.4348C578.864 67.4784 578.63 67.6117 578.461 67.8112C578.293 68.0107 578.2 68.2635 578.2 68.5247C578.2 68.7859 578.293 69.0386 578.461 69.2381C578.63 69.4376 578.864 69.571 579.121 69.6145C580 69.7611 580.811 70.1785 581.441 70.8085C582.071 71.4385 582.488 72.2495 582.635 73.1283C582.679 73.3858 582.812 73.6196 583.011 73.7882C583.211 73.9568 583.464 74.0493 583.725 74.0493C583.986 74.0493 584.239 73.9568 584.438 73.7882C584.638 73.6196 584.771 73.3858 584.815 73.1283C584.961 72.2495 585.379 71.4385 586.009 70.8085C586.639 70.1785 587.45 69.7611 588.329 69.6145C588.586 69.571 588.82 69.4376 588.988 69.2381C589.157 69.0386 589.25 68.7859 589.25 68.5247C589.25 68.2635 589.157 68.0107 588.988 67.8112C588.82 67.6117 588.586 67.4784 588.329 67.4348C587.45 67.2883 586.639 66.8708 586.009 66.2408C585.379 65.6109 584.961 64.7998 584.815 63.921ZM583.725 70.1031C583.294 69.4897 582.76 68.9557 582.146 68.5247C582.76 68.0937 583.294 67.5596 583.725 66.9463C584.156 67.5596 584.69 68.0937 585.303 68.5247C584.69 68.9557 584.156 69.4897 583.725 70.1031Z" fill="#B2D530"/>
<path d="M387.58 93.9046L383.282 91.2249L361.269 127.237L365.567 129.917L387.58 93.9046Z" stroke="#B2D530" stroke-width="2.13019" stroke-miterlimit="10" stroke-linecap="round" stroke-linejoin="round"/>
<path d="M393.685 83.882L389.379 81.219L387.572 84.1317L391.879 86.7947L393.685 83.882Z" stroke="#B2D530" stroke-width="2.13019" stroke-miterlimit="10" stroke-linecap="round" stroke-linejoin="round"/>
<path d="M394.96 88.7363L384.533 82.2893L380.194 89.2854L390.62 95.7324L394.96 88.7363Z" stroke="#B2D530" stroke-width="2.13019" stroke-miterlimit="10" stroke-linecap="round" stroke-linejoin="round"/>
<path d="M381.008 88.1102C374.339 84.5175 367.719 81.9843 361.705 80.5653C368 79.0965 375.924 80.138 383.759 83.6945" stroke="#B2D530" stroke-width="2.1302" stroke-miterlimit="10" stroke-linecap="round" stroke-linejoin="round"/>
<path d="M394.318 89.7534C401.448 95.3744 406.196 102.343 407.702 108.909C403.59 103.885 398.078 98.8165 391.51 94.1915" stroke="#B2D530" stroke-width="2.1302" stroke-miterlimit="10" stroke-linecap="round" stroke-linejoin="round"/>
<path d="M174.36 197.52H179.36C183.94 197.54 186.24 195.88 186.24 192.7C186.24 189.34 184.18 187.78 179.08 187.78H171.92V202H174.36V197.52ZM174.36 189.88H179.08C182.28 189.88 183.76 190.46 183.76 192.68C183.76 194.7 182.38 195.42 179.24 195.42H174.36V189.88ZM188.77 202H191.29V198.16C191.29 194.54 192.51 192.94 196.37 192.94H197.69V190.5H196.45C193.51 190.5 191.87 191.92 191.23 194.14L190.93 190.58H188.77V202ZM213.77 198.76H211.01C210.31 199.88 208.97 200.42 206.55 200.42C203.29 200.42 201.63 199.34 201.31 197.2H213.97V196.2C213.97 192.46 211.21 190.14 206.55 190.14C201.77 190.14 198.95 192.78 198.95 196.44C198.95 200.08 201.17 202.38 206.35 202.38C209.97 202.38 212.55 201.42 213.77 198.76ZM206.61 192.08C209.55 192.08 211.21 193.14 211.53 195.38H201.35C201.77 193.22 203.65 192.08 206.61 192.08ZM224.642 202.34C228.422 202.34 231.542 200.34 231.542 196.34C231.542 192.36 228.862 190.16 224.762 190.16C222.082 190.16 219.982 191.18 218.922 192.98L218.722 190.58H216.582V206.08H219.022V199.9C219.982 201.48 221.862 202.34 224.642 202.34ZM223.922 200.32C220.702 200.32 218.922 198.96 218.922 196.34C218.922 193.78 220.882 192.16 224.002 192.16C227.162 192.16 229.022 193.64 229.022 196.34C229.022 198.94 227.362 200.32 223.922 200.32ZM242.318 202.34C246.098 202.34 249.218 200.34 249.218 196.34C249.218 192.36 246.538 190.16 242.438 190.16C239.758 190.16 237.658 191.18 236.598 192.98L236.398 190.58H234.258V206.08H236.698V199.9C237.658 201.48 239.538 202.34 242.318 202.34ZM241.598 200.32C238.378 200.32 236.598 198.96 236.598 196.34C236.598 193.78 238.558 192.16 241.678 192.16C244.838 192.16 246.698 193.64 246.698 196.34C246.698 198.94 245.038 200.32 241.598 200.32ZM253.255 188.66C254.355 188.66 254.895 188.14 254.895 187.06C254.895 185.92 254.315 185.48 253.235 185.48C252.175 185.48 251.595 185.92 251.595 187.06C251.595 188.22 252.075 188.66 253.255 188.66ZM251.915 202H254.475V190.58H251.915V202ZM260.372 202V196.96C260.372 193.86 262.032 192.16 265.072 192.16C268.132 192.16 269.272 193.86 269.272 196.44V202H271.772V195.9C271.772 192.46 269.712 190.14 265.832 190.14C263.092 190.14 261.132 191.44 260.252 193.46L260.032 190.58H257.852V202H260.372ZM280.699 207.24H281.459C286.939 207.24 288.999 205.68 288.999 203.28V203.22C288.999 200.84 287.239 199.92 283.419 199.92H279.619C277.119 199.94 276.359 199.58 276.359 199C276.359 198.26 277.139 197.8 280.239 197.8H281.639C285.979 197.8 288.259 196.72 288.259 194.16C288.259 191.98 286.739 190.88 283.699 190.66C287.499 190.6 288.199 190.3 288.199 187.8V187.68H285.499V187.82C285.499 189.8 284.759 190.24 282.019 190.28C281.419 190.3 280.719 190.3 280.319 190.38C276.499 190.48 274.519 191.92 274.519 194.14C274.519 196.1 275.779 197 278.159 197.32C275.379 197.44 274.199 198.44 274.199 199.74C274.199 201.16 275.359 201.7 277.659 201.78C275.159 202.04 273.899 202.82 273.899 204.38C273.899 206.22 275.679 207.24 280.699 207.24ZM281.399 196.12C278.539 196.12 276.979 195.7 276.979 194.16C276.979 192.86 277.979 192.2 280.339 192.1C280.739 192.02 281.259 192.02 281.579 192.02C284.619 192.02 285.859 192.7 285.859 194.14C285.859 195.6 284.399 196.12 281.399 196.12ZM281.719 205.26H281.079C277.779 205.26 276.419 204.72 276.419 203.56C276.419 202.28 277.799 201.8 280.039 201.78H283.139C285.959 201.78 286.679 202.28 286.679 203.32V203.38C286.679 204.46 285.659 205.26 281.719 205.26Z" fill="#DBF1C1"/>
<path d="M76 12.1564H73.34C72.92 14.3964 71.24 15.9364 67.66 15.9364C63.82 15.9364 61.68 14.2164 61.68 10.8364V10.8164C61.68 7.23639 64.04 5.49639 67.8 5.49639C70.94 5.49639 72.78 6.73639 73.28 8.89639H75.92C75.14 5.11639 71.98 3.25639 67.78 3.25639C62.72 3.25639 59.12 6.09639 59.12 10.7964V10.8564C59.12 15.8364 62.34 18.1764 67.52 18.1764C72.66 18.1764 75.36 15.7764 76 12.1564ZM78.6067 17.7964H81.1067V2.63639H78.6067V17.7964ZM85.7866 4.45639C86.8866 4.45639 87.4266 3.93639 87.4266 2.85639C87.4266 1.71639 86.8466 1.27639 85.7666 1.27639C84.7066 1.27639 84.1266 1.71639 84.1266 2.85639C84.1266 4.01639 84.6066 4.45639 85.7866 4.45639ZM84.4466 17.7964H87.0066V6.37639H84.4466V17.7964ZM104.804 12.9364H102.144C101.684 15.0764 100.144 16.0964 97.3241 16.0964C93.9441 16.0964 92.2441 14.7964 92.2441 12.1364C92.2441 9.33639 94.2241 7.95639 97.3241 7.95639C100.044 7.95639 101.704 9.01639 102.124 11.1164H104.804C104.284 7.79639 101.584 5.93639 97.3041 5.93639C92.8441 5.93639 89.7041 8.21639 89.7041 12.1364C89.7041 15.9364 91.9841 18.1764 97.2441 18.1764C101.744 18.1764 104.364 16.2564 104.804 12.9364ZM113.896 12.1764L118.656 17.7964H121.676L115.796 10.8964L121.356 6.37639H117.956L109.796 13.0764V2.63639H107.376V17.7964H109.796V15.4164L113.896 12.1764ZM66.98 38.1964C71.9 38.1964 74.16 36.4964 74.16 33.6164C74.16 30.7164 71.88 29.8364 66.84 29.5564C62.72 29.3364 61.68 28.9364 61.68 27.5564C61.68 26.1364 62.94 25.3564 66.04 25.3564C69.18 25.3564 71.12 26.0764 71.48 28.0964H74.1C73.52 24.8164 70.88 23.2564 66.08 23.2564C61.5 23.2564 59.2 24.9764 59.2 27.6164C59.2 30.4964 61.34 31.3564 65.74 31.6364C70.16 31.8964 71.68 32.0364 71.68 33.7964C71.68 35.2764 70.28 36.0364 67.04 36.0364C63.5 36.0364 61.6 35.2364 61.16 32.7764H58.5C59.08 36.5164 61.4 38.1964 66.98 38.1964ZM86.3944 37.7964V35.6164H84.8144C82.0544 35.6164 81.3744 35.1164 81.3744 31.9964V28.4964H86.3944V26.3764H81.3744V23.1964H79.3144C79.3144 23.8964 79.2944 24.7564 79.1544 25.3764C78.9944 26.1364 78.8144 26.3364 77.9144 26.4364C77.5144 26.4764 76.3944 26.4964 75.9144 26.4964V28.4964H79.0144V32.3764C79.0144 36.4364 80.2744 37.7964 84.2144 37.7964H86.3944ZM100.154 34.6564L100.394 37.7964H102.434V30.2764C102.434 27.2364 100.334 25.9364 95.9341 25.9364C91.5141 25.9364 89.0741 27.3364 88.6941 30.4364H91.2541C91.4941 28.6164 92.7741 27.7764 96.1341 27.7764C99.1341 27.7764 100.054 28.7764 100.054 29.7164V29.7364C100.054 30.7164 99.1341 30.8964 96.1941 31.0764C92.5341 31.2964 91.1541 31.6164 90.0541 32.2564C88.9541 32.8564 88.4341 33.7764 88.4341 34.9764V34.9964C88.4341 37.0564 89.9341 38.1764 93.1741 38.1764C96.8941 38.1764 99.1941 36.6364 100.154 34.6564ZM93.8541 36.3764C91.8141 36.3764 91.0741 35.7564 91.0741 34.7964V34.7764C91.0741 34.1964 91.3141 33.7764 91.8741 33.4364C92.5741 32.9964 93.7941 32.7564 96.4141 32.6164C98.7341 32.4764 99.7141 32.1964 100.094 31.6764V32.1564C100.094 34.1564 97.6341 36.3764 93.8541 36.3764ZM105.657 37.7964H108.177V33.9564C108.177 30.3364 109.397 28.7364 113.257 28.7364H114.577V26.2964H113.337C110.397 26.2964 108.757 27.7164 108.117 29.9364L107.817 26.3764H105.657V37.7964ZM126.961 37.7964V35.6164H125.381C122.621 35.6164 121.941 35.1164 121.941 31.9964V28.4964H126.961V26.3764H121.941V23.1964H119.881C119.881 23.8964 119.861 24.7564 119.721 25.3764C119.561 26.1364 119.381 26.3364 118.481 26.4364C118.081 26.4764 116.961 26.4964 116.481 26.4964V28.4964H119.581V32.3764C119.581 36.4364 120.841 37.7964 124.781 37.7964H126.961Z" fill="#DBF1C1"/>
<path d="M491.72 186V183.82H480.3V180H489.62V177.92H480.3V173.88H491.32V171.78H477.92V186H491.72ZM505.42 182.86L505.66 186H507.7V178.48C507.7 175.44 505.6 174.14 501.2 174.14C496.78 174.14 494.34 175.54 493.96 178.64H496.52C496.76 176.82 498.04 175.98 501.4 175.98C504.4 175.98 505.32 176.98 505.32 177.92V177.94C505.32 178.92 504.4 179.1 501.46 179.28C497.8 179.5 496.42 179.82 495.32 180.46C494.22 181.06 493.7 181.98 493.7 183.18V183.2C493.7 185.26 495.2 186.38 498.44 186.38C502.16 186.38 504.46 184.84 505.42 182.86ZM499.12 184.58C497.08 184.58 496.34 183.96 496.34 183V182.98C496.34 182.4 496.58 181.98 497.14 181.64C497.84 181.2 499.06 180.96 501.68 180.82C504 180.68 504.98 180.4 505.36 179.88V180.36C505.36 182.36 502.9 184.58 499.12 184.58ZM510.922 186H513.442V182.16C513.442 178.54 514.662 176.94 518.522 176.94H519.842V174.5H518.602C515.662 174.5 514.022 175.92 513.382 178.14L513.082 174.58H510.922V186ZM524.829 186V180.96C524.829 177.86 526.489 176.16 529.529 176.16C532.589 176.16 533.729 177.86 533.729 180.44V186H536.229V179.9C536.229 176.46 534.169 174.14 530.289 174.14C527.549 174.14 525.589 175.44 524.709 177.46L524.489 174.58H522.309V186H524.829ZM477.92 206H485.44C490.14 206 492.68 205.02 492.68 202V201.94C492.68 199.9 491.56 199.04 489.2 198.72C491.28 198.34 492.3 197.46 492.3 195.56V195.48C492.3 192.72 490.1 191.78 485.46 191.78H477.92V206ZM480.32 193.76H485.6C488.58 193.76 489.88 194.1 489.88 195.72V195.78C489.88 197.5 488.18 197.78 485.66 197.78H480.32V193.76ZM480.32 199.72H485.42C488.72 199.72 490.18 199.98 490.18 201.8V201.86C490.18 203.5 488.9 203.9 485.16 203.9H480.32V199.72ZM506.513 202.86L506.753 206H508.793V198.48C508.793 195.44 506.693 194.14 502.293 194.14C497.873 194.14 495.433 195.54 495.053 198.64H497.613C497.853 196.82 499.133 195.98 502.493 195.98C505.493 195.98 506.413 196.98 506.413 197.92V197.94C506.413 198.92 505.493 199.1 502.553 199.28C498.893 199.5 497.513 199.82 496.413 200.46C495.313 201.06 494.793 201.98 494.793 203.18V203.2C494.793 205.26 496.293 206.38 499.533 206.38C503.253 206.38 505.553 204.84 506.513 202.86ZM500.213 204.58C498.173 204.58 497.433 203.96 497.433 203V202.98C497.433 202.4 497.673 201.98 498.233 201.64C498.933 201.2 500.153 200.96 502.773 200.82C505.093 200.68 506.073 200.4 506.453 199.88V200.36C506.453 202.36 503.993 204.58 500.213 204.58ZM512.056 206H514.556V190.84H512.056V206ZM528.779 202.86L529.019 206H531.059V198.48C531.059 195.44 528.959 194.14 524.559 194.14C520.139 194.14 517.699 195.54 517.319 198.64H519.879C520.119 196.82 521.399 195.98 524.759 195.98C527.759 195.98 528.679 196.98 528.679 197.92V197.94C528.679 198.92 527.759 199.1 524.819 199.28C521.159 199.5 519.779 199.82 518.679 200.46C517.579 201.06 517.059 201.98 517.059 203.18V203.2C517.059 205.26 518.559 206.38 521.799 206.38C525.519 206.38 527.819 204.84 528.779 202.86ZM522.479 204.58C520.439 204.58 519.699 203.96 519.699 203V202.98C519.699 202.4 519.939 201.98 520.499 201.64C521.199 201.2 522.419 200.96 525.039 200.82C527.359 200.68 528.339 200.4 528.719 199.88V200.36C528.719 202.36 526.259 204.58 522.479 204.58ZM536.802 206V200.96C536.802 197.86 538.462 196.16 541.502 196.16C544.562 196.16 545.702 197.86 545.702 200.44V206H548.202V199.9C548.202 196.46 546.142 194.14 542.262 194.14C539.522 194.14 537.562 195.44 536.682 197.46L536.462 194.58H534.282V206H536.802ZM565.929 201.14H563.269C562.809 203.28 561.269 204.3 558.449 204.3C555.069 204.3 553.369 203 553.369 200.34C553.369 197.54 555.349 196.16 558.449 196.16C561.169 196.16 562.829 197.22 563.249 199.32H565.929C565.409 196 562.709 194.14 558.429 194.14C553.969 194.14 550.829 196.42 550.829 200.34C550.829 204.14 553.109 206.38 558.369 206.38C562.869 206.38 565.489 204.46 565.929 201.14ZM582.856 202.76H580.096C579.396 203.88 578.056 204.42 575.636 204.42C572.376 204.42 570.716 203.34 570.396 201.2H583.056V200.2C583.056 196.46 580.296 194.14 575.636 194.14C570.856 194.14 568.036 196.78 568.036 200.44C568.036 204.08 570.256 206.38 575.436 206.38C579.056 206.38 581.636 205.42 582.856 202.76ZM575.696 196.08C578.636 196.08 580.296 197.14 580.616 199.38H570.436C570.856 197.22 572.736 196.08 575.696 196.08Z" fill="#DBF1C1"/>
<path d="M359 11.36H356.34C355.92 13.6 354.24 15.14 350.66 15.14C346.82 15.14 344.68 13.42 344.68 10.04V10.02C344.68 6.44 347.04 4.7 350.8 4.7C353.94 4.7 355.78 5.94 356.28 8.1H358.92C358.14 4.32 354.98 2.46 350.78 2.46C345.72 2.46 342.12 5.3 342.12 10V10.06C342.12 15.04 345.34 17.38 350.52 17.38C355.66 17.38 358.36 14.98 359 11.36ZM363.967 17V11.92C363.967 8.84 365.687 7.16 368.707 7.16C371.787 7.16 372.887 8.98 372.887 11.56V17H375.387V10.9C375.387 7.46 373.347 5.14 369.467 5.14C366.747 5.14 364.867 6.4 363.987 8.38V1.84H361.587V17H363.967ZM385.517 17.38C390.657 17.38 393.217 15.04 393.217 11.34C393.217 7.38 390.137 5.14 385.597 5.14C381.157 5.14 378.017 7.42 378.017 11.34C378.017 15.14 380.317 17.38 385.517 17.38ZM385.577 15.3C382.257 15.3 380.557 14 380.557 11.34C380.557 8.54 382.537 7.16 385.637 7.16C388.817 7.16 390.677 8.62 390.677 11.34C390.677 13.96 388.997 15.3 385.577 15.3ZM403.982 17.34C407.762 17.34 410.882 15.34 410.882 11.34C410.882 7.36 408.202 5.16 404.102 5.16C401.422 5.16 399.322 6.18 398.262 7.98L398.062 5.58H395.922V21.08H398.362V14.9C399.322 16.48 401.202 17.34 403.982 17.34ZM403.262 15.32C400.042 15.32 398.262 13.96 398.262 11.34C398.262 8.78 400.222 7.16 403.342 7.16C406.502 7.16 408.362 8.64 408.362 11.34C408.362 13.94 406.702 15.32 403.262 15.32ZM421.658 17.34C425.438 17.34 428.558 15.34 428.558 11.34C428.558 7.36 425.878 5.16 421.778 5.16C419.098 5.16 416.998 6.18 415.938 7.98L415.738 5.58H413.598V21.08H416.038V14.9C416.998 16.48 418.878 17.34 421.658 17.34ZM420.938 15.32C417.718 15.32 415.938 13.96 415.938 11.34C415.938 8.78 417.898 7.16 421.018 7.16C424.178 7.16 426.038 8.64 426.038 11.34C426.038 13.94 424.378 15.32 420.938 15.32ZM432.595 3.66C433.695 3.66 434.235 3.14 434.235 2.06C434.235 0.92 433.655 0.479999 432.575 0.479999C431.515 0.479999 430.935 0.92 430.935 2.06C430.935 3.22 431.415 3.66 432.595 3.66ZM431.255 17H433.815V5.58H431.255V17ZM439.712 17V11.96C439.712 8.86 441.372 7.16 444.412 7.16C447.472 7.16 448.612 8.86 448.612 11.44V17H451.112V10.9C451.112 7.46 449.052 5.14 445.172 5.14C442.432 5.14 440.472 6.44 439.592 8.46L439.372 5.58H437.192V17H439.712ZM460.039 22.24H460.799C466.279 22.24 468.339 20.68 468.339 18.28V18.22C468.339 15.84 466.579 14.92 462.759 14.92H458.959C456.459 14.94 455.699 14.58 455.699 14C455.699 13.26 456.479 12.8 459.579 12.8H460.979C465.319 12.8 467.599 11.72 467.599 9.16C467.599 6.98 466.079 5.88 463.039 5.66C466.839 5.6 467.539 5.3 467.539 2.8V2.68H464.839V2.82C464.839 4.8 464.099 5.24 461.359 5.28C460.759 5.3 460.059 5.3 459.659 5.38C455.839 5.48 453.859 6.92 453.859 9.14C453.859 11.1 455.119 12 457.499 12.32C454.719 12.44 453.539 13.44 453.539 14.74C453.539 16.16 454.699 16.7 456.999 16.78C454.499 17.04 453.239 17.82 453.239 19.38C453.239 21.22 455.019 22.24 460.039 22.24ZM460.739 11.12C457.879 11.12 456.319 10.7 456.319 9.16C456.319 7.86 457.319 7.2 459.679 7.1C460.079 7.02 460.599 7.02 460.919 7.02C463.959 7.02 465.199 7.7 465.199 9.14C465.199 10.6 463.739 11.12 460.739 11.12ZM461.059 20.26H460.419C457.119 20.26 455.759 19.72 455.759 18.56C455.759 17.28 457.139 16.8 459.379 16.78H462.479C465.299 16.78 466.019 17.28 466.019 18.32V18.38C466.019 19.46 464.999 20.26 461.059 20.26Z" fill="#DBF1C1"/>
<path d="M208.714 83.4287C201.901 83.4287 196.239 88.2259 194.821 94.6251C190.338 95.7343 187 99.7491 187 104.572C187 110.25 191.607 114.857 197.286 114.857H198.893C199.126 115.689 199.445 116.478 199.839 117.232L201.875 116.179C201.133 114.759 200.714 113.152 200.714 111.429C200.714 105.735 205.306 101.143 211 101.143C212.326 101.143 213.576 101.392 214.732 101.839L213.857 103.429L218.429 102.857L216.714 98.2859L215.857 99.8216C214.36 99.1985 212.714 98.8573 211 98.8573C204.071 98.8573 198.429 104.499 198.429 111.429C198.429 111.812 198.449 112.197 198.482 112.572H197.286C192.834 112.572 189.286 109.023 189.286 104.572C189.286 100.586 192.16 97.3371 195.946 96.6966L196.75 96.5537L196.875 95.7501C197.811 90.0565 202.743 85.7144 208.714 85.7144C212.26 85.7144 215.428 87.2256 217.625 89.6609L218.125 90.2144L218.821 90.0001C219.413 89.8146 220.056 89.7144 220.714 89.7144C224.199 89.7144 227 92.5151 227 96.0001C227 96.0388 227 96.0599 227 96.0716L226.982 96.8573L227.714 97.143C230.65 98.3231 232.714 101.184 232.714 104.572C232.714 109.023 229.166 112.572 224.714 112.572H223.518C223.552 112.197 223.571 111.812 223.571 111.429C223.571 109.338 223.071 107.349 222.161 105.607L220.125 106.661C220.867 108.081 221.286 109.705 221.286 111.429C221.286 117.123 216.694 121.714 211 121.714C209.674 121.714 208.424 121.47 207.268 121.018L208.143 119.429L203.571 120L205.286 124.572L206.143 123.018C207.641 123.646 209.285 124 211 124C216.741 124 221.592 120.127 223.089 114.857H224.714C230.393 114.857 235 110.25 235 104.572C235 100.528 232.631 97.0888 229.232 95.4109C228.924 90.9669 225.234 87.4287 220.714 87.4287C220.07 87.4287 219.465 87.5787 218.857 87.7144C216.266 85.0897 212.686 83.4287 208.714 83.4287Z" fill="#B2D530"/>
<path d="M23.316 105.252C26.304 105.252 27.672 104.172 27.672 102.348C27.672 100.608 26.376 99.96 23.292 99.816C20.88 99.708 20.556 99.48 20.556 98.88C20.556 98.28 21.072 97.908 22.68 97.908C24.288 97.908 25.284 98.136 25.524 99.216H27.672C27.264 97.08 25.668 96.228 22.716 96.228C19.932 96.228 18.516 97.296 18.516 98.94C18.516 100.74 19.74 101.34 22.356 101.496C24.96 101.64 25.644 101.676 25.644 102.492C25.644 103.2 24.936 103.5 23.364 103.5C21.648 103.5 20.58 103.152 20.292 101.964H18.108C18.552 104.244 19.944 105.252 23.316 105.252ZM37.8272 98.16V96.444H29.4752V98.16H32.5472V105H34.6112V98.16H37.8272ZM44.3296 101.508H41.1856L42.7336 98.256L44.3296 101.508ZM46.0576 105H48.2056L43.8016 96.444H41.6776L37.3456 105H39.5176L40.4056 103.14H45.1456L46.0576 105ZM54.8446 98.148C56.3566 98.148 57.0406 98.304 57.0406 99.264V99.42C57.0406 100.44 56.1046 100.524 54.7726 100.524H52.3726V98.148H54.8446ZM54.7846 102.24C56.4046 102.24 56.9206 102.612 56.9206 103.896V104.424C56.9206 104.652 56.9446 104.916 57.1606 105H59.2606C59.0806 104.892 59.0566 104.652 59.0566 104.448V103.884C59.0566 102.372 58.4926 101.688 57.2446 101.412C58.5166 101.1 59.1166 100.428 59.1166 99.144C59.1166 97.272 57.8806 96.444 54.8686 96.444H50.3686V105H52.3726V102.24H54.7846ZM69.4936 98.16V96.444H61.1416V98.16H64.2136V105H66.2776V98.16H69.4936Z" fill="#B2D530"/>
</svg>
