<svg width="116" height="135" viewBox="0 0 116 135" fill="none" xmlns="http://www.w3.org/2000/svg">
<path d="M1.0651 132.999V2.59381L113.943 67.7964L1.0651 132.999Z" stroke="#53A626" stroke-width="2.1302"/>
<path d="M44.6228 61.7012L40.3252 59.0215L18.3119 95.0334L22.6095 97.7132L44.6228 61.7012Z" stroke="#B2D530" stroke-width="2.13019" stroke-miterlimit="10" stroke-linecap="round" stroke-linejoin="round"/>
<path d="M50.7284 51.6787L46.4219 49.0156L44.6154 51.9283L48.9219 54.5914L50.7284 51.6787Z" stroke="#B2D530" stroke-width="2.13019" stroke-miterlimit="10" stroke-linecap="round" stroke-linejoin="round"/>
<path d="M52.0027 56.5329L41.5762 50.0859L37.2369 57.0821L47.6633 63.5291L52.0027 56.5329Z" stroke="#B2D530" stroke-width="2.13019" stroke-miterlimit="10" stroke-linecap="round" stroke-linejoin="round"/>
<path d="M38.0512 55.9068C31.3818 52.3141 24.7619 49.7809 18.7484 48.3619C25.0434 46.8931 32.9671 47.9346 40.8021 51.4911" stroke="#B2D530" stroke-width="2.1302" stroke-miterlimit="10" stroke-linecap="round" stroke-linejoin="round"/>
<path d="M51.3614 57.5501C58.4912 63.171 63.2387 70.1393 64.7446 76.7052C60.6335 71.6819 55.1208 66.6131 48.5526 61.9881" stroke="#B2D530" stroke-width="2.1302" stroke-miterlimit="10" stroke-linecap="round" stroke-linejoin="round"/>
</svg>
