<svg width="116" height="135" viewBox="0 0 116 135" fill="none" xmlns="http://www.w3.org/2000/svg">
<path d="M1.0651 132.999V2.59381L113.943 67.7964L1.0651 132.999Z" stroke="#53A626" stroke-width="2.1302"/>
<path d="M11.715 53.0524L11.715 53.0527L11.7376 92.2416H10.5547V53.0524C10.5547 51.5106 11.42 50.0925 12.7465 49.0392C14.0732 47.9857 15.7992 47.3511 17.3822 47.3511H23.1138H31.9633H58.7635C60.269 47.354 61.7123 47.9552 62.7773 49.0237C63.8425 50.0924 64.4425 51.5413 64.4453 53.0534V55.0074V63.8854V70.3916H63.2621V53.0524C63.2621 51.8566 62.7886 50.7095 61.9453 49.8634C61.1019 49.0173 59.9576 48.5416 58.7641 48.5416H57.4802C56.2867 48.5416 55.1424 49.0173 54.299 49.8634C53.4556 50.7095 52.9821 51.8566 52.9821 53.0524V91.0916H51.799V53.0524V53.0518C51.7977 51.7372 52.2518 50.4632 53.0834 49.4479L53.8256 48.5416H52.6542H17.3593C16.0988 48.5416 14.7139 49.0573 13.6438 49.8422C12.5852 50.6188 11.715 51.7529 11.715 53.0524Z" fill="#0A2133" stroke="#B2D530" stroke-width="1.10948"/>
<path d="M63.5547 77.2416V74.3511H64.4453V77.2416H63.5547Z" fill="#0A2133" stroke="#B2D530" stroke-width="1.10948"/>
<path d="M63.5547 84.2416V82.3511H64.4453V84.2416H63.5547Z" fill="#0A2133" stroke="#B2D530" stroke-width="1.10948"/>
<path d="M10.5547 110.242V107.351H11.4453V110.242H10.5547Z" fill="#0A2133" stroke="#B2D530" stroke-width="1.10948"/>
<path d="M10.5547 100.242V95.3511H11.4453V100.242H10.5547Z" fill="#0A2133" stroke="#B2D530" stroke-width="1.10948"/>
<path d="M47 65.7964H33" stroke="#B2D530" stroke-width="2.11215"/>
<path d="M47 82.7964H33" stroke="#B2D530" stroke-width="2.11215"/>
<path d="M47 99.7964H33" stroke="#B2D530" stroke-width="2.11215"/>
<path d="M43 60.7964L33 60.7964" stroke="#B2D530" stroke-width="2.11215"/>
<path d="M43 77.7964L33 77.7964" stroke="#B2D530" stroke-width="2.11215"/>
<path d="M43 94.7964L33 94.7964" stroke="#B2D530" stroke-width="2.11215"/>
<path d="M27 65.0965V67.7964H18V58.7964H25.2" stroke="#B2D530" stroke-width="2.11215"/>
<path d="M27 82.0965V84.7964H18V75.7964H25.2" stroke="#B2D530" stroke-width="2.11215"/>
<path d="M27 91.7964V101.796H18V91.7964H27Z" stroke="#B2D530" stroke-width="2.11215"/>
<path d="M20 61.7963L22 65.7964L33 55.7964" stroke="#B2D530" stroke-width="2.11215"/>
<path d="M20 78.1963L22 81.7964L33 72.7964" stroke="#B2D530" stroke-width="2.11215"/>
</svg>
