<svg width="663" height="249" viewBox="0 0 663 249" fill="none" xmlns="http://www.w3.org/2000/svg">
<path d="M1.0651 186.223V57.7767L114.906 122L1.0651 186.223Z" stroke="#53A626" stroke-width="2.1302"/>
<path d="M341 122L284 122" stroke="#53A626" stroke-width="1.0651" stroke-dasharray="5.33 5.33"/>
<path d="M513 122L455 122" stroke="#53A626" stroke-width="1.0651" stroke-dasharray="5.33 5.33"/>
<path d="M511.984 79.9132L581.5 40.0244L651.016 79.9132V159.68L581.5 199.568L511.984 159.68V79.9132Z" stroke="#53A626" stroke-width="2.1302"/>
<path d="M550.842 146.896H585.66C586.327 146.896 586.981 146.71 587.548 146.359C588.116 146.009 588.574 145.507 588.873 144.91C589.171 144.313 589.297 143.645 589.238 142.981C589.178 142.317 588.934 141.682 588.534 141.148L585.936 137.685V120.368C585.93 116.513 584.665 112.765 582.333 109.694C580.002 106.623 576.731 104.397 573.019 103.355L576.983 95.44C577.103 95.1991 577.132 94.9224 577.062 94.6621C576.993 94.4018 576.831 94.1757 576.607 94.0263L575.502 93.288C574.668 92.7338 573.702 92.4092 572.703 92.3471C571.703 92.285 570.705 92.4876 569.808 92.9343C569.327 93.1745 568.796 93.2995 568.257 93.2995C567.719 93.2995 567.188 93.1745 566.706 92.9343C565.81 92.4878 564.812 92.2854 563.812 92.3475C562.813 92.4096 561.847 92.734 561.013 93.288L559.908 94.0263C559.684 94.1757 559.522 94.4018 559.453 94.6621C559.384 94.9224 559.412 95.1991 559.532 95.44L563.49 103.355C559.777 104.396 556.505 106.621 554.172 109.692C551.839 112.763 550.573 116.512 550.566 120.368V137.685L547.968 141.148C547.568 141.682 547.324 142.317 547.265 142.981C547.205 143.645 547.331 144.313 547.629 144.91C547.928 145.507 548.386 146.009 548.954 146.359C549.521 146.71 550.175 146.896 550.842 146.896ZM561.939 95.324L562.234 95.1283C562.743 94.7895 563.332 94.5906 563.942 94.5518C564.552 94.513 565.162 94.6356 565.71 94.9073C566.5 95.3003 567.37 95.5049 568.252 95.5049C569.134 95.5049 570.005 95.3003 570.794 94.9073C571.342 94.6345 571.952 94.5113 572.563 94.5501C573.173 94.589 573.763 94.7884 574.272 95.1283L574.567 95.324L570.782 102.885C569.944 102.757 569.099 102.69 568.251 102.683C567.404 102.69 566.558 102.757 565.72 102.885L561.939 95.324ZM549.737 142.475L552.556 138.717C552.699 138.525 552.777 138.293 552.777 138.053V120.368C552.777 116.264 554.407 112.328 557.309 109.426C560.211 106.524 564.147 104.894 568.251 104.894C572.355 104.894 576.291 106.524 579.193 109.426C582.095 112.328 583.725 116.264 583.725 120.368V138.053C583.725 138.293 583.803 138.525 583.947 138.717L586.765 142.475C586.919 142.68 587.013 142.924 587.036 143.18C587.059 143.435 587.01 143.692 586.896 143.922C586.781 144.151 586.604 144.344 586.386 144.479C586.168 144.614 585.916 144.685 585.66 144.685H550.842C550.586 144.685 550.334 144.614 550.116 144.479C549.898 144.344 549.721 144.151 549.607 143.922C549.492 143.692 549.443 143.435 549.466 143.18C549.489 142.924 549.583 142.68 549.737 142.475Z" fill="#B2D530"/>
<path d="M612.464 118.158H609.148V112.631C609.148 112.338 609.031 112.057 608.824 111.849C608.617 111.642 608.336 111.526 608.042 111.526H605.438C607.042 110.235 608.205 108.478 608.768 106.498C609.331 104.517 609.266 102.411 608.582 100.47C607.897 98.528 606.627 96.8466 604.947 95.6572C603.267 94.4678 601.259 93.8291 599.2 93.8291C597.141 93.8291 595.133 94.4678 593.453 95.6572C591.772 96.8466 590.502 98.528 589.818 100.47C589.133 102.411 589.068 104.517 589.631 106.498C590.194 108.478 591.358 110.235 592.961 111.526H590.357C590.064 111.526 589.783 111.642 589.576 111.849C589.368 112.057 589.252 112.338 589.252 112.631V119.263C589.252 119.556 589.368 119.837 589.576 120.044C589.783 120.252 590.064 120.368 590.357 120.368H593.673V124.789H590.357C590.064 124.789 589.783 124.906 589.576 125.113C589.368 125.32 589.252 125.602 589.252 125.895V132.527C589.252 132.82 589.368 133.101 589.576 133.308C589.783 133.516 590.064 133.632 590.357 133.632H593.673V145.791C593.673 146.084 593.79 146.365 593.997 146.572C594.204 146.779 594.485 146.896 594.779 146.896H612.464C612.757 146.896 613.038 146.779 613.245 146.572C613.453 146.365 613.569 146.084 613.569 145.791V132.527C613.569 132.234 613.453 131.952 613.245 131.745C613.038 131.538 612.757 131.421 612.464 131.421H609.148V127H612.464C612.757 127 613.038 126.884 613.245 126.676C613.453 126.469 613.569 126.188 613.569 125.895V119.263C613.569 118.97 613.453 118.689 613.245 118.481C613.038 118.274 612.757 118.158 612.464 118.158ZM591.463 103.788C591.463 102.258 591.916 100.762 592.767 99.4899C593.617 98.2175 594.825 97.2258 596.239 96.6402C597.653 96.0545 599.208 95.9013 600.709 96.1999C602.21 96.4984 603.589 97.2353 604.671 98.3174C605.753 99.3994 606.49 100.778 606.788 102.279C607.087 103.78 606.934 105.336 606.348 106.749C605.762 108.163 604.771 109.372 603.498 110.222C602.226 111.072 600.73 111.526 599.2 111.526C597.148 111.523 595.182 110.707 593.731 109.257C592.281 107.806 591.465 105.84 591.463 103.788ZM591.463 113.736H606.937V118.158H604.726V115.947H602.516V118.158H600.305V115.947H598.094V118.158H595.884V115.947H593.673V118.158H591.463V113.736ZM611.358 144.685H609.148V142.475H606.937V144.685H604.726V142.475H602.516V144.685H600.305V142.475H598.094V144.685H595.884V140.264H611.358V144.685ZM611.358 138.053H609.148V135.843H606.937V138.053H604.726V135.843H602.516V138.053H600.305V135.843H598.094V138.053H595.884V133.632H611.358V138.053ZM606.937 131.421H604.726V129.211H602.516V131.421H600.305V129.211H598.094V131.421H595.884V129.211H593.673V131.421H591.463V127H606.937V131.421ZM611.358 124.789H609.148V122.579H606.937V124.789H604.726V122.579H602.516V124.789H600.305V122.579H598.094V124.789H595.884V120.368H611.358V124.789Z" fill="#B2D530"/>
<path d="M599.199 98.262C597.734 98.2637 596.33 98.8465 595.293 99.8826C594.257 100.919 593.675 102.323 593.673 103.789H595.883C595.883 102.909 596.233 102.066 596.855 101.444C597.477 100.822 598.32 100.473 599.199 100.473V98.262Z" fill="#B2D530"/>
<path d="M602.515 103.788C602.515 104.668 602.166 105.511 601.544 106.133C600.922 106.755 600.079 107.104 599.199 107.104V109.315C600.664 109.313 602.069 108.73 603.105 107.694C604.141 106.658 604.724 105.254 604.726 103.788H602.515Z" fill="#B2D530"/>
<path d="M566.934 132.527H567.146V134.738H569.357V132.527H569.569C570.594 132.525 571.584 132.148 572.351 131.468C573.119 130.787 573.611 129.85 573.737 128.833C573.862 127.815 573.611 126.786 573.032 125.94C572.453 125.094 571.584 124.488 570.59 124.237L566.45 123.202C565.974 123.086 565.558 122.799 565.281 122.397C565.003 121.994 564.882 121.503 564.942 121.018C565.001 120.532 565.237 120.085 565.604 119.762C565.971 119.439 566.444 119.261 566.934 119.263H569.569C570.099 119.264 570.607 119.474 570.981 119.849C571.356 120.224 571.567 120.732 571.567 121.261V121.474H573.778V121.261C573.777 120.146 573.333 119.076 572.544 118.287C571.755 117.497 570.685 117.054 569.569 117.052H569.357V114.842H567.146V117.052H566.934C565.908 117.055 564.919 117.431 564.151 118.112C563.384 118.792 562.891 119.729 562.766 120.747C562.64 121.765 562.891 122.793 563.47 123.639C564.05 124.486 564.918 125.091 565.912 125.342L570.053 126.377C570.528 126.493 570.944 126.78 571.222 127.183C571.5 127.585 571.62 128.076 571.561 128.562C571.501 129.047 571.265 129.494 570.898 129.817C570.531 130.141 570.058 130.318 569.569 130.316H566.934C566.404 130.316 565.896 130.105 565.521 129.73C565.147 129.356 564.936 128.848 564.935 128.318V128.106H562.725V128.318C562.726 129.434 563.17 130.504 563.959 131.293C564.748 132.082 565.818 132.526 566.934 132.527Z" fill="#B2D530"/>
<path d="M584.815 85.921C584.771 85.6635 584.638 85.4297 584.438 85.2611C584.239 85.0925 583.986 85 583.725 85C583.464 85 583.211 85.0925 583.011 85.2611C582.812 85.4297 582.679 85.6635 582.635 85.921C582.488 86.7998 582.071 87.6109 581.441 88.2408C580.811 88.8708 580 89.2883 579.121 89.4348C578.864 89.4784 578.63 89.6117 578.461 89.8112C578.293 90.0107 578.2 90.2635 578.2 90.5247C578.2 90.7859 578.293 91.0386 578.461 91.2381C578.63 91.4376 578.864 91.571 579.121 91.6145C580 91.7611 580.811 92.1785 581.441 92.8085C582.071 93.4385 582.488 94.2495 582.635 95.1283C582.679 95.3858 582.812 95.6196 583.011 95.7882C583.211 95.9568 583.464 96.0493 583.725 96.0493C583.986 96.0493 584.239 95.9568 584.438 95.7882C584.638 95.6196 584.771 95.3858 584.815 95.1283C584.961 94.2495 585.379 93.4385 586.009 92.8085C586.639 92.1785 587.45 91.7611 588.329 91.6145C588.586 91.571 588.82 91.4376 588.988 91.2381C589.157 91.0386 589.25 90.7859 589.25 90.5247C589.25 90.2635 589.157 90.0107 588.988 89.8112C588.82 89.6117 588.586 89.4784 588.329 89.4348C587.45 89.2883 586.639 88.8708 586.009 88.2408C585.379 87.6109 584.961 86.7998 584.815 85.921ZM583.725 92.1031C583.294 91.4897 582.76 90.9557 582.146 90.5247C582.76 90.0937 583.294 89.5596 583.725 88.9463C584.156 89.5596 584.69 90.0937 585.303 90.5247C584.69 90.9557 584.156 91.4897 583.725 92.1031Z" fill="#B2D530"/>
<path d="M342.065 187.203V56.7974L454.943 122L342.065 187.203Z" stroke="#53A626" stroke-width="2.1302"/>
<path d="M172.065 187.203V56.7974L284.943 122L172.065 187.203Z" stroke="#53A626" stroke-width="2.1302"/>
<path d="M182.715 107.256L182.715 107.256L182.738 146.445H181.555V107.256C181.555 105.714 182.42 104.296 183.746 103.243C185.073 102.189 186.799 101.555 188.382 101.555H194.114H202.963H229.764C231.269 101.558 232.712 102.159 233.777 103.227C234.843 104.296 235.442 105.745 235.445 107.257V109.211V118.089V124.595H234.262V107.256C234.262 106.06 233.789 104.913 232.945 104.067C232.102 103.221 230.958 102.745 229.764 102.745H228.48C227.287 102.745 226.142 103.221 225.299 104.067C224.456 104.913 223.982 106.06 223.982 107.256V145.295H222.799V107.256V107.255C222.798 105.941 223.252 104.667 224.083 103.651L224.826 102.745H223.654H188.359C187.099 102.745 185.714 103.261 184.644 104.046C183.585 104.822 182.715 105.957 182.715 107.256Z" fill="#0A2133" stroke="#B2D530" stroke-width="1.10948"/>
<path d="M234.555 131.445V128.555H235.445V131.445H234.555Z" fill="#0A2133" stroke="#B2D530" stroke-width="1.10948"/>
<path d="M234.555 138.445V136.555H235.445V138.445H234.555Z" fill="#0A2133" stroke="#B2D530" stroke-width="1.10948"/>
<path d="M181.555 164.445V161.555H182.445V164.445H181.555Z" fill="#0A2133" stroke="#B2D530" stroke-width="1.10948"/>
<path d="M181.555 154.445V149.555H182.445V154.445H181.555Z" fill="#0A2133" stroke="#B2D530" stroke-width="1.10948"/>
<path d="M218 120H204" stroke="#B2D530" stroke-width="2.11215"/>
<path d="M218 137H204" stroke="#B2D530" stroke-width="2.11215"/>
<path d="M218 154H204" stroke="#B2D530" stroke-width="2.11215"/>
<path d="M214 115L204 115" stroke="#B2D530" stroke-width="2.11215"/>
<path d="M214 132L204 132" stroke="#B2D530" stroke-width="2.11215"/>
<path d="M214 149L204 149" stroke="#B2D530" stroke-width="2.11215"/>
<path d="M198 119.3V122H189V113H196.2" stroke="#B2D530" stroke-width="2.11215"/>
<path d="M198 136.3V139H189V130H196.2" stroke="#B2D530" stroke-width="2.11215"/>
<path d="M198 146V156H189V146H198Z" stroke="#B2D530" stroke-width="2.11215"/>
<path d="M191 116L193 120L204 110" stroke="#B2D530" stroke-width="2.11215"/>
<path d="M191 132.4L193 136L204 127" stroke="#B2D530" stroke-width="2.11215"/>
<path d="M188 218.36H185.34C184.92 220.6 183.24 222.14 179.66 222.14C175.82 222.14 173.68 220.42 173.68 217.04V217.02C173.68 213.44 176.04 211.7 179.8 211.7C182.94 211.7 184.78 212.94 185.28 215.1H187.92C187.14 211.32 183.98 209.46 179.78 209.46C174.72 209.46 171.12 212.3 171.12 217V217.06C171.12 222.04 174.34 224.38 179.52 224.38C184.66 224.38 187.36 221.98 188 218.36ZM197.524 224.38C202.664 224.38 205.224 222.04 205.224 218.34C205.224 214.38 202.144 212.14 197.604 212.14C193.164 212.14 190.024 214.42 190.024 218.34C190.024 222.14 192.324 224.38 197.524 224.38ZM197.584 222.3C194.264 222.3 192.564 221 192.564 218.34C192.564 215.54 194.544 214.16 197.644 214.16C200.824 214.16 202.684 215.62 202.684 218.34C202.684 220.96 201.004 222.3 197.584 222.3ZM210.45 224V218.72C210.45 215.88 211.89 214.16 214.47 214.16C217.33 214.16 218.11 215.98 218.11 218.18V224H220.61V218.48C220.61 215.9 221.93 214.16 224.39 214.16C227.21 214.16 228.17 215.78 228.17 218.3V224H230.67V217.92C230.67 214.42 228.89 212.14 225.21 212.14C222.69 212.14 220.91 213.48 220.15 215.48C219.53 213.46 218.01 212.14 215.25 212.14C212.75 212.14 211.07 213.44 210.31 215.32L210.09 212.58H207.95V224H210.45ZM241.81 224.34C245.59 224.34 248.71 222.34 248.71 218.34C248.71 214.36 246.03 212.16 241.93 212.16C239.25 212.16 237.15 213.18 236.09 214.98L235.89 212.58H233.75V228.08H236.19V221.9C237.15 223.48 239.03 224.34 241.81 224.34ZM241.09 222.32C237.87 222.32 236.09 220.96 236.09 218.34C236.09 215.78 238.05 214.16 241.17 214.16C244.33 214.16 246.19 215.64 246.19 218.34C246.19 220.94 244.53 222.32 241.09 222.32ZM251.447 224H253.947V208.84H251.447V224ZM271.368 220.76H268.608C267.908 221.88 266.568 222.42 264.148 222.42C260.888 222.42 259.228 221.34 258.908 219.2H271.568V218.2C271.568 214.46 268.808 212.14 264.148 212.14C259.368 212.14 256.548 214.78 256.548 218.44C256.548 222.08 258.768 224.38 263.948 224.38C267.568 224.38 270.148 223.42 271.368 220.76ZM264.208 214.08C267.148 214.08 268.808 215.14 269.128 217.38H258.948C259.368 215.22 261.248 214.08 264.208 214.08ZM283.16 224V221.82H281.58C278.82 221.82 278.14 221.32 278.14 218.2V214.7H283.16V212.58H278.14V209.4H276.08C276.08 210.1 276.06 210.96 275.92 211.58C275.76 212.34 275.58 212.54 274.68 212.64C274.28 212.68 273.16 212.7 272.68 212.7V214.7H275.78V218.58C275.78 222.64 277.04 224 280.98 224H283.16ZM299.532 220.76H296.772C296.072 221.88 294.732 222.42 292.312 222.42C289.052 222.42 287.392 221.34 287.072 219.2H299.732V218.2C299.732 214.46 296.972 212.14 292.312 212.14C287.532 212.14 284.712 214.78 284.712 218.44C284.712 222.08 286.932 224.38 292.112 224.38C295.732 224.38 298.312 223.42 299.532 220.76ZM292.372 214.08C295.312 214.08 296.972 215.14 297.292 217.38H287.112C287.532 215.22 289.412 214.08 292.372 214.08ZM180.66 244V241.82H179.08C176.32 241.82 175.64 241.32 175.64 238.2V234.7H180.66V232.58H175.64V229.4H173.58C173.58 230.1 173.56 230.96 173.42 231.58C173.26 232.34 173.08 232.54 172.18 232.64C171.78 232.68 170.66 232.7 170.18 232.7V234.7H173.28V238.58C173.28 242.64 174.54 244 178.48 244H180.66ZM185.545 244V238.92C185.545 235.84 187.265 234.16 190.285 234.16C193.365 234.16 194.465 235.98 194.465 238.56V244H196.965V237.9C196.965 234.46 194.925 232.14 191.045 232.14C188.325 232.14 186.445 233.4 185.565 235.38V228.84H183.165V244H185.545ZM214.415 240.76H211.655C210.955 241.88 209.615 242.42 207.195 242.42C203.935 242.42 202.275 241.34 201.955 239.2H214.615V238.2C214.615 234.46 211.855 232.14 207.195 232.14C202.415 232.14 199.595 234.78 199.595 238.44C199.595 242.08 201.815 244.38 206.995 244.38C210.615 244.38 213.195 243.42 214.415 240.76ZM207.255 234.08C210.195 234.08 211.855 235.14 212.175 237.38H201.995C202.415 235.22 204.295 234.08 207.255 234.08ZM230.167 231.92H235.947V229.78H222.127V231.92H227.647V244H230.167V231.92ZM247.095 240.86L247.335 244H249.375V236.48C249.375 233.44 247.275 232.14 242.875 232.14C238.455 232.14 236.015 233.54 235.635 236.64H238.195C238.435 234.82 239.715 233.98 243.075 233.98C246.075 233.98 246.995 234.98 246.995 235.92V235.94C246.995 236.92 246.075 237.1 243.135 237.28C239.475 237.5 238.095 237.82 236.995 238.46C235.895 239.06 235.375 239.98 235.375 241.18V241.2C235.375 243.26 236.875 244.38 240.115 244.38C243.835 244.38 246.135 242.84 247.095 240.86ZM240.795 242.58C238.755 242.58 238.015 241.96 238.015 241V240.98C238.015 240.4 238.255 239.98 238.815 239.64C239.515 239.2 240.735 238.96 243.355 238.82C245.675 238.68 246.655 238.4 247.035 237.88V238.36C247.035 240.36 244.575 242.58 240.795 242.58ZM259.037 244.38C263.557 244.38 265.657 242.72 265.657 240.56C265.657 238.22 264.037 237.42 259.117 237.22C255.177 237.06 254.377 236.76 254.377 235.72C254.377 234.78 255.297 233.98 258.097 233.98C260.617 233.98 262.317 234.54 262.817 236.12H265.497C264.637 233.34 262.217 232.14 258.097 232.14C253.977 232.14 251.957 233.74 251.957 235.9C251.957 238.12 253.757 238.98 258.297 239.12C262.277 239.26 263.197 239.54 263.197 240.6C263.197 241.64 262.237 242.42 259.157 242.42C256.457 242.42 254.757 241.92 254.277 240.14H251.437C252.057 243.16 254.777 244.38 259.037 244.38ZM274.568 238.38L279.328 244H282.348L276.468 237.1L282.028 232.58H278.628L270.468 239.28V228.84H268.048V244H270.468V241.62L274.568 238.38Z" fill="#DBF1C1"/>
<path d="M62.36 34.56H72.5V32.36H62.36V27.98H72.96V25.78H59.92V40H62.36V34.56ZM76.8022 26.66C77.9022 26.66 78.4422 26.14 78.4422 25.06C78.4422 23.92 77.8622 23.48 76.7822 23.48C75.7222 23.48 75.1422 23.92 75.1422 25.06C75.1422 26.22 75.6222 26.66 76.8022 26.66ZM75.4622 40H78.0222V28.58H75.4622V40ZM83.9188 40V34.96C83.9188 31.86 85.5788 30.16 88.6188 30.16C91.6788 30.16 92.8188 31.86 92.8188 34.44V40H95.3188V33.9C95.3188 30.46 93.2588 28.14 89.3788 28.14C86.6388 28.14 84.6788 29.44 83.7988 31.46L83.5788 28.58H81.3988V40H83.9188ZM110.526 37.54L110.726 40H112.866V24.84H110.426V30.8C109.386 29.08 107.386 28.16 104.866 28.16C100.726 28.16 97.9463 30.4 97.9463 34.36C97.9463 38.52 100.786 40.34 104.806 40.34C107.666 40.34 109.606 39.34 110.526 37.54ZM105.486 38.32C102.146 38.32 100.466 37.06 100.466 34.36C100.466 31.66 102.286 30.16 105.466 30.16C108.526 30.16 110.566 31.66 110.566 34.32C110.566 36.9 108.726 38.32 105.486 38.32ZM133.142 36.86L133.382 40H135.422V32.48C135.422 29.44 133.322 28.14 128.922 28.14C124.502 28.14 122.062 29.54 121.682 32.64H124.242C124.482 30.82 125.762 29.98 129.122 29.98C132.122 29.98 133.042 30.98 133.042 31.92V31.94C133.042 32.92 132.122 33.1 129.182 33.28C125.522 33.5 124.142 33.82 123.042 34.46C121.942 35.06 121.422 35.98 121.422 37.18V37.2C121.422 39.26 122.922 40.38 126.162 40.38C129.882 40.38 132.182 38.84 133.142 36.86ZM126.842 38.58C124.802 38.58 124.062 37.96 124.062 37V36.98C124.062 36.4 124.302 35.98 124.862 35.64C125.562 35.2 126.782 34.96 129.402 34.82C131.722 34.68 132.702 34.4 133.082 33.88V34.36C133.082 36.36 130.622 38.58 126.842 38.58ZM141.165 40V34.96C141.165 31.86 142.825 30.16 145.865 30.16C148.925 30.16 150.065 31.86 150.065 34.44V40H152.565V33.9C152.565 30.46 150.505 28.14 146.625 28.14C143.885 28.14 141.925 29.44 141.045 31.46L140.825 28.58H138.645V40H141.165ZM67.52 60.38C72.36 60.38 76 58 76 53.06V52.96C76 48.1 72.34 45.46 67.52 45.46C62.68 45.46 59.1 48.18 59.1 52.98V53.04C59.1 58.08 62.6 60.38 67.52 60.38ZM67.5 58.14C64 58.14 61.64 56.5 61.64 53.04V53.02C61.64 49.38 63.92 47.7 67.52 47.7C71.1 47.7 73.46 49.32 73.46 53.04C73.46 56.7 71.02 58.14 67.5 58.14ZM83.0169 50.68H87.3569V48.58H83.0169V48.1C83.0169 45.82 83.5569 45.44 85.5769 45.44H87.3569V43.46H85.3569C81.7969 43.46 80.6369 44.42 80.6369 48.12V48.58H77.4969V50.68H80.6369V60H82.9969L83.0169 50.68ZM94.7161 50.68H99.0561V48.58H94.7161V48.1C94.7161 45.82 95.2561 45.44 97.2761 45.44H99.0561V43.46H97.0561C93.4961 43.46 92.3361 44.42 92.3361 48.12V48.58H89.1961V50.68H92.3361V60H94.6961L94.7161 50.68ZM115.051 56.76H112.291C111.591 57.88 110.251 58.42 107.831 58.42C104.571 58.42 102.911 57.34 102.591 55.2H115.251V54.2C115.251 50.46 112.491 48.14 107.831 48.14C103.051 48.14 100.231 50.78 100.231 54.44C100.231 58.08 102.451 60.38 107.631 60.38C111.251 60.38 113.831 59.42 115.051 56.76ZM107.891 50.08C110.831 50.08 112.491 51.14 112.811 53.38H102.631C103.051 51.22 104.931 50.08 107.891 50.08ZM117.864 60H120.384V56.16C120.384 52.54 121.604 50.94 125.464 50.94H126.784V48.5H125.544C122.604 48.5 120.964 49.92 120.324 52.14L120.024 48.58H117.864V60Z" fill="#DBF1C1"/>
<path d="M491.72 208V205.82H480.3V202H489.62V199.92H480.3V195.88H491.32V193.78H477.92V208H491.72ZM505.42 204.86L505.66 208H507.7V200.48C507.7 197.44 505.6 196.14 501.2 196.14C496.78 196.14 494.34 197.54 493.96 200.64H496.52C496.76 198.82 498.04 197.98 501.4 197.98C504.4 197.98 505.32 198.98 505.32 199.92V199.94C505.32 200.92 504.4 201.1 501.46 201.28C497.8 201.5 496.42 201.82 495.32 202.46C494.22 203.06 493.7 203.98 493.7 205.18V205.2C493.7 207.26 495.2 208.38 498.44 208.38C502.16 208.38 504.46 206.84 505.42 204.86ZM499.12 206.58C497.08 206.58 496.34 205.96 496.34 205V204.98C496.34 204.4 496.58 203.98 497.14 203.64C497.84 203.2 499.06 202.96 501.68 202.82C504 202.68 504.98 202.4 505.36 201.88V202.36C505.36 204.36 502.9 206.58 499.12 206.58ZM510.922 208H513.442V204.16C513.442 200.54 514.662 198.94 518.522 198.94H519.842V196.5H518.602C515.662 196.5 514.022 197.92 513.382 200.14L513.082 196.58H510.922V208ZM524.829 208V202.96C524.829 199.86 526.489 198.16 529.529 198.16C532.589 198.16 533.729 199.86 533.729 202.44V208H536.229V201.9C536.229 198.46 534.169 196.14 530.289 196.14C527.549 196.14 525.589 197.44 524.709 199.46L524.489 196.58H522.309V208H524.829ZM477.92 228H485.44C490.14 228 492.68 227.02 492.68 224V223.94C492.68 221.9 491.56 221.04 489.2 220.72C491.28 220.34 492.3 219.46 492.3 217.56V217.48C492.3 214.72 490.1 213.78 485.46 213.78H477.92V228ZM480.32 215.76H485.6C488.58 215.76 489.88 216.1 489.88 217.72V217.78C489.88 219.5 488.18 219.78 485.66 219.78H480.32V215.76ZM480.32 221.72H485.42C488.72 221.72 490.18 221.98 490.18 223.8V223.86C490.18 225.5 488.9 225.9 485.16 225.9H480.32V221.72ZM506.513 224.86L506.753 228H508.793V220.48C508.793 217.44 506.693 216.14 502.293 216.14C497.873 216.14 495.433 217.54 495.053 220.64H497.613C497.853 218.82 499.133 217.98 502.493 217.98C505.493 217.98 506.413 218.98 506.413 219.92V219.94C506.413 220.92 505.493 221.1 502.553 221.28C498.893 221.5 497.513 221.82 496.413 222.46C495.313 223.06 494.793 223.98 494.793 225.18V225.2C494.793 227.26 496.293 228.38 499.533 228.38C503.253 228.38 505.553 226.84 506.513 224.86ZM500.213 226.58C498.173 226.58 497.433 225.96 497.433 225V224.98C497.433 224.4 497.673 223.98 498.233 223.64C498.933 223.2 500.153 222.96 502.773 222.82C505.093 222.68 506.073 222.4 506.453 221.88V222.36C506.453 224.36 503.993 226.58 500.213 226.58ZM512.056 228H514.556V212.84H512.056V228ZM528.779 224.86L529.019 228H531.059V220.48C531.059 217.44 528.959 216.14 524.559 216.14C520.139 216.14 517.699 217.54 517.319 220.64H519.879C520.119 218.82 521.399 217.98 524.759 217.98C527.759 217.98 528.679 218.98 528.679 219.92V219.94C528.679 220.92 527.759 221.1 524.819 221.28C521.159 221.5 519.779 221.82 518.679 222.46C517.579 223.06 517.059 223.98 517.059 225.18V225.2C517.059 227.26 518.559 228.38 521.799 228.38C525.519 228.38 527.819 226.84 528.779 224.86ZM522.479 226.58C520.439 226.58 519.699 225.96 519.699 225V224.98C519.699 224.4 519.939 223.98 520.499 223.64C521.199 223.2 522.419 222.96 525.039 222.82C527.359 222.68 528.339 222.4 528.719 221.88V222.36C528.719 224.36 526.259 226.58 522.479 226.58ZM536.802 228V222.96C536.802 219.86 538.462 218.16 541.502 218.16C544.562 218.16 545.702 219.86 545.702 222.44V228H548.202V221.9C548.202 218.46 546.142 216.14 542.262 216.14C539.522 216.14 537.562 217.44 536.682 219.46L536.462 216.58H534.282V228H536.802ZM565.929 223.14H563.269C562.809 225.28 561.269 226.3 558.449 226.3C555.069 226.3 553.369 225 553.369 222.34C553.369 219.54 555.349 218.16 558.449 218.16C561.169 218.16 562.829 219.22 563.249 221.32H565.929C565.409 218 562.709 216.14 558.429 216.14C553.969 216.14 550.829 218.42 550.829 222.34C550.829 226.14 553.109 228.38 558.369 228.38C562.869 228.38 565.489 226.46 565.929 223.14ZM582.856 224.76H580.096C579.396 225.88 578.056 226.42 575.636 226.42C572.376 226.42 570.716 225.34 570.396 223.2H583.056V222.2C583.056 218.46 580.296 216.14 575.636 216.14C570.856 216.14 568.036 218.78 568.036 222.44C568.036 226.08 570.256 228.38 575.436 228.38C579.056 228.38 581.636 227.42 582.856 224.76ZM575.696 218.08C578.636 218.08 580.296 219.14 580.616 221.38H570.436C570.856 219.22 572.736 218.08 575.696 218.08Z" fill="#DBF1C1"/>
<path d="M353.76 5.8L358.44 17H360.8L366.52 2.78H363.98L359.58 14.1L354.82 2.78H352.82L347.44 14.06L343.88 2.78H341.32L345.9 17H348.36L353.76 5.8ZM377.9 13.86L378.14 17H380.18V9.48C380.18 6.44 378.08 5.14 373.68 5.14C369.26 5.14 366.82 6.54 366.44 9.64H369C369.24 7.82 370.52 6.98 373.88 6.98C376.88 6.98 377.8 7.98 377.8 8.92V8.94C377.8 9.92 376.88 10.1 373.94 10.28C370.28 10.5 368.9 10.82 367.8 11.46C366.7 12.06 366.18 12.98 366.18 14.18V14.2C366.18 16.26 367.68 17.38 370.92 17.38C374.64 17.38 376.94 15.84 377.9 13.86ZM371.6 15.58C369.56 15.58 368.82 14.96 368.82 14V13.98C368.82 13.4 369.06 12.98 369.62 12.64C370.32 12.2 371.54 11.96 374.16 11.82C376.48 11.68 377.46 11.4 377.84 10.88V11.36C377.84 13.36 375.38 15.58 371.6 15.58ZM384.822 3.66C385.922 3.66 386.462 3.14 386.462 2.06C386.462 0.92 385.882 0.479999 384.802 0.479999C383.742 0.479999 383.162 0.92 383.162 2.06C383.162 3.22 383.642 3.66 384.822 3.66ZM383.482 17H386.042V5.58H383.482V17ZM398.887 17V14.82H397.307C394.547 14.82 393.867 14.32 393.867 11.2V7.7H398.887V5.58H393.867V2.4H391.807C391.807 3.1 391.787 3.96 391.647 4.58C391.487 5.34 391.307 5.54 390.407 5.64C390.007 5.68 388.887 5.7 388.407 5.7V7.7H391.507V11.58C391.507 15.64 392.767 17 396.707 17H398.887ZM411.095 7.68H415.435V5.58H411.095V5.1C411.095 2.82 411.635 2.44 413.655 2.44H415.435V0.46H413.435C409.875 0.46 408.715 1.42 408.715 5.12V5.58H405.575V7.68H408.715V17H411.075L411.095 7.68ZM424.11 17.38C429.25 17.38 431.81 15.04 431.81 11.34C431.81 7.38 428.73 5.14 424.19 5.14C419.75 5.14 416.61 7.42 416.61 11.34C416.61 15.14 418.91 17.38 424.11 17.38ZM424.17 15.3C420.85 15.3 419.15 14 419.15 11.34C419.15 8.54 421.13 7.16 424.23 7.16C427.41 7.16 429.27 8.62 429.27 11.34C429.27 13.96 427.59 15.3 424.17 15.3ZM434.535 17H437.055V13.16C437.055 9.54 438.275 7.94 442.135 7.94H443.455V5.5H442.215C439.275 5.5 437.635 6.92 436.995 9.14L436.695 5.58H434.535V17ZM348.04 37H350.58L357.76 22.78H355.08L349.38 34.4L343.96 22.78H341.26L348.04 37ZM372.016 33.76H369.256C368.556 34.88 367.216 35.42 364.796 35.42C361.536 35.42 359.876 34.34 359.556 32.2H372.216V31.2C372.216 27.46 369.456 25.14 364.796 25.14C360.016 25.14 357.196 27.78 357.196 31.44C357.196 35.08 359.416 37.38 364.596 37.38C368.216 37.38 370.796 36.42 372.016 33.76ZM364.856 27.08C367.796 27.08 369.456 28.14 369.776 30.38H359.596C360.016 28.22 361.896 27.08 364.856 27.08ZM374.828 37H377.348V33.16C377.348 29.54 378.568 27.94 382.428 27.94H383.748V25.5H382.508C379.568 25.5 377.928 26.92 377.288 29.14L376.988 25.58H374.828V37ZM387.634 23.66C388.734 23.66 389.274 23.14 389.274 22.06C389.274 20.92 388.694 20.48 387.614 20.48C386.554 20.48 385.974 20.92 385.974 22.06C385.974 23.22 386.454 23.66 387.634 23.66ZM386.294 37H388.854V25.58H386.294V37ZM396.525 27.68H400.865V25.58H396.525V25.1C396.525 22.82 397.065 22.44 399.085 22.44H400.865V20.46H398.865C395.305 20.46 394.145 21.42 394.145 25.12V25.58H391.005V27.68H394.145V37H396.505L396.525 27.68ZM404.705 23.66C405.805 23.66 406.345 23.14 406.345 22.06C406.345 20.92 405.765 20.48 404.685 20.48C403.625 20.48 403.045 20.92 403.045 22.06C403.045 23.22 403.525 23.66 404.705 23.66ZM403.365 37H405.925V25.58H403.365V37ZM423.722 32.14H421.062C420.602 34.28 419.062 35.3 416.242 35.3C412.862 35.3 411.162 34 411.162 31.34C411.162 28.54 413.142 27.16 416.242 27.16C418.962 27.16 420.622 28.22 421.042 30.32H423.722C423.202 27 420.502 25.14 416.222 25.14C411.762 25.14 408.622 27.42 408.622 31.34C408.622 35.14 410.902 37.38 416.162 37.38C420.662 37.38 423.282 35.46 423.722 32.14ZM437.51 33.86L437.75 37H439.79V29.48C439.79 26.44 437.69 25.14 433.29 25.14C428.87 25.14 426.43 26.54 426.05 29.64H428.61C428.85 27.82 430.13 26.98 433.49 26.98C436.49 26.98 437.41 27.98 437.41 28.92V28.94C437.41 29.92 436.49 30.1 433.55 30.28C429.89 30.5 428.51 30.82 427.41 31.46C426.31 32.06 425.79 32.98 425.79 34.18V34.2C425.79 36.26 427.29 37.38 430.53 37.38C434.25 37.38 436.55 35.84 437.51 33.86ZM431.21 35.58C429.17 35.58 428.43 34.96 428.43 34V33.98C428.43 33.4 428.67 32.98 429.23 32.64C429.93 32.2 431.15 31.96 433.77 31.82C436.09 31.68 437.07 31.4 437.45 30.88V31.36C437.45 33.36 434.99 35.58 431.21 35.58ZM451.894 37V34.82H450.314C447.554 34.82 446.874 34.32 446.874 31.2V27.7H451.894V25.58H446.874V22.4H444.814C444.814 23.1 444.794 23.96 444.654 24.58C444.494 25.34 444.314 25.54 443.414 25.64C443.014 25.68 441.894 25.7 441.414 25.7V27.7H444.514V31.58C444.514 35.64 445.774 37 449.714 37H451.894ZM455.857 23.66C456.957 23.66 457.497 23.14 457.497 22.06C457.497 20.92 456.917 20.48 455.837 20.48C454.777 20.48 454.197 20.92 454.197 22.06C454.197 23.22 454.677 23.66 455.857 23.66ZM454.517 37H457.077V25.58H454.517V37ZM467.274 37.38C472.414 37.38 474.974 35.04 474.974 31.34C474.974 27.38 471.894 25.14 467.354 25.14C462.914 25.14 459.774 27.42 459.774 31.34C459.774 35.14 462.074 37.38 467.274 37.38ZM467.334 35.3C464.014 35.3 462.314 34 462.314 31.34C462.314 28.54 464.294 27.16 467.394 27.16C470.574 27.16 472.434 28.62 472.434 31.34C472.434 33.96 470.754 35.3 467.334 35.3ZM480.22 37V31.96C480.22 28.86 481.88 27.16 484.92 27.16C487.98 27.16 489.12 28.86 489.12 31.44V37H491.62V30.9C491.62 27.46 489.56 25.14 485.68 25.14C482.94 25.14 480.98 26.44 480.1 28.46L479.88 25.58H477.7V37H480.22Z" fill="#DBF1C1"/>
<path d="M379.826 139.492L376.893 140.677C374.659 141.58 372.112 140.525 371.171 138.307L369.935 135.395C369.723 134.895 369.325 134.498 368.826 134.286L365.914 133.05C363.695 132.108 362.64 129.562 363.544 127.327L364.729 124.395C364.932 123.892 364.932 123.329 364.729 122.826L363.544 119.894C362.64 117.659 363.695 115.112 365.914 114.171L368.826 112.935C369.325 112.723 369.723 112.326 369.935 111.826L371.171 108.914C372.112 106.695 374.659 105.641 376.893 106.544L379.826 107.729C380.329 107.932 380.891 107.932 381.394 107.729L384.327 106.544C386.562 105.641 389.108 106.695 390.05 108.914L391.286 111.826C391.497 112.326 391.895 112.723 392.395 112.935L395.306 114.171C397.525 115.112 398.58 117.659 397.677 119.894L396.492 122.826C396.288 123.329 396.288 123.892 396.492 124.395L397.677 127.327C398.58 129.562 397.525 132.108 395.306 133.05L392.395 134.286C391.895 134.498 391.497 134.895 391.286 135.395L390.05 138.307C389.108 140.525 386.562 141.58 384.327 140.677L381.394 139.492C380.891 139.289 380.329 139.289 379.826 139.492ZM382.266 137.336L385.198 138.521C386.257 138.949 387.463 138.449 387.909 137.398L389.145 134.486C389.592 133.432 390.432 132.593 391.486 132.145L394.398 130.909C395.449 130.463 395.949 129.257 395.521 128.199L394.336 125.266C393.906 124.204 393.906 123.017 394.336 121.955L395.521 119.022C395.949 117.964 395.449 116.758 394.398 116.311L391.486 115.076C390.432 114.628 389.592 113.789 389.145 112.735L387.909 109.823C387.463 108.772 386.257 108.272 385.198 108.7L382.266 109.885C381.204 110.314 380.017 110.314 378.955 109.885L376.022 108.7C374.963 108.272 373.757 108.772 373.311 109.823L372.076 112.735C371.628 113.789 370.789 114.628 369.734 115.076L366.823 116.311C365.771 116.758 365.272 117.964 365.7 119.022L366.885 121.955C367.314 123.017 367.314 124.204 366.885 125.266L365.7 128.199C365.272 129.257 365.771 130.463 366.823 130.909L369.734 132.145C370.789 132.593 371.628 133.432 372.076 134.486L373.311 137.398C373.757 138.449 374.963 138.949 376.022 138.521L378.955 137.336C380.017 136.907 381.204 136.907 382.266 137.336ZM378.376 126.519L386.598 118.297C387.143 117.752 388.026 117.752 388.571 118.297C389.116 118.842 389.116 119.725 388.571 120.27L379.363 129.479C378.818 130.023 377.935 130.023 377.39 129.479L373.114 125.203C372.569 124.658 372.569 123.775 373.114 123.23C373.659 122.685 374.543 122.685 375.088 123.23L378.376 126.519Z" fill="#B2D530"/>
<path d="M170 122L113 122" stroke="#53A626" stroke-width="1.0651" stroke-dasharray="5.33 5.33"/>
<path d="M63.902 112.76C62.8354 109.843 61.0491 107.143 58.5567 104.949C50.5812 97.9284 38.3858 98.7055 31.3571 106.678C25.6845 113.113 25.1004 122.286 29.2753 129.279L24.8438 134.309C24.6637 134.515 24.5725 134.784 24.5902 135.057C24.6078 135.33 24.7329 135.585 24.938 135.766L25.2304 136.026L22.6777 138.921L16.4705 145.962L13.1268 149.751C11.5503 151.539 11.7231 154.296 13.5125 155.871C15.3016 157.446 18.0583 157.268 19.6352 155.48L31.7375 141.752L32.0298 142.011C32.1318 142.102 32.2505 142.171 32.3793 142.215C32.508 142.259 32.6442 142.277 32.78 142.269C32.9158 142.26 33.0486 142.225 33.1708 142.165C33.293 142.105 33.4022 142.022 33.4921 141.92L37.8714 136.95C45.3821 140.341 54.5423 138.631 60.2716 132.132C65.1039 126.651 66.2486 119.177 63.902 112.76ZM61.9712 113.475C64.0696 119.198 63.0414 125.857 58.7176 130.762C52.4283 137.896 41.5769 138.585 34.4413 132.304C27.3059 126.022 26.6205 115.179 32.9098 108.045C39.199 100.911 50.0507 100.222 57.1861 106.503C59.416 108.466 61.0174 110.873 61.9712 113.475ZM59.8744 114.241C59.0452 111.973 57.6569 109.871 55.72 108.166C49.5216 102.71 40.0353 103.315 34.5728 109.511C29.1105 115.707 29.7132 125.183 35.9113 130.639C42.1096 136.096 51.5897 135.497 57.0521 129.301C60.8074 125.041 61.6987 119.23 59.8744 114.241ZM57.9437 114.956C59.5197 119.252 58.7462 124.251 55.4993 127.934C50.7764 133.291 42.6363 133.803 37.2781 129.087C31.9198 124.37 31.4028 116.235 36.1255 110.878C40.8485 105.521 48.9911 105.003 54.3494 109.72C56.0238 111.194 57.2273 113.003 57.9437 114.956ZM35.9836 135.956L32.6196 139.773L27.0818 134.899L30.4714 131.056C31.2314 132.055 32.0968 132.996 33.0746 133.856C33.9914 134.663 34.9696 135.354 35.9836 135.956ZM30.1847 140.385L18.0825 154.113C17.2401 155.069 15.838 155.157 14.8831 154.317C13.9278 153.476 13.8389 152.076 14.6808 151.121L18.0233 147.328L24.2304 140.288L26.7831 137.393L30.1847 140.385Z" fill="#B2D530"/>
<path d="M44.2091 127.685H44.4213V129.896H46.6319V127.685H46.8441C47.8696 127.683 48.859 127.306 49.6265 126.626C50.3939 125.946 50.8866 125.009 51.012 123.991C51.1374 122.973 50.8869 121.945 50.3075 121.098C49.7281 120.252 48.8597 119.647 47.8654 119.395L43.7249 118.361C43.2498 118.244 42.8338 117.958 42.5559 117.555C42.278 117.152 42.1575 116.662 42.2172 116.176C42.2769 115.691 42.5126 115.244 42.8797 114.92C43.2468 114.597 43.7198 114.419 44.2091 114.422H46.8441C47.374 114.422 47.8819 114.633 48.2566 115.007C48.6312 115.382 48.842 115.89 48.8425 116.42V116.632H51.0532V116.42C51.052 115.304 50.6082 114.234 49.8191 113.445C49.03 112.656 47.9601 112.212 46.8441 112.211H46.6319V110H44.4213V112.211H44.2091C43.1835 112.213 42.1941 112.59 41.4267 113.27C40.6593 113.95 40.1666 114.887 40.0412 115.905C39.9158 116.923 40.1663 117.952 40.7457 118.798C41.3251 119.644 42.1935 120.25 43.1877 120.501L47.3283 121.535C47.8034 121.652 48.2194 121.939 48.4973 122.341C48.7751 122.744 48.8957 123.234 48.836 123.72C48.7763 124.206 48.5406 124.652 48.1735 124.976C47.8064 125.299 47.3334 125.477 46.8441 125.475H44.2091C43.6792 125.474 43.1713 125.263 42.7966 124.889C42.422 124.514 42.2112 124.006 42.2106 123.476V123.264H40V123.476C40.0012 124.592 40.445 125.662 41.2341 126.451C42.0232 127.24 43.0931 127.684 44.2091 127.685Z" fill="#B2D530"/>
</svg>
