<svg width="663" height="307" viewBox="0 0 663 307" fill="none" xmlns="http://www.w3.org/2000/svg">
<path d="M1.0651 185.223V56.7767L114.906 121L1.0651 185.223Z" stroke="#53A626" stroke-width="2.1302"/>
<path d="M23.5 107C14.9342 107 8 113.934 8 122.5C8 131.066 14.9342 138 23.5 138C32.0658 138 39 131.066 39 122.5C39 113.934 32.0658 107 23.5 107ZM15.4781 133.241V129.978C15.4781 127.667 17.2456 125.763 19.4211 125.491L22.1403 130.522H24.9956L27.7149 125.491C29.8903 125.763 31.6579 127.667 31.6579 129.978V133.241C29.3465 134.873 26.6272 135.961 23.636 135.961C20.6447 135.961 17.7895 135.009 15.4781 133.241ZM33.5614 131.338V129.978C33.5614 126.443 30.5702 123.452 27.0351 123.452H26.4912L23.7719 128.618H23.364L20.6447 123.452H20.1009C16.5658 123.452 13.5746 126.443 13.5746 129.978V131.338C11.3991 128.89 10.1754 125.763 10.1754 122.364C10.1754 114.886 16.1579 108.904 23.636 108.904C31.114 108.904 37.0965 114.886 37.0965 122.364C36.9605 125.899 35.7368 129.026 33.5614 131.338Z" fill="#B2D530"/>
<path d="M23.5002 112.71C20.8544 112.71 18.6055 114.959 18.6055 117.605C18.6055 120.251 20.8544 122.5 23.5002 122.5C26.146 122.5 28.3949 120.251 28.3949 117.605C28.3949 114.959 26.146 112.71 23.5002 112.71ZM23.5002 120.516C21.9127 120.516 20.5898 119.193 20.5898 117.605C20.5898 116.018 21.9127 114.695 23.5002 114.695C25.0877 114.695 26.4106 116.018 26.4106 117.605C26.4106 119.193 25.0877 120.516 23.5002 120.516Z" fill="#B2D530"/>
<path d="M68.5 107C59.9342 107 53 113.934 53 122.5C53 131.066 59.9342 138 68.5 138C77.0658 138 84 131.066 84 122.5C84 113.934 77.0658 107 68.5 107ZM60.4781 133.241V129.978C60.4781 127.667 62.2456 125.763 64.4211 125.491L67.1403 130.522H69.9956L72.7149 125.491C74.8903 125.763 76.6579 127.667 76.6579 129.978V133.241C74.3465 134.873 71.6272 135.961 68.636 135.961C65.6447 135.961 62.7895 135.009 60.4781 133.241ZM78.5614 131.338V129.978C78.5614 126.443 75.5702 123.452 72.0351 123.452H71.4912L68.7719 128.618H68.364L65.6447 123.452H65.1009C61.5658 123.452 58.5746 126.443 58.5746 129.978V131.338C56.3991 128.89 55.1754 125.763 55.1754 122.364C55.1754 114.886 61.1579 108.904 68.636 108.904C76.114 108.904 82.0965 114.886 82.0965 122.364C81.9605 125.899 80.7368 129.026 78.5614 131.338Z" fill="#B2D530"/>
<path d="M68.5002 112.71C65.8544 112.71 63.6055 114.959 63.6055 117.605C63.6055 120.251 65.8544 122.5 68.5002 122.5C71.146 122.5 73.3949 120.251 73.3949 117.605C73.3949 114.959 71.146 112.71 68.5002 112.71ZM68.5002 120.516C66.9127 120.516 65.5898 119.193 65.5898 117.605C65.5898 116.018 66.9127 114.695 68.5002 114.695C70.0877 114.695 71.4106 116.018 71.4106 117.605C71.4106 119.193 70.0877 120.516 68.5002 120.516Z" fill="#B2D530"/>
<path d="M341 121L284 121" stroke="#53A626" stroke-width="1.0651" stroke-dasharray="5.33 5.33"/>
<path d="M513 121L455 121" stroke="#53A626" stroke-width="1.0651" stroke-dasharray="5.33 5.33"/>
<path d="M511.984 78.9132L581.5 39.0244L651.016 78.9132V158.68L581.5 198.568L511.984 158.68V78.9132Z" stroke="#53A626" stroke-width="2.1302"/>
<path d="M550.842 132.896H585.66C586.327 132.896 586.981 132.71 587.548 132.359C588.116 132.009 588.574 131.507 588.873 130.91C589.171 130.313 589.297 129.645 589.238 128.981C589.178 128.317 588.934 127.682 588.534 127.148L585.936 123.685V106.368C585.93 102.513 584.665 98.7647 582.333 95.6938C580.002 92.623 576.731 90.3974 573.019 89.3552L576.983 81.44C577.103 81.1991 577.132 80.9224 577.062 80.6621C576.993 80.4018 576.831 80.1757 576.607 80.0263L575.502 79.288C574.668 78.7338 573.702 78.4092 572.703 78.3471C571.703 78.285 570.705 78.4876 569.808 78.9343C569.327 79.1745 568.796 79.2995 568.257 79.2995C567.719 79.2995 567.188 79.1745 566.706 78.9343C565.81 78.4878 564.812 78.2854 563.812 78.3475C562.813 78.4096 561.847 78.734 561.013 79.288L559.908 80.0263C559.684 80.1757 559.522 80.4018 559.453 80.6621C559.384 80.9224 559.412 81.1991 559.532 81.44L563.49 89.3552C559.777 90.396 556.505 92.621 554.172 95.692C551.839 98.7629 550.573 102.512 550.566 106.368V123.685L547.968 127.148C547.568 127.682 547.324 128.317 547.265 128.981C547.205 129.645 547.331 130.313 547.629 130.91C547.928 131.507 548.386 132.009 548.954 132.359C549.521 132.71 550.175 132.896 550.842 132.896V132.896ZM561.939 81.324L562.234 81.1283C562.743 80.7895 563.332 80.5906 563.942 80.5518C564.552 80.513 565.162 80.6356 565.71 80.9073C566.5 81.3003 567.37 81.5049 568.252 81.5049C569.134 81.5049 570.005 81.3003 570.794 80.9073C571.342 80.6345 571.952 80.5113 572.563 80.5501C573.173 80.589 573.763 80.7884 574.272 81.1283L574.567 81.324L570.782 88.8854C569.944 88.7575 569.099 88.6899 568.251 88.6832C567.404 88.6899 566.558 88.7575 565.72 88.8854L561.939 81.324ZM549.737 128.475L552.556 124.717C552.699 124.525 552.777 124.293 552.777 124.053V106.368C552.777 102.264 554.407 98.3282 557.309 95.4262C560.211 92.5241 564.147 90.8938 568.251 90.8938C572.355 90.8938 576.291 92.5241 579.193 95.4262C582.095 98.3282 583.725 102.264 583.725 106.368V124.053C583.725 124.293 583.803 124.525 583.947 124.717L586.765 128.475C586.919 128.68 587.013 128.924 587.036 129.18C587.059 129.435 587.01 129.692 586.896 129.922C586.781 130.151 586.604 130.344 586.386 130.479C586.168 130.614 585.916 130.685 585.66 130.685H550.842C550.586 130.685 550.334 130.614 550.116 130.479C549.898 130.344 549.721 130.151 549.607 129.922C549.492 129.692 549.443 129.435 549.466 129.18C549.489 128.924 549.583 128.68 549.737 128.475V128.475Z" fill="#B2D530"/>
<path d="M612.464 104.158H609.148V98.631C609.148 98.3378 609.031 98.0567 608.824 97.8494C608.617 97.6421 608.336 97.5256 608.042 97.5256H605.438C607.042 96.2346 608.205 94.4778 608.768 92.4976C609.331 90.5174 609.266 88.4112 608.582 86.4696C607.897 84.528 606.627 82.8466 604.947 81.6572C603.267 80.4678 601.259 79.8291 599.2 79.8291C597.141 79.8291 595.133 80.4678 593.453 81.6572C591.772 82.8466 590.502 84.528 589.818 86.4696C589.133 88.4112 589.068 90.5174 589.631 92.4976C590.194 94.4778 591.358 96.2346 592.961 97.5256H590.357C590.064 97.5256 589.783 97.6421 589.576 97.8494C589.368 98.0567 589.252 98.3378 589.252 98.631V105.263C589.252 105.556 589.368 105.837 589.576 106.044C589.783 106.252 590.064 106.368 590.357 106.368H593.673V110.789H590.357C590.064 110.789 589.783 110.906 589.576 111.113C589.368 111.32 589.252 111.602 589.252 111.895V118.527C589.252 118.82 589.368 119.101 589.576 119.308C589.783 119.516 590.064 119.632 590.357 119.632H593.673V131.79C593.673 132.084 593.79 132.365 593.997 132.572C594.204 132.779 594.485 132.896 594.779 132.896H612.464C612.757 132.896 613.038 132.779 613.245 132.572C613.453 132.365 613.569 132.084 613.569 131.79V118.527C613.569 118.234 613.453 117.952 613.245 117.745C613.038 117.538 612.757 117.421 612.464 117.421H609.148V113H612.464C612.757 113 613.038 112.884 613.245 112.676C613.453 112.469 613.569 112.188 613.569 111.895V105.263C613.569 104.97 613.453 104.689 613.245 104.481C613.038 104.274 612.757 104.158 612.464 104.158ZM591.463 89.7884C591.463 88.2581 591.916 86.7622 592.767 85.4898C593.617 84.2175 594.825 83.2258 596.239 82.6402C597.653 82.0545 599.208 81.9013 600.709 82.1999C602.21 82.4984 603.589 83.2353 604.671 84.3174C605.753 85.3994 606.49 86.7781 606.788 88.279C607.087 89.7798 606.934 91.3355 606.348 92.7493C605.762 94.1631 604.771 95.3715 603.498 96.2217C602.226 97.0719 600.73 97.5256 599.2 97.5256C597.148 97.5233 595.182 96.7074 593.731 95.2569C592.281 93.8064 591.465 91.8397 591.463 89.7884ZM591.463 99.7363H606.937V104.158H604.726V101.947H602.516V104.158H600.305V101.947H598.094V104.158H595.884V101.947H593.673V104.158H591.463V99.7363ZM611.358 130.685H609.148V128.475H606.937V130.685H604.726V128.475H602.516V130.685H600.305V128.475H598.094V130.685H595.884V126.264H611.358V130.685ZM611.358 124.053H609.148V121.843H606.937V124.053H604.726V121.843H602.516V124.053H600.305V121.843H598.094V124.053H595.884V119.632H611.358V124.053ZM606.937 117.421H604.726V115.211H602.516V117.421H600.305V115.211H598.094V117.421H595.884V115.211H593.673V117.421H591.463V113H606.937V117.421ZM611.358 110.789H609.148V108.579H606.937V110.789H604.726V108.579H602.516V110.789H600.305V108.579H598.094V110.789H595.884V106.368H611.358V110.789Z" fill="#B2D530"/>
<path d="M599.199 84.262C597.734 84.2637 596.33 84.8465 595.293 85.8826C594.257 86.9187 593.675 88.3233 593.673 89.7886H595.883C595.883 88.9091 596.233 88.0657 596.855 87.4438C597.477 86.822 598.32 86.4726 599.199 86.4726V84.262Z" fill="#B2D530"/>
<path d="M602.515 89.7883C602.515 90.6678 602.166 91.5112 601.544 92.1331C600.922 92.7549 600.079 93.1043 599.199 93.1043V95.3149C600.664 95.3132 602.069 94.7303 603.105 93.6943C604.141 92.6582 604.724 91.2535 604.726 89.7883H602.515Z" fill="#B2D530"/>
<path d="M566.934 118.527H567.146V120.738H569.357V118.527H569.569C570.594 118.525 571.584 118.148 572.351 117.468C573.119 116.787 573.611 115.85 573.737 114.833C573.862 113.815 573.611 112.786 573.032 111.94C572.453 111.094 571.584 110.488 570.59 110.237L566.45 109.202C565.974 109.086 565.558 108.799 565.281 108.397C565.003 107.994 564.882 107.503 564.942 107.018C565.001 106.532 565.237 106.085 565.604 105.762C565.971 105.439 566.444 105.261 566.934 105.263H569.569C570.099 105.264 570.607 105.474 570.981 105.849C571.356 106.224 571.567 106.732 571.567 107.261V107.474H573.778V107.261C573.777 106.146 573.333 105.076 572.544 104.287C571.755 103.497 570.685 103.054 569.569 103.052H569.357V100.842H567.146V103.052H566.934C565.908 103.055 564.919 103.431 564.151 104.112C563.384 104.792 562.891 105.729 562.766 106.747C562.64 107.765 562.891 108.793 563.47 109.639C564.05 110.486 564.918 111.091 565.912 111.342L570.053 112.377C570.528 112.493 570.944 112.78 571.222 113.183C571.5 113.585 571.62 114.076 571.561 114.562C571.501 115.047 571.265 115.494 570.898 115.817C570.531 116.141 570.058 116.318 569.569 116.316H566.934C566.404 116.316 565.896 116.105 565.521 115.73C565.147 115.356 564.936 114.848 564.935 114.318V114.106H562.725V114.318C562.726 115.434 563.17 116.504 563.959 117.293C564.748 118.082 565.818 118.526 566.934 118.527V118.527Z" fill="#B2D530"/>
<path d="M584.815 71.921C584.771 71.6635 584.638 71.4297 584.438 71.2611C584.239 71.0925 583.986 71 583.725 71C583.464 71 583.211 71.0925 583.011 71.2611C582.812 71.4297 582.679 71.6635 582.635 71.921C582.488 72.7998 582.071 73.6109 581.441 74.2408C580.811 74.8708 580 75.2883 579.121 75.4348C578.864 75.4784 578.63 75.6117 578.461 75.8112C578.293 76.0107 578.2 76.2635 578.2 76.5247C578.2 76.7859 578.293 77.0386 578.461 77.2381C578.63 77.4376 578.864 77.571 579.121 77.6145C580 77.7611 580.811 78.1785 581.441 78.8085C582.071 79.4385 582.488 80.2495 582.635 81.1283C582.679 81.3858 582.812 81.6196 583.011 81.7882C583.211 81.9568 583.464 82.0493 583.725 82.0493C583.986 82.0493 584.239 81.9568 584.438 81.7882C584.638 81.6196 584.771 81.3858 584.815 81.1283C584.961 80.2495 585.379 79.4385 586.009 78.8085C586.639 78.1785 587.45 77.7611 588.329 77.6145C588.586 77.571 588.82 77.4376 588.988 77.2381C589.157 77.0386 589.25 76.7859 589.25 76.5247C589.25 76.2635 589.157 76.0107 588.988 75.8112C588.82 75.6117 588.586 75.4784 588.329 75.4348C587.45 75.2883 586.639 74.8708 586.009 74.2408C585.379 73.6109 584.961 72.7998 584.815 71.921V71.921ZM583.725 78.1031C583.294 77.4897 582.76 76.9557 582.146 76.5247C582.76 76.0937 583.294 75.5596 583.725 74.9463C584.156 75.5596 584.69 76.0937 585.303 76.5247C584.69 76.9557 584.156 77.4897 583.725 78.1031V78.1031Z" fill="#B2D530"/>
<path d="M342.065 186.203V55.7974L454.943 121L342.065 186.203Z" stroke="#53A626" stroke-width="2.1302"/>
<path d="M387.58 114.905L383.282 112.225L361.269 148.237L365.567 150.917L387.58 114.905Z" stroke="#B2D530" stroke-width="2.13019" stroke-miterlimit="10" stroke-linecap="round" stroke-linejoin="round"/>
<path d="M393.685 104.882L389.379 102.219L387.572 105.132L391.879 107.795L393.685 104.882Z" stroke="#B2D530" stroke-width="2.13019" stroke-miterlimit="10" stroke-linecap="round" stroke-linejoin="round"/>
<path d="M394.96 109.736L384.533 103.289L380.194 110.285L390.62 116.732L394.96 109.736Z" stroke="#B2D530" stroke-width="2.13019" stroke-miterlimit="10" stroke-linecap="round" stroke-linejoin="round"/>
<path d="M381.008 109.11C374.339 105.517 367.719 102.984 361.705 101.565C368 100.096 375.924 101.138 383.759 104.694" stroke="#B2D530" stroke-width="2.1302" stroke-miterlimit="10" stroke-linecap="round" stroke-linejoin="round"/>
<path d="M394.318 110.753C401.448 116.374 406.196 123.343 407.702 129.909C403.59 124.885 398.078 119.816 391.51 115.192" stroke="#B2D530" stroke-width="2.1302" stroke-miterlimit="10" stroke-linecap="round" stroke-linejoin="round"/>
<path d="M178.78 210.92H184.56V208.78H170.74V210.92H176.26V223H178.78V210.92ZM189.471 223V217.92C189.471 214.84 191.191 213.16 194.211 213.16C197.291 213.16 198.391 214.98 198.391 217.56V223H200.891V216.9C200.891 213.46 198.851 211.14 194.971 211.14C192.251 211.14 190.371 212.4 189.491 214.38V207.84H187.091V223H189.471ZM218.34 219.76H215.58C214.88 220.88 213.54 221.42 211.12 221.42C207.86 221.42 206.2 220.34 205.88 218.2H218.54V217.2C218.54 213.46 215.78 211.14 211.12 211.14C206.34 211.14 203.52 213.78 203.52 217.44C203.52 221.08 205.74 223.38 210.92 223.38C214.54 223.38 217.12 222.42 218.34 219.76ZM211.18 213.08C214.12 213.08 215.78 214.14 216.1 216.38H205.92C206.34 214.22 208.22 213.08 211.18 213.08ZM219.57 228.1H220.67C224.25 228.1 225.07 227.56 227.39 223.64L234.47 211.58H231.77L226.83 220.16L226.77 220.28L226.73 220.16L221.73 211.58H218.99L225.47 222.52L225.09 223.16C223.73 225.42 223.13 225.92 220.79 225.92H219.55L219.57 228.1ZM249.491 223.4C254.291 223.4 256.951 221.06 256.951 215.34V208.78H254.371V215.28C254.371 219.44 252.851 221.02 249.511 221.02C246.111 221.02 244.571 219.38 244.571 215.3V208.78H241.991V215.36C241.991 221.02 244.451 223.4 249.491 223.4ZM266.576 223.38C271.096 223.38 273.196 221.72 273.196 219.56C273.196 217.22 271.576 216.42 266.656 216.22C262.716 216.06 261.916 215.76 261.916 214.72C261.916 213.78 262.836 212.98 265.636 212.98C268.156 212.98 269.856 213.54 270.356 215.12H273.036C272.176 212.34 269.756 211.14 265.636 211.14C261.516 211.14 259.496 212.74 259.496 214.9C259.496 217.12 261.296 217.98 265.836 218.12C269.816 218.26 270.736 218.54 270.736 219.6C270.736 220.64 269.776 221.42 266.696 221.42C263.996 221.42 262.296 220.92 261.816 219.14H258.976C259.596 222.16 262.316 223.38 266.576 223.38ZM290.137 219.76H287.377C286.677 220.88 285.337 221.42 282.917 221.42C279.657 221.42 277.997 220.34 277.677 218.2H290.337V217.2C290.337 213.46 287.577 211.14 282.917 211.14C278.137 211.14 275.317 213.78 275.317 217.44C275.317 221.08 277.537 223.38 282.717 223.38C286.337 223.38 288.917 222.42 290.137 219.76ZM282.977 213.08C285.917 213.08 287.577 214.14 287.897 216.38H277.717C278.137 214.22 280.017 213.08 282.977 213.08ZM176.58 243H179.16V237.14L186.16 228.78H183.14L177.92 235.08L173.1 228.78H170.06L176.58 237.1V243ZM192.095 243.38C197.235 243.38 199.795 241.04 199.795 237.34C199.795 233.38 196.715 231.14 192.175 231.14C187.735 231.14 184.595 233.42 184.595 237.34C184.595 241.14 186.895 243.38 192.095 243.38ZM192.155 241.3C188.835 241.3 187.135 240 187.135 237.34C187.135 234.54 189.115 233.16 192.215 233.16C195.395 233.16 197.255 234.62 197.255 237.34C197.255 239.96 195.575 241.3 192.155 241.3ZM213.561 240L213.781 243H215.921V231.58H213.401V236.82C213.401 239.62 211.801 241.3 209.081 241.3C206.121 241.3 204.881 239.86 204.881 237.22V231.58H202.381V237.68C202.381 241.26 204.321 243.38 208.141 243.38C210.921 243.38 212.801 242.08 213.561 240ZM219.278 243H221.798V239.16C221.798 235.54 223.018 233.94 226.878 233.94H228.198V231.5H226.958C224.018 231.5 222.378 232.92 221.738 235.14L221.438 231.58H219.278V243ZM252.727 237.36H250.067C249.647 239.6 247.967 241.14 244.387 241.14C240.547 241.14 238.407 239.42 238.407 236.04V236.02C238.407 232.44 240.767 230.7 244.527 230.7C247.667 230.7 249.507 231.94 250.007 234.1H252.647C251.867 230.32 248.707 228.46 244.507 228.46C239.447 228.46 235.847 231.3 235.847 236V236.06C235.847 241.04 239.067 243.38 244.247 243.38C249.387 243.38 252.087 240.98 252.727 237.36ZM262.251 243.38C267.391 243.38 269.951 241.04 269.951 237.34C269.951 233.38 266.871 231.14 262.331 231.14C257.891 231.14 254.751 233.42 254.751 237.34C254.751 241.14 257.051 243.38 262.251 243.38ZM262.311 241.3C258.991 241.3 257.291 240 257.291 237.34C257.291 234.54 259.271 233.16 262.371 233.16C265.551 233.16 267.411 234.62 267.411 237.34C267.411 239.96 265.731 241.3 262.311 241.3ZM284.85 240.54L285.05 243H287.19V227.84H284.75V233.8C283.71 232.08 281.71 231.16 279.19 231.16C275.05 231.16 272.27 233.4 272.27 237.36C272.27 241.52 275.11 243.34 279.13 243.34C281.99 243.34 283.93 242.34 284.85 240.54ZM279.81 241.32C276.47 241.32 274.79 240.06 274.79 237.36C274.79 234.66 276.61 233.16 279.79 233.16C282.85 233.16 284.89 234.66 284.89 237.32C284.89 239.9 283.05 241.32 279.81 241.32ZM304.669 239.76H301.909C301.209 240.88 299.869 241.42 297.449 241.42C294.189 241.42 292.529 240.34 292.209 238.2H304.869V237.2C304.869 233.46 302.109 231.14 297.449 231.14C292.669 231.14 289.849 233.78 289.849 237.44C289.849 241.08 292.069 243.38 297.249 243.38C300.869 243.38 303.449 242.42 304.669 239.76ZM297.509 233.08C300.449 233.08 302.109 234.14 302.429 236.38H292.249C292.669 234.22 294.549 233.08 297.509 233.08Z" fill="#DBF1C1"/>
<path d="M36.98 16.4C41.9 16.4 44.16 14.7 44.16 11.82C44.16 8.92 41.88 8.04 36.84 7.76C32.72 7.54 31.68 7.14 31.68 5.76C31.68 4.34 32.94 3.56 36.04 3.56C39.18 3.56 41.12 4.28 41.48 6.3H44.1C43.52 3.02 40.88 1.46 36.08 1.46C31.5 1.46 29.2 3.18 29.2 5.82C29.2 8.7 31.34 9.56 35.74 9.84C40.16 10.1 41.68 10.24 41.68 12C41.68 13.48 40.28 14.24 37.04 14.24C33.5 14.24 31.6 13.44 31.16 10.98H28.5C29.08 14.72 31.4 16.4 36.98 16.4ZM61.2233 12.76H58.4633C57.7633 13.88 56.4233 14.42 54.0033 14.42C50.7433 14.42 49.0833 13.34 48.7633 11.2H61.4233V10.2C61.4233 6.46 58.6633 4.14 54.0033 4.14C49.2233 4.14 46.4033 6.78 46.4033 10.44C46.4033 14.08 48.6233 16.38 53.8033 16.38C57.4233 16.38 60.0033 15.42 61.2233 12.76ZM54.0633 6.08C57.0033 6.08 58.6633 7.14 58.9833 9.38H48.8033C49.2233 7.22 51.1033 6.08 54.0633 6.08ZM66.5555 16V10.96C66.5555 7.86 68.2155 6.16 71.2555 6.16C74.3155 6.16 75.4555 7.86 75.4555 10.44V16H77.9555V9.9C77.9555 6.46 75.8955 4.14 72.0155 4.14C69.2755 4.14 67.3155 5.44 66.4355 7.46L66.2155 4.58H64.0355V16H66.5555ZM93.163 13.54L93.363 16H95.503V0.84H93.063V6.8C92.023 5.08 90.023 4.16 87.503 4.16C83.363 4.16 80.583 6.4 80.583 10.36C80.583 14.52 83.423 16.34 87.443 16.34C90.303 16.34 92.243 15.34 93.163 13.54ZM88.123 14.32C84.783 14.32 83.103 13.06 83.103 10.36C83.103 7.66 84.923 6.16 88.103 6.16C91.163 6.16 93.203 7.66 93.203 10.32C93.203 12.9 91.363 14.32 88.123 14.32ZM115.779 12.86L116.019 16H118.059V8.48C118.059 5.44 115.959 4.14 111.559 4.14C107.139 4.14 104.699 5.54 104.319 8.64H106.879C107.119 6.82 108.399 5.98 111.759 5.98C114.759 5.98 115.679 6.98 115.679 7.92V7.94C115.679 8.92 114.759 9.1 111.819 9.28C108.159 9.5 106.779 9.82 105.679 10.46C104.579 11.06 104.059 11.98 104.059 13.18V13.2C104.059 15.26 105.559 16.38 108.799 16.38C112.519 16.38 114.819 14.84 115.779 12.86ZM109.479 14.58C107.439 14.58 106.699 13.96 106.699 13V12.98C106.699 12.4 106.939 11.98 107.499 11.64C108.199 11.2 109.419 10.96 112.039 10.82C114.359 10.68 115.339 10.4 115.719 9.88V10.36C115.719 12.36 113.259 14.58 109.479 14.58ZM32.38 30.96H37.44C40.52 30.96 41.48 31.72 41.48 34.2V35.08C41.48 35.46 41.52 35.86 41.8 36H44.42C44.16 35.84 44.08 35.48 44.08 35.1V34.2C44.08 31.58 43.18 30.4 41 29.94C43.24 29.46 44.34 28.34 44.34 26.14C44.34 23.12 42.32 21.78 37.44 21.78H29.92V36H32.38V30.96ZM37.32 28.84H32.38V23.9H37.42C40.44 23.9 41.8 24.4 41.8 26.28V26.44C41.8 28.5 39.98 28.86 37.32 28.84ZM61.1256 32.76H58.3656C57.6656 33.88 56.3256 34.42 53.9056 34.42C50.6456 34.42 48.9856 33.34 48.6656 31.2H61.3256V30.2C61.3256 26.46 58.5656 24.14 53.9056 24.14C49.1256 24.14 46.3056 26.78 46.3056 30.44C46.3056 34.08 48.5256 36.38 53.7056 36.38C57.3256 36.38 59.9056 35.42 61.1256 32.76ZM53.9656 26.08C56.9056 26.08 58.5656 27.14 58.8856 29.38H48.7056C49.1256 27.22 51.0056 26.08 53.9656 26.08ZM67.9192 26.68H72.2592V24.58H67.9192V24.1C67.9192 21.82 68.4592 21.44 70.4792 21.44H72.2592V19.46H70.2592C66.6992 19.46 65.5392 20.42 65.5392 24.12V24.58H62.3992V26.68H65.5392V36H67.8992L67.9192 26.68ZM88.2545 32.76H85.4945C84.7945 33.88 83.4545 34.42 81.0345 34.42C77.7745 34.42 76.1145 33.34 75.7945 31.2H88.4545V30.2C88.4545 26.46 85.6945 24.14 81.0345 24.14C76.2545 24.14 73.4345 26.78 73.4345 30.44C73.4345 34.08 75.6545 36.38 80.8345 36.38C84.4545 36.38 87.0345 35.42 88.2545 32.76ZM81.0945 26.08C84.0345 26.08 85.6945 27.14 86.0145 29.38H75.8345C76.2545 27.22 78.1345 26.08 81.0945 26.08ZM91.0667 36H93.5867V32.16C93.5867 28.54 94.8067 26.94 98.6667 26.94H99.9867V24.5H98.7467C95.8067 24.5 94.1667 25.92 93.5267 28.14L93.2267 24.58H91.0667V36ZM102.453 36H104.973V32.16C104.973 28.54 106.193 26.94 110.053 26.94H111.373V24.5H110.133C107.193 24.5 105.553 25.92 104.913 28.14L104.613 24.58H102.453V36ZM124.353 32.86L124.593 36H126.633V28.48C126.633 25.44 124.533 24.14 120.133 24.14C115.713 24.14 113.273 25.54 112.893 28.64H115.453C115.693 26.82 116.973 25.98 120.333 25.98C123.333 25.98 124.253 26.98 124.253 27.92V27.94C124.253 28.92 123.333 29.1 120.393 29.28C116.733 29.5 115.353 29.82 114.253 30.46C113.153 31.06 112.633 31.98 112.633 33.18V33.2C112.633 35.26 114.133 36.38 117.373 36.38C121.093 36.38 123.393 34.84 124.353 32.86ZM118.053 34.58C116.013 34.58 115.273 33.96 115.273 33V32.98C115.273 32.4 115.513 31.98 116.073 31.64C116.773 31.2 117.993 30.96 120.613 30.82C122.933 30.68 123.913 30.4 124.293 29.88V30.36C124.293 32.36 121.833 34.58 118.053 34.58ZM129.896 36H132.396V20.84H129.896V36Z" fill="#DBF1C1"/>
<path d="M454.78 210.92H460.56V208.78H446.74V210.92H452.26V223H454.78V210.92ZM465.471 223V217.92C465.471 214.84 467.191 213.16 470.211 213.16C473.291 213.16 474.391 214.98 474.391 217.56V223H476.891V216.9C476.891 213.46 474.851 211.14 470.971 211.14C468.251 211.14 466.371 212.4 465.491 214.38V207.84H463.091V223H465.471ZM494.34 219.76H491.58C490.88 220.88 489.54 221.42 487.12 221.42C483.86 221.42 482.2 220.34 481.88 218.2H494.54V217.2C494.54 213.46 491.78 211.14 487.12 211.14C482.34 211.14 479.52 213.78 479.52 217.44C479.52 221.08 481.74 223.38 486.92 223.38C490.54 223.38 493.12 222.42 494.34 219.76ZM487.18 213.08C490.12 213.08 491.78 214.14 492.1 216.38H481.92C482.34 214.22 484.22 213.08 487.18 213.08ZM495.57 228.1H496.67C500.25 228.1 501.07 227.56 503.39 223.64L510.47 211.58H507.77L502.83 220.16L502.77 220.28L502.73 220.16L497.73 211.58H494.99L501.47 222.52L501.09 223.16C499.73 225.42 499.13 225.92 496.79 225.92H495.55L495.57 228.1ZM532.091 223V220.82H520.671V217H529.991V214.92H520.671V210.88H531.691V208.78H518.291V223H532.091ZM545.791 219.86L546.031 223H548.071V215.48C548.071 212.44 545.971 211.14 541.571 211.14C537.151 211.14 534.711 212.54 534.331 215.64H536.891C537.131 213.82 538.411 212.98 541.771 212.98C544.771 212.98 545.691 213.98 545.691 214.92V214.94C545.691 215.92 544.771 216.1 541.831 216.28C538.171 216.5 536.791 216.82 535.691 217.46C534.591 218.06 534.071 218.98 534.071 220.18V220.2C534.071 222.26 535.571 223.38 538.811 223.38C542.531 223.38 544.831 221.84 545.791 219.86ZM539.491 221.58C537.451 221.58 536.711 220.96 536.711 220V219.98C536.711 219.4 536.951 218.98 537.511 218.64C538.211 218.2 539.431 217.96 542.051 217.82C544.371 217.68 545.351 217.4 545.731 216.88V217.36C545.731 219.36 543.271 221.58 539.491 221.58ZM551.293 223H553.813V219.16C553.813 215.54 555.033 213.94 558.893 213.94H560.213V211.5H558.973C556.033 211.5 554.393 212.92 553.753 215.14L553.453 211.58H551.293V223ZM565.2 223V217.96C565.2 214.86 566.86 213.16 569.9 213.16C572.96 213.16 574.1 214.86 574.1 217.44V223H576.6V216.9C576.6 213.46 574.54 211.14 570.66 211.14C567.92 211.14 565.96 212.44 565.08 214.46L564.86 211.58H562.68V223H565.2ZM447.92 228.78V243H454.6C459.8 243 463.08 241 463.08 235.94V235.88C463.08 230.84 459.66 228.78 454.36 228.78H447.92ZM450.36 230.94H454.26C458.32 230.94 460.56 232.26 460.56 235.86V235.9C460.56 239.6 458.46 240.82 454.48 240.82H450.36V230.94ZM472.938 243.38C478.078 243.38 480.638 241.04 480.638 237.34C480.638 233.38 477.558 231.14 473.018 231.14C468.578 231.14 465.438 233.42 465.438 237.34C465.438 241.14 467.738 243.38 472.938 243.38ZM472.998 241.3C469.678 241.3 467.978 240 467.978 237.34C467.978 234.54 469.958 233.16 473.058 233.16C476.238 233.16 478.098 234.62 478.098 237.34C478.098 239.96 476.418 241.3 472.998 241.3ZM494.405 240L494.625 243H496.765V231.58H494.245V236.82C494.245 239.62 492.645 241.3 489.925 241.3C486.965 241.3 485.725 239.86 485.725 237.22V231.58H483.225V237.68C483.225 241.26 485.165 243.38 488.985 243.38C491.765 243.38 493.645 242.08 494.405 240ZM508.124 243.34C511.944 243.34 514.964 241.34 514.964 237.34C514.964 233.32 512.284 231.16 508.264 231.16C505.664 231.16 503.524 232.14 502.464 234V227.84H500.044V243H502.204L502.364 240.76C503.284 242.44 505.204 243.34 508.124 243.34ZM507.384 241.32C504.144 241.32 502.344 239.92 502.344 237.34C502.344 234.68 504.424 233.16 507.424 233.16C510.604 233.16 512.444 234.62 512.444 237.34C512.444 239.96 510.804 241.32 507.384 241.32ZM517.7 243H520.2V227.84H517.7V243ZM537.622 239.76H534.862C534.162 240.88 532.822 241.42 530.402 241.42C527.142 241.42 525.482 240.34 525.162 238.2H537.822V237.2C537.822 233.46 535.062 231.14 530.402 231.14C525.622 231.14 522.802 233.78 522.802 237.44C522.802 241.08 525.022 243.38 530.202 243.38C533.822 243.38 536.402 242.42 537.622 239.76ZM530.462 233.08C533.402 233.08 535.062 234.14 535.382 236.38H525.202C525.622 234.22 527.502 233.08 530.462 233.08ZM453.94 256.92H458.42V254.72H453.94V250.48H451.76V254.72H447.38V256.92H451.76V261.2H453.94V256.92ZM452.58 283H455.16V277.14L462.16 268.78H459.14L453.92 275.08L449.1 268.78H446.06L452.58 277.1V283ZM468.095 283.38C473.235 283.38 475.795 281.04 475.795 277.34C475.795 273.38 472.715 271.14 468.175 271.14C463.735 271.14 460.595 273.42 460.595 277.34C460.595 281.14 462.895 283.38 468.095 283.38ZM468.155 281.3C464.835 281.3 463.135 280 463.135 277.34C463.135 274.54 465.115 273.16 468.215 273.16C471.395 273.16 473.255 274.62 473.255 277.34C473.255 279.96 471.575 281.3 468.155 281.3ZM489.561 280L489.781 283H491.921V271.58H489.401V276.82C489.401 279.62 487.801 281.3 485.081 281.3C482.121 281.3 480.881 279.86 480.881 277.22V271.58H478.381V277.68C478.381 281.26 480.321 283.38 484.141 283.38C486.921 283.38 488.801 282.08 489.561 280ZM515.099 283V280.82H503.679V277H512.999V274.92H503.679V270.88H514.699V268.78H501.299V283H515.099ZM528.799 279.86L529.039 283H531.079V275.48C531.079 272.44 528.979 271.14 524.579 271.14C520.159 271.14 517.719 272.54 517.339 275.64H519.899C520.139 273.82 521.419 272.98 524.779 272.98C527.779 272.98 528.699 273.98 528.699 274.92V274.94C528.699 275.92 527.779 276.1 524.839 276.28C521.179 276.5 519.799 276.82 518.699 277.46C517.599 278.06 517.079 278.98 517.079 280.18V280.2C517.079 282.26 518.579 283.38 521.819 283.38C525.539 283.38 527.839 281.84 528.799 279.86ZM522.499 281.58C520.459 281.58 519.719 280.96 519.719 280V279.98C519.719 279.4 519.959 278.98 520.519 278.64C521.219 278.2 522.439 277.96 525.059 277.82C527.379 277.68 528.359 277.4 528.739 276.88V277.36C528.739 279.36 526.279 281.58 522.499 281.58ZM534.301 283H536.821V279.16C536.821 275.54 538.041 273.94 541.901 273.94H543.221V271.5H541.981C539.041 271.5 537.401 272.92 536.761 275.14L536.461 271.58H534.301V283ZM548.208 283V277.96C548.208 274.86 549.868 273.16 552.908 273.16C555.968 273.16 557.108 274.86 557.108 277.44V283H559.608V276.9C559.608 273.46 557.548 271.14 553.668 271.14C550.928 271.14 548.968 272.44 548.088 274.46L547.868 271.58H545.688V283H548.208ZM454.78 290.92H460.56V288.78H446.74V290.92H452.26V303H454.78V290.92ZM467.177 303.38C472.317 303.38 474.877 301.04 474.877 297.34C474.877 293.38 471.797 291.14 467.257 291.14C462.817 291.14 459.677 293.42 459.677 297.34C459.677 301.14 461.977 303.38 467.177 303.38ZM467.237 301.3C463.917 301.3 462.217 300 462.217 297.34C462.217 294.54 464.197 293.16 467.297 293.16C470.477 293.16 472.337 294.62 472.337 297.34C472.337 299.96 470.657 301.3 467.237 301.3ZM484.696 303.38C489.836 303.38 492.396 301.04 492.396 297.34C492.396 293.38 489.316 291.14 484.776 291.14C480.336 291.14 477.196 293.42 477.196 297.34C477.196 301.14 479.496 303.38 484.696 303.38ZM484.756 301.3C481.436 301.3 479.736 300 479.736 297.34C479.736 294.54 481.716 293.16 484.816 293.16C487.996 293.16 489.856 294.62 489.856 297.34C489.856 299.96 488.176 301.3 484.756 301.3Z" fill="#DBF1C1"/>
<path d="M565.06 165H579.88V162.76H567.78C567.9 160.98 569.82 160.46 573.28 159.74C577.46 158.86 579.96 157.92 579.96 155.06C579.96 152.34 577.88 150.46 573.14 150.46C568.04 150.46 565.28 152.56 565.28 156.44H567.82C567.82 153.74 569.74 152.58 573.1 152.58C576.06 152.58 577.46 153.44 577.46 155.06C577.46 156.8 575.34 157.34 572.16 157.98C568.32 158.74 565.06 159.64 565.06 163.34V165ZM588.633 160.46L593.013 165H596.153L590.253 159.04L595.833 153.58H592.753L588.693 157.7L584.693 153.58H581.573L587.113 159.02L580.933 165H584.113L588.633 160.46Z" fill="#B2D530"/>
<path d="M349.78 3.92H355.56V1.78H341.74V3.92H347.26V16H349.78V3.92ZM360.471 16V10.92C360.471 7.84 362.191 6.16 365.211 6.16C368.291 6.16 369.391 7.98 369.391 10.56V16H371.891V9.9C371.891 6.46 369.851 4.14 365.971 4.14C363.251 4.14 361.371 5.4 360.491 7.38V0.84H358.091V16H360.471ZM389.34 12.76H386.58C385.88 13.88 384.54 14.42 382.12 14.42C378.86 14.42 377.2 13.34 376.88 11.2H389.54V10.2C389.54 6.46 386.78 4.14 382.12 4.14C377.34 4.14 374.52 6.78 374.52 10.44C374.52 14.08 376.74 16.38 381.92 16.38C385.54 16.38 388.12 15.42 389.34 12.76ZM382.18 6.08C385.12 6.08 386.78 7.14 387.1 9.38H376.92C377.34 7.22 379.22 6.08 382.18 6.08ZM390.57 21.1H391.67C395.25 21.1 396.07 20.56 398.39 16.64L405.47 4.58H402.77L397.83 13.16L397.77 13.28L397.73 13.16L392.73 4.58H389.99L396.47 15.52L396.09 16.16C394.73 18.42 394.13 18.92 391.79 18.92H390.55L390.57 21.1ZM415.751 10.96H420.811C423.891 10.96 424.851 11.72 424.851 14.2V15.08C424.851 15.46 424.891 15.86 425.171 16H427.791C427.531 15.84 427.451 15.48 427.451 15.1V14.2C427.451 11.58 426.551 10.4 424.371 9.94C426.611 9.46 427.711 8.34 427.711 6.14C427.711 3.12 425.691 1.78 420.811 1.78H413.291V16H415.751V10.96ZM420.691 8.84H415.751V3.9H420.791C423.811 3.9 425.171 4.4 425.171 6.28V6.44C425.171 8.5 423.351 8.86 420.691 8.84ZM441.475 13L441.695 16H443.835V4.58H441.315V9.82C441.315 12.62 439.715 14.3 436.995 14.3C434.035 14.3 432.795 12.86 432.795 10.22V4.58H430.295V10.68C430.295 14.26 432.235 16.38 436.055 16.38C438.835 16.38 440.715 15.08 441.475 13ZM449.712 16V10.96C449.712 7.86 451.372 6.16 454.412 6.16C457.472 6.16 458.612 7.86 458.612 10.44V16H461.112V9.9C461.112 6.46 459.052 4.14 455.172 4.14C452.432 4.14 450.472 5.44 449.592 7.46L449.372 4.58H447.192V16H449.712ZM349.98 36.4C354.9 36.4 357.16 34.7 357.16 31.82C357.16 28.92 354.88 28.04 349.84 27.76C345.72 27.54 344.68 27.14 344.68 25.76C344.68 24.34 345.94 23.56 349.04 23.56C352.18 23.56 354.12 24.28 354.48 26.3H357.1C356.52 23.02 353.88 21.46 349.08 21.46C344.5 21.46 342.2 23.18 342.2 25.82C342.2 28.7 344.34 29.56 348.74 29.84C353.16 30.1 354.68 30.24 354.68 32C354.68 33.48 353.28 34.24 350.04 34.24C346.5 34.24 344.6 33.44 344.16 30.98H341.5C342.08 34.72 344.4 36.4 349.98 36.4ZM371.162 32.86L371.402 36H373.442V28.48C373.442 25.44 371.342 24.14 366.942 24.14C362.522 24.14 360.082 25.54 359.702 28.64H362.262C362.502 26.82 363.782 25.98 367.142 25.98C370.142 25.98 371.062 26.98 371.062 27.92V27.94C371.062 28.92 370.142 29.1 367.202 29.28C363.542 29.5 362.162 29.82 361.062 30.46C359.962 31.06 359.442 31.98 359.442 33.18V33.2C359.442 35.26 360.942 36.38 364.182 36.38C367.902 36.38 370.202 34.84 371.162 32.86ZM364.862 34.58C362.822 34.58 362.082 33.96 362.082 33V32.98C362.082 32.4 362.322 31.98 362.882 31.64C363.582 31.2 364.802 30.96 367.422 30.82C369.742 30.68 370.722 30.4 371.102 29.88V30.36C371.102 32.36 368.642 34.58 364.862 34.58ZM376.704 36H379.204V20.84H376.704V36ZM393.428 32.86L393.668 36H395.708V28.48C395.708 25.44 393.608 24.14 389.208 24.14C384.788 24.14 382.348 25.54 381.968 28.64H384.528C384.768 26.82 386.048 25.98 389.408 25.98C392.408 25.98 393.328 26.98 393.328 27.92V27.94C393.328 28.92 392.408 29.1 389.468 29.28C385.808 29.5 384.428 29.82 383.327 30.46C382.228 31.06 381.708 31.98 381.708 33.18V33.2C381.708 35.26 383.208 36.38 386.448 36.38C390.168 36.38 392.468 34.84 393.428 32.86ZM387.128 34.58C385.088 34.58 384.348 33.96 384.348 33V32.98C384.348 32.4 384.588 31.98 385.148 31.64C385.848 31.2 387.068 30.96 389.688 30.82C392.008 30.68 392.988 30.4 393.368 29.88V30.36C393.368 32.36 390.908 34.58 387.128 34.58ZM410.909 33.54L411.109 36H413.249V20.84H410.809V26.8C409.769 25.08 407.769 24.16 405.249 24.16C401.109 24.16 398.329 26.4 398.329 30.36C398.329 34.52 401.169 36.34 405.189 36.34C408.049 36.34 409.989 35.34 410.909 33.54ZM405.869 34.32C402.529 34.32 400.849 33.06 400.849 30.36C400.849 27.66 402.669 26.16 405.849 26.16C408.909 26.16 410.949 27.66 410.949 30.32C410.949 32.9 409.109 34.32 405.869 34.32Z" fill="#DBF1C1"/>
<path d="M170 121L113 121" stroke="#53A626" stroke-width="1.0651" stroke-dasharray="5.33 5.33"/>
<path d="M172.065 186.203V55.7974L284.943 121L172.065 186.203Z" stroke="#53A626" stroke-width="2.1302"/>
<path d="M184.96 126H189.064C192.436 126 194.26 124.764 194.26 121.8V121.74C194.26 118.74 192.448 117.444 188.944 117.444H184.96V126ZM188.86 119.184C191.296 119.184 192.208 119.88 192.208 121.728V121.764C192.208 123.6 191.332 124.248 188.956 124.248H186.952V119.184H188.86ZM203.388 126H205.896L201.936 121.44L205.608 117.444H203.076L200.676 120.276L198.264 117.444H195.756L199.356 121.452L195.252 126H197.832L200.652 122.748L203.388 126ZM215.984 127.632L214.592 125.748C216.092 125.1 217.028 123.792 217.028 121.824V121.74C217.028 118.836 214.844 117.228 211.892 117.228C208.94 117.228 206.792 118.884 206.792 121.752V121.812C206.792 124.884 208.832 126.24 211.904 126.24C212.132 126.24 212.36 126.228 212.576 126.216L213.512 127.632H215.984ZM211.892 124.416C209.996 124.416 208.868 123.588 208.868 121.8V121.788C208.868 119.844 209.996 119.04 211.904 119.04C213.788 119.04 214.952 119.784 214.952 121.8V121.812C214.952 123.744 213.788 124.416 211.892 124.416ZM224.04 126.228C227.22 126.228 229.008 125.52 229.008 123.696C229.008 122.532 228.216 121.956 227.076 121.692C228.084 121.416 228.744 120.84 228.744 119.868C228.744 118.104 227.088 117.24 224.1 117.24C221.172 117.24 219.504 118.176 219.504 119.856C219.504 120.864 220.116 121.44 221.136 121.716C219.972 122.016 219.144 122.664 219.144 123.768C219.144 125.736 220.932 126.228 224.04 126.228ZM223.824 121.02C222.228 121.02 221.508 120.732 221.508 120.036C221.508 119.328 222.204 118.884 224.112 118.884C226.02 118.884 226.752 119.34 226.752 120.012C226.752 120.72 225.948 121.02 224.34 121.02H223.824ZM224.076 124.512C221.856 124.512 221.256 124.116 221.256 123.456C221.256 122.712 222.108 122.412 223.74 122.412H224.448C226.188 122.412 226.968 122.724 226.968 123.456C226.968 124.08 226.296 124.512 224.076 124.512Z" fill="#B2D530"/>
<g clip-path="url(#clip0)">
<path fill-rule="evenodd" clip-rule="evenodd" d="M236.014 115V126.993H237V115H236.014Z" fill="#B2D530"/>
<path fill-rule="evenodd" clip-rule="evenodd" d="M235 121V121.984H238V121H235Z" fill="#B2D530"/>
<path d="M237 115.5C237.193 115.042 237.85 114.337 238.276 114.103C238.68 113.881 239.095 113.691 239.492 113.591C239.977 113.468 241 113.505 241 113.505" stroke="#B2D530"/>
<path d="M236 115.5C235.821 115.02 235.085 114.283 234.757 114.083C234.365 113.845 233.929 113.691 233.528 113.591C233.035 113.468 232 113.505 232 113.505" stroke="#B2D530"/>
<path d="M237 126.5C237.193 126.958 237.85 127.663 238.276 127.897C238.68 128.119 239.095 128.309 239.492 128.409C239.977 128.532 241 128.495 241 128.495" stroke="#B2D530"/>
<path d="M236 126.5C235.821 126.98 235.085 127.717 234.757 127.917C234.365 128.155 233.929 128.309 233.528 128.409C233.035 128.532 232 128.495 232 128.495" stroke="#B2D530"/>
</g>
<path d="M42.4531 118.07C42.2188 118.305 42.2422 118.656 42.4531 118.891L45.2891 121.562H38.5625C38.2344 121.562 38 121.82 38 122.125V122.875C38 123.203 38.2344 123.438 38.5625 123.438H45.2891L42.4531 126.133C42.2422 126.367 42.2422 126.719 42.4531 126.953L42.9688 127.469C43.2031 127.68 43.5547 127.68 43.7656 127.469L48.3359 122.898C48.5469 122.688 48.5469 122.336 48.3359 122.102L43.7656 117.555C43.5547 117.344 43.2031 117.344 42.9688 117.555L42.4531 118.07Z" fill="#B2D530"/>
<defs>
<clipPath id="clip0">
<rect width="9" height="16" fill="white" transform="translate(232 113)"/>
</clipPath>
</defs>
</svg>
