<svg width="116" height="134" viewBox="0 0 116 134" fill="none" xmlns="http://www.w3.org/2000/svg">
<path d="M1.0651 132.203V1.79743L113.943 67L1.0651 132.203Z" stroke="#53A626" stroke-width="2.1302"/>
<path d="M13.96 72H18.064C21.436 72 23.26 70.764 23.26 67.8V67.74C23.26 64.74 21.448 63.444 17.944 63.444H13.96V72ZM17.86 65.184C20.296 65.184 21.208 65.88 21.208 67.728V67.764C21.208 69.6 20.332 70.248 17.956 70.248H15.952V65.184H17.86ZM32.3879 72H34.8959L30.9359 67.44L34.6079 63.444H32.0759L29.6759 66.276L27.2639 63.444H24.7559L28.3559 67.452L24.2519 72H26.8319L29.6519 68.748L32.3879 72ZM44.9836 73.632L43.5916 71.748C45.0916 71.1 46.0276 69.792 46.0276 67.824V67.74C46.0276 64.836 43.8436 63.228 40.8916 63.228C37.9396 63.228 35.7916 64.884 35.7916 67.752V67.812C35.7916 70.884 37.8316 72.24 40.9036 72.24C41.1316 72.24 41.3596 72.228 41.5756 72.216L42.5116 73.632H44.9836ZM40.8916 70.416C38.9956 70.416 37.8676 69.588 37.8676 67.8V67.788C37.8676 65.844 38.9956 65.04 40.9036 65.04C42.7876 65.04 43.9516 65.784 43.9516 67.8V67.812C43.9516 69.744 42.7876 70.416 40.8916 70.416ZM53.0399 72.228C56.2199 72.228 58.0079 71.52 58.0079 69.696C58.0079 68.532 57.2159 67.956 56.0759 67.692C57.0839 67.416 57.7439 66.84 57.7439 65.868C57.7439 64.104 56.0879 63.24 53.0999 63.24C50.1719 63.24 48.5039 64.176 48.5039 65.856C48.5039 66.864 49.1159 67.44 50.1359 67.716C48.9719 68.016 48.1439 68.664 48.1439 69.768C48.1439 71.736 49.9319 72.228 53.0399 72.228ZM52.8239 67.02C51.2279 67.02 50.5079 66.732 50.5079 66.036C50.5079 65.328 51.2039 64.884 53.1119 64.884C55.0199 64.884 55.7519 65.34 55.7519 66.012C55.7519 66.72 54.9479 67.02 53.3399 67.02H52.8239ZM53.0759 70.512C50.8559 70.512 50.2559 70.116 50.2559 69.456C50.2559 68.712 51.1079 68.412 52.7399 68.412H53.4479C55.1879 68.412 55.9679 68.724 55.9679 69.456C55.9679 70.08 55.2959 70.512 53.0759 70.512Z" fill="#B2D530"/>
<g clip-path="url(#clip0)">
<path fill-rule="evenodd" clip-rule="evenodd" d="M65.0137 61V72.993H65.9997V61H65.0137Z" fill="#B2D530"/>
<path fill-rule="evenodd" clip-rule="evenodd" d="M64 67V67.984H67V67H64Z" fill="#B2D530"/>
<path d="M66 61.5C66.1926 61.0421 66.8498 60.3369 67.2764 60.1034C67.68 59.8808 68.0951 59.6913 68.4918 59.5914C68.9772 59.4678 70 59.5054 70 59.5054" stroke="#B2D530"/>
<path d="M65 61.5C64.8214 61.0196 64.0849 60.2831 63.7569 60.0827C63.3648 59.8448 62.9294 59.6911 62.5279 59.5914C62.0353 59.4678 61 59.5054 61 59.5054" stroke="#B2D530"/>
<path d="M66 72.5C66.1926 72.9579 66.8498 73.6631 67.2764 73.8966C67.68 74.1192 68.0951 74.3087 68.4918 74.4086C68.9772 74.5322 70 74.4946 70 74.4946" stroke="#B2D530"/>
<path d="M65 72.5C64.8214 72.9804 64.0849 73.7169 63.7569 73.9173C63.3648 74.1552 62.9294 74.3089 62.5279 74.4086C62.0353 74.5322 61 74.4946 61 74.4946" stroke="#B2D530"/>
</g>
<defs>
<clipPath id="clip0">
<rect width="9" height="16" fill="white" transform="translate(61 59)"/>
</clipPath>
</defs>
</svg>
