<?xml version="1.0" encoding="UTF-8"?>
<svg width="14px" height="568px" viewBox="0 0 14 568" version="1.1" xmlns="http://www.w3.org/2000/svg" xmlns:xlink="http://www.w3.org/1999/xlink">
    <!-- Generator: Sketch 52.5 (67469) - http://www.bohemiancoding.com/sketch -->
    <title>Lettuce 2</title>
    <desc>Created with Sketch.</desc>
    <g id="Lettuce-2" stroke="none" stroke-width="1" fill="none" fill-rule="evenodd">
        <polygon id="L1" fill-opacity="0" fill="#D8D8D8" transform="translate(7.000000, 560.000000) scale(-1, 1) translate(-7.000000, -560.000000) " points="0.0106682923 552 0 552.00528 0 567.99472 0.00960146308 568 14 560.00528 14 559.99472"></polygon>
        <polygon id="L2" fill-opacity="0" fill="#D8D8D8" transform="translate(7.000000, 544.000000) scale(-1, 1) translate(-7.000000, -544.000000) " points="0.0106682923 536 0 536.00528 0 551.99472 0.00960146308 552 14 544.00528 14 543.99472"></polygon>
        <polygon id="L3" fill-opacity="0" fill="#D8D8D8" transform="translate(7.000000, 528.000000) scale(-1, 1) translate(-7.000000, -528.000000) " points="0.0106682923 520 0 520.00528 0 535.99472 0.00960146308 536 14 528.00528 14 527.99472"></polygon>
        <polygon id="L4" fill-opacity="0" fill="#D8D8D8" transform="translate(7.000000, 512.000000) scale(-1, 1) translate(-7.000000, -512.000000) " points="0.0106682923 504 0 504.00528 0 519.99472 0.00960146308 520 14 512.00528 14 511.99472"></polygon>
        <polygon id="L5" fill-opacity="0" fill="#D8D8D8" transform="translate(7.000000, 496.000000) scale(-1, 1) translate(-7.000000, -496.000000) " points="0.0106682923 488 0 488.00528 0 503.99472 0.00960146308 504 14 496.00528 14 495.99472"></polygon>
        <polygon id="L6" fill-opacity="0" fill="#D8D8D8" transform="translate(7.000000, 480.000000) scale(-1, 1) translate(-7.000000, -480.000000) " points="0.0106682923 472 0 472.00528 0 487.99472 0.00960146308 488 14 480.00528 14 479.99472"></polygon>
        <polygon id="L7" fill-opacity="0" fill="#D8D8D8" transform="translate(7.000000, 464.000000) scale(-1, 1) translate(-7.000000, -464.000000) " points="0.0106682923 456 0 456.00528 0 471.99472 0.00960146308 472 14 464.00528 14 463.99472"></polygon>
        <polygon id="L8" fill-opacity="0" fill="#D8D8D8" transform="translate(7.000000, 448.000000) scale(-1, 1) translate(-7.000000, -448.000000) " points="0.0106682923 440 0 440.00528 0 455.99472 0.00960146308 456 14 448.00528 14 447.99472"></polygon>
        <polygon id="L9" fill-opacity="0" fill="#D8D8D8" transform="translate(7.000000, 432.000000) scale(-1, 1) translate(-7.000000, -432.000000) " points="0.0106682923 424 0 424.00528 0 439.99472 0.00960146308 440 14 432.00528 14 431.99472"></polygon>
        <polygon id="L10" fill-opacity="0" fill="#D8D8D8" transform="translate(7.000000, 416.000000) scale(-1, 1) translate(-7.000000, -416.000000) " points="0.0106682923 408 0 408.00528 0 423.99472 0.00960146308 424 14 416.00528 14 415.99472"></polygon>
        <polygon id="L11" fill-opacity="0" fill="#D8D8D8" transform="translate(7.000000, 400.000000) scale(-1, 1) translate(-7.000000, -400.000000) " points="0.0106682923 392 0 392.00528 0 407.99472 0.00960146308 408 14 400.00528 14 399.99472"></polygon>
        <polygon id="L12" fill-opacity="0" fill="#D8D8D8" transform="translate(7.000000, 384.000000) scale(-1, 1) translate(-7.000000, -384.000000) " points="0.0106682923 376 0 376.00528 0 391.99472 0.00960146308 392 14 384.00528 14 383.99472"></polygon>
        <polygon id="L13" fill-opacity="0" fill="#D8D8D8" transform="translate(7.000000, 368.000000) scale(-1, 1) translate(-7.000000, -368.000000) " points="0.0106682923 360 0 360.00528 0 375.99472 0.00960146308 376 14 368.00528 14 367.99472"></polygon>
        <polygon id="L14" fill-opacity="0" fill="#D8D8D8" transform="translate(7.000000, 352.000000) scale(-1, 1) translate(-7.000000, -352.000000) " points="0.0106682923 344 0 344.00528 0 359.99472 0.00960146308 360 14 352.00528 14 351.99472"></polygon>
        <polygon id="L15" fill-opacity="0" fill="#D8D8D8" transform="translate(7.000000, 336.000000) scale(-1, 1) translate(-7.000000, -336.000000) " points="0.0106682923 328 0 328.00528 0 343.99472 0.00960146308 344 14 336.00528 14 335.99472"></polygon>
        <polygon id="L16" fill-opacity="0" fill="#D8D8D8" transform="translate(7.000000, 320.000000) scale(-1, 1) translate(-7.000000, -320.000000) " points="0.0106682923 312 0 312.00528 0 327.99472 0.00960146308 328 14 320.00528 14 319.99472"></polygon>
        <polygon id="L17" fill="#53A626" transform="translate(7.000000, 304.000000) scale(-1, 1) translate(-7.000000, -304.000000) " points="0.0106682923 296 0 296.00528 0 311.99472 0.00960146308 312 14 304.00528 14 303.99472"></polygon>
        <polygon id="L18" fill="#53A626" transform="translate(7.000000, 288.000000) scale(-1, 1) translate(-7.000000, -288.000000) " points="0.0106682923 280 0 280.00528 0 295.99472 0.00960146308 296 14 288.00528 14 287.99472"></polygon>
        <polygon id="L19" fill="#53A626" transform="translate(7.000000, 272.000000) scale(-1, 1) translate(-7.000000, -272.000000) " points="0.0106682923 264 0 264.00528 0 279.99472 0.00960146308 280 14 272.00528 14 271.99472"></polygon>
        <polygon id="L20" fill="#B2D530" transform="translate(7.000000, 256.000000) scale(-1, 1) translate(-7.000000, -256.000000) " points="0.0106682923 248 0 248.00528 0 263.99472 0.00960146308 264 14 256.00528 14 255.99472"></polygon>
        <polygon id="L21" fill="#B2D530" transform="translate(7.000000, 240.000000) scale(-1, 1) translate(-7.000000, -240.000000) " points="0.0106682923 232 0 232.00528 0 247.99472 0.00960146308 248 14 240.00528 14 239.99472"></polygon>
        <polygon id="L22" fill="#B2D530" transform="translate(7.000000, 224.000000) scale(-1, 1) translate(-7.000000, -224.000000) " points="0.0106682923 216 0 216.00528 0 231.99472 0.00960146308 232 14 224.00528 14 223.99472"></polygon>
        <polygon id="L23" fill-opacity="0" fill="#D8D8D8" transform="translate(7.000000, 208.000000) scale(-1, 1) translate(-7.000000, -208.000000) " points="0.0106682923 200 0 200.00528 0 215.99472 0.00960146308 216 14 208.00528 14 207.99472"></polygon>
        <polygon id="L24" fill-opacity="0" fill="#D8D8D8" transform="translate(7.000000, 192.000000) scale(-1, 1) translate(-7.000000, -192.000000) " points="0.0106682923 184 0 184.00528 0 199.99472 0.00960146308 200 14 192.00528 14 191.99472"></polygon>
        <polygon id="L25" fill-opacity="0" fill="#D8D8D8" transform="translate(7.000000, 176.000000) scale(-1, 1) translate(-7.000000, -176.000000) " points="0.0106682923 168 0 168.00528 0 183.99472 0.00960146308 184 14 176.00528 14 175.99472"></polygon>
        <polygon id="L26" fill-opacity="0" fill="#D8D8D8" transform="translate(7.000000, 160.000000) scale(-1, 1) translate(-7.000000, -160.000000) " points="0.0106682923 152 0 152.00528 0 167.99472 0.00960146308 168 14 160.00528 14 159.99472"></polygon>
        <polygon id="L27" fill-opacity="0" fill="#D8D8D8" transform="translate(7.000000, 144.000000) scale(-1, 1) translate(-7.000000, -144.000000) " points="0.0106682923 136 0 136.00528 0 151.99472 0.00960146308 152 14 144.00528 14 143.99472"></polygon>
        <polygon id="L28" fill-opacity="0" fill="#D8D8D8" transform="translate(7.000000, 128.000000) scale(-1, 1) translate(-7.000000, -128.000000) " points="0.0106682923 120 0 120.00528 0 135.99472 0.00960146308 136 14 128.00528 14 127.99472"></polygon>
        <polygon id="L29" fill-opacity="0" fill="#D8D8D8" transform="translate(7.000000, 112.000000) scale(-1, 1) translate(-7.000000, -112.000000) " points="0.0106682923 104 0 104.00528 0 119.99472 0.00960146308 120 14 112.00528 14 111.99472"></polygon>
        <polygon id="L30" fill-opacity="0" fill="#D8D8D8" transform="translate(7.000000, 96.000000) scale(-1, 1) translate(-7.000000, -96.000000) " points="0.0106682923 88 0 88.0052798 0 103.99472 0.00960146308 104 14 96.0052798 14 95.9947202"></polygon>
        <polygon id="L31" fill-opacity="0" fill="#D8D8D8" transform="translate(7.000000, 80.000000) scale(-1, 1) translate(-7.000000, -80.000000) " points="0.0106682923 72 0 72.0052798 0 87.9947202 0.00960146308 88 14 80.0052798 14 79.9947202"></polygon>
        <polygon id="L32" fill-opacity="0" fill="#D8D8D8" transform="translate(7.000000, 64.000000) scale(-1, 1) translate(-7.000000, -64.000000) " points="0.0106682923 56 0 56.0052798 0 71.9947202 0.00960146308 72 14 64.0052798 14 63.9947202"></polygon>
        <polygon id="L33" fill-opacity="0" fill="#D8D8D8" transform="translate(7.000000, 48.000000) scale(-1, 1) translate(-7.000000, -48.000000) " points="0.0106682923 40 0 40.0052798 0 55.9947202 0.00960146308 56 14 48.0052798 14 47.9947202"></polygon>
        <polygon id="L34" fill-opacity="0" fill="#D8D8D8" transform="translate(7.000000, 32.000000) scale(-1, 1) translate(-7.000000, -32.000000) " points="0.0106682923 24 0 24.0052798 0 39.9947202 0.00960146308 40 14 32.0052798 14 31.9947202"></polygon>
        <polygon id="L35" fill-opacity="0" fill="#D8D8D8" transform="translate(7.000000, 16.000000) scale(-1, 1) translate(-7.000000, -16.000000) " points="0.0106682923 8 0 8.00527983 0 23.9947202 0.00960146308 24 14 16.0052798 14 15.9947202"></polygon>
        <polygon id="R2" fill-opacity="0" fill="#D8D8D8" transform="translate(7.000000, 552.000000) scale(-1, 1) translate(-7.000000, -552.000000) " points="14 560 14 544 0 552.000528"></polygon>
        <polygon id="R3" fill-opacity="0" fill="#D8D8D8" transform="translate(7.000000, 536.000000) scale(-1, 1) translate(-7.000000, -536.000000) " points="14 544 14 528 0 536.000528"></polygon>
        <polygon id="R4" fill-opacity="0" fill="#D8D8D8" transform="translate(7.000000, 520.000000) scale(-1, 1) translate(-7.000000, -520.000000) " points="14 528 14 512 0 520.000528"></polygon>
        <polygon id="R5" fill-opacity="0" fill="#D8D8D8" transform="translate(7.000000, 504.000000) scale(-1, 1) translate(-7.000000, -504.000000) " points="14 512 14 496 0 504.000528"></polygon>
        <polygon id="R6" fill-opacity="0" fill="#D8D8D8" transform="translate(7.000000, 488.000000) scale(-1, 1) translate(-7.000000, -488.000000) " points="14 496 14 480 0 488.000528"></polygon>
        <polygon id="R7" fill-opacity="0" fill="#D8D8D8" transform="translate(7.000000, 472.000000) scale(-1, 1) translate(-7.000000, -472.000000) " points="14 480 14 464 0 472.000528"></polygon>
        <polygon id="R8" fill-opacity="0" fill="#D8D8D8" transform="translate(7.000000, 456.000000) scale(-1, 1) translate(-7.000000, -456.000000) " points="14 464 14 448 0 456.000528"></polygon>
        <polygon id="R9" fill-opacity="0" fill="#D8D8D8" transform="translate(7.000000, 440.000000) scale(-1, 1) translate(-7.000000, -440.000000) " points="14 448 14 432 0 440.000528"></polygon>
        <polygon id="R10" fill-opacity="0" fill="#D8D8D8" transform="translate(7.000000, 424.000000) scale(-1, 1) translate(-7.000000, -424.000000) " points="14 432 14 416 0 424.000528"></polygon>
        <polygon id="R11" fill-opacity="0" fill="#D8D8D8" transform="translate(7.000000, 408.000000) scale(-1, 1) translate(-7.000000, -408.000000) " points="14 416 14 400 0 408.000528"></polygon>
        <polygon id="R12" fill-opacity="0" fill="#D8D8D8" transform="translate(7.000000, 392.000000) scale(-1, 1) translate(-7.000000, -392.000000) " points="14 400 14 384 0 392.000528"></polygon>
        <polygon id="R13" fill-opacity="0" fill="#D8D8D8" transform="translate(7.000000, 376.000000) scale(-1, 1) translate(-7.000000, -376.000000) " points="14 384 14 368 0 376.000528"></polygon>
        <polygon id="R14" fill-opacity="0" fill="#D8D8D8" transform="translate(7.000000, 360.000000) scale(-1, 1) translate(-7.000000, -360.000000) " points="14 368 14 352 0 360.000528"></polygon>
        <polygon id="R15" fill-opacity="0" fill="#D8D8D8" transform="translate(7.000000, 344.000000) scale(-1, 1) translate(-7.000000, -344.000000) " points="14 352 14 336 0 344.000528"></polygon>
        <polygon id="R16" fill-opacity="0" fill="#D8D8D8" transform="translate(7.000000, 328.000000) scale(-1, 1) translate(-7.000000, -328.000000) " points="14 336 14 320 0 328.000528"></polygon>
        <polygon id="R17" fill-opacity="0" fill="#D8D8D8" transform="translate(7.000000, 312.000000) scale(-1, 1) translate(-7.000000, -312.000000) " points="14 320 14 304 0 312.000528"></polygon>
        <polygon id="R18" fill-opacity="0" fill="#D8D8D8" transform="translate(7.000000, 296.000000) scale(-1, 1) translate(-7.000000, -296.000000) " points="14 304 14 288 0 296.000528"></polygon>
        <polygon id="R19" fill-opacity="0" fill="#D8D8D8" transform="translate(7.000000, 280.000000) scale(-1, 1) translate(-7.000000, -280.000000) " points="14 288 14 272 0 280.000528"></polygon>
        <polygon id="R20" fill-opacity="0" fill="#D8D8D8" transform="translate(7.000000, 264.000000) scale(-1, 1) translate(-7.000000, -264.000000) " points="14 272 14 256 0 264.000528"></polygon>
        <polygon id="R21" fill="#DBF1C1" transform="translate(7.000000, 248.000000) scale(-1, 1) translate(-7.000000, -248.000000) " points="14 256 14 240 0 248.000528"></polygon>
        <polygon id="R22" fill="#B2D530" transform="translate(7.000000, 232.000000) scale(-1, 1) translate(-7.000000, -232.000000) " points="14 240 14 224 0 232.000528"></polygon>
        <polygon id="R23" fill-opacity="0" fill="#D8D8D8" transform="translate(7.000000, 216.000000) scale(-1, 1) translate(-7.000000, -216.000000) " points="14 224 14 208 0 216.000528"></polygon>
        <polygon id="R24" fill-opacity="0" fill="#D8D8D8" transform="translate(7.000000, 200.000000) scale(-1, 1) translate(-7.000000, -200.000000) " points="14 208 14 192 0 200.000528"></polygon>
        <polygon id="R25" fill-opacity="0" fill="#D8D8D8" transform="translate(7.000000, 184.000000) scale(-1, 1) translate(-7.000000, -184.000000) " points="14 192 14 176 0 184.000528"></polygon>
        <polygon id="R26" fill-opacity="0" fill="#D8D8D8" transform="translate(7.000000, 168.000000) scale(-1, 1) translate(-7.000000, -168.000000) " points="14 176 14 160 0 168.000528"></polygon>
        <polygon id="R27" fill-opacity="0" fill="#D8D8D8" transform="translate(7.000000, 152.000000) scale(-1, 1) translate(-7.000000, -152.000000) " points="14 160 14 144 0 152.000528"></polygon>
        <polygon id="R28" fill-opacity="0" fill="#D8D8D8" transform="translate(7.000000, 136.000000) scale(-1, 1) translate(-7.000000, -136.000000) " points="14 144 14 128 0 136.000528"></polygon>
        <polygon id="R29" fill-opacity="0" fill="#D8D8D8" transform="translate(7.000000, 120.000000) scale(-1, 1) translate(-7.000000, -120.000000) " points="14 128 14 112 0 120.000528"></polygon>
        <polygon id="R30" fill-opacity="0" fill="#D8D8D8" transform="translate(7.000000, 104.000000) scale(-1, 1) translate(-7.000000, -104.000000) " points="14 112 14 96 0 104.000528"></polygon>
        <polygon id="R31" fill-opacity="0" fill="#D8D8D8" transform="translate(7.000000, 88.000000) scale(-1, 1) translate(-7.000000, -88.000000) " points="14 96 14 80 0 88.0005283"></polygon>
        <polygon id="R32" fill-opacity="0" fill="#D8D8D8" transform="translate(7.000000, 72.000000) scale(-1, 1) translate(-7.000000, -72.000000) " points="14 80 14 64 0 72.0005283"></polygon>
        <polygon id="R33" fill-opacity="0" fill="#D8D8D8" transform="translate(7.000000, 56.000000) scale(-1, 1) translate(-7.000000, -56.000000) " points="14 64 14 48 0 56.0005283"></polygon>
        <polygon id="R34" fill-opacity="0" fill="#D8D8D8" transform="translate(7.000000, 40.000000) scale(-1, 1) translate(-7.000000, -40.000000) " points="14 48 14 32 0 40.0005283"></polygon>
        <polygon id="R35" fill-opacity="0" fill="#D8D8D8" transform="translate(7.000000, 24.000000) scale(-1, 1) translate(-7.000000, -24.000000) " points="14 32 14 16 0 24.0005283"></polygon>
        <polygon id="R36" fill-opacity="0" fill="#D8D8D8" transform="translate(7.000000, 8.000000) scale(-1, 1) translate(-7.000000, -8.000000) " points="14 16 14 0 0 8.0005283"></polygon>
    </g>
</svg>